<svg xmlns="http://www.w3.org/2000/svg" viewBox="0 0 1632 640"><g fill="none" stroke="#fdf5de" stroke-width="2"><path d="M1184.37 65.13a.49.48-17.3 0 0 .64.33c5.46-2.11 12.24-2.4 16.96 1.3 5.68 4.45 11.91 9.28 18.56 2.56 3.24-3.28 4.81-4.78 3.92-9.26-2-9.96-13.52-14.77-21.28-7.35q-.41.39-1.56 3.28a1.11 1.09-84.7 0 1-.79.67q-3.79.82-6.64 2.66a3 3 40.1 0 1-2.77.23q-4.03-1.73-8.22-.96a.4.4-12.6 0 0-.32.5l1.5 6.04m-22.22-2.38a1.1 1.1 0 0 0 .37 1.26q4.47 3.51 9.63.85a1.58 1.57-28.7 0 0 .64-2.18l-2.72-4.7a1.16 1.15 78.3 0 0-.86-.57c-3.57-.48-5.91 2.02-7.06 5.34m-4.65 2.61.9-3.69a1.74 1.74 0 0 0-1.28-2.1l-2.39-.59a4.2 3.64 13.7 0 0-4.94 2.55 4.2 3.64 13.7 0 0 3.22 4.53l2.39.58a1.74 1.74 0 0 0 2.1-1.28m-26.16 4.57q-.65 1.95-2.05 1.94a.74.73-21.7 0 1-.48-.2l-3.28-3.28a1 1 0 0 0-1.42 0l-.2.19a1.65 1.64-43 0 0-.08 2.23q2.5 2.9 6.22 3.1a2.39 2.37 34.4 0 0 1.09-.2q4-1.75 2.95-6.07a1.02 1.01 83.3 0 0-.97-.77q-2.65-.03-3.61-.68a1.75 1.74-85.6 0 1-.64-.75c-.78-1.67-2.25-4.76-4.14-3.07a1.68 1.46-50.3 0 0 .06 2.57q2.98 1.63 5.75 3.03a1.6 1.6-67.4 0 1 .8 1.96m-94.01 20.86c5.51-.27 14.57-.26 19.69-4.37 2.33-1.87 4.27-2.55 7.82-3.46 2.97-.76 5.82-3.19 9.51-2.18a1.3 1.3 0 0 0 1.63-1.02l.05-.25a1.04 1.03 4.2 0 0-1.06-1.22l-10.93.45a2.8 2.74-62.3 0 0-1.42.46q-3.02 2-5.97 1.34c-5.03-1.12-9.06.63-13.16 3.24a2.6 2.51-67.1 0 1-.77.33l-5.68 1.42a.89.88 89 0 0-.66.69q-.5 2.33.44 4.27a.54.53 74.8 0 0 .51.3m-34.42 7.01q-1.36 2.6-3.75 3.17a1.29 1.29 0 0 1-1.09-2.27q1-.78 2.51-1.09a.38.38 0 0 0-.05-.76q-4.3-.26-6.51 3.35a.83.82-52.4 0 0 .13 1.03c3.6 3.48 8.04 1.27 11.15-1.44a4 4-72.2 0 1 1.69-.87l15-3.74a1.99 1.82-47.5 0 1 .58-.05c3.29.18 7.53-.25 9.85-2.76a1.9 1.9-42.6 0 0 .11-2.42q-2.86-3.66-6.31-1.87c-1.87.96-3.65 3.63-5.61 4.26q-.74.24-4.88 1.27a12.62 11.56-51.9 0 1-1.75.29c-4.33.41-6.7 2.56-10.53 3.48a.84.81 6.2 0 0-.54.42m-40.61 14.24q2.89-2.07 4.74-2.35c2.27-.34 3.49-2.26 6.55-2.1a.31.31 0 0 1 .22.52q-1.16 1.31-1.54 1.43-4.06 1.26-8.01 3.37a.54.54 0 0 0 .01.95l.78.4a2.31 2.3 41.8 0 0 2.36-.13q5.4-3.68 8.58-4.39c3.39-.74 9.57 1.92 11.96-2.54a1.58 1.52-30.8 0 0 .19-.7q.15-3.55 3.47-4.92a.63.62 35.7 0 0-.2-1.2c-2.06-.14-3.14 1.38-5.27 1.52q-4.19.27-10.01 3.55a1.68 1.64-57.1 0 1-.96.22q-1.88-.15-2.39.04l-7.83 2.95q-2.15.81-3.2 2.91a.37.37 0 0 0 .55.47m-670.62 9.06a18 18 0 0 0-7.12-5.55q-3.2-1.51-5.55-4.37a3.66 3.6-2.8 0 0-.84-.75c-3.34-2.1-5.43-3.39-9.05-2.04q-5.84 2.2-7.46 8.18-.41 1.53.69 2.87 2.14 2.58 1.27 6.38a1.7 1.7 0 0 0 1.91 2.07q2.46-.36 5.04.33c4.28 1.13 6.98-1.38 10.89-4.19a2.72 2.47 15.3 0 1 .73-.37l5.24-1.66a1.46 1.44-49.1 0 1 .65-.05l2.87.44a.79.79 0 0 0 .73-1.29m661.37-7.35 4.54-1.13a.46.46 0 0 0 .1-.85l-.93-.49a1.67 1.66-42.5 0 0-1.41-.06q-2.79 1.19-3.85.96c-5.61-1.24-9.97-1.55-13.08 4.1q-1.16 2.08-2.47 3.78a.7.7 0 0 0 .11.99q2.26 1.87.73 4.72a1 1 0 0 1-.75.55q-1.71.3-3.67-.55a.8.8 0 0 0-.9.23l-2.18 2.74a1.9 1.76-81.6 0 1-.65.52q-2.52 1.25-4.38-.25a1.6 1.5 40.9 0 1-.24-2.27q3.44-3.63 7.26-2.57a1 1 0 0 0 .98-.31q.83-1.04.85-1.52a.8.8 0 0 0-.96-.83q-7.72 1.41-10.97 6.82a2 2 0 0 0 1.42 3.01l5.6.85a1.4 1.4 0 0 0 1.4-.66q2.06-3.4 6.76-4.45a1.92 1.89-45.3 0 1 .84-.01q2.51.54 5.61 1.77c4.96 1.95 8.65 1.09 12.68-2.26a1.25 1.23 83.2 0 0 .34-.44l1.92-4.08a1.72 1.67-39.4 0 0 .12-1.07c-.46-2.02-.41-2.7 1.54-4.16q1.79-1.34 2.29-3.14a.57.57 0 0 0-.98-.52q-2.1 2.47-4.65 3.88c-1.99 1.09-.58 3.27-1.61 4.89-2.05 3.21-5.63 6.39-9.53 4.36q-2.98-1.55-5.02-4.18a2.6 2.59-49.5 0 1-.22-2.85c2.51-4.53 5.99-7.35 11.36-4.28q.37.22 1.01.16.35-.03.4-.71a.79.78-4.8 0 1 .59-.69m-633.06 9.57q-.18-1.32.8-2.66a.67.67 0 0 0-.82-1q-.57.26-1.53 1.15a.3.29 33.1 0 1-.3.06l-4.15-1.42a1.1 1.05-36.8 0 0-.5-.06l-6.52.81a1.21 1.19-75.3 0 0-.79.47q-1.36 1.8-3.47.98a3.4 2.83-82.2 0 1-1.85-2.96q-.05-1.73-1.1-2.94a1.98 1.98 0 0 0-3.26.38l-2.02 3.86a1.21 1.19 52.3 0 0-.1.82l.53 2.1a.85.84-22.1 0 1-.4.93l-2.34 1.35a.41.41-58.6 0 0 .18.76c2.8.13 4.84-1.64 7.38-1.55q4.33.17 5.12.56 5.98 2.97 13.1 2.6a.48.47-38.4 0 0 .11-.93q-2.89-.84-7.42-.85a1.5 1.49-71.8 0 1-1.2-2.38q1.68-2.32 5.62-1.65a1.94 1.87-20.6 0 1 .81.35q1.79 1.29 3.55 1.72a.46.46 0 0 0 .57-.5m19.6 3.84q-7-.58-16.06-3.37a.56.56 0 0 0-.54.95c2.36 2.18 5.2 4 8.76 4.48q1.66.23 17.04 3.07c3.74.7 5.37 2.43 7.54 5.19a3.3 3.3 0 0 0 4.04.91c4.05-2.02 7.41-3.33 11.1.23q1.75 1.68 2.87 2.51a1.51 1.47-27.9 0 0 .92.27q3.55-.19 8.42-1.49.62-.16 4.31.18a1.03 1.02 78.5 0 1 .81.54q.93 1.74 4.08 3.72a1.66 1.66 0 0 0 2.06-.23l3.71-3.71a1.84 1.83 59.4 0 0 .46-1.82c-.82-2.73-2.85-4.81-5.06-6.22-1.51-.97-3.9-.87-4.7 1.3q-.36.99-1.46 2.65a.5.5 0 0 1-.79.03l-3.6-4.52a3.71 3.69-21.4 0 0-3.18-1.38l-6.36.48a1.21 1.1-59.1 0 0-.46.14q-1.17.61-1.69 1.95a1.35 1.35 0 0 1-2.24.44c-1.67-1.79-4.57-7.89-8.57-8.03q-5.66-.21-12.2 1.33a3.11 2.98-46.3 0 1-1.12.05q-5.14-.78-8.18-4.12a1 1 0 0 0-1.36-.11l-.31.25a.45.45 0 0 0 .03.73q2.3 1.49 2.35 3a.6.6 0 0 1-.62.6m564.6 8.58q3.2-4.35 8.37-5.51a1.57 1.34 38.3 0 1 .54-.02l2.98.45a1.3 1.3 0 0 0 1.31-.63l.46-.79a.5.5 0 0 0-.32-.74q-10.57-2.39-14.55 6.54a.7.7 0 0 0 1.21.7m6.03 4.98a.72.72 0 0 0 .23 1.42q6.46-.33 9.27-6.63a1.86 1.86 0 0 0-.84-2.41l-.38-.2a.88.87-68.9 0 0-1.25.56q-1.45 5.7-7.03 7.26m-393.26 17.96v.17a.95.94-1.8 0 1-.76.8q-.76.14-1.3-.51-.64-.76.07-1.33.77-.61 1.61-.76a.78.78 0 0 0-.07-1.54q-.42-.03-1 .25-2 .96-4.58 1.81c-3.12 1.03-7.51-1.1-10.11-2.72a1.62 1.5-24.8 0 0-.71-.23q-1.7-.15-2.91.49a.8.8 61.3 0 1-1.08-.32l-5.79-10.03a2.4 2.4 0 0 0-1.98-1.17q-5.76-.13-9.7 2.87a2.9 2.74-2.2 0 0-.54.55q-1.44 1.9-3.03 2.91a1.23 1.2-10.3 0 0-.53.75c-.28 1.17.3 3.19-.3 3.62q-.62.44-1.85.29a.34.34 0 0 0-.29.56c2.05 2.35 4.16 6.68 6.52 8.23 5.79 3.8 12.84-.94 16.61-5.76a1.07 1.06 18.1 0 1 .82-.41q5.28-.11 9.35 2.58.73.47 4.18.32a2.97 2.95 51.5 0 1 1.02.12q1.25.38 2.88 1.82a2.01 1.98-17.9 0 0 .93.47q1.22.24 3.3-.59 1.35-.55 1.16-1.75-.23-1.49-1.27-1.93a.47.47 0 0 0-.65.44m378.42-14.44q-8.33 3.9-15.94 9.24-3.48 2.44-7.45 4.37a.56.56 0 0 0-.24.77l.01.02a.7.7-25.1 0 0 .86.31q5.98-2.35 9.71-5.73a5.34 4.57 4.4 0 1 .74-.54c3.64-2.09 7.78-5.11 12.99-7.35a.54.53-26.8 0 0 .25-.75l-.03-.05a.7.7 0 0 0-.9-.29M870.89 148q-1.03.26-1.48 1.39a.34.34 0 0 0 .43.44q1.27-.45 1.56-1.27a.43.43 0 0 0-.51-.56m-349.23 5.86q.83-.08 1.11-.27a.63.63 0 0 0 .18-.85q-.56-.89-1.49-.79t-1.29 1.07a.63.63 0 0 0 .34.8q.31.13 1.15.04m334.52 9.57c.65-2.47 4.41-3.85 7.98-5.64a.5.5 0 0 0 .13-.82l-.18-.18a.48.47-37.8 0 0-.58-.07l-6.56 3.78a3.95 3.94 40.6 0 1-3.43.26l-2.51-.99a1.23 1.03-28.3 0 0-.34-.07c-8.48-.54-10.02 5.36-10.68 12.17a1.54 1.51 33.2 0 0 .2.92l.81 1.41a1.16 1.16 0 0 1-.78 1.72q-1.51.31-2.65 1.3a1.99 1.93 18.4 0 1-.93.45q-4.27.77-7.01 2.9a1.4 1.17-83.7 0 0-.22.21l-2.15 2.45a1.05 1.04-66.1 0 1-.9.35q-4.13-.44-7.13 3.5-.39.5-3.04 4.81a.42.42 0 0 0 .28.64l6.77 1.22a1.05 1.04 39 0 0 .6-.06q1.27-.5 2.33-2.52c1.07-2.04 1.37-4.16 3.14-6.32q2.91-3.54 6.76-4.82a4.41 4.34-69.4 0 0 .84-.39l4.72-2.93a2.01 1.98 32.6 0 1 1.33-.28l7.33 1.11a.76.74-45.9 0 0 .32-.01c3.93-.91 5.24-2.92 8.33-6.37a1.47 1.46-39.2 0 0 .18-1.7l-1.24-2.14a.63.63 0 0 0-1.14.13l-1.02 3.36a.67.64-11.1 0 1-.26.37q-4.02 2.91-5.14 3.19-4.48 1.13-7.25-2.67a1.63 1.61-63.1 0 1-.3-.94c.04-5.62 3.2-10.8 9.78-8.7a.8.79-19.1 0 1 .17.08l2.54 1.64a.6.6 0 0 0 .9-.35m-190.9 35.79-1.05-4.2a.6.59 69.9 0 0-.84-.4q-3.03 1.48-7.52-.02-8.19-2.74-10.62-4.45c-3.83-2.71-3.13-7.15-7.18-9.09q-5.65-2.71-10.41.67c-1.66 1.17-4.03 2.1-5.32.4q-2.1-2.78-4.8-3.68a3.6 3.6-50.8 0 0-2.89.3l-3.88 2.24a3.87 3.83-49.9 0 1-3.22.29l-6.53-2.37a5.27 5.24 78.3 0 1-2.04-1.35c-3.14-3.37-4.91-6.03-8.23-6.83-2.59-.63-3.61 1.05-4.33 3.22a.97.96-88.7 0 1-.65.63q-2.08.59-3.06-1.52a.82.8 77.2 0 0-.73-.47h-3.26a2.36 2.3-28.9 0 1-1.2-.33q-5.44-3.25-6.69-3.65-4.44-1.4-7.93-2.7c-2.5-.93-4.17-.82-6.51-.31a1.57 1.56-16.6 0 1-1.8-.97c-1.27-3.31-2.42-7.43-6.61-5.7q-2.02.83-4.21.85c-3.16.01-6.79 1.97-5.45 5.79a1.01.99-5.3 0 0 .8.65q.35.06 3.16 1.02a1.63 1.5 28.1 0 1 .84 2.41q-.24.3-1.59.08-.66-.1-2.3-.76a1.02 1.02 0 0 0-1.26 1.47c1.86 3.15 4.45 1.5 6.75.04a2 1.97 26.9 0 1 .94-.3l5.94-.24a6 6 59.6 0 1 3.43.9q4.36 2.69 5.89 3 4.16.84 8.36 1.75 1.3.28 2.19-.61a1.06.99 23.7 0 0-.74-1.7q-2.53-.23-4.26-1.23c-1.42-.84-2.29-.62-3.91-.28a1.69 1.64 52.5 0 1-1.15-.17q-1.45-.8-2.67-2.56a1 1 0 0 1 .61-1.54c2.53-.53 4.74 1.62 7.04 1.94 1.98.27 4.16 1.04 5.36 1.87q1.88 1.3 6.88 5.64a2.6 2.52-16.7 0 0 1.06.55q1.03.27 2.32-.11c2.66-.78 5.02 1.33 6.29 3.58a2.3 2.3-15.9 0 0 2.1 1.17c4.14-.17 7.16-.06 11.42 1.53q2.54.94 4.92 1.11c4.08.28 3.13 3.56 2.33 6.16a.87.86-73.6 0 0 .59 1.09q5.3 1.5 10.32 1.27c4.08-.19 4.22 6.71 8.04 7.98 3.21 1.07 6.43 1.54 9.53-.48 2.84-1.85 5.5-6.07 9.51-3.28q1.38.96 2.69 1.12 3.36.43 5.13 3.52c1.03 1.8 1.84 2.54 3.4 4.38a.7.7 0 0 0 .95.15q1.42-.91 1.37-1.9a.83.82-16.1 0 1 .42-.75q2.03-1.13 4.12-4.06a.95.94-34.8 0 0 .14-.76m4.52 7.7 2.2-3.81a1.23 1.22 30.8 0 1 1.71-.43q8.48 5.29 19.4 9.01a.71.7-5.6 0 0 .84-1.02l-1.1-1.92a3.12 3.11 78.7 0 0-2.29-1.53c-3.29-.44-7.68-1.68-10.89-3.97q-3.54-2.53-6.8-3.75a1.03 1.02-49.4 0 0-.87.07l-6.31 3.64a.61.59-20.3 0 0-.29.6l.83 6.02a3.04 3.01 9.2 0 0 1.67 2.3q2.87 1.41 6.7 1.8c4.87.5 8.95.48 14.21 1.81q3.65.91 6.59 1.11h.01q1.52-.07.77-2.48a1.07 1.07 0 0 0-1.69-.52q-2.69 2.12-4.48.48c-2.95-2.72-7.77-4.24-9.52-6.05a.94.92-28.4 0 0-.9-.26l-7.55 1.88a2.03 2.03-82 0 1-2.24-2.98m185.33 126.72a.53.53 0 0 0 .85-.16q1.23-2.6 2.88-1.92a1 .77 70.6 0 1 .28.18q2.88 2.67 2.55 5.75a.9.9 0 0 0 .55.9q1.4.53 2.6.12a.53.52-40.3 0 0 .08-.96c-1.96-1.06-2.22-3.84-3.76-5.2q-1.53-1.34-3.32-3.18a.86.86 0 0 0-1.05-.14l-2.31 1.33a.9.88-29.9 0 1-1.22-.32l-1.39-2.4a1.72 1.72 0 0 1 1.75-2.56l1.04.16a.85.85 0 0 0 .86-1.27q-1.11-1.91.19-3.76 3.87-5.54.6-10.85-2.92-4.73-3.89-6.16a3 3-21.3 0 0-2.93-1.28q-6.11.96-10.84 2.16-.88.23-3.45 1.95a2.39 2.33-10.9 0 0-.98 1.41c-1.17 4.94.82 8.49 3.02 13.62a1.75 1.69 40.4 0 1 .1 1.02q-.27 1.28-1.18 2.38c-1.39 1.68.32 3.78 1.45 5.38a1.48 1.47-8.7 0 0 .78.57c3.48 1.04 5.96-1.39 8.45-3.97a2.12 2.03-30.4 0 1 3.55.84q.54 2.27 3.15 3.45a1 1 0 0 1 .61.85q.13 1.25.98 2.06m39.33 24.87q.66.73.16 3.74-.16.99.58 1.36.56.28.44 1.73a1.58 1.57 66.6 0 1-.33.84q-2.51 3.27.14 7.36c2.33 3.61 6.94 1.66 9.37-.65a2.33 2.08 52.5 0 0 .21-2.81q-2.65-4.15-6.07-4.94a1.7 1.7 0 0 1-.86-.51c-2.61-2.9-1.92-4.62-3.07-7.51a2.39 2.35 7.9 0 0-.81-1.05c-3.42-2.58-5.47-4.71-8.04-5.1a.7.7 0 0 0-.82.61v.03a.9.89 12.2 0 0 .63.97q1.9.59 2.92 2.24a1.28 1.27 79.6 0 0 .82.57q2.36.47 4.73 3.12M588.9 368.55a.82.82 0 0 0-.88-1.05q-4.46.49-6.53 5.2a1.53 1.53 0 0 1-2.51.44q-2.28-2.42-5.49-3.29a2.01 1.97-14.3 0 1-.88-.51l-1.94-1.94a1.14 1.14 0 0 0-1.92 1.03q.17.83-.03 1.93a1.3 1.3 0 0 1-.51.84q-4.04 3.06-7.04 10.75a1.25 1.24-77.5 0 0 1.08 1.7q2.75.16 3.98 3.58a1.5 1.48-1 0 0 .98.93l5.47 1.65a2.12 2.11-59.2 0 0 2.12-.54q5.01-5.05 6.33-13.13.24-1.52 2.16-3.3a2.18 2.09-10.9 0 0 .53-.75q1.26-2.91 4.4-2.77a.56.55 9.2 0 0 .56-.4l.12-.37m337.86 10.89c-3.34 1.22-2.2 6.32-1.26 8.84.82 2.21 4.93 5.96 6.63 6.62q4.26 1.65 7.38-3.11a2.3 2.3 0 0 0-.1-2.63c-1.39-1.82-3.83-3.74-5.12-5.72-1.69-2.58-4.12-5.24-7.53-4m-367.54 13.4-3.67.21a.2.2 0 0 0-.17.19v.08a1.95 1.94-3.3 0 0 2.06 1.82l.14-.01a1.95 1.94-3.3 0 0 1.84-2.04l-.01-.08a.2.2 0 0 0-.19-.17m-68.27 16.99q-1.34 1.13-4.94 1.12a2.45 2.43 29.3 0 0-1.26.35l-10.94 6.45a1.32 1.17-62.4 0 1-.42.16c-5.43.95-6 5.98-8.77 8.77a2.32 2.3-75.7 0 1-1.05.63q-1.7.51-3.35.32a2 2 65 0 1-1.01-.37l-3.15-2.12a2.26 2.24 50.9 0 0-2.11-.23l-3.63 1.48a1.63 1.52-79.8 0 0-.63.47c-1.33 1.62-2.73 5.34-5.42 3.13a1.57 1.57 0 0 1 .01-2.43q4.18-3.4 9.12-4.5a3.75 3.39-62.8 0 0 .98-.37c3.63-2.02 3.76-7.51 9.87-7.06a2.28 2.06 54.2 0 1 .61.13l3.5 1.28a.98.97-5 0 0 1.18-1.4l-.33-.59a1.3 1.23.8 0 0-.47-.46q-6.08-3.43-11.08 0c-3.52 2.42-5.65 7.42-10.55 8.95q-3.92 1.23-5.46 3.62a1.1 1.1 0 0 1-.88.49c-2.08.04-4.15-1.47-6.38-.92q-4.75 1.17-7.36 5.17a1.41 1.39 40.4 0 0 .15 1.72l.08.08a.8.79-51.6 0 0 1.28-.15q.95-1.67 3.06-3.45 2.68-2.27 6.4-1.16a1.02 1.02 0 0 1 .6 1.48q-.96 1.73-2.79 2.63-2.75 1.36-3.49 1.46a1.51 1.5-86.2 0 0-1.26 1.11l-.33 1.23a.87.87 0 0 0 1.13 1.04l10.32-3.7a1.16 1.13-51.5 0 1 .47-.06q3.41.36 6.25-2.23a1.88 1.84 79.3 0 0 .52-.78c.72-2.07 2.7-4.6 5.08-3.4a1.97 1.87 84.2 0 1 .7.6q1.45 2 2.3 2.25 6.6 1.97 10.15-3.71.49-.77 3.41-5.96a2.06 2.02-3.2 0 1 .62-.68q1.26-.9 2.72-1.17c2.61-.48 4.71-2.53 6.8-3.86q4.37-2.78 8.58-3.86 1.13-.29 1.47-1.29a.19.19 0 0 0-.3-.21m449.51 3.13a4.79 4.26-164.8 0 0 3.5 5.37 4.79 4.26-164.8 0 0 5.74-2.85 4.79 4.26-164.8 0 0-3.5-5.37 4.79 4.26-164.8 0 0-5.74 2.85M243.86 520q-.26-.12-1.62-1.25a1.23 1.22 33.7 0 0-1.87.37l-.64 1.23a.77.77 0 0 0 .41 1.08q2 .75 2.88.56 4.94-1.05 7.63-.51a2.59 2.52 42 0 0 1.24-.05c4.66-1.3 8.89-4.43 8.9-9.73a2 2 0 0 1 .21-.87c1.22-2.37 4.31-2.88 6.88-2.71 4.04.26 6.7-2.38 9.33-5.02a5.96 5.47-81.2 0 1 1-.8l7.74-4.84a1.02.74 9.2 0 1 .2-.1q6.18-2.61 10.77-4.9.82-.41 3.36-.15a.9.9 0 0 1 .75.58q.49 1.36 1.23 2.29a.64.64 0 0 0 1.12-.56q-.18-.76-.95-1.88a1.62 1.61 48 0 1 .1-1.94c3.6-4.34 8.48-5.93 14.73-8.97q2.64-1.28 4.69-1.59c4.29-.67 8.35.75 11.17 1.4 3.65.84 9.22-2.6 11.29-4.96a2.5 2.5 71.5 0 0 .6-1.21c2.48-12.9 19-8.4 26.57-13.25q3.3-2.11 6.11-5.45a1.75 1.75 0 0 1 2.16-.42l4.06 2.12a1.27 1.26 54.9 0 0 .74.13c7.07-.93 11.79-2.55 13.59-9.71a1.78 1.77.5 0 1 1.34-1.31q7.24-1.6 12.69-5.36a.27.27 0 0 0-.24-.48c-6.77 2.23-15.72 5.35-19.76 11.5a1.86 1.85 16.7 0 1-1.55.83h-6.05a1.29 1.23 61.2 0 1-.72-.23q-1.92-1.34-2.05-2.56a1.64 1.58-32.9 0 1 .24-1.03c3.27-5.1 7.53-5.32 12.97-4.7a1.47 1.47 0 0 0 .69-2.83q-4.87-1.87-11.05-.65a3.4 3.33-74.3 0 0-1.84 1.06q-3.42 3.87-4.37 8.06a2 2 0 0 1-1.9 1.55q-4.18.09-7.98-1.48a3 3 0 0 0-2.99.43q-2.46 1.96-3.55 4.15-.67 1.35-1.99 1.96-3.02 1.41-5.29 3.82a3.77 3.5-81.8 0 1-.83.67q-4.87 2.9-9.54 2.54c-2.39-.19-4.56-2.35-6.88-2.72q-2.68-.43-5.44-.41a3.64 3.62 19.2 0 0-2.77 1.33q-3.44 4.22-4.12 9.84a.85.84-3.5 0 1-.64.72l-3.02.75a2.29 2.06-64 0 0-.52.21l-5.34 2.94a1.77 1.21-55.7 0 1-.28.11q-6.4 1.57-7.44 2.16-8.83 5.07-11.72 6.8c-1.79 1.08-4.54.64-6.33 1.37q-2.29.93-5.55 3.87a2.31 2.3-64.7 0 1-1.64.59q-2.35-.09-4.89.76-5.86 1.96-7.87 2.47a4.44 4.28-69.5 0 0-1.51.72q-3 2.23-4.53 6.73-.29.85.09 1.89a1.01.92 4.9 0 1-1.42 1.09q-.99-.48-1.48-1.38a1.78 1.76 84.1 0 0-1.07-.88q-2.21-.63-5.77-2.36c-4.26-2.08-8.26.48-10.98 3.5a2.84 2.69 81.3 0 0-.45.65c-.93 1.9-2.15 3.07-2.85 5.28q-.86 2.74-2.41 5.33a.49.49 0 0 0 .54.72q3.92-1.03 6.67 1.66a.88.88 0 0 1-.99 1.43m848.63-47.72q.06.01.14.11a.33.32-57.6 0 0 .57-.13q.06-.26-.08-.55-.07-.16-.4-.3c-4.2-1.83-9.18-2.01-12.5 1.73a2.11 1.83-41.9 0 1-3.14.06c-.65-1-.21-2.65 1.09-3.19q.65-.27.83-.47a.57.57-48.1 0 0-.04-.81q-1.53-1.34-.61-3.79a1.52 1.51 85.3 0 1 .65-.77c2.51-1.47 4.07.17 6.29 1.48a1.69 1.68 56.8 0 0 1.03.22c2.32-.25 3.82.61 5.73.19q2.08-.46 5.06 1.11a.76.75 84.6 0 0 .94-1.14c-2.7-3.43-7.03-2.33-10.8-1.99a5.66 5.58 49.8 0 1-2.07-.19c-1.67-.49-3.12-1.56-4.84-1.38-3.97.41-2.89 4.65-4.34 6.61-1.53 2.07-1.66 3.9-.16 5.5 2.59 2.77 7.02-1.51 8.76-2.44a2.33 2.31-59.9 0 1 1-.27q4.91-.18 6.64.34a2.03 1.11-2.4 0 0 .25.07m42.79 9.13c-3.77-3.07-8.54-4.92-13.34-5.9a1.14 1.11 64.1 0 1-.25-.09l-11.91-6.22a.62.62 0 0 0-.87.34q-.24.66-.66.89a1.77 1.76-56.9 0 1-.98.21l-1.79-.13a.87.86 14.5 0 0-.84.49q-1.33 2.75-4.15 5.05a1.05 1.04-22.9 0 0-.38.92q.27 2.58 1.45 4.08c1.95 2.46 7.06-1.09 8.9-2.58q1.26-1.03 3.68-1.28a1.52 1.52 0 0 1 1.68 1.51v2.92a.7.7 0 0 0 .72.72h.31a.8.8 0 0 0 .78-.81q-.08-1.65-.72-3.57a2.6 2.46 75 0 0-2.87-1.77q-1.36.27-3.23-.2a.92.91 32.9 0 0-.81.17c-2.39 1.91-4.21 3.9-6.47 4.14q-1.27.14-1.64-.8c-.63-1.57-.2-2.51 1.32-3.7q.75-.59 1.48-1.95a2.24 2.09-9.3 0 1 .48-.62q3.11-2.7 6.9-1.69 3.97 1.05 8.15 4.76a2.97 2.95-19.6 0 0 1.57.74q4.73.74 5.97 1.53 5.7 3.63 6.79 4.07a.72.72 0 0 0 .73-1.23m-70.51-2.43-.44-4.02a1.7 1.66-72.2 0 0-.52-1.04q-3.19-2.93-8.04-1.27a1.09 1.08-6 0 0-.73.9q-.2 1.77-.97 2.93a1.4 1.4 44.4 0 0 .02 1.55c1.9 2.68 5.29 4.74 8.37 2.47.39-.29 1.26-.62 2.01-.98a.54.53 74.6 0 0 .3-.54" vector-effect="non-scaling-stroke"/><path d="M1163.79 502.46q.02-.5.08-.56a1.85 1.83 19.2 0 1 1.28-.61l4.16-.22a.89.88-20.5 0 1 .73.33q.8.97.8 1.77a1.05 1.05 0 0 0 1.62.89c2.83-1.83 5.37-3.6 8.48-2.85a3.68 2.81-88.9 0 1 2.25 3.07q.24 2.28.81 4.42a1.31 1.27 10.8 0 0 .5.71l4.76 3.28a.94.9-30.7 0 0 .65.15q1.41-.21 1.73.97a1.09 1 42.3 0 1 .03.32l-.05 2.8a1.7 1.66-62.2 0 0 .29.98c1.45 2.14 4.59 5.7 7.48 5a.72.72 0 0 0 .07-1.38c-2.35-.85-4.87-1.83-5.13-4.24a1.18 1.17 57.1 0 1 .15-.71l.53-.91a.75.74 33.7 0 0-.2-.96q-1.33-1.03-2.12-2.44a.9.9 0 0 0-.96-.42c-2.8.65-5.13-5.76-5.75-7.8-1.77-5.84-5.75-6.4-10.96-4.65q-6.25 2.11-12.42-1.05-5.29-2.7-7.07-4.31-2.13-1.95-2.46-2.59-2.91-5.7-4.25-7.76c-1.62-2.49-6.45-2.63-8.98-2.35q-2.98.34-3.43 2.71a2.03 1.71 9.5 0 1-2.24 1.32l-2.89-.43a3.59 3.52 39.5 0 0-1.62.14c-3.32 1.14-5.33 1.62-7.37-1.59q-.1-.17-1.36-2.84a.32.31-57.8 0 0-.6.14l-.03 4.4a1 1-75 0 0 .46.81q5.34 3.21 11.12 1.62a1.44 1.43 80.9 0 1 1.82 1.33c.14 3.68-.91 7.2 2.98 9.41 2.97 1.68 7.66 3.59 10.7 1.47q4.17-2.91 6.95-3.09a2.1 2.07 50.6 0 1 .67.07c3.39.95 5.98 1.77 7.38 5.85a.72.72 0 0 0 1.41-.2" vector-effect="non-scaling-stroke"/><path d="m1164.67 507.46 5.7.86a.52.51-85.4 0 1 .43.51v3.13a.34.34 0 0 1-.49.3l-2.08-1.09a.33.33 0 0 0-.44.14l-.12.22a.34.33-56.7 0 0 .08.41q3.63 2.95 8.6 4.38c3.17.91 7.49-.29 10.73 1.32a.43.43 0 0 0 .62-.38v-2.6a1.31 1.3-2.2 0 0-1.41-1.3l-9.43.73a1.2 1.2 0 0 1-.88-.31q-2.82-2.66-5.23-7.14a1 1-14.6 0 0-.84-.49q-2.68.03-5.27 1.05a.14.13 38.8 0 0 .03.26m57.75 29.33-.4-3.04a.15.15 0 0 0-.24-.1q-2.7 1.92-5.63 3.16-4.07 1.72-5.68-2.55-.51-1.35.59-5.88a.85.84 6.1 0 1 .81-.65q2.58-.04 3.73.66 5.25 3.18 12.18 5.61a.47.47-21.8 0 0 .37-.85l-6.27-3.13a4.21 4.15 77.9 0 1-.87-.57c-2.09-1.78-4.35-3.53-7.17-4.71q-8.06-3.38-8.45-3.48a5 5-12.8 0 1-2.8-1.76l-4.21-5.34a.33.32 70.7 0 0-.26-.13h-.4a.41.41 0 0 0-.36.61l4.57 7.9a1.02 1.01-14.5 0 0 .89.52c2.99.04 5.21-.14 7.34 2.41a1.26 1.18 57.3 0 1-.35 1.9q-2.02.91-3.68 0a1.23 1.19 79.5 0 1-.24-.17l-2.33-2.34a.46.46 0 0 0-.76.47c.37 1.1 1.17 2.59 2.07 3.57q2.34 2.56 2.66 6.26a.96.95-5.4 0 1-.87 1.04q-1.82.18-2.85.93a.81.81 0 0 0 .49 1.46q3.33-.02 5.35.67c4.86 1.66 9.07 1.08 12.65-2.17a.4.4-23.8 0 0 .12-.3m-986.84-13.45a.19.18 80.5 0 0-.29-.21q-5.28 4.36-10.36 2.02a.83.83 0 0 0-1.06.33q-.63 1.07-1.21 1.48a1.03 1.02 41.6 0 1-1.06.06l-2.14-1.12a1.76 1.75 36.1 0 0-2.06.32l-4.85 4.85a.48.47-41.7 0 0-.04.63l.21.27a.35.35 0 0 0 .53.01q2.71-3 5.86-4.49a.77.77 0 0 1 .96 1.15q-1.51 2.13-3.79 3.34-6.75 3.57-11.96 5.66a.61.6 74 0 1-.82-.46l-.01-.04a.97.95 75.9 0 1 .49-.84l5.8-3.23a.49.48 22.5 0 0-.37-.89q-2.46.7-3.36 1.18-6.26 3.31-10.75 5a2.02 1.88 13.4 0 0-.46.26l-5.24 4.18a1 1 0 0 1-1.61-.92q.24-1.78-.57-2.4a1.29 1.28-30.3 0 0-.97-.25q-4.7.63-11.79 1.25-6.39.56-8.27 6.46-1.28 4.04-2.17 13.27a1 1-69.9 0 0 .39.85l4.49 3.09a2.2 1.63 64.8 0 0 .39.21q5.66 2.14 10.13 5.44a.66.66 0 0 0 .92-.14c2.83-3.89 6.74-6.29 9.25-10.44 1.14-1.88 1.75-6.46 3.55-9.16 2.68-4.03 8.14-7.76 12.36-9.62 4.52-2 7.32-5.01 11.71-7.27q5.97-3.08 12.8-4.99 4.06-1.14 5.37-4.84m1018.54 28.71.03-2.64a.59.59 0 0 0-1.06-.36l-3.24 4.28a1.12 1.08 70.4 0 0-.18.4q-.72 3.59 2.4 5.6a2.11 2.03 62.4 0 0 .95.32c7.02.53 12.28 4.63 16.15 10.44a.64.64 0 0 0 1.17-.36v-4.66a.99.98-76.9 0 0-.54-.88c-5.77-2.83-9.22-4.58-12.2-9.68a1.27 1.26 81 0 0-.82-.6q-1.68-.37-2.17-.79a1.44 1.41 21.1 0 1-.49-1.07m-33.77-487.86a3.6 3.6-37 0 0 .46-3.25l-1.72-4.99a1.18.93 22.4 0 0-.19-.34c-2.62-3.32-7.26-4.92-10.57-1.56-2.28 2.33-4.28 5.55-2.28 8.6q2.45 3.74 5.76 5.3a2.44 2.41 52.4 0 0 1.48.2q4.94-.91 7.06-3.96M1025.18 92.1l4.72-.95a.2.2 0 0 0 .15-.22l-.05-.27a2.41 1.78-11.4 0 0-2.72-1.27l-.37.08a2.41 1.78-11.4 0 0-2.01 2.22l.06.27a.2.2 0 0 0 .22.14m-744.57 27.96 4.67.05a1.09 1.08-23.3 0 0 .75-1.88q-2.27-2.09-5.29-.88a2.25 2.11 67.3 0 1-2.78-1.25c-1.37-3.14-4.33-6.26-7.81-4.49a.99.96 7.2 0 0-.28.21l-3.24 3.36a2.89 2.88 61.9 0 0-.76 2.51c.39 2.22 1.07 4.8 3.47 5.88 3.94 1.77 6.94.1 9.65-2.82a2.2 2.19-68 0 1 1.62-.69m111.6 13.68a.77.77 0 0 0-1.15.55l-.73 4.82a.88.85-50.4 0 0 .03.39q.81 2.53 2.92 2.45a1.51 1.49-68.3 0 0 1.01-.44l2.66-2.66a1.63 1.63 0 0 0-.34-2.57l-4.4-2.54m99.96 23.41a3.04 3.04 0 0 0 .43-3.62l-3.41-5.9a3.2 3.2 0 0 0-3.21-1.6q-6.43.81-9.45 7.27a2.3 2.3 40 0 0 .2 2.25q.9 1.27 3.71 4.51c3.35 3.86 8.96.01 11.73-2.91m333.14 27.93q-4.01-.13-5.87 3.9a1.02 1.01 38.6 0 0 .12 1.05c1.13 1.43 3.23 1.88 4.71.54q1.48-1.34 2.29-3.67a1.38 1.38-79.6 0 0-1.25-1.82M551.18 163.3a1.6 1.6 0 0 0-2.14-1.36l-3.46 1.24a1.2 1.2 0 0 1-1.34-.43q-.68-.96-1.34-.9-.65.06-1.78.83-.69.48-.55 1.87a.67.65 6 0 0 .47.57l7.93 2.4a1.09 1.08 33.3 0 0 .99-.2q1.49-1.25 1.22-4.02m36.99 11.38a3.5 2.65-145.8 0 0 1.4 4.16 3.5 2.65-145.8 0 0 4.38-.22 3.5 2.65-145.8 0 0-1.4-4.16 3.5 2.65-145.8 0 0-4.38.22M615.3 189l6.45-1.09a.6.6 0 0 0 .42-.86c-1.8-3.33-5.95-7.82-9.31-2.75a1.56 1.54-29.6 0 0-.26.92q.05 2.1 1.99 3.61a.92.91 58.1 0 0 .71.17m20.15-4.29q-5.59-.28-10.13 3.71a1.13 1.11 61.7 0 0-.33 1.14q2.42 8.64 10.96 6.2 1.33-.38 3.96-3.05a1.07 1.05-29.8 0 0 .28-.98q-.85-3.81-3.57-6.51a1.8 1.78 68.2 0 0-1.17-.51m204.35 125c-1.9 3.3-.84 5.82 1.48 8.92a1.47 1.43-3.8 0 0 .47.4l5.37 2.8a2.3 2.3 43.3 0 0 2.2-.06q3.89-2.31 3.88-7.19a1.55 1.46 35.3 0 0-.09-.45l-1.88-4.62a3.4 3.4 83.1 0 0-2.7-2.12q-3.96-.56-8.03 1.64a1.77 1.74.4 0 0-.7.68m-.23 16.22a1.77 1.49-8.7 0 0 2.28 1.39q1.93-.58 2.59-1.65c1.32-2.13-.86-3.29-2.62-3.35a1.1 1.1 16.6 0 0-.99.53q-1.21 1.98-1.26 3.08m56.41 42.53a3.78 3.27-151.1 0 0 1.73 4.7 3.78 3.27-151.1 0 0 4.89-1.04 3.78 3.27-151.1 0 0-1.73-4.7 3.78 3.27-151.1 0 0-4.89 1.04m-324.42 17.61q2.5-.83 4.23-3.11a1 1 0 0 0 .14-.28l1.86-6.17a2.2 2.2 0 0 0-1.09-2.6l-5.07-2.65a1 1 0 0 0-.95.05q-3.99 2.6-5.87 7.95a2.52 2.51 32.2 0 0 .6 2.61l3.59 3.6a2.51 2.49-31.6 0 0 2.56.6m360.53-1.37c.02-2.75-2.06-4.42-4.79-3.57a1.2 1.2 0 0 0-.72.65c-1.57 3.74 2.21 3.6 2.73 6q.96 4.5 5.56 4.84a2.3 2.09-82.1 0 0 2.24-1.87c.53-2.79-2.64-3.75-4.39-4.89a1.39 1.38 16.6 0 1-.63-1.16m9.76 28.25a2.72 2.51-165.5 0 0 2 3.11 2.72 2.51-165.5 0 0 3.26-1.75 2.72 2.51-165.5 0 0-2-3.11 2.72 2.51-165.5 0 0-3.26 1.75m-611.33 60.17q1.18 2.97 3.44 4.33a.95.92-44.8 0 0 .97-.01c3.29-2.03 7.42-3.01 8.75-7.46a.8.8 0 0 0-.34-.9c-2.35-1.5-7.75-4.36-10.01-2.05q-2.57 2.63-2.94 4.99a2.19 2.15-52.3 0 0 .13 1.1m-49.99 22.76q-2.26-.64-4.02 1.67a1.5 1.5 0 0 1-1.16.58q-5.06.07-7.94 2.48a2.55 2.52 44.2 0 0 .08 3.93c1.63 1.3 5.07-.88 6.27-2.03 1.02-.98 1.38-2.51 2.17-3.64a1.2 1.2 0 0 1 .77-.49q2.28-.38 3.98-1.6a.51.51 0 0 0-.15-.9m-35.91 15.79a4.03 3.33-69.2 0 0 1.29 3.81q.64.45 3.66 1.75c2.97 1.27 5.73-.01 7.52-2.56 1.12-1.6 1.03-3.85 2.31-5.51a1.3 1.3 0 0 0-.58-2c-1.14-.42-6.46-2.71-8.71-1.83q-4.6 1.79-5.49 6.34m811.58-35.36a3.12 2.23-174.9 0 0 2.9 2.5 3.12 2.23-174.9 0 0 3.3-1.94 3.12 2.23-174.9 0 0-2.9-2.5 3.12 2.23-174.9 0 0-3.3 1.94m95.16 15.94-6.06-7.61a.86.84-4.8 0 0-.3-.25q-3.64-1.86-6.83 1.2a.7.7 0 0 0-.19.46l.15 7.61a.86.78 35 0 0 .08.35q1.86 3.98 5.62 3.92a2.98 2.93 34.2 0 0 .93-.17c2.65-.95 8.05-2.49 6.73-5.29a.94.89-77.1 0 0-.13-.22" vector-effect="non-scaling-stroke"/><path d="M185.56 547.22c-4.65-1.56-9.22-3.18-13.21.27-3.57 3.08-4.42 7.82-1.51 11.71q1.73 2.31 5.46 4.23a1.66 1.65 55 0 0 .95.17q10.91-1.25 9.96-12.28-.17-1.96-.93-3.48a1.2 1.2 0 0 0-.72-.62" vector-effect="non-scaling-stroke"/></g><path fill="#feffff" d="M1632 0v640H0V0zm-447.63 65.13a.49.48-17.3 0 0 .64.33c5.46-2.11 12.24-2.4 16.96 1.3 5.68 4.45 11.91 9.28 18.56 2.56 3.24-3.28 4.81-4.78 3.92-9.26-2-9.96-13.52-14.77-21.28-7.35q-.41.39-1.56 3.28a1.11 1.09-84.7 0 1-.79.67q-3.79.82-6.64 2.66a3 3 40.1 0 1-2.77.23q-4.03-1.73-8.22-.96a.4.4-12.6 0 0-.32.5zm-22.22-2.38a1.1 1.1 0 0 0 .37 1.26q4.47 3.51 9.63.85a1.58 1.57-28.7 0 0 .64-2.18l-2.72-4.7a1.16 1.15 78.3 0 0-.86-.57c-3.57-.48-5.91 2.02-7.06 5.34m-4.65 2.61.9-3.69a1.74 1.74 0 0 0-1.28-2.1l-2.39-.59a4.2 3.64 13.7 0 0-4.94 2.55 4.2 3.64 13.7 0 0 3.22 4.53l2.39.58a1.74 1.74 0 0 0 2.1-1.28m-26.16 4.57q-.65 1.95-2.05 1.94a.74.73-21.7 0 1-.48-.2l-3.28-3.28a1 1 0 0 0-1.42 0l-.2.19a1.65 1.64-43 0 0-.08 2.23q2.5 2.9 6.22 3.1a2.39 2.37 34.4 0 0 1.09-.2q4-1.75 2.95-6.07a1.02 1.01 83.3 0 0-.97-.77q-2.65-.03-3.61-.68a1.75 1.74-85.6 0 1-.64-.75c-.78-1.67-2.25-4.76-4.14-3.07a1.68 1.46-50.3 0 0 .06 2.57q2.98 1.63 5.75 3.03a1.6 1.6-67.4 0 1 .8 1.96m-94.01 20.86c5.51-.27 14.57-.26 19.69-4.37 2.33-1.87 4.27-2.55 7.82-3.46 2.97-.76 5.82-3.19 9.51-2.18a1.3 1.3 0 0 0 1.63-1.02l.05-.25a1.04 1.03 4.2 0 0-1.06-1.22l-10.93.45a2.8 2.74-62.3 0 0-1.42.46q-3.02 2-5.97 1.34c-5.03-1.12-9.06.63-13.16 3.24a2.6 2.51-67.1 0 1-.77.33l-5.68 1.42a.89.88 89 0 0-.66.69q-.5 2.33.44 4.27a.54.53 74.8 0 0 .51.3m-34.42 7.01q-1.36 2.6-3.75 3.17a1.29 1.29 0 0 1-1.09-2.27q1-.78 2.51-1.09a.38.38 0 0 0-.05-.76q-4.3-.26-6.51 3.35a.83.82-52.4 0 0 .13 1.03c3.6 3.48 8.04 1.27 11.15-1.44a4 4-72.2 0 1 1.69-.87l15-3.74a1.99 1.82-47.5 0 1 .58-.05c3.29.18 7.53-.25 9.85-2.76a1.9 1.9-42.6 0 0 .11-2.42q-2.86-3.66-6.31-1.87c-1.87.96-3.65 3.63-5.61 4.26q-.74.24-4.88 1.27a12.62 11.56-51.9 0 1-1.75.29c-4.33.41-6.7 2.56-10.53 3.48a.84.81 6.2 0 0-.54.42m-40.61 14.24q2.89-2.07 4.74-2.35c2.27-.34 3.49-2.26 6.55-2.1a.31.31 0 0 1 .22.52q-1.16 1.31-1.54 1.43-4.06 1.26-8.01 3.37a.54.54 0 0 0 .01.95l.78.4a2.31 2.3 41.8 0 0 2.36-.13q5.4-3.68 8.58-4.39c3.39-.74 9.57 1.92 11.96-2.54a1.58 1.52-30.8 0 0 .19-.7q.15-3.55 3.47-4.92a.63.62 35.7 0 0-.2-1.2c-2.06-.14-3.14 1.38-5.27 1.52q-4.19.27-10.01 3.55a1.68 1.64-57.1 0 1-.96.22q-1.88-.15-2.39.04l-7.83 2.95q-2.15.81-3.2 2.91a.37.37 0 0 0 .55.47m-670.62 9.06a18 18 0 0 0-7.12-5.55q-3.2-1.51-5.55-4.37a3.66 3.6-2.8 0 0-.84-.75c-3.34-2.1-5.43-3.39-9.05-2.04q-5.84 2.2-7.46 8.18-.41 1.53.69 2.87 2.14 2.58 1.27 6.38a1.7 1.7 0 0 0 1.91 2.07q2.46-.36 5.04.33c4.28 1.13 6.98-1.38 10.89-4.19a2.72 2.47 15.3 0 1 .73-.37l5.24-1.66a1.46 1.44-49.1 0 1 .65-.05l2.87.44a.79.79 0 0 0 .73-1.29m661.37-7.35 4.54-1.13a.46.46 0 0 0 .1-.85l-.93-.49a1.67 1.66-42.5 0 0-1.41-.06q-2.79 1.19-3.85.96c-5.61-1.24-9.97-1.55-13.08 4.1q-1.16 2.08-2.47 3.78a.7.7 0 0 0 .11.99q2.26 1.87.73 4.72a1 1 0 0 1-.75.55q-1.71.3-3.67-.55a.8.8 0 0 0-.9.23l-2.18 2.74a1.9 1.76-81.6 0 1-.65.52q-2.52 1.25-4.38-.25a1.6 1.5 40.9 0 1-.24-2.27q3.44-3.63 7.26-2.57a1 1 0 0 0 .98-.31q.83-1.04.85-1.52a.8.8 0 0 0-.96-.83q-7.72 1.41-10.97 6.82a2 2 0 0 0 1.42 3.01l5.6.85a1.4 1.4 0 0 0 1.4-.66q2.06-3.4 6.76-4.45a1.92 1.89-45.3 0 1 .84-.01q2.51.54 5.61 1.77c4.96 1.95 8.65 1.09 12.68-2.26a1.25 1.23 83.2 0 0 .34-.44l1.92-4.08a1.72 1.67-39.4 0 0 .12-1.07c-.46-2.02-.41-2.7 1.54-4.16q1.79-1.34 2.29-3.14a.57.57 0 0 0-.98-.52q-2.1 2.47-4.65 3.88c-1.99 1.09-.58 3.27-1.61 4.89-2.05 3.21-5.63 6.39-9.53 4.36q-2.98-1.55-5.02-4.18a2.6 2.59-49.5 0 1-.22-2.85c2.51-4.53 5.99-7.35 11.36-4.28q.37.22 1.01.16.35-.03.4-.71a.79.78-4.8 0 1 .59-.69m-633.06 9.57q-.18-1.32.8-2.66a.67.67 0 0 0-.82-1q-.57.26-1.53 1.15a.3.29 33.1 0 1-.3.06l-4.15-1.42a1.1 1.05-36.8 0 0-.5-.06l-6.52.81a1.21 1.19-75.3 0 0-.79.47q-1.36 1.8-3.47.98a3.4 2.83-82.2 0 1-1.85-2.96q-.05-1.73-1.1-2.94a1.98 1.98 0 0 0-3.26.38l-2.02 3.86a1.21 1.19 52.3 0 0-.1.82l.53 2.1a.85.84-22.1 0 1-.4.93l-2.34 1.35a.41.41-58.6 0 0 .18.76c2.8.13 4.84-1.64 7.38-1.55q4.33.17 5.12.56 5.98 2.97 13.1 2.6a.48.47-38.4 0 0 .11-.93q-2.89-.84-7.42-.85a1.5 1.49-71.8 0 1-1.2-2.38q1.68-2.32 5.62-1.65a1.94 1.87-20.6 0 1 .81.35q1.79 1.29 3.55 1.72a.46.46 0 0 0 .57-.5m19.6 3.84q-7-.58-16.06-3.37a.56.56 0 0 0-.54.95c2.36 2.18 5.2 4 8.76 4.48q1.66.23 17.04 3.07c3.74.7 5.37 2.43 7.54 5.19a3.3 3.3 0 0 0 4.04.91c4.05-2.02 7.41-3.33 11.1.23q1.75 1.68 2.87 2.51a1.51 1.47-27.9 0 0 .92.27q3.55-.19 8.42-1.49.62-.16 4.31.18a1.03 1.02 78.5 0 1 .81.54q.93 1.74 4.08 3.72a1.66 1.66 0 0 0 2.06-.23l3.71-3.71a1.84 1.83 59.4 0 0 .46-1.82c-.82-2.73-2.85-4.81-5.06-6.22-1.51-.97-3.9-.87-4.7 1.3q-.36.99-1.46 2.65a.5.5 0 0 1-.79.03l-3.6-4.52a3.71 3.69-21.4 0 0-3.18-1.38l-6.36.48a1.21 1.1-59.1 0 0-.46.14q-1.17.61-1.69 1.95a1.35 1.35 0 0 1-2.24.44c-1.67-1.79-4.57-7.89-8.57-8.03q-5.66-.21-12.2 1.33a3.11 2.98-46.3 0 1-1.12.05q-5.14-.78-8.18-4.12a1 1 0 0 0-1.36-.11l-.31.25a.45.45 0 0 0 .03.73q2.3 1.49 2.35 3a.6.6 0 0 1-.62.6m564.6 8.58q3.2-4.35 8.37-5.51a1.57 1.34 38.3 0 1 .54-.02l2.98.45a1.3 1.3 0 0 0 1.31-.63l.46-.79a.5.5 0 0 0-.32-.74q-10.57-2.39-14.55 6.54a.7.7 0 0 0 1.21.7m6.03 4.98a.72.72 0 0 0 .23 1.42q6.46-.33 9.27-6.63a1.86 1.86 0 0 0-.84-2.41l-.38-.2a.88.87-68.9 0 0-1.25.56q-1.45 5.7-7.03 7.26m-393.26 17.96v.17a.95.94-1.8 0 1-.76.8q-.76.14-1.3-.51-.64-.76.07-1.33.77-.61 1.61-.76a.78.78 0 0 0-.07-1.54q-.42-.03-1 .25-2 .96-4.58 1.81c-3.12 1.03-7.51-1.1-10.11-2.72a1.62 1.5-24.8 0 0-.71-.23q-1.7-.15-2.91.49a.8.8 61.3 0 1-1.08-.32l-5.79-10.03a2.4 2.4 0 0 0-1.98-1.17q-5.76-.13-9.7 2.87a2.9 2.74-2.2 0 0-.54.55q-1.44 1.9-3.03 2.91a1.23 1.2-10.3 0 0-.53.75c-.28 1.17.3 3.19-.3 3.62q-.62.44-1.85.29a.34.34 0 0 0-.29.56c2.05 2.35 4.16 6.68 6.52 8.23 5.79 3.8 12.84-.94 16.61-5.76a1.07 1.06 18.1 0 1 .82-.41q5.28-.11 9.35 2.58.73.47 4.18.32a2.97 2.95 51.5 0 1 1.02.12q1.25.38 2.88 1.82a2.01 1.98-17.9 0 0 .93.47q1.22.24 3.3-.59 1.35-.55 1.16-1.75-.23-1.49-1.27-1.93a.47.47 0 0 0-.65.44m378.42-14.44q-8.33 3.9-15.94 9.24-3.48 2.44-7.45 4.37a.56.56 0 0 0-.24.77l.01.02a.7.7-25.1 0 0 .86.31q5.98-2.35 9.71-5.73a5.34 4.57 4.4 0 1 .74-.54c3.64-2.09 7.78-5.11 12.99-7.35a.54.53-26.8 0 0 .25-.75l-.03-.05a.7.7 0 0 0-.9-.29M870.89 148q-1.03.26-1.48 1.39a.34.34 0 0 0 .43.44q1.27-.45 1.56-1.27a.43.43 0 0 0-.51-.56m-349.23 5.86q.83-.08 1.11-.27a.63.63 0 0 0 .18-.85q-.56-.89-1.49-.79t-1.29 1.07a.63.63 0 0 0 .34.8q.31.13 1.15.04m334.52 9.57c.65-2.47 4.41-3.85 7.98-5.64a.5.5 0 0 0 .13-.82l-.18-.18a.48.47-37.8 0 0-.58-.07l-6.56 3.78a3.95 3.94 40.6 0 1-3.43.26l-2.51-.99a1.23 1.03-28.3 0 0-.34-.07c-8.48-.54-10.02 5.36-10.68 12.17a1.54 1.51 33.2 0 0 .2.92l.81 1.41a1.16 1.16 0 0 1-.78 1.72q-1.51.31-2.65 1.3a1.99 1.93 18.4 0 1-.93.45q-4.27.77-7.01 2.9a1.4 1.17-83.7 0 0-.22.21l-2.15 2.45a1.05 1.04-66.1 0 1-.9.35q-4.13-.44-7.13 3.5-.39.5-3.04 4.81a.42.42 0 0 0 .28.64l6.77 1.22a1.05 1.04 39 0 0 .6-.06q1.27-.5 2.33-2.52c1.07-2.04 1.37-4.16 3.14-6.32q2.91-3.54 6.76-4.82a4.41 4.34-69.4 0 0 .84-.39l4.72-2.93a2.01 1.98 32.6 0 1 1.33-.28l7.33 1.11a.76.74-45.9 0 0 .32-.01c3.93-.91 5.24-2.92 8.33-6.37a1.47 1.46-39.2 0 0 .18-1.7l-1.24-2.14a.63.63 0 0 0-1.14.13l-1.02 3.36a.67.64-11.1 0 1-.26.37q-4.02 2.91-5.14 3.19-4.48 1.13-7.25-2.67a1.63 1.61-63.1 0 1-.3-.94c.04-5.62 3.2-10.8 9.78-8.7a.8.79-19.1 0 1 .17.08l2.54 1.64a.6.6 0 0 0 .9-.35m-190.9 35.79-1.05-4.2a.6.59 69.9 0 0-.84-.4q-3.03 1.48-7.52-.02-8.19-2.74-10.62-4.45c-3.83-2.71-3.13-7.15-7.18-9.09q-5.65-2.71-10.41.67c-1.66 1.17-4.03 2.1-5.32.4q-2.1-2.78-4.8-3.68a3.6 3.6-50.8 0 0-2.89.3l-3.88 2.24a3.87 3.83-49.9 0 1-3.22.29l-6.53-2.37a5.27 5.24 78.3 0 1-2.04-1.35c-3.14-3.37-4.91-6.03-8.23-6.83-2.59-.63-3.61 1.05-4.33 3.22a.97.96-88.7 0 1-.65.63q-2.08.59-3.06-1.52a.82.8 77.2 0 0-.73-.47h-3.26a2.36 2.3-28.9 0 1-1.2-.33q-5.44-3.25-6.69-3.65-4.44-1.4-7.93-2.7c-2.5-.93-4.17-.82-6.51-.31a1.57 1.56-16.6 0 1-1.8-.97c-1.27-3.31-2.42-7.43-6.61-5.7q-2.02.83-4.21.85c-3.16.01-6.79 1.97-5.45 5.79a1.01.99-5.3 0 0 .8.65q.35.06 3.16 1.02a1.63 1.5 28.1 0 1 .84 2.41q-.24.3-1.59.08-.66-.1-2.3-.76a1.02 1.02 0 0 0-1.26 1.47c1.86 3.15 4.45 1.5 6.75.04a2 1.97 26.9 0 1 .94-.3l5.94-.24a6 6 59.6 0 1 3.43.9q4.36 2.69 5.89 3 4.16.84 8.36 1.75 1.3.28 2.19-.61a1.06.99 23.7 0 0-.74-1.7q-2.53-.23-4.26-1.23c-1.42-.84-2.29-.62-3.91-.28a1.69 1.64 52.5 0 1-1.15-.17q-1.45-.8-2.67-2.56a1 1 0 0 1 .61-1.54c2.53-.53 4.74 1.62 7.04 1.94 1.98.27 4.16 1.04 5.36 1.87q1.88 1.3 6.88 5.64a2.6 2.52-16.7 0 0 1.06.55q1.03.27 2.32-.11c2.66-.78 5.02 1.33 6.29 3.58a2.3 2.3-15.9 0 0 2.1 1.17c4.14-.17 7.16-.06 11.42 1.53q2.54.94 4.92 1.11c4.08.28 3.13 3.56 2.33 6.16a.87.86-73.6 0 0 .59 1.09q5.3 1.5 10.32 1.27c4.08-.19 4.22 6.71 8.04 7.98 3.21 1.07 6.43 1.54 9.53-.48 2.84-1.85 5.5-6.07 9.51-3.28q1.38.96 2.69 1.12 3.36.43 5.13 3.52c1.03 1.8 1.84 2.54 3.4 4.38a.7.7 0 0 0 .95.15q1.42-.91 1.37-1.9a.83.82-16.1 0 1 .42-.75q2.03-1.13 4.12-4.06a.95.94-34.8 0 0 .14-.76m4.52 7.7 2.2-3.81a1.23 1.22 30.8 0 1 1.71-.43q8.48 5.29 19.4 9.01a.71.7-5.6 0 0 .84-1.02l-1.1-1.92a3.12 3.11 78.7 0 0-2.29-1.53c-3.29-.44-7.68-1.68-10.89-3.97q-3.54-2.53-6.8-3.75a1.03 1.02-49.4 0 0-.87.07l-6.31 3.64a.61.59-20.3 0 0-.29.6l.83 6.02a3.04 3.01 9.2 0 0 1.67 2.3q2.87 1.41 6.7 1.8c4.87.5 8.95.48 14.21 1.81q3.65.91 6.59 1.11h.01q1.52-.07.77-2.48a1.07 1.07 0 0 0-1.69-.52q-2.69 2.12-4.48.48c-2.95-2.72-7.77-4.24-9.52-6.05a.94.92-28.4 0 0-.9-.26l-7.55 1.88a2.03 2.03-82 0 1-2.24-2.98m185.33 126.72a.53.53 0 0 0 .85-.16q1.23-2.6 2.88-1.92a1 .77 70.6 0 1 .28.18q2.88 2.67 2.55 5.75a.9.9 0 0 0 .55.9q1.4.53 2.6.12a.53.52-40.3 0 0 .08-.96c-1.96-1.06-2.22-3.84-3.76-5.2q-1.53-1.34-3.32-3.18a.86.86 0 0 0-1.05-.14l-2.31 1.33a.9.88-29.9 0 1-1.22-.32l-1.39-2.4a1.72 1.72 0 0 1 1.75-2.56l1.04.16a.85.85 0 0 0 .86-1.27q-1.11-1.91.19-3.76 3.87-5.54.6-10.85-2.92-4.73-3.89-6.16a3 3-21.3 0 0-2.93-1.28q-6.11.96-10.84 2.16-.88.23-3.45 1.95a2.39 2.33-10.9 0 0-.98 1.41c-1.17 4.94.82 8.49 3.02 13.62a1.75 1.69 40.4 0 1 .1 1.02q-.27 1.28-1.18 2.38c-1.39 1.68.32 3.78 1.45 5.38a1.48 1.47-8.7 0 0 .78.57c3.48 1.04 5.96-1.39 8.45-3.97a2.12 2.03-30.4 0 1 3.55.84q.54 2.27 3.15 3.45a1 1 0 0 1 .61.85q.13 1.25.98 2.06m39.33 24.87q.66.73.16 3.74-.16.99.58 1.36.56.28.44 1.73a1.58 1.57 66.6 0 1-.33.84q-2.51 3.27.14 7.36c2.33 3.61 6.94 1.66 9.37-.65a2.33 2.08 52.5 0 0 .21-2.81q-2.65-4.15-6.07-4.94a1.7 1.7 0 0 1-.86-.51c-2.61-2.9-1.92-4.62-3.07-7.51a2.39 2.35 7.9 0 0-.81-1.05c-3.42-2.58-5.47-4.71-8.04-5.1a.7.7 0 0 0-.82.61v.03a.9.89 12.2 0 0 .63.97q1.9.59 2.92 2.24a1.28 1.27 79.6 0 0 .82.57q2.36.47 4.73 3.12M588.9 368.55a.82.82 0 0 0-.88-1.05q-4.46.49-6.53 5.2a1.53 1.53 0 0 1-2.51.44q-2.28-2.42-5.49-3.29a2.01 1.97-14.3 0 1-.88-.51l-1.94-1.94a1.14 1.14 0 0 0-1.92 1.03q.17.83-.03 1.93a1.3 1.3 0 0 1-.51.84q-4.04 3.06-7.04 10.75a1.25 1.24-77.5 0 0 1.08 1.7q2.75.16 3.98 3.58a1.5 1.48-1 0 0 .98.93l5.47 1.65a2.12 2.11-59.2 0 0 2.12-.54q5.01-5.05 6.33-13.13.24-1.52 2.16-3.3a2.18 2.09-10.9 0 0 .53-.75q1.26-2.91 4.4-2.77a.56.55 9.2 0 0 .56-.4zm337.86 10.89c-3.34 1.22-2.2 6.32-1.26 8.84.82 2.21 4.93 5.96 6.63 6.62q4.26 1.65 7.38-3.11a2.3 2.3 0 0 0-.1-2.63c-1.39-1.82-3.83-3.74-5.12-5.72-1.69-2.58-4.12-5.24-7.53-4m-367.54 13.4-3.67.21a.2.2 0 0 0-.17.19v.08a1.95 1.94-3.3 0 0 2.06 1.82l.14-.01a1.95 1.94-3.3 0 0 1.84-2.04l-.01-.08a.2.2 0 0 0-.19-.17m-68.27 16.99q-1.34 1.13-4.94 1.12a2.45 2.43 29.3 0 0-1.26.35l-10.94 6.45a1.32 1.17-62.4 0 1-.42.16c-5.43.95-6 5.98-8.77 8.77a2.32 2.3-75.7 0 1-1.05.63q-1.7.51-3.35.32a2 2 65 0 1-1.01-.37l-3.15-2.12a2.26 2.24 50.9 0 0-2.11-.23l-3.63 1.48a1.63 1.52-79.8 0 0-.63.47c-1.33 1.62-2.73 5.34-5.42 3.13a1.57 1.57 0 0 1 .01-2.43q4.18-3.4 9.12-4.5a3.75 3.39-62.8 0 0 .98-.37c3.63-2.02 3.76-7.51 9.87-7.06a2.28 2.06 54.2 0 1 .61.13l3.5 1.28a.98.97-5 0 0 1.18-1.4l-.33-.59a1.3 1.23.8 0 0-.47-.46q-6.08-3.43-11.08 0c-3.52 2.42-5.65 7.42-10.55 8.95q-3.92 1.23-5.46 3.62a1.1 1.1 0 0 1-.88.49c-2.08.04-4.15-1.47-6.38-.92q-4.75 1.17-7.36 5.17a1.41 1.39 40.4 0 0 .15 1.72l.08.08a.8.79-51.6 0 0 1.28-.15q.95-1.67 3.06-3.45 2.68-2.27 6.4-1.16a1.02 1.02 0 0 1 .6 1.48q-.96 1.73-2.79 2.63-2.75 1.36-3.49 1.46a1.51 1.5-86.2 0 0-1.26 1.11l-.33 1.23a.87.87 0 0 0 1.13 1.04l10.32-3.7a1.16 1.13-51.5 0 1 .47-.06q3.41.36 6.25-2.23a1.88 1.84 79.3 0 0 .52-.78c.72-2.07 2.7-4.6 5.08-3.4a1.97 1.87 84.2 0 1 .7.6q1.45 2 2.3 2.25 6.6 1.97 10.15-3.71.49-.77 3.41-5.96a2.06 2.02-3.2 0 1 .62-.68q1.26-.9 2.72-1.17c2.61-.48 4.71-2.53 6.8-3.86q4.37-2.78 8.58-3.86 1.13-.29 1.47-1.29a.19.19 0 0 0-.3-.21m449.5 3.13a4.79 4.26-164.8 0 0 3.51 5.37 4.79 4.26-164.8 0 0 5.74-2.85 4.79 4.26-164.8 0 0-3.5-5.37 4.79 4.26-164.8 0 0-5.74 2.85M243.87 520q-.26-.12-1.62-1.25a1.23 1.22 33.7 0 0-1.87.37l-.64 1.23a.77.77 0 0 0 .41 1.08q2 .75 2.88.56 4.94-1.05 7.63-.51a2.59 2.52 42 0 0 1.24-.05c4.66-1.3 8.89-4.43 8.9-9.73a2 2 0 0 1 .21-.87c1.22-2.37 4.31-2.88 6.88-2.71 4.04.26 6.7-2.38 9.33-5.02a5.96 5.47-81.2 0 1 1-.8l7.74-4.84a1.02.74 9.2 0 1 .2-.1q6.18-2.61 10.77-4.9.82-.41 3.36-.15a.9.9 0 0 1 .75.58q.49 1.36 1.23 2.29a.64.64 0 0 0 1.12-.56q-.18-.76-.95-1.88a1.62 1.61 48 0 1 .1-1.94c3.6-4.34 8.48-5.93 14.73-8.97q2.64-1.28 4.69-1.59c4.29-.67 8.35.75 11.17 1.4 3.65.84 9.22-2.6 11.29-4.96a2.5 2.5 71.5 0 0 .6-1.21c2.48-12.9 19-8.4 26.57-13.25q3.3-2.11 6.11-5.45a1.75 1.75 0 0 1 2.16-.42l4.06 2.12a1.27 1.26 54.9 0 0 .74.13c7.07-.93 11.79-2.55 13.59-9.71a1.78 1.77.5 0 1 1.34-1.31q7.24-1.6 12.69-5.36a.27.27 0 0 0-.24-.48c-6.77 2.23-15.72 5.35-19.76 11.5a1.86 1.85 16.7 0 1-1.55.83h-6.05a1.29 1.23 61.2 0 1-.72-.23q-1.92-1.34-2.05-2.56a1.64 1.58-32.9 0 1 .24-1.03c3.27-5.1 7.53-5.32 12.97-4.7a1.47 1.47 0 0 0 .69-2.83q-4.87-1.87-11.05-.65a3.4 3.33-74.3 0 0-1.84 1.06q-3.42 3.87-4.37 8.06a2 2 0 0 1-1.9 1.55q-4.18.09-7.98-1.48a3 3 0 0 0-2.99.43q-2.46 1.96-3.55 4.15-.67 1.35-1.99 1.96-3.02 1.41-5.29 3.82a3.77 3.5-81.8 0 1-.83.67q-4.87 2.9-9.54 2.54c-2.39-.19-4.56-2.35-6.88-2.72q-2.68-.43-5.44-.41a3.64 3.62 19.2 0 0-2.77 1.33q-3.44 4.22-4.12 9.84a.85.84-3.5 0 1-.64.72l-3.02.75a2.29 2.06-64 0 0-.52.21l-5.34 2.94a1.77 1.21-55.7 0 1-.28.11q-6.4 1.57-7.44 2.16-8.83 5.07-11.72 6.8c-1.79 1.08-4.54.64-6.33 1.37q-2.29.93-5.55 3.87a2.31 2.3-64.7 0 1-1.64.59q-2.35-.09-4.89.76-5.86 1.96-7.87 2.47a4.44 4.28-69.5 0 0-1.51.72q-3 2.23-4.53 6.73-.29.85.09 1.89a1.01.92 4.9 0 1-1.42 1.09q-.99-.48-1.48-1.38a1.78 1.76 84.1 0 0-1.07-.88q-2.21-.63-5.77-2.36c-4.26-2.08-8.26.48-10.98 3.5a2.84 2.69 81.3 0 0-.45.65c-.93 1.9-2.15 3.07-2.85 5.28q-.86 2.74-2.41 5.33a.49.49 0 0 0 .54.72q3.92-1.03 6.67 1.66a.88.88 0 0 1-.99 1.43m848.63-47.72q.06.01.14.11a.33.32-57.6 0 0 .57-.13q.06-.26-.08-.55-.07-.16-.4-.3c-4.2-1.83-9.18-2.01-12.5 1.73a2.11 1.83-41.9 0 1-3.14.06c-.65-1-.21-2.65 1.09-3.19q.65-.27.83-.47a.57.57-48.1 0 0-.04-.81q-1.53-1.34-.61-3.79a1.52 1.51 85.3 0 1 .65-.77c2.51-1.47 4.07.17 6.29 1.48a1.69 1.68 56.8 0 0 1.03.22c2.32-.25 3.82.61 5.73.19q2.08-.46 5.06 1.11a.76.75 84.6 0 0 .94-1.14c-2.7-3.43-7.03-2.33-10.8-1.99a5.66 5.58 49.8 0 1-2.07-.19c-1.67-.49-3.12-1.56-4.84-1.38-3.97.41-2.89 4.65-4.34 6.61-1.53 2.07-1.66 3.9-.16 5.5 2.59 2.77 7.02-1.51 8.76-2.44a2.33 2.31-59.9 0 1 1-.27q4.91-.18 6.64.34a2.03 1.11-2.4 0 0 .25.07m42.79 9.13c-3.77-3.07-8.54-4.92-13.34-5.9a1.14 1.11 64.1 0 1-.25-.09l-11.91-6.22a.62.62 0 0 0-.87.34q-.24.66-.66.89a1.77 1.76-56.9 0 1-.98.21l-1.79-.13a.87.86 14.5 0 0-.84.49q-1.33 2.75-4.15 5.05a1.05 1.04-22.9 0 0-.38.92q.27 2.58 1.45 4.08c1.95 2.46 7.06-1.09 8.9-2.58q1.26-1.03 3.68-1.28a1.52 1.52 0 0 1 1.68 1.51v2.92a.7.7 0 0 0 .72.72h.31a.8.8 0 0 0 .78-.81q-.08-1.65-.72-3.57a2.6 2.46 75 0 0-2.87-1.77q-1.36.27-3.23-.2a.92.91 32.9 0 0-.81.17c-2.39 1.91-4.21 3.9-6.47 4.14q-1.27.14-1.64-.8c-.63-1.57-.2-2.51 1.32-3.7q.75-.59 1.48-1.95a2.24 2.09-9.3 0 1 .48-.62q3.11-2.7 6.9-1.69 3.97 1.05 8.15 4.76a2.97 2.95-19.6 0 0 1.57.74q4.73.74 5.97 1.53 5.7 3.63 6.79 4.07a.72.72 0 0 0 .73-1.23m-70.51-2.43-.44-4.02a1.7 1.66-72.2 0 0-.52-1.04q-3.19-2.93-8.04-1.27a1.09 1.08-6 0 0-.73.9q-.2 1.77-.97 2.93a1.4 1.4 44.4 0 0 .02 1.55c1.9 2.68 5.29 4.74 8.37 2.47.39-.29 1.26-.62 2.01-.98a.54.53 74.6 0 0 .3-.54m99.02 23.48q.02-.5.08-.56a1.85 1.83 19.2 0 1 1.28-.61l4.16-.22a.89.88-20.5 0 1 .73.33q.8.97.8 1.77a1.05 1.05 0 0 0 1.62.89c2.83-1.83 5.37-3.6 8.48-2.85a3.68 2.81-88.9 0 1 2.25 3.07q.24 2.28.81 4.42a1.31 1.27 10.8 0 0 .5.71l4.76 3.28a.94.9-30.7 0 0 .65.15q1.41-.21 1.73.97a1.09 1 42.3 0 1 .03.32l-.05 2.8a1.7 1.66-62.2 0 0 .29.98c1.45 2.14 4.59 5.7 7.48 5a.72.72 0 0 0 .07-1.38c-2.35-.85-4.87-1.83-5.13-4.24a1.18 1.17 57.1 0 1 .15-.71l.53-.91a.75.74 33.7 0 0-.2-.96q-1.33-1.03-2.12-2.44a.9.9 0 0 0-.96-.42c-2.8.65-5.13-5.76-5.75-7.8-1.77-5.84-5.75-6.4-10.96-4.65q-6.25 2.11-12.42-1.05-5.29-2.7-7.07-4.31-2.13-1.95-2.46-2.59-2.91-5.7-4.25-7.76c-1.62-2.49-6.45-2.63-8.98-2.35q-2.98.34-3.43 2.71a2.03 1.71 9.5 0 1-2.24 1.32l-2.89-.43a3.59 3.52 39.5 0 0-1.62.14c-3.32 1.14-5.33 1.62-7.37-1.59q-.1-.17-1.36-2.84a.32.31-57.8 0 0-.6.14l-.03 4.4a1 1-75 0 0 .46.81q5.34 3.21 11.12 1.62a1.44 1.43 80.9 0 1 1.82 1.33c.14 3.68-.91 7.2 2.98 9.41 2.97 1.68 7.66 3.59 10.7 1.47q4.17-2.91 6.95-3.09a2.1 2.07 50.6 0 1 .67.07c3.39.95 5.98 1.77 7.38 5.85a.72.72 0 0 0 1.41-.2m.88 5 5.7.86a.52.51-85.4 0 1 .43.51v3.13a.34.34 0 0 1-.49.3l-2.08-1.09a.33.33 0 0 0-.44.14l-.12.22a.34.33-56.7 0 0 .08.41q3.63 2.95 8.6 4.38c3.17.91 7.49-.29 10.73 1.32a.43.43 0 0 0 .62-.38v-2.6a1.31 1.3-2.2 0 0-1.41-1.3l-9.43.73a1.2 1.2 0 0 1-.88-.31q-2.82-2.66-5.23-7.14a1 1-14.6 0 0-.84-.49q-2.68.03-5.27 1.05a.14.13 38.8 0 0 .03.26m57.75 29.33-.4-3.04a.15.15 0 0 0-.24-.1q-2.7 1.92-5.63 3.16-4.07 1.72-5.68-2.55-.51-1.35.59-5.88a.85.84 6.1 0 1 .81-.65q2.58-.04 3.73.66 5.25 3.18 12.18 5.61a.47.47-21.8 0 0 .37-.85l-6.27-3.13a4.21 4.15 77.9 0 1-.87-.57c-2.09-1.78-4.35-3.53-7.17-4.71q-8.06-3.38-8.45-3.48a5 5-12.8 0 1-2.8-1.76l-4.21-5.34a.33.32 70.7 0 0-.26-.13h-.4a.41.41 0 0 0-.36.61l4.57 7.9a1.02 1.01-14.5 0 0 .89.52c2.99.04 5.21-.14 7.34 2.41a1.26 1.18 57.3 0 1-.35 1.9q-2.02.91-3.68 0a1.23 1.19 79.5 0 1-.24-.17l-2.33-2.34a.46.46 0 0 0-.76.47c.37 1.1 1.17 2.59 2.07 3.57q2.34 2.56 2.66 6.26a.96.95-5.4 0 1-.87 1.04q-1.82.18-2.85.93a.81.81 0 0 0 .49 1.46q3.33-.02 5.35.67c4.86 1.66 9.07 1.08 12.65-2.17a.4.4-23.8 0 0 .12-.3m-986.84-13.45a.19.18 80.5 0 0-.29-.21q-5.28 4.36-10.36 2.02a.83.83 0 0 0-1.06.33q-.63 1.07-1.21 1.48a1.03 1.02 41.6 0 1-1.06.06l-2.14-1.12a1.76 1.75 36.1 0 0-2.06.32l-4.85 4.85a.48.47-41.7 0 0-.04.63l.21.27a.35.35 0 0 0 .53.01q2.71-3 5.86-4.49a.77.77 0 0 1 .96 1.15q-1.51 2.13-3.79 3.34-6.75 3.57-11.96 5.66a.61.6 74 0 1-.82-.46l-.01-.04a.97.95 75.9 0 1 .49-.84l5.8-3.23a.49.48 22.5 0 0-.37-.89q-2.46.7-3.36 1.18-6.26 3.31-10.75 5a2.02 1.88 13.4 0 0-.46.26l-5.24 4.18a1 1 0 0 1-1.61-.92q.24-1.78-.57-2.4a1.29 1.28-30.3 0 0-.97-.25q-4.7.63-11.79 1.25-6.39.56-8.27 6.46-1.28 4.04-2.17 13.27a1 1-69.9 0 0 .39.85l4.49 3.09a2.2 1.63 64.8 0 0 .39.21q5.66 2.14 10.13 5.44a.66.66 0 0 0 .92-.14c2.83-3.89 6.74-6.29 9.25-10.44 1.14-1.88 1.75-6.46 3.55-9.16 2.68-4.03 8.14-7.76 12.36-9.62 4.52-2 7.32-5.01 11.71-7.27q5.97-3.08 12.8-4.99 4.06-1.14 5.37-4.84m1018.54 28.71.03-2.64a.59.59 0 0 0-1.06-.36l-3.24 4.28a1.12 1.08 70.4 0 0-.18.4q-.72 3.59 2.4 5.6a2.11 2.03 62.4 0 0 .95.32c7.02.53 12.28 4.63 16.15 10.44a.64.64 0 0 0 1.17-.36v-4.66a.99.98-76.9 0 0-.54-.88c-5.77-2.83-9.22-4.58-12.2-9.68a1.27 1.26 81 0 0-.82-.6q-1.68-.37-2.17-.79a1.44 1.41 21.1 0 1-.49-1.07"/><g fill="#fceabc"><path d="m1184.37 65.13-1.5-6.04a.4.4-12.6 0 1 .32-.5q4.19-.77 8.22.96a3 3 40.1 0 0 2.77-.23q2.85-1.84 6.64-2.66a1.11 1.09-84.7 0 0 .79-.67q1.15-2.89 1.56-3.28c7.76-7.42 19.28-2.61 21.28 7.35.89 4.48-.68 5.98-3.92 9.26-6.65 6.72-12.88 1.89-18.56-2.56-4.72-3.7-11.5-3.41-16.96-1.3a.49.48-17.3 0 1-.64-.33m35.98-.94a3.6 3.6-37 0 0 .46-3.25l-1.72-4.99a1.18.93 22.4 0 0-.19-.34c-2.62-3.32-7.26-4.92-10.57-1.56-2.28 2.33-4.28 5.55-2.28 8.6q2.45 3.74 5.76 5.3a2.44 2.41 52.4 0 0 1.48.2q4.94-.91 7.06-3.96m-58.2-1.44c1.15-3.32 3.49-5.82 7.06-5.34a1.16 1.15 78.3 0 1 .86.57l2.72 4.7a1.58 1.57-28.7 0 1-.64 2.18q-5.16 2.66-9.63-.85a1.1 1.1 0 0 1-.37-1.26m-4.65 2.61a1.74 1.74 0 0 1-2.1 1.28l-2.39-.58a4.2 3.64 13.7 0 1-3.22-4.53 4.2 3.64 13.7 0 1 4.94-2.55l2.39.59a1.74 1.74 0 0 1 1.28 2.1zm-26.16 4.57a1.6 1.6-67.4 0 0-.8-1.96q-2.77-1.4-5.75-3.03a1.68 1.46-50.3 0 1-.06-2.57c1.89-1.69 3.36 1.4 4.14 3.07a1.75 1.74-85.6 0 0 .64.75q.96.65 3.61.68a1.02 1.01 83.3 0 1 .97.77q1.05 4.32-2.95 6.07a2.39 2.37 34.4 0 1-1.09.2q-3.72-.2-6.22-3.1a1.65 1.64-43 0 1 .08-2.23l.2-.19a1 1 0 0 1 1.42 0l3.28 3.28a.74.73-21.7 0 0 .48.2q1.4.01 2.05-1.94m-94.52 20.56q-.94-1.94-.44-4.27a.89.88 89 0 1 .66-.69l5.68-1.42a2.6 2.51-67.1 0 0 .77-.33c4.1-2.61 8.13-4.36 13.16-3.24q2.95.66 5.97-1.34a2.8 2.74-62.3 0 1 1.42-.46l10.93-.45a1.04 1.03 4.2 0 1 1.06 1.22l-.05.25a1.3 1.3 0 0 1-1.63 1.02c-3.69-1.01-6.54 1.42-9.51 2.18-3.55.91-5.49 1.59-7.82 3.46-5.12 4.11-14.18 4.1-19.69 4.37a.54.53 74.8 0 1-.51-.3m-33.37 6.89c3.83-.92 6.2-3.07 10.53-3.48a12.62 11.56-51.9 0 0 1.75-.29q4.14-1.03 4.88-1.27c1.96-.63 3.74-3.3 5.61-4.26q3.45-1.79 6.31 1.87a1.9 1.9-42.6 0 1-.11 2.42c-2.32 2.51-6.56 2.94-9.85 2.76a1.99 1.82-47.5 0 0-.58.05l-15 3.74a4 4-72.2 0 0-1.69.87c-3.11 2.71-7.55 4.92-11.15 1.44a.83.82-52.4 0 1-.13-1.03q2.21-3.61 6.51-3.35a.38.38 0 0 1 .05.76q-1.51.31-2.51 1.09a1.29 1.29 0 0 0 1.09 2.27q2.39-.57 3.75-3.17a.84.81 6.2 0 1 .54-.42m21.73-5.28 4.72-.95a.2.2 0 0 0 .15-.22l-.05-.27a2.41 1.78-11.4 0 0-2.72-1.27l-.37.08a2.41 1.78-11.4 0 0-2.01 2.22l.06.27a.2.2 0 0 0 .22.14m-62.88 19.94a.37.37 0 0 1-.55-.47q1.05-2.1 3.2-2.91l7.83-2.95q.51-.19 2.39-.04a1.68 1.64-57.1 0 0 .96-.22q5.82-3.28 10.01-3.55c2.13-.14 3.21-1.66 5.27-1.52a.63.62 35.7 0 1 .2 1.2q-3.32 1.37-3.47 4.92a1.58 1.52-30.8 0 1-.19.7c-2.39 4.46-8.57 1.8-11.96 2.54q-3.18.71-8.58 4.39a2.31 2.3 41.8 0 1-2.36.13l-.78-.4a.54.54 0 0 1-.01-.95q3.95-2.11 8.01-3.37.38-.12 1.54-1.43a.31.31 0 0 0-.22-.52c-3.06-.16-4.28 1.76-6.55 2.1q-1.85.28-4.74 2.35m-670.62 9.06a.79.79 0 0 1-.73 1.29l-2.87-.44a1.46 1.44-49.1 0 0-.65.05l-5.24 1.66a2.72 2.47 15.3 0 0-.73.37c-3.91 2.81-6.61 5.32-10.89 4.19q-2.58-.69-5.04-.33a1.7 1.7 0 0 1-1.91-2.07q.87-3.8-1.27-6.38-1.1-1.34-.69-2.87 1.62-5.98 7.46-8.18c3.62-1.35 5.71-.06 9.05 2.04a3.66 3.6-2.8 0 1 .84.75q2.35 2.86 5.55 4.37a18 18 0 0 1 7.12 5.55m-11.07-1.04 4.67.05a1.09 1.08-23.3 0 0 .75-1.88q-2.27-2.09-5.29-.88a2.25 2.11 67.3 0 1-2.78-1.25c-1.37-3.14-4.33-6.26-7.81-4.49a.99.96 7.2 0 0-.28.21l-3.24 3.36a2.89 2.88 61.9 0 0-.76 2.51c.39 2.22 1.07 4.8 3.47 5.88 3.94 1.77 6.94.1 9.65-2.82a2.2 2.19-68 0 1 1.62-.69m671.85-5.62q-.05.68-.4.71-.64.06-1.01-.16c-5.37-3.07-8.85-.25-11.36 4.28a2.6 2.59-49.5 0 0 .22 2.85q2.04 2.63 5.02 4.18c3.9 2.03 7.48-1.15 9.53-4.36 1.03-1.62-.38-3.8 1.61-4.89q2.55-1.41 4.65-3.88a.57.57 0 0 1 .98.52q-.5 1.8-2.29 3.14c-1.95 1.46-2 2.14-1.54 4.16a1.72 1.67-39.4 0 1-.12 1.07l-1.92 4.08a1.25 1.23 83.2 0 1-.34.44c-4.03 3.35-7.72 4.21-12.68 2.26q-3.1-1.23-5.61-1.77a1.92 1.89-45.3 0 0-.84.01q-4.7 1.05-6.76 4.45a1.4 1.4 0 0 1-1.4.66l-5.6-.85a2 2 0 0 1-1.42-3.01q3.25-5.41 10.97-6.82a.8.8 0 0 1 .96.83q-.02.48-.85 1.52a1 1 0 0 1-.98.31q-3.82-1.06-7.26 2.57a1.6 1.5 40.9 0 0 .24 2.27q1.86 1.5 4.38.25a1.9 1.76-81.6 0 0 .65-.52l2.18-2.74a.8.8 0 0 1 .9-.23q1.96.85 3.67.55a1 1 0 0 0 .75-.55q1.53-2.85-.73-4.72a.7.7 0 0 1-.11-.99q1.31-1.7 2.47-3.78c3.11-5.65 7.47-5.34 13.08-4.1q1.06.23 3.85-.96a1.67 1.66-42.5 0 1 1.41.06l.93.49a.46.46 0 0 1-.1.85l-4.54 1.13a.79.78-4.8 0 0-.59.69m-633.04 9.38q-1.76-.43-3.55-1.72a1.94 1.87-20.6 0 0-.81-.35q-3.94-.67-5.62 1.65a1.5 1.49-71.8 0 0 1.2 2.38q4.53.01 7.42.85a.48.47-38.4 0 1-.11.93q-7.12.37-13.1-2.6-.79-.39-5.12-.56c-2.54-.09-4.58 1.68-7.38 1.55a.41.41-58.6 0 1-.18-.76l2.34-1.35a.85.84-22.1 0 0 .4-.93l-.53-2.1a1.21 1.19 52.3 0 1 .1-.82l2.02-3.86a1.98 1.98 0 0 1 3.26-.38q1.05 1.21 1.1 2.94a3.4 2.83-82.2 0 0 1.85 2.96q2.11.82 3.47-.98a1.21 1.19-75.3 0 1 .79-.47l6.52-.81a1.1 1.05-36.8 0 1 .5.06l4.15 1.42a.3.29 33.1 0 0 .3-.06q.96-.89 1.53-1.15a.67.67 0 0 1 .82 1q-.98 1.34-.8 2.66a.46.46 0 0 1-.57.5m20.79 2.74q-.05-1.51-2.35-3a.45.45 0 0 1-.03-.73l.31-.25a1 1 0 0 1 1.36.11q3.04 3.34 8.18 4.12a3.11 2.98-46.3 0 0 1.12-.05q6.54-1.54 12.2-1.33c4 .14 6.9 6.24 8.57 8.03a1.35 1.35 0 0 0 2.24-.44q.52-1.34 1.69-1.95a1.21 1.1-59.1 0 1 .46-.14l6.36-.48a3.71 3.69-21.4 0 1 3.18 1.38l3.6 4.52a.5.5 0 0 0 .79-.03q1.1-1.66 1.46-2.65c.8-2.17 3.19-2.27 4.7-1.3 2.21 1.41 4.24 3.49 5.06 6.22a1.84 1.83 59.4 0 1-.46 1.82l-3.71 3.71a1.66 1.66 0 0 1-2.06.23q-3.15-1.98-4.08-3.72a1.03 1.02 78.5 0 0-.81-.54q-3.69-.34-4.31-.18-4.87 1.3-8.42 1.49a1.51 1.47-27.9 0 1-.92-.27q-1.12-.83-2.87-2.51c-3.69-3.56-7.05-2.25-11.1-.23a3.3 3.3 0 0 1-4.04-.91c-2.17-2.76-3.8-4.49-7.54-5.19q-15.38-2.84-17.04-3.07c-3.56-.48-6.4-2.3-8.76-4.48a.56.56 0 0 1 .54-.95q9.06 2.79 16.06 3.37a.6.6 0 0 0 .62-.6m52 7.18a.77.77 0 0 0-1.15.55l-.73 4.82a.88.85-50.4 0 0 .03.39q.81 2.53 2.92 2.45a1.51 1.49-68.3 0 0 1.01-.44l2.66-2.66a1.63 1.63 0 0 0-.34-2.57zm511.98 2a.7.7 0 0 1-1.21-.7q3.98-8.93 14.55-6.54a.5.5 0 0 1 .32.74l-.46.79a1.3 1.3 0 0 1-1.31.63l-2.98-.45a1.57 1.34 38.3 0 0-.54.02q-5.17 1.16-8.37 5.51m6.03 4.98q5.58-1.56 7.03-7.26a.88.87-68.9 0 1 1.25-.56l.38.2a1.86 1.86 0 0 1 .84 2.41q-2.81 6.3-9.27 6.63a.72.72 0 0 1-.23-1.42m-392.61 17.52q1.04.44 1.27 1.93.19 1.2-1.16 1.75-2.08.83-3.3.59a2.01 1.98-17.9 0 1-.93-.47q-1.63-1.44-2.88-1.82a2.97 2.95 51.5 0 0-1.02-.12q-3.45.15-4.18-.32-4.07-2.69-9.35-2.58a1.07 1.06 18.1 0 0-.82.41c-3.77 4.82-10.82 9.56-16.61 5.76-2.36-1.55-4.47-5.88-6.52-8.23a.34.34 0 0 1 .29-.56q1.23.15 1.85-.29c.6-.43.02-2.45.3-3.62a1.23 1.2-10.3 0 1 .53-.75q1.59-1.01 3.03-2.91a2.9 2.74-2.2 0 1 .54-.55q3.94-3 9.7-2.87a2.4 2.4 0 0 1 1.98 1.17l5.79 10.03a.8.8 61.3 0 0 1.08.32q1.21-.64 2.91-.49a1.62 1.5-24.8 0 1 .71.23c2.6 1.62 6.99 3.75 10.11 2.72q2.58-.85 4.58-1.81.58-.28 1-.25a.78.78 0 0 1 .07 1.54q-.84.15-1.61.76-.71.57-.07 1.33.54.65 1.3.51a.95.94-1.8 0 0 .76-.8v-.17a.47.47 0 0 1 .65-.44m-25.44-1.09a3.04 3.04 0 0 0 .43-3.62l-3.41-5.9a3.2 3.2 0 0 0-3.21-1.6q-6.43.81-9.45 7.27a2.3 2.3 40 0 0 .2 2.25q.9 1.27 3.71 4.51c3.35 3.86 8.96.01 11.73-2.91m403.21-12.91a.7.7 0 0 1 .9.29l.03.05a.54.53-26.8 0 1-.25.75c-5.21 2.24-9.35 5.26-12.99 7.35a5.34 4.57 4.4 0 0-.74.54q-3.73 3.38-9.71 5.73a.7.7-25.1 0 1-.86-.31l-.01-.02a.56.56 0 0 1 .24-.77q3.97-1.93 7.45-4.37 7.61-5.34 15.94-9.24M870.89 148a.43.43 0 0 1 .51.56q-.29.82-1.56 1.27a.34.34 0 0 1-.43-.44q.45-1.13 1.48-1.39m-349.43 3.95q.93-.1 1.49.79a.63.63 0 0 1-.18.85q-.28.19-1.11.27t-1.15-.04a.63.63 0 0 1-.34-.8q.36-.98 1.29-1.07m333.82 11.83-2.54-1.64a.8.79-19.1 0 0-.17-.08c-6.58-2.1-9.74 3.08-9.78 8.7a1.63 1.61-63.1 0 0 .3.94q2.77 3.8 7.25 2.67 1.12-.28 5.14-3.19a.67.64-11.1 0 0 .26-.37l1.02-3.36a.63.63 0 0 1 1.14-.13l1.24 2.14a1.47 1.46-39.2 0 1-.18 1.7c-3.09 3.45-4.4 5.46-8.33 6.37a.76.74-45.9 0 1-.32.01l-7.33-1.11a2.01 1.98 32.6 0 0-1.33.28l-4.72 2.93a4.41 4.34-69.4 0 1-.84.39q-3.85 1.28-6.76 4.82c-1.77 2.16-2.07 4.28-3.14 6.32q-1.06 2.02-2.33 2.52a1.05 1.04 39 0 1-.6.06l-6.77-1.22a.42.42 0 0 1-.28-.64q2.65-4.31 3.04-4.81 3-3.94 7.13-3.5a1.05 1.04-66.1 0 0 .9-.35l2.15-2.45a1.4 1.17-83.7 0 1 .22-.21q2.74-2.13 7.01-2.9a1.99 1.93 18.4 0 0 .93-.45q1.14-.99 2.65-1.3a1.16 1.16 0 0 0 .78-1.72l-.81-1.41a1.54 1.51 33.2 0 1-.2-.92c.66-6.81 2.2-12.71 10.68-12.17a1.23 1.03-28.3 0 1 .34.07l2.51.99a3.95 3.94 40.6 0 0 3.43-.26l6.56-3.78a.48.47-37.8 0 1 .58.07l.18.18a.5.5 0 0 1-.13.82c-3.57 1.79-7.33 3.17-7.98 5.64a.6.6 0 0 1-.9.35m-29.97 21.3q-4.01-.13-5.87 3.9a1.02 1.01 38.6 0 0 .12 1.05c1.13 1.43 3.23 1.88 4.71.54q1.48-1.34 2.29-3.67a1.38 1.38-79.6 0 0-1.25-1.82m-160.17 14.9q-2.09 2.93-4.12 4.06a.83.82-16.1 0 0-.42.75q.05.99-1.37 1.9a.7.7 0 0 1-.95-.15c-1.56-1.84-2.37-2.58-3.4-4.38q-1.77-3.09-5.13-3.52-1.31-.16-2.69-1.12c-4.01-2.79-6.67 1.43-9.51 3.28-3.1 2.02-6.32 1.55-9.53.48-3.82-1.27-3.96-8.17-8.04-7.98q-5.02.23-10.32-1.27a.87.86-73.6 0 1-.59-1.09c.8-2.6 1.75-5.88-2.33-6.16q-2.38-.17-4.92-1.11c-4.26-1.59-7.28-1.7-11.42-1.53a2.3 2.3-15.9 0 1-2.1-1.17c-1.27-2.25-3.63-4.36-6.29-3.58q-1.29.38-2.32.11a2.6 2.52-16.7 0 1-1.06-.55q-5-4.34-6.88-5.64c-1.2-.83-3.38-1.6-5.36-1.87-2.3-.32-4.51-2.47-7.04-1.94a1 1 0 0 0-.61 1.54q1.22 1.76 2.67 2.56a1.69 1.64 52.5 0 0 1.15.17c1.62-.34 2.49-.56 3.91.28q1.73 1 4.26 1.23a1.06.99 23.7 0 1 .74 1.7q-.89.89-2.19.61-4.2-.91-8.36-1.75-1.53-.31-5.89-3a6 6 59.6 0 0-3.43-.9l-5.94.24a2 1.97 26.9 0 0-.94.3c-2.3 1.46-4.89 3.11-6.75-.04a1.02 1.02 0 0 1 1.26-1.47q1.64.66 2.3.76 1.35.22 1.59-.08a1.63 1.5 28.1 0 0-.84-2.41q-2.81-.96-3.16-1.02a1.01.99-5.3 0 1-.8-.65c-1.34-3.82 2.29-5.78 5.45-5.79q2.19-.02 4.21-.85c4.19-1.73 5.34 2.39 6.61 5.7a1.57 1.56-16.6 0 0 1.8.97c2.34-.51 4.01-.62 6.51.31q3.49 1.3 7.93 2.7 1.25.4 6.69 3.65a2.36 2.3-28.9 0 0 1.2.33h3.26a.82.8 77.2 0 1 .73.47q.98 2.11 3.06 1.52a.97.96-88.7 0 0 .65-.63c.72-2.17 1.74-3.85 4.33-3.22 3.32.8 5.09 3.46 8.23 6.83a5.27 5.24 78.3 0 0 2.04 1.35l6.53 2.37a3.87 3.83-49.9 0 0 3.22-.29l3.88-2.24a3.6 3.6-50.8 0 1 2.89-.3q2.7.9 4.8 3.68c1.29 1.7 3.66.77 5.32-.4q4.76-3.38 10.41-.67c4.05 1.94 3.35 6.38 7.18 9.09q2.43 1.71 10.62 4.45 4.49 1.5 7.52.02a.6.59 69.9 0 1 .84.4l1.05 4.2a.95.94-34.8 0 1-.14.76M551.18 163.3a1.6 1.6 0 0 0-2.14-1.36l-3.46 1.24a1.2 1.2 0 0 1-1.34-.43q-.68-.96-1.34-.9-.65.06-1.78.83-.69.48-.55 1.87a.67.65 6 0 0 .47.57l7.93 2.4a1.09 1.08 33.3 0 0 .99-.2q1.49-1.25 1.22-4.02m36.99 11.38a3.5 2.65-145.8 0 0 1.4 4.16 3.5 2.65-145.8 0 0 4.38-.22 3.5 2.65-145.8 0 0-1.4-4.16 3.5 2.65-145.8 0 0-4.38.22M615.3 189l6.45-1.09a.6.6 0 0 0 .42-.86c-1.8-3.33-5.95-7.82-9.31-2.75a1.56 1.54-29.6 0 0-.26.92q.05 2.1 1.99 3.61a.92.91 58.1 0 0 .71.17m20.15-4.29q-5.59-.28-10.13 3.71a1.13 1.11 61.7 0 0-.33 1.14q2.42 8.64 10.96 6.2 1.33-.38 3.96-3.05a1.07 1.05-29.8 0 0 .28-.98q-.85-3.81-3.57-6.51a1.8 1.78 68.2 0 0-1.17-.51m34.35 22.21a2.03 2.03-82 0 0 2.24 2.98l7.55-1.88a.94.92-28.4 0 1 .9.26c1.75 1.81 6.57 3.33 9.52 6.05q1.79 1.64 4.48-.48a1.07 1.07 0 0 1 1.69.52q.75 2.41-.77 2.48h-.01q-2.94-.2-6.59-1.11c-5.26-1.33-9.34-1.31-14.21-1.81q-3.83-.39-6.7-1.8a3.04 3.01 9.2 0 1-1.67-2.3l-.83-6.02a.61.59-20.3 0 1 .29-.6l6.31-3.64a1.03 1.02-49.4 0 1 .87-.07q3.26 1.22 6.8 3.75c3.21 2.29 7.6 3.53 10.89 3.97a3.12 3.11 78.7 0 1 2.29 1.53l1.1 1.92a.71.7-5.6 0 1-.84 1.02q-10.92-3.72-19.4-9.01a1.23 1.22 30.8 0 0-1.71.43zm185.33 126.72q-.85-.81-.98-2.06a1 1 0 0 0-.61-.85q-2.61-1.18-3.15-3.45a2.12 2.03-30.4 0 0-3.55-.84c-2.49 2.58-4.97 5.01-8.45 3.97a1.48 1.47-8.7 0 1-.78-.57c-1.13-1.6-2.84-3.7-1.45-5.38q.91-1.1 1.18-2.38a1.75 1.69 40.4 0 0-.1-1.02c-2.2-5.13-4.19-8.68-3.02-13.62a2.39 2.33-10.9 0 1 .98-1.41q2.57-1.72 3.45-1.95 4.73-1.2 10.84-2.16a3 3-21.3 0 1 2.93 1.28q.97 1.43 3.89 6.16 3.27 5.31-.6 10.85-1.3 1.85-.19 3.76a.85.85 0 0 1-.86 1.27l-1.04-.16a1.72 1.72 0 0 0-1.75 2.56l1.39 2.4a.9.88-29.9 0 0 1.22.32l2.31-1.33a.86.86 0 0 1 1.05.14q1.79 1.84 3.32 3.18c1.54 1.36 1.8 4.14 3.76 5.2a.53.52-40.3 0 1-.08.96q-1.2.41-2.6-.12a.9.9 0 0 1-.55-.9q.33-3.08-2.55-5.75a1 .77 70.6 0 0-.28-.18q-1.65-.68-2.88 1.92a.53.53 0 0 1-.85.16m-15.33-23.93c-1.9 3.3-.84 5.82 1.48 8.92a1.47 1.43-3.8 0 0 .47.4l5.37 2.8a2.3 2.3 43.3 0 0 2.2-.06q3.89-2.31 3.88-7.19a1.55 1.46 35.3 0 0-.09-.45l-1.88-4.62a3.4 3.4 83.1 0 0-2.7-2.12q-3.96-.56-8.03 1.64a1.77 1.74.4 0 0-.7.68m-.23 16.22a1.77 1.49-8.7 0 0 2.28 1.39q1.93-.58 2.59-1.65c1.32-2.13-.86-3.29-2.62-3.35a1.1 1.1 16.6 0 0-.99.53q-1.21 1.98-1.26 3.08m54.89 32.58q-2.37-2.65-4.73-3.12a1.28 1.27 79.6 0 1-.82-.57q-1.02-1.65-2.92-2.24a.9.89 12.2 0 1-.63-.97v-.03a.7.7 0 0 1 .82-.61c2.57.39 4.62 2.52 8.04 5.1a2.39 2.35 7.9 0 1 .81 1.05c1.15 2.89.46 4.61 3.07 7.51a1.7 1.7 0 0 0 .86.51q3.42.79 6.07 4.94a2.33 2.08 52.5 0 1-.21 2.81c-2.43 2.31-7.04 4.26-9.37.65q-2.65-4.09-.14-7.36a1.58 1.57 66.6 0 0 .33-.84q.12-1.45-.44-1.73-.74-.37-.58-1.36.5-3.01-.16-3.74m1.52 9.95a3.78 3.27-151.1 0 0 1.73 4.7 3.78 3.27-151.1 0 0 4.89-1.04 3.78 3.27-151.1 0 0-1.73-4.7 3.78 3.27-151.1 0 0-4.89 1.04m-307.76.86q-3.14-.14-4.4 2.77a2.18 2.09-10.9 0 1-.53.75q-1.92 1.78-2.16 3.3-1.32 8.08-6.33 13.13a2.12 2.11-59.2 0 1-2.12.54l-5.47-1.65a1.5 1.48-1 0 1-.98-.93q-1.23-3.42-3.98-3.58a1.25 1.24-77.5 0 1-1.08-1.7q3-7.69 7.04-10.75a1.3 1.3 0 0 0 .51-.84q.2-1.1.03-1.93a1.14 1.14 0 0 1 1.92-1.03l1.94 1.94a2.01 1.97-14.3 0 0 .88.51q3.21.87 5.49 3.29a1.53 1.53 0 0 0 2.51-.44q2.07-4.71 6.53-5.2a.82.82 0 0 1 .88 1.05l-.12.37a.56.55 9.2 0 1-.56.4m-16.66 16.75q2.5-.83 4.23-3.11a1 1 0 0 0 .14-.28l1.86-6.17a2.2 2.2 0 0 0-1.09-2.6l-5.07-2.65a1 1 0 0 0-.95.05q-3.99 2.6-5.87 7.95a2.52 2.51 32.2 0 0 .6 2.61l3.59 3.6a2.51 2.49-31.6 0 0 2.56.6m355.2-6.63c3.41-1.24 5.84 1.42 7.53 4 1.29 1.98 3.73 3.9 5.12 5.72a2.3 2.3 0 0 1 .1 2.63q-3.12 4.76-7.38 3.11c-1.7-.66-5.81-4.41-6.63-6.62-.94-2.52-2.08-7.62 1.26-8.84m5.33 5.26c.02-2.75-2.06-4.42-4.79-3.57a1.2 1.2 0 0 0-.72.65c-1.57 3.74 2.21 3.6 2.73 6q.96 4.5 5.56 4.84a2.3 2.09-82.1 0 0 2.24-1.87c.53-2.79-2.64-3.75-4.39-4.89a1.39 1.38 16.6 0 1-.63-1.16m-372.87 8.14a.2.2 0 0 1 .19.17l.01.08a1.95 1.94-3.3 0 1-1.84 2.04l-.14.01a1.95 1.94-3.3 0 1-2.06-1.82v-.08a.2.2 0 0 1 .17-.19zm-67.97 17.2q-.34 1-1.47 1.29-4.21 1.08-8.58 3.86c-2.09 1.33-4.19 3.38-6.8 3.86q-1.46.27-2.72 1.17a2.06 2.02-3.2 0 0-.62.68q-2.92 5.19-3.41 5.96-3.55 5.68-10.15 3.71-.85-.25-2.3-2.25a1.97 1.87 84.2 0 0-.7-.6c-2.38-1.2-4.36 1.33-5.08 3.4a1.88 1.84 79.3 0 1-.52.78q-2.84 2.59-6.25 2.23a1.16 1.13-51.5 0 0-.47.06l-10.32 3.7a.87.87 0 0 1-1.13-1.04l.33-1.23a1.51 1.5-86.2 0 1 1.26-1.11q.74-.1 3.49-1.46 1.83-.9 2.79-2.63a1.02 1.02 0 0 0-.6-1.48q-3.72-1.11-6.4 1.16-2.11 1.78-3.06 3.45a.8.79-51.6 0 1-1.28.15l-.08-.08a1.41 1.39 40.4 0 1-.15-1.72q2.61-4 7.36-5.17c2.23-.55 4.3.96 6.38.92a1.1 1.1 0 0 0 .88-.49q1.54-2.39 5.46-3.62c4.9-1.53 7.03-6.53 10.55-8.95q5-3.43 11.08 0a1.3 1.23.8 0 1 .47.46l.33.59a.98.97-5 0 1-1.18 1.4l-3.5-1.28a2.28 2.06 54.2 0 0-.61-.13c-6.11-.45-6.24 5.04-9.87 7.06a3.75 3.39-62.8 0 1-.98.37q-4.94 1.1-9.12 4.5a1.57 1.57 0 0 0-.01 2.43c2.69 2.21 4.09-1.51 5.42-3.13a1.63 1.52-79.8 0 1 .63-.47l3.63-1.48a2.26 2.24 50.9 0 1 2.11.23l3.15 2.12a2 2 65 0 0 1.01.37q1.65.19 3.35-.32a2.32 2.3-75.7 0 0 1.05-.63c2.77-2.79 3.34-7.82 8.77-8.77a1.32 1.17-62.4 0 0 .42-.16l10.94-6.45a2.45 2.43 29.3 0 1 1.26-.35q3.6.01 4.94-1.12a.19.19 0 0 1 .3.21m449.21 2.92a4.79 4.26-164.8 0 1 5.74-2.85 4.79 4.26-164.8 0 1 3.5 5.37 4.79 4.26-164.8 0 1-5.74 2.85 4.79 4.26-164.8 0 1-3.5-5.37m1.39-.01a2.72 2.51-165.5 0 0 2 3.11 2.72 2.51-165.5 0 0 3.26-1.75 2.72 2.51-165.5 0 0-2-3.11 2.72 2.51-165.5 0 0-3.26 1.75M243.86 520a.88.88 0 0 0 .99-1.43q-2.75-2.69-6.67-1.66a.49.49 0 0 1-.54-.72q1.55-2.59 2.41-5.33c.7-2.21 1.92-3.38 2.85-5.28a2.84 2.69 81.3 0 1 .45-.65c2.72-3.02 6.72-5.58 10.98-3.5q3.56 1.73 5.77 2.36a1.78 1.76 84.1 0 1 1.07.88q.49.9 1.48 1.38a1.01.92 4.9 0 0 1.42-1.09q-.38-1.04-.09-1.89 1.53-4.5 4.53-6.73a4.44 4.28-69.5 0 1 1.51-.72q2.01-.51 7.87-2.47 2.54-.85 4.89-.76a2.31 2.3-64.7 0 0 1.64-.59q3.26-2.94 5.55-3.87c1.79-.73 4.54-.29 6.33-1.37q2.89-1.73 11.72-6.8 1.04-.59 7.44-2.16a1.77 1.21-55.7 0 0 .28-.11l5.34-2.94a2.29 2.06-64 0 1 .52-.21l3.02-.75a.85.84-3.5 0 0 .64-.72q.68-5.62 4.12-9.84a3.64 3.62 19.2 0 1 2.77-1.33q2.76-.02 5.44.41c2.32.37 4.49 2.53 6.88 2.72q4.67.36 9.54-2.54a3.77 3.5-81.8 0 0 .83-.67q2.27-2.41 5.29-3.82 1.32-.61 1.99-1.96 1.09-2.19 3.55-4.15a3 3 0 0 1 2.99-.43q3.8 1.57 7.98 1.48a2 2 0 0 0 1.9-1.55q.95-4.19 4.37-8.06a3.4 3.33-74.3 0 1 1.84-1.06q6.18-1.22 11.05.65a1.47 1.47 0 0 1-.69 2.83c-5.44-.62-9.7-.4-12.97 4.7a1.64 1.58-32.9 0 0-.24 1.03q.13 1.22 2.05 2.56a1.29 1.23 61.2 0 0 .72.23h6.05a1.86 1.85 16.7 0 0 1.55-.83c4.04-6.15 12.99-9.27 19.76-11.5a.27.27 0 0 1 .24.48q-5.45 3.76-12.69 5.36a1.78 1.77.5 0 0-1.34 1.31c-1.8 7.16-6.52 8.78-13.59 9.71a1.27 1.26 54.9 0 1-.74-.13l-4.06-2.12a1.75 1.75 0 0 0-2.16.42q-2.81 3.34-6.11 5.45c-7.57 4.85-24.09.35-26.57 13.25a2.5 2.5 71.5 0 1-.6 1.21c-2.07 2.36-7.64 5.8-11.29 4.96-2.82-.65-6.88-2.07-11.17-1.4q-2.05.31-4.69 1.59c-6.25 3.04-11.13 4.63-14.73 8.97a1.62 1.61 48 0 0-.1 1.94q.77 1.12.95 1.88a.64.64 0 0 1-1.12.56q-.74-.93-1.23-2.29a.9.9 0 0 0-.75-.58q-2.54-.26-3.36.15-4.59 2.29-10.77 4.9a1.02.74 9.2 0 0-.2.1l-7.74 4.84a5.96 5.47-81.2 0 0-1 .8c-2.63 2.64-5.29 5.28-9.33 5.02-2.57-.17-5.66.34-6.88 2.71a2 2 0 0 0-.21.87c-.01 5.3-4.24 8.43-8.9 9.73a2.59 2.52 42 0 1-1.24.05q-2.69-.54-7.63.51-.88.19-2.88-.56a.77.77 0 0 1-.41-1.08l.64-1.23a1.23 1.22 33.7 0 1 1.87-.37q1.36 1.13 1.62 1.25m86.66-46.88q1.18 2.97 3.44 4.33a.95.92-44.8 0 0 .97-.01c3.29-2.03 7.42-3.01 8.75-7.46a.8.8 0 0 0-.34-.9c-2.35-1.5-7.75-4.36-10.01-2.05q-2.57 2.63-2.94 4.99a2.19 2.15-52.3 0 0 .13 1.1m-49.99 22.76q-2.26-.64-4.02 1.67a1.5 1.5 0 0 1-1.16.58q-5.06.07-7.94 2.48a2.55 2.52 44.2 0 0 .08 3.93c1.63 1.3 5.07-.88 6.27-2.03 1.02-.98 1.38-2.51 2.17-3.64a1.2 1.2 0 0 1 .77-.49q2.28-.38 3.98-1.6a.51.51 0 0 0-.15-.9m-35.91 15.79a4.03 3.33-69.2 0 0 1.29 3.81q.64.45 3.66 1.75c2.97 1.27 5.73-.01 7.52-2.56 1.12-1.6 1.03-3.85 2.31-5.51a1.3 1.3 0 0 0-.58-2c-1.14-.42-6.46-2.71-8.71-1.83q-4.6 1.79-5.49 6.34m847.62-39.46q-1.73-.52-6.64-.34a2.33 2.31-59.9 0 0-1 .27c-1.74.93-6.17 5.21-8.76 2.44-1.5-1.6-1.37-3.43.16-5.5 1.45-1.96.37-6.2 4.34-6.61 1.72-.18 3.17.89 4.84 1.38a5.66 5.58 49.8 0 0 2.07.19c3.77-.34 8.1-1.44 10.8 1.99a.76.75 84.6 0 1-.94 1.14q-2.98-1.57-5.06-1.11c-1.91.42-3.41-.44-5.73-.19a1.69 1.68 56.8 0 1-1.03-.22c-2.22-1.31-3.78-2.95-6.29-1.48a1.52 1.51 85.3 0 0-.65.77q-.92 2.45.61 3.79a.57.57-48.1 0 1 .04.81q-.18.2-.83.47c-1.3.54-1.74 2.19-1.09 3.19a2.11 1.83-41.9 0 0 3.14-.06c3.32-3.74 8.3-3.56 12.5-1.73q.33.14.4.3.14.29.08.55a.33.32-57.6 0 1-.57.13q-.08-.1-.14-.11a2.03 1.11-2.4 0 1-.25-.07m43.04 9.2a.72.72 0 0 1-.73 1.23q-1.09-.44-6.79-4.07-1.24-.79-5.97-1.53a2.97 2.95-19.6 0 1-1.57-.74q-4.18-3.71-8.15-4.76-3.79-1.01-6.9 1.69a2.24 2.09-9.3 0 0-.48.62q-.73 1.36-1.48 1.95c-1.52 1.19-1.95 2.13-1.32 3.7q.37.94 1.64.8c2.26-.24 4.08-2.23 6.47-4.14a.92.91 32.9 0 1 .81-.17q1.87.47 3.23.2a2.6 2.46 75 0 1 2.87 1.77q.64 1.92.72 3.57a.8.8 0 0 1-.78.81h-.31a.7.7 0 0 1-.72-.72v-2.92a1.52 1.52 0 0 0-1.68-1.51q-2.42.25-3.68 1.28c-1.84 1.49-6.95 5.04-8.9 2.58q-1.18-1.5-1.45-4.08a1.05 1.04-22.9 0 1 .38-.92q2.82-2.3 4.15-5.05a.87.86 14.5 0 1 .84-.49l1.79.13a1.77 1.76-56.9 0 0 .98-.21q.42-.23.66-.89a.62.62 0 0 1 .87-.34l11.91 6.22a1.14 1.11 64.1 0 0 .25.09c4.8.98 9.57 2.83 13.34 5.9m-70.81-1.89c-.75.36-1.62.69-2.01.98-3.08 2.27-6.47.21-8.37-2.47a1.4 1.4 44.4 0 1-.02-1.55q.77-1.16.97-2.93a1.09 1.08-6 0 1 .73-.9q4.85-1.66 8.04 1.27a1.7 1.66-72.2 0 1 .52 1.04l.44 4.02a.54.53 74.6 0 1-.3.54m-8.28-3.2a3.12 2.23-174.9 0 0 2.91 2.5 3.12 2.23-174.9 0 0 3.3-1.95 3.12 2.23-174.9 0 0-2.9-2.5 3.12 2.23-174.9 0 0-3.3 1.94"/><path d="M1163.79 502.46a.72.72 0 0 1-1.41.2c-1.4-4.08-3.99-4.9-7.38-5.85a2.1 2.07 50.6 0 0-.67-.07q-2.78.18-6.95 3.09c-3.04 2.12-7.73.21-10.7-1.47-3.89-2.21-2.84-5.73-2.98-9.41a1.44 1.43 80.9 0 0-1.82-1.33q-5.78 1.59-11.12-1.62a1 1-75 0 1-.46-.81l.03-4.4a.32.31-57.8 0 1 .6-.14q1.26 2.67 1.36 2.84c2.04 3.21 4.05 2.73 7.37 1.59a3.59 3.52 39.5 0 1 1.62-.14l2.89.43a2.03 1.71 9.5 0 0 2.24-1.32q.45-2.37 3.43-2.71c2.53-.28 7.36-.14 8.98 2.35q1.34 2.06 4.25 7.76.33.64 2.46 2.59 1.78 1.61 7.07 4.31 6.17 3.16 12.42 1.05c5.21-1.75 9.19-1.19 10.96 4.65.62 2.04 2.95 8.45 5.75 7.8a.9.9 0 0 1 .96.42q.79 1.41 2.12 2.44a.75.74 33.7 0 1 .2.96l-.53.91a1.18 1.17 57.1 0 0-.15.71c.26 2.41 2.78 3.39 5.13 4.24a.72.72 0 0 1-.07 1.38c-2.89.7-6.03-2.86-7.48-5a1.7 1.66-62.2 0 1-.29-.98l.05-2.8a1.09 1 42.3 0 0-.03-.32q-.32-1.18-1.73-.97a.94.9-30.7 0 1-.65-.15l-4.76-3.28a1.31 1.27 10.8 0 1-.5-.71q-.57-2.14-.81-4.42a3.68 2.81-88.9 0 0-2.25-3.07c-3.11-.75-5.65 1.02-8.48 2.85a1.05 1.05 0 0 1-1.62-.89q0-.8-.8-1.77a.89.88-20.5 0 0-.73-.33l-4.16.22a1.85 1.83 19.2 0 0-1.28.61q-.06.06-.08.56m-12.43-10.21-6.06-7.61a.86.84-4.8 0 0-.3-.25q-3.64-1.86-6.83 1.2a.7.7 0 0 0-.19.46l.15 7.61a.86.78 35 0 0 .08.35q1.86 3.98 5.62 3.92a2.98 2.93 34.2 0 0 .93-.17c2.65-.95 8.05-2.49 6.73-5.29a.94.89-77.1 0 0-.13-.22"/><path d="M1164.67 507.46a.14.13 38.8 0 1-.03-.26q2.59-1.02 5.27-1.05a1 1-14.6 0 1 .84.49q2.41 4.48 5.23 7.14a1.2 1.2 0 0 0 .88.31l9.43-.73a1.31 1.3-2.2 0 1 1.41 1.3v2.6a.43.43 0 0 1-.62.38c-3.24-1.61-7.56-.41-10.73-1.32q-4.97-1.43-8.6-4.38a.34.33-56.7 0 1-.08-.41l.12-.22a.33.33 0 0 1 .44-.14l2.08 1.09a.34.34 0 0 0 .49-.3v-3.13a.52.51-85.4 0 0-.43-.51zm57.63 29.63c-3.58 3.25-7.79 3.83-12.65 2.17q-2.02-.69-5.35-.67a.81.81 0 0 1-.49-1.46q1.03-.75 2.85-.93a.96.95-5.4 0 0 .87-1.04q-.32-3.7-2.66-6.26c-.9-.98-1.7-2.47-2.07-3.57a.46.46 0 0 1 .76-.47l2.33 2.34a1.23 1.19 79.5 0 0 .24.17q1.66.91 3.68 0a1.26 1.18 57.3 0 0 .35-1.9c-2.13-2.55-4.35-2.37-7.34-2.41a1.02 1.01-14.5 0 1-.89-.52l-4.57-7.9a.41.41 0 0 1 .36-.61h.4a.33.32 70.7 0 1 .26.13l4.21 5.34a5 5-12.8 0 0 2.8 1.76q.39.1 8.45 3.48c2.82 1.18 5.08 2.93 7.17 4.71a4.21 4.15 77.9 0 0 .87.57l6.27 3.13a.47.47-21.8 0 1-.37.85q-6.93-2.43-12.18-5.61-1.15-.7-3.73-.66a.85.84 6.1 0 0-.81.65q-1.1 4.53-.59 5.88 1.61 4.27 5.68 2.55 2.93-1.24 5.63-3.16a.15.15 0 0 1 .24.1l.4 3.04a.4.4-23.8 0 1-.12.3m-986.72-13.75q-1.31 3.7-5.37 4.84-6.83 1.91-12.8 4.99c-4.39 2.26-7.19 5.27-11.71 7.27-4.22 1.86-9.68 5.59-12.36 9.62-1.8 2.7-2.41 7.28-3.55 9.16-2.51 4.15-6.42 6.55-9.25 10.44a.66.66 0 0 1-.92.14q-4.47-3.3-10.13-5.44a2.2 1.63 64.8 0 1-.39-.21l-4.49-3.09a1 1-69.9 0 1-.39-.85q.89-9.23 2.17-13.27 1.88-5.9 8.27-6.46 7.09-.62 11.79-1.25a1.29 1.28-30.3 0 1 .97.25q.81.62.57 2.4a1 1 0 0 0 1.61.92l5.24-4.18a2.02 1.88 13.4 0 1 .46-.26q4.49-1.69 10.75-5 .9-.48 3.36-1.18a.49.48 22.5 0 1 .37.89l-5.8 3.23a.97.95 75.9 0 0-.49.84l.01.04a.61.6 74 0 0 .82.46q5.21-2.09 11.96-5.66 2.28-1.21 3.79-3.34a.77.77 0 0 0-.96-1.15q-3.15 1.49-5.86 4.49a.35.35 0 0 1-.53-.01l-.21-.27a.48.47-41.7 0 1 .04-.63l4.85-4.85a1.76 1.75 36.1 0 1 2.06-.32l2.14 1.12a1.03 1.02 41.6 0 0 1.06-.06q.58-.41 1.21-1.48a.83.83 0 0 1 1.06-.33q5.08 2.34 10.36-2.02a.19.18 80.5 0 1 .29.21m-50.02 23.88c-4.65-1.56-9.22-3.18-13.21.27-3.57 3.08-4.42 7.82-1.51 11.71q1.73 2.31 5.46 4.23a1.66 1.65 55 0 0 .95.17q10.91-1.25 9.96-12.28-.17-1.96-.93-3.48a1.2 1.2 0 0 0-.72-.62m1069.05 5.9q.49.42 2.17.79a1.27 1.26 81 0 1 .82.6c2.98 5.1 6.43 6.85 12.2 9.68a.99.98-76.9 0 1 .54.88v4.66a.64.64 0 0 1-1.17.36c-3.87-5.81-9.13-9.91-16.15-10.44a2.11 2.03 62.4 0 1-.95-.32q-3.12-2.01-2.4-5.6a1.12 1.08 70.4 0 1 .18-.4l3.24-4.28a.59.59 0 0 1 1.06.36l-.03 2.64a1.44 1.41 21.1 0 0 .49 1.07"/></g><g fill="#feffff"><path d="M1220.35 64.19q-2.12 3.05-7.06 3.96a2.44 2.41 52.4 0 1-1.48-.2q-3.31-1.56-5.76-5.3c-2-3.05 0-6.27 2.28-8.6 3.31-3.36 7.95-1.76 10.57 1.56a1.18.93 22.4 0 1 .19.34l1.72 4.99a3.6 3.6-37 0 1-.46 3.25M1025.18 92.1a.2.2 0 0 1-.22-.14l-.06-.27a2.41 1.78-11.4 0 1 2.01-2.22l.37-.08a2.41 1.78-11.4 0 1 2.72 1.27l.05.27a.2.2 0 0 1-.15.22zm-744.57 27.96a2.2 2.19-68 0 0-1.62.69c-2.71 2.92-5.71 4.59-9.65 2.82-2.4-1.08-3.08-3.66-3.47-5.88a2.89 2.88 61.9 0 1 .76-2.51l3.24-3.36a.99.96 7.2 0 1 .28-.21c3.48-1.77 6.44 1.35 7.81 4.49a2.25 2.11 67.3 0 0 2.78 1.25q3.02-1.21 5.29.88a1.09 1.08-23.3 0 1-.75 1.88zm111.6 13.68 4.4 2.54a1.63 1.63 0 0 1 .34 2.57l-2.66 2.66a1.51 1.49-68.3 0 1-1.01.44q-2.11.08-2.92-2.45a.88.85-50.4 0 1-.03-.39l.73-4.82a.77.77 0 0 1 1.15-.55m99.96 23.41c-2.77 2.92-8.38 6.77-11.73 2.91q-2.81-3.24-3.71-4.51a2.3 2.3 40 0 1-.2-2.25q3.02-6.46 9.45-7.27a3.2 3.2 0 0 1 3.21 1.6l3.41 5.9a3.04 3.04 0 0 1-.43 3.62m59.01 6.15q.27 2.77-1.22 4.02a1.09 1.08 33.3 0 1-.99.2l-7.93-2.4a.67.65 6 0 1-.47-.57q-.14-1.39.55-1.87 1.13-.77 1.78-.83t1.34.9a1.2 1.2 0 0 0 1.34.43l3.46-1.24a1.6 1.6 0 0 1 2.14 1.36"/><ellipse rx="3.5" ry="2.65" transform="rotate(214.2 322.7 -2.6)"/><path d="M614.59 188.83q-1.94-1.51-1.99-3.61a1.56 1.54-29.6 0 1 .26-.92c3.36-5.07 7.51-.58 9.31 2.75a.6.6 0 0 1-.42.86L615.3 189a.92.91 58.1 0 1-.71-.17m22.03-3.61q2.72 2.7 3.57 6.51a1.07 1.05-29.8 0 1-.28.98q-2.63 2.67-3.96 3.05-8.54 2.44-10.96-6.2a1.13 1.11 61.7 0 1 .33-1.14q4.54-3.99 10.13-3.71a1.8 1.78 68.2 0 1 1.17.51m188.69-.14a1.38 1.38-79.6 0 1 1.25 1.82q-.81 2.33-2.29 3.67c-1.48 1.34-3.58.89-4.71-.54a1.02 1.01 38.6 0 1-.12-1.05q1.86-4.03 5.87-3.9m15.19 123.95q4.07-2.2 8.03-1.64a3.4 3.4 83.1 0 1 2.7 2.12l1.88 4.62a1.55 1.46 35.3 0 1 .09.45q.01 4.88-3.88 7.19a2.3 2.3 43.3 0 1-2.2.06l-5.37-2.8a1.47 1.43-3.8 0 1-.47-.4c-2.32-3.1-3.38-5.62-1.48-8.92a1.77 1.74.4 0 1 .7-.68m-.93 16.9q.05-1.1 1.26-3.08a1.1 1.1 16.6 0 1 .99-.53c1.76.06 3.94 1.22 2.62 3.35q-.66 1.07-2.59 1.65a1.77 1.49-8.7 0 1-2.28-1.39"/><ellipse rx="3.78" ry="3.27" transform="rotate(208.9 497.35 69.28)"/><path d="M571.56 386.07a2.51 2.49-31.6 0 1-2.56-.6l-3.59-3.6a2.52 2.51 32.2 0 1-.6-2.61q1.88-5.35 5.87-7.95a1 1 0 0 1 .95-.05l5.07 2.65a2.2 2.2 0 0 1 1.09 2.6l-1.86 6.17a1 1 0 0 1-.14.28q-1.73 2.28-4.23 3.11m355.74-4.94c2.73-.85 4.81.82 4.79 3.57a1.39 1.38 16.6 0 0 .63 1.16c1.75 1.14 4.92 2.1 4.39 4.89a2.3 2.09-82.1 0 1-2.24 1.87q-4.6-.34-5.56-4.84c-.52-2.4-4.3-2.26-2.73-6a1.2 1.2 0 0 1 .72-.65"/><ellipse rx="2.72" ry="2.51" transform="rotate(194.5 498.55 146.74)"/><path d="M330.39 472.02q.37-2.36 2.94-4.99c2.26-2.31 7.66.55 10.01 2.05a.8.8 0 0 1 .34.9c-1.33 4.45-5.46 5.43-8.75 7.46a.95.92-44.8 0 1-.97.01q-2.26-1.36-3.44-4.33a2.19 2.15-52.3 0 1-.13-1.1"/><ellipse rx="3.12" ry="2.23" transform="rotate(185.1 540.26 214.7)"/><path d="M1151.49 492.47c1.32 2.8-4.08 4.34-6.73 5.29a2.98 2.93 34.2 0 1-.93.17q-3.76.06-5.62-3.92a.86.78 35 0 1-.08-.35l-.15-7.61a.7.7 0 0 1 .19-.46q3.19-3.06 6.83-1.2a.86.84-4.8 0 1 .3.25l6.06 7.61a.94.89-77.1 0 1 .13.22m-870.96 3.41a.51.51 0 0 1 .15.9q-1.7 1.22-3.98 1.6a1.2 1.2 0 0 0-.77.49c-.79 1.13-1.15 2.66-2.17 3.64-1.2 1.15-4.64 3.33-6.27 2.03a2.55 2.52 44.2 0 1-.08-3.93q2.88-2.41 7.94-2.48a1.5 1.5 0 0 0 1.16-.58q1.76-2.31 4.02-1.67m-35.91 15.79q.89-4.55 5.49-6.34c2.25-.88 7.57 1.41 8.71 1.83a1.3 1.3 0 0 1 .58 2c-1.28 1.66-1.19 3.91-2.31 5.51-1.79 2.55-4.55 3.83-7.52 2.56q-3.02-1.3-3.66-1.75a4.03 3.33-69.2 0 1-1.29-3.81m-58.34 36.17q.76 1.52.93 3.48.95 11.03-9.96 12.28a1.66 1.65 55 0 1-.95-.17q-3.73-1.92-5.46-4.23c-2.91-3.89-2.06-8.63 1.51-11.71 3.99-3.45 8.56-1.83 13.21-.27a1.2 1.2 0 0 1 .72.62"/></g></svg>