<?xml version="1.0" encoding="UTF-8" standalone="no"?>
<!DOCTYPE svg PUBLIC "-//W3C//DTD SVG 1.1//EN" "http://www.w3.org/Graphics/SVG/1.1/DTD/svg11.dtd">
<svg xmlns="http://www.w3.org/2000/svg" version="1.1" viewBox="0.00 0.00 1801.00 1126.00">
<g stroke-width="2.00" fill="none" stroke-linecap="butt">
<path stroke="#695641" vector-effect="non-scaling-stroke" d="
  M 1378.94 393.73
  Q 1375.22 407.65 1366.98 419.42
  C 1352.65 439.88 1334.84 458.87 1313.58 471.43
  Q 1297.37 481.00 1278.46 487.15
  Q 1253.29 495.35 1232.48 500.90
  C 1217.46 504.91 1204.84 507.61 1189.96 506.24"
/>
<path stroke="#aa997c" vector-effect="non-scaling-stroke" d="
  M 1189.96 506.24
  L 1189.15 498.59
  A 3.07 3.05 -69.9 0 0 1188.33 496.81
  L 1173.75 481.47
  A 1.02 1.01 67.9 0 0 1173.02 481.16
  L 1103.64 481.16
  A 1.36 1.35 -67.7 0 0 1102.67 481.57
  L 1088.25 496.54
  A 2.05 2.04 70.8 0 0 1087.70 497.68
  L 1084.81 518.37"
/>
<path stroke="#695641" vector-effect="non-scaling-stroke" d="
  M 1084.81 518.37
  Q 1060.22 517.06 1035.42 519.33"
/>
<path stroke="#aa997c" vector-effect="non-scaling-stroke" d="
  M 1035.42 519.33
  L 1033.18 498.25
  A 2.03 2.02 20.6 0 0 1032.64 497.07
  L 1017.84 481.50
  A 1.12 1.11 68.3 0 0 1017.03 481.15
  L 947.61 481.15
  A 1.07 1.04 21.2 0 0 946.84 481.48
  L 932.32 496.54
  A 2.06 2.06 0.0 0 0 931.75 497.71
  L 928.87 518.67
  A 0.70 0.69 4.0 0 0 929.56 519.46
  L 958.33 519.46
  A 1.09 1.07 17.4 0 0 959.21 519.01
  Q 960.30 517.50 961.38 515.37
  C 965.42 507.45 981.47 508.32 989.82 509.42
  C 995.40 510.15 1000.13 513.64 1002.20 519.36
  C 1004.88 526.80 1005.64 538.17 998.41 543.62
  A 3.21 2.90 12.9 0 1 997.66 544.04
  L 980.94 550.53"
/>
<path stroke="#695641" vector-effect="non-scaling-stroke" d="
  M 980.94 550.53
  C 962.60 547.11 946.75 547.66 926.68 548.50
  Q 908.85 549.24 881.38 546.67"
/>
<path stroke="#aa997c" vector-effect="non-scaling-stroke" d="
  M 881.38 546.67
  L 873.30 496.85
  A 1.50 1.49 15.9 0 0 872.81 495.98
  L 856.07 481.67
  A 2.83 2.80 65.0 0 0 854.25 481.00
  L 794.85 481.00
  A 2.28 2.26 -65.2 0 0 793.37 481.55
  L 776.12 496.54
  A 1.88 1.85 74.5 0 0 775.50 497.65
  L 763.01 572.68"
/>
<path stroke="#695641" vector-effect="non-scaling-stroke" d="
  M 763.01 572.68
  C 743.23 573.46 723.52 573.46 703.99 570.15"
/>
<path stroke="#aa997c" vector-effect="non-scaling-stroke" d="
  M 703.99 570.15
  L 718.90 564.08
  A 2.50 2.46 4.7 0 0 720.05 563.12
  L 726.45 553.04
  A 1.35 1.35 0.0 0 0 726.65 552.15
  L 720.94 497.90
  A 1.04 1.00 -71.5 0 0 720.65 497.29
  L 705.64 481.49
  A 1.05 1.01 67.6 0 0 704.89 481.16
  L 635.59 481.16
  A 1.36 1.35 -67.7 0 0 634.62 481.57
  L 619.58 497.24"
/>
<path stroke="#695641" vector-effect="non-scaling-stroke" d="
  M 619.58 497.24
  C 604.68 491.33 594.28 489.79 575.10 486.50
  Q 545.88 481.48 521.29 466.75
  Q 511.20 460.71 500.87 453.64
  C 486.70 443.95 476.65 434.50 471.39 417.89
  Q 466.19 401.48 460.67 384.92"
/>
<path stroke="#9f8f74" vector-effect="non-scaling-stroke" d="
  M 619.58 497.24
  L 616.77 518.91
  A 0.49 0.49 0.0 0 0 617.26 519.46
  L 646.15 519.46
  A 1.22 1.21 -73.8 0 0 647.18 518.89
  C 648.43 516.90 649.64 513.90 651.35 512.68
  Q 654.21 510.64 655.56 510.29
  Q 666.05 507.56 678.30 509.58
  C 687.36 511.08 691.07 518.76 691.64 526.64
  C 692.13 533.39 691.70 539.27 686.43 543.50
  A 5.04 4.86 14.3 0 1 685.08 544.27
  L 625.95 567.08
  A 1.98 1.94 -78.4 0 0 625.22 567.57
  L 611.98 581.65
  A 1.73 1.67 -20.6 0 0 611.54 582.58
  L 607.12 616.23"
/>
<path stroke="#514130" vector-effect="non-scaling-stroke" d="
  M 607.12 616.23
  Q 597.77 609.79 586.10 609.21
  Q 559.72 607.89 553.69 607.48
  Q 530.71 605.92 509.86 599.71
  C 490.97 594.08 474.80 587.49 460.00 576.33
  C 443.12 563.60 427.13 548.47 411.55 533.54
  Q 404.55 526.84 396.35 517.93
  C 386.89 507.64 382.69 496.83 380.96 483.00"
/>
<path stroke="#9f8f74" vector-effect="non-scaling-stroke" d="
  M 1035.42 519.33
  L 1038.87 551.95
  A 1.79 1.77 58.4 0 1 1038.60 553.11
  L 1032.25 563.11
  A 2.39 2.38 4.7 0 1 1031.16 564.03
  Q 1019.05 568.98 958.46 593.70
  C 954.99 595.11 954.43 598.69 954.66 602.01
  A 3.95 3.94 -74.9 0 0 956.36 604.97
  C 961.92 608.76 969.93 609.46 976.76 609.37
  C 992.16 609.17 1003.95 609.42 1017.00 608.20
  Q 1029.31 607.04 1029.47 607.01
  A 4.38 4.35 -65.3 0 0 1031.02 606.43
  L 1041.18 600.14
  A 0.69 0.68 -20.4 0 1 1042.22 600.61
  L 1044.45 614.13"
/>
<path stroke="#92846a" vector-effect="non-scaling-stroke" d="
  M 1044.45 614.13
  L 1049.05 642.04
  A 0.52 0.52 0.0 0 1 1048.39 642.62
  L 1035.47 638.72
  A 2.46 2.15 48.8 0 0 1034.87 638.64
  L 937.42 638.64
  A 0.99 0.98 -21.2 0 1 936.70 638.33
  L 919.14 619.84
  A 0.87 0.84 -64.1 0 1 918.91 619.14
  L 923.74 582.21"
/>
<path stroke="#9f8f74" vector-effect="non-scaling-stroke" d="
  M 923.74 582.21
  L 937.13 567.83
  A 3.58 3.55 10.7 0 1 938.49 566.91
  L 980.94 550.53"
/>
<path stroke="#9f8f74" vector-effect="non-scaling-stroke" d="
  M 881.38 546.67
  L 888.20 588.53"
/>
<path stroke="#92846a" vector-effect="non-scaling-stroke" d="
  M 888.20 588.53
  L 893.01 618.01
  A 0.99 0.98 64.1 0 1 892.71 618.90
  L 871.71 638.00
  A 1.26 1.25 23.6 0 1 870.86 638.33
  L 777.39 638.33
  A 1.69 1.67 65.7 0 1 776.27 637.90
  L 757.99 621.45"
/>
<path stroke="#9f8f74" vector-effect="non-scaling-stroke" d="
  M 757.99 621.45
  L 755.71 619.36
  A 0.94 0.92 27.3 0 1 755.43 618.52
  L 763.01 572.68"
/>
<path stroke="#92846a" vector-effect="non-scaling-stroke" d="
  M 1202.65 627.76
  L 1205.01 642.00
  A 0.55 0.55 0.0 0 1 1204.31 642.61
  L 1191.42 638.72
  A 2.16 2.08 52.4 0 0 1190.81 638.63
  L 1093.47 638.63
  A 1.31 1.28 -21.4 0 1 1092.53 638.23
  L 1075.13 619.91
  A 1.06 1.05 26.9 0 1 1074.84 619.03
  L 1076.31 607.94"
/>
<path stroke="#9f8f74" vector-effect="non-scaling-stroke" d="
  M 1076.31 607.94
  L 1079.65 582.53
  A 1.24 1.18 71.2 0 1 1079.96 581.86
  L 1093.32 567.51
  A 1.39 1.27 -76.5 0 1 1093.75 567.22
  Q 1115.45 558.81 1149.74 545.64
  Q 1154.29 543.89 1155.94 542.26
  C 1161.35 536.93 1160.45 526.55 1158.31 519.85
  Q 1155.67 511.62 1146.88 509.73
  Q 1137.40 507.69 1125.76 509.78
  Q 1122.15 510.43 1119.41 512.73
  C 1117.46 514.38 1116.60 517.00 1115.19 519.04
  A 1.04 1.03 -72.5 0 1 1114.34 519.49
  L 1085.34 519.49
  A 0.30 0.30 0.0 0 1 1085.16 519.43
  Q 1084.64 519.06 1084.81 518.37"
/>
<path stroke="#9f8f74" vector-effect="non-scaling-stroke" d="
  M 703.99 570.15
  Q 675.03 581.95 646.08 593.76
  C 642.68 595.15 642.24 599.07 642.55 602.42
  A 3.30 3.30 0.0 0 0 644.03 604.87
  C 649.55 608.45 656.16 609.21 662.50 609.31
  Q 669.96 609.42 691.95 609.04
  C 700.03 608.89 706.66 607.99 717.09 607.04
  A 3.84 3.71 -62.7 0 0 718.75 606.48
  L 729.34 599.91
  A 0.39 0.39 0.0 0 1 729.93 600.18
  L 735.08 631.31"
/>
<path stroke="#92846a" vector-effect="non-scaling-stroke" d="
  M 735.08 631.31
  L 736.88 642.39
  A 0.27 0.27 0.0 0 1 736.53 642.70
  L 724.20 638.98
  A 8.62 8.61 53.2 0 0 721.77 638.63
  L 625.40 638.63
  A 1.39 1.38 68.0 0 1 624.40 638.20
  L 607.08 619.97
  A 0.98 0.98 0.0 0 1 606.82 619.19
  L 607.12 616.23"
/>
<path stroke="#514130" vector-effect="non-scaling-stroke" d="
  M 1456.65 516.42
  L 1455.26 527.32
  A 1.31 1.30 -69.3 0 1 1453.23 528.24
  C 1447.32 524.24 1439.98 529.65 1435.25 533.61
  Q 1403.12 560.50 1364.78 581.10
  Q 1341.94 593.36 1317.54 601.66
  Q 1281.56 613.90 1243.29 621.74
  Q 1223.32 625.83 1202.65 627.76"
/>
<path stroke="#9f8f74" vector-effect="non-scaling-stroke" d="
  M 1202.65 627.76
  L 1197.80 600.40
  A 0.44 0.43 -20.9 0 0 1197.14 600.11
  L 1186.96 606.42
  A 4.33 4.24 -62.9 0 1 1185.08 607.05
  C 1178.71 607.60 1167.42 608.94 1158.95 609.06
  Q 1147.00 609.23 1135.00 609.34
  C 1127.88 609.41 1120.95 609.19 1114.52 606.26
  Q 1110.56 604.45 1110.56 601.56
  Q 1110.56 598.73 1111.33 596.49
  Q 1111.94 594.72 1115.17 593.40
  Q 1154.82 577.19 1187.03 564.07
  A 2.42 2.39 -84.5 0 0 1188.18 563.11
  L 1194.56 553.07
  A 1.76 1.76 0.0 0 0 1194.82 551.96
  L 1189.96 506.24"
/>
<path stroke="#514130" vector-effect="non-scaling-stroke" d="
  M 735.08 631.31
  Q 746.20 625.64 757.99 621.45"
/>
<path stroke="#514130" vector-effect="non-scaling-stroke" d="
  M 888.20 588.53
  Q 906.16 586.22 923.74 582.21"
/>
<path stroke="#514130" vector-effect="non-scaling-stroke" d="
  M 1044.45 614.13
  Q 1060.70 612.83 1076.31 607.94"
/>
<path stroke="#514130" vector-effect="non-scaling-stroke" d="
  M 997.52 832.44
  L 968.41 809.97"
/>
<path stroke="#514130" vector-effect="non-scaling-stroke" d="
  M 877.75 820.94
  Q 872.09 820.83 866.45 820.68
  C 862.45 820.58 858.51 819.58 855.22 819.33
  C 848.35 818.80 843.30 824.33 842.50 830.83
  Q 842.08 834.26 843.56 839.00"
/>
<path stroke="#9f8f74" vector-effect="non-scaling-stroke" d="
  M 817.97 604.58
  C 825.72 606.45 839.66 605.54 845.19 598.45
  C 851.31 590.59 851.39 577.01 850.37 567.57
  Q 848.30 548.57 846.30 534.73
  C 845.01 525.84 842.65 515.88 834.16 512.61
  Q 827.64 510.10 818.94 511.95
  C 811.83 513.45 808.52 518.73 806.61 525.34
  C 802.47 539.62 800.51 556.48 799.33 569.76
  C 798.45 579.66 797.88 594.69 807.81 600.72
  Q 811.66 603.06 817.97 604.58"
/>
</g>
<g>
<path fill="#745f49" d="
  M 1378.94 393.73
  Q 1375.22 407.65 1366.98 419.42
  C 1352.65 439.88 1334.84 458.87 1313.58 471.43
  Q 1297.37 481.00 1278.46 487.15
  Q 1253.29 495.35 1232.48 500.90
  C 1217.46 504.91 1204.84 507.61 1189.96 506.24
  L 1189.15 498.59
  A 3.07 3.05 -69.9 0 0 1188.33 496.81
  L 1173.75 481.47
  A 1.02 1.01 67.9 0 0 1173.02 481.16
  L 1103.64 481.16
  A 1.36 1.35 -67.7 0 0 1102.67 481.57
  L 1088.25 496.54
  A 2.05 2.04 70.8 0 0 1087.70 497.68
  L 1084.81 518.37
  Q 1060.22 517.06 1035.42 519.33
  L 1033.18 498.25
  A 2.03 2.02 20.6 0 0 1032.64 497.07
  L 1017.84 481.50
  A 1.12 1.11 68.3 0 0 1017.03 481.15
  L 947.61 481.15
  A 1.07 1.04 21.2 0 0 946.84 481.48
  L 932.32 496.54
  A 2.06 2.06 0.0 0 0 931.75 497.71
  L 928.87 518.67
  A 0.70 0.69 4.0 0 0 929.56 519.46
  L 958.33 519.46
  A 1.09 1.07 17.4 0 0 959.21 519.01
  Q 960.30 517.50 961.38 515.37
  C 965.42 507.45 981.47 508.32 989.82 509.42
  C 995.40 510.15 1000.13 513.64 1002.20 519.36
  C 1004.88 526.80 1005.64 538.17 998.41 543.62
  A 3.21 2.90 12.9 0 1 997.66 544.04
  L 980.94 550.53
  C 962.60 547.11 946.75 547.66 926.68 548.50
  Q 908.85 549.24 881.38 546.67
  L 873.30 496.85
  A 1.50 1.49 15.9 0 0 872.81 495.98
  L 856.07 481.67
  A 2.83 2.80 65.0 0 0 854.25 481.00
  L 794.85 481.00
  A 2.28 2.26 -65.2 0 0 793.37 481.55
  L 776.12 496.54
  A 1.88 1.85 74.5 0 0 775.50 497.65
  L 763.01 572.68
  C 743.23 573.46 723.52 573.46 703.99 570.15
  L 718.90 564.08
  A 2.50 2.46 4.7 0 0 720.05 563.12
  L 726.45 553.04
  A 1.35 1.35 0.0 0 0 726.65 552.15
  L 720.94 497.90
  A 1.04 1.00 -71.5 0 0 720.65 497.29
  L 705.64 481.49
  A 1.05 1.01 67.6 0 0 704.89 481.16
  L 635.59 481.16
  A 1.36 1.35 -67.7 0 0 634.62 481.57
  L 619.58 497.24
  C 604.68 491.33 594.28 489.79 575.10 486.50
  Q 545.88 481.48 521.29 466.75
  Q 511.20 460.71 500.87 453.64
  C 486.70 443.95 476.65 434.50 471.39 417.89
  Q 466.19 401.48 460.67 384.92
  C 467.16 380.92 473.50 376.38 480.10 372.75
  C 483.53 370.86 487.06 368.59 491.01 366.91
  Q 504.76 361.07 519.19 356.05
  Q 525.52 353.85 529.97 352.90
  C 534.58 351.91 538.95 350.47 544.54 349.40
  Q 565.48 345.38 588.25 345.35
  C 781.66 345.09 999.75 345.28 1208.78 345.03
  Q 1217.01 345.02 1241.03 345.24
  Q 1263.74 345.45 1286.52 350.50
  C 1293.89 352.13 1301.71 353.98 1308.83 356.48
  Q 1321.60 360.97 1334.26 366.49
  Q 1339.86 368.94 1344.03 371.40
  C 1347.93 373.70 1352.15 375.59 1356.71 378.57
  C 1365.05 384.02 1372.08 388.01 1378.94 393.73
  Z"
/>
<path fill="#5d4c39" d="
  M 460.67 384.92
  Q 466.19 401.48 471.39 417.89
  C 476.65 434.50 486.70 443.95 500.87 453.64
  Q 511.20 460.71 521.29 466.75
  Q 545.88 481.48 575.10 486.50
  C 594.28 489.79 604.68 491.33 619.58 497.24
  L 616.77 518.91
  A 0.49 0.49 0.0 0 0 617.26 519.46
  L 646.15 519.46
  A 1.22 1.21 -73.8 0 0 647.18 518.89
  C 648.43 516.90 649.64 513.90 651.35 512.68
  Q 654.21 510.64 655.56 510.29
  Q 666.05 507.56 678.30 509.58
  C 687.36 511.08 691.07 518.76 691.64 526.64
  C 692.13 533.39 691.70 539.27 686.43 543.50
  A 5.04 4.86 14.3 0 1 685.08 544.27
  L 625.95 567.08
  A 1.98 1.94 -78.4 0 0 625.22 567.57
  L 611.98 581.65
  A 1.73 1.67 -20.6 0 0 611.54 582.58
  L 607.12 616.23
  Q 597.77 609.79 586.10 609.21
  Q 559.72 607.89 553.69 607.48
  Q 530.71 605.92 509.86 599.71
  C 490.97 594.08 474.80 587.49 460.00 576.33
  C 443.12 563.60 427.13 548.47 411.55 533.54
  Q 404.55 526.84 396.35 517.93
  C 386.89 507.64 382.69 496.83 380.96 483.00
  Q 386.50 468.19 391.45 459.96
  Q 401.36 443.50 406.33 437.06
  C 412.10 429.59 417.93 422.15 423.69 416.54
  C 427.77 412.57 431.79 407.93 436.25 403.97
  Q 447.80 393.74 460.67 384.92
  Z"
/>
<path fill="#5d4c39" d="
  M 1456.65 516.42
  L 1455.26 527.32
  A 1.31 1.30 -69.3 0 1 1453.23 528.24
  C 1447.32 524.24 1439.98 529.65 1435.25 533.61
  Q 1403.12 560.50 1364.78 581.10
  Q 1341.94 593.36 1317.54 601.66
  Q 1281.56 613.90 1243.29 621.74
  Q 1223.32 625.83 1202.65 627.76
  L 1197.80 600.40
  A 0.44 0.43 -20.9 0 0 1197.14 600.11
  L 1186.96 606.42
  A 4.33 4.24 -62.9 0 1 1185.08 607.05
  C 1178.71 607.60 1167.42 608.94 1158.95 609.06
  Q 1147.00 609.23 1135.00 609.34
  C 1127.88 609.41 1120.95 609.19 1114.52 606.26
  Q 1110.56 604.45 1110.56 601.56
  Q 1110.56 598.73 1111.33 596.49
  Q 1111.94 594.72 1115.17 593.40
  Q 1154.82 577.19 1187.03 564.07
  A 2.42 2.39 -84.5 0 0 1188.18 563.11
  L 1194.56 553.07
  A 1.76 1.76 0.0 0 0 1194.82 551.96
  L 1189.96 506.24
  C 1204.84 507.61 1217.46 504.91 1232.48 500.90
  Q 1253.29 495.35 1278.46 487.15
  Q 1297.37 481.00 1313.58 471.43
  C 1334.84 458.87 1352.65 439.88 1366.98 419.42
  Q 1375.22 407.65 1378.94 393.73
  Q 1389.38 401.71 1393.49 405.76
  Q 1408.41 420.45 1416.92 431.32
  Q 1427.38 444.71 1431.91 452.66
  Q 1435.70 459.32 1436.66 460.95
  C 1440.31 467.15 1442.00 472.33 1445.61 479.16
  A 13.01 12.67 23.0 0 1 1446.47 481.21
  Q 1449.10 489.45 1452.39 497.38
  Q 1452.80 498.35 1453.44 501.46
  Q 1455.01 509.00 1456.65 516.42
  Z"
/>
<path fill="#e0d2ae" d="
  M 881.38 546.67
  L 888.20 588.53
  L 893.01 618.01
  A 0.99 0.98 64.1 0 1 892.71 618.90
  L 871.71 638.00
  A 1.26 1.25 23.6 0 1 870.86 638.33
  L 777.39 638.33
  A 1.69 1.67 65.7 0 1 776.27 637.90
  L 757.99 621.45
  L 755.71 619.36
  A 0.94 0.92 27.3 0 1 755.43 618.52
  L 763.01 572.68
  L 775.50 497.65
  A 1.88 1.85 74.5 0 1 776.12 496.54
  L 793.37 481.55
  A 2.28 2.26 -65.2 0 1 794.85 481.00
  L 854.25 481.00
  A 2.83 2.80 65.0 0 1 856.07 481.67
  L 872.81 495.98
  A 1.50 1.49 15.9 0 1 873.30 496.85
  L 881.38 546.67
  Z
  M 817.97 604.58
  C 825.72 606.45 839.66 605.54 845.19 598.45
  C 851.31 590.59 851.39 577.01 850.37 567.57
  Q 848.30 548.57 846.30 534.73
  C 845.01 525.84 842.65 515.88 834.16 512.61
  Q 827.64 510.10 818.94 511.95
  C 811.83 513.45 808.52 518.73 806.61 525.34
  C 802.47 539.62 800.51 556.48 799.33 569.76
  C 798.45 579.66 797.88 594.69 807.81 600.72
  Q 811.66 603.06 817.97 604.58
  Z"
/>
<path fill="#e0d2ae" d="
  M 1035.42 519.33
  L 1038.87 551.95
  A 1.79 1.77 58.4 0 1 1038.60 553.11
  L 1032.25 563.11
  A 2.39 2.38 4.7 0 1 1031.16 564.03
  Q 1019.05 568.98 958.46 593.70
  C 954.99 595.11 954.43 598.69 954.66 602.01
  A 3.95 3.94 -74.9 0 0 956.36 604.97
  C 961.92 608.76 969.93 609.46 976.76 609.37
  C 992.16 609.17 1003.95 609.42 1017.00 608.20
  Q 1029.31 607.04 1029.47 607.01
  A 4.38 4.35 -65.3 0 0 1031.02 606.43
  L 1041.18 600.14
  A 0.69 0.68 -20.4 0 1 1042.22 600.61
  L 1044.45 614.13
  L 1049.05 642.04
  A 0.52 0.52 0.0 0 1 1048.39 642.62
  L 1035.47 638.72
  A 2.46 2.15 48.8 0 0 1034.87 638.64
  L 937.42 638.64
  A 0.99 0.98 -21.2 0 1 936.70 638.33
  L 919.14 619.84
  A 0.87 0.84 -64.1 0 1 918.91 619.14
  L 923.74 582.21
  L 937.13 567.83
  A 3.58 3.55 10.7 0 1 938.49 566.91
  L 980.94 550.53
  L 997.66 544.04
  A 3.21 2.90 12.9 0 0 998.41 543.62
  C 1005.64 538.17 1004.88 526.80 1002.20 519.36
  C 1000.13 513.64 995.40 510.15 989.82 509.42
  C 981.47 508.32 965.42 507.45 961.38 515.37
  Q 960.30 517.50 959.21 519.01
  A 1.09 1.07 17.4 0 1 958.33 519.46
  L 929.56 519.46
  A 0.70 0.69 4.0 0 1 928.87 518.67
  L 931.75 497.71
  A 2.06 2.06 0.0 0 1 932.32 496.54
  L 946.84 481.48
  A 1.07 1.04 21.2 0 1 947.61 481.15
  L 1017.03 481.15
  A 1.12 1.11 68.3 0 1 1017.84 481.50
  L 1032.64 497.07
  A 2.03 2.02 20.6 0 1 1033.18 498.25
  L 1035.42 519.33
  Z"
/>
<path fill="#e0d2ae" d="
  M 1189.96 506.24
  L 1194.82 551.96
  A 1.76 1.76 0.0 0 1 1194.56 553.07
  L 1188.18 563.11
  A 2.42 2.39 -84.5 0 1 1187.03 564.07
  Q 1154.82 577.19 1115.17 593.40
  Q 1111.94 594.72 1111.33 596.49
  Q 1110.56 598.73 1110.56 601.56
  Q 1110.56 604.45 1114.52 606.26
  C 1120.95 609.19 1127.88 609.41 1135.00 609.34
  Q 1147.00 609.23 1158.95 609.06
  C 1167.42 608.94 1178.71 607.60 1185.08 607.05
  A 4.33 4.24 -62.9 0 0 1186.96 606.42
  L 1197.14 600.11
  A 0.44 0.43 -20.9 0 1 1197.80 600.40
  L 1202.65 627.76
  L 1205.01 642.00
  A 0.55 0.55 0.0 0 1 1204.31 642.61
  L 1191.42 638.72
  A 2.16 2.08 52.4 0 0 1190.81 638.63
  L 1093.47 638.63
  A 1.31 1.28 -21.4 0 1 1092.53 638.23
  L 1075.13 619.91
  A 1.06 1.05 26.9 0 1 1074.84 619.03
  L 1076.31 607.94
  L 1079.65 582.53
  A 1.24 1.18 71.2 0 1 1079.96 581.86
  L 1093.32 567.51
  A 1.39 1.27 -76.5 0 1 1093.75 567.22
  Q 1115.45 558.81 1149.74 545.64
  Q 1154.29 543.89 1155.94 542.26
  C 1161.35 536.93 1160.45 526.55 1158.31 519.85
  Q 1155.67 511.62 1146.88 509.73
  Q 1137.40 507.69 1125.76 509.78
  Q 1122.15 510.43 1119.41 512.73
  C 1117.46 514.38 1116.60 517.00 1115.19 519.04
  A 1.04 1.03 -72.5 0 1 1114.34 519.49
  L 1085.34 519.49
  A 0.30 0.30 0.0 0 1 1085.16 519.43
  Q 1084.64 519.06 1084.81 518.37
  L 1087.70 497.68
  A 2.05 2.04 70.8 0 1 1088.25 496.54
  L 1102.67 481.57
  A 1.36 1.35 -67.7 0 1 1103.64 481.16
  L 1173.02 481.16
  A 1.02 1.01 67.9 0 1 1173.75 481.47
  L 1188.33 496.81
  A 3.07 3.05 -69.9 0 1 1189.15 498.59
  L 1189.96 506.24
  Z"
/>
<path fill="#e0d2ae" d="
  M 703.99 570.15
  Q 675.03 581.95 646.08 593.76
  C 642.68 595.15 642.24 599.07 642.55 602.42
  A 3.30 3.30 0.0 0 0 644.03 604.87
  C 649.55 608.45 656.16 609.21 662.50 609.31
  Q 669.96 609.42 691.95 609.04
  C 700.03 608.89 706.66 607.99 717.09 607.04
  A 3.84 3.71 -62.7 0 0 718.75 606.48
  L 729.34 599.91
  A 0.39 0.39 0.0 0 1 729.93 600.18
  L 735.08 631.31
  L 736.88 642.39
  A 0.27 0.27 0.0 0 1 736.53 642.70
  L 724.20 638.98
  A 8.62 8.61 53.2 0 0 721.77 638.63
  L 625.40 638.63
  A 1.39 1.38 68.0 0 1 624.40 638.20
  L 607.08 619.97
  A 0.98 0.98 0.0 0 1 606.82 619.19
  L 607.12 616.23
  L 611.54 582.58
  A 1.73 1.67 -20.6 0 1 611.98 581.65
  L 625.22 567.57
  A 1.98 1.94 -78.4 0 1 625.95 567.08
  L 685.08 544.27
  A 5.04 4.86 14.3 0 0 686.43 543.50
  C 691.70 539.27 692.13 533.39 691.64 526.64
  C 691.07 518.76 687.36 511.08 678.30 509.58
  Q 666.05 507.56 655.56 510.29
  Q 654.21 510.64 651.35 512.68
  C 649.64 513.90 648.43 516.90 647.18 518.89
  A 1.22 1.21 -73.8 0 1 646.15 519.46
  L 617.26 519.46
  A 0.49 0.49 0.0 0 1 616.77 518.91
  L 619.58 497.24
  L 634.62 481.57
  A 1.36 1.35 -67.7 0 1 635.59 481.16
  L 704.89 481.16
  A 1.05 1.01 67.6 0 1 705.64 481.49
  L 720.65 497.29
  A 1.04 1.00 -71.5 0 1 720.94 497.90
  L 726.65 552.15
  A 1.35 1.35 0.0 0 1 726.45 553.04
  L 720.05 563.12
  A 2.50 2.46 4.7 0 1 718.90 564.08
  L 703.99 570.15
  Z"
/>
<path fill="#443526" d="
  M 380.96 483.00
  C 382.69 496.83 386.89 507.64 396.35 517.93
  Q 404.55 526.84 411.55 533.54
  C 427.13 548.47 443.12 563.60 460.00 576.33
  C 474.80 587.49 490.97 594.08 509.86 599.71
  Q 530.71 605.92 553.69 607.48
  Q 559.72 607.89 586.10 609.21
  Q 597.77 609.79 607.12 616.23
  L 606.82 619.19
  A 0.98 0.98 0.0 0 0 607.08 619.97
  L 624.40 638.20
  A 1.39 1.38 68.0 0 0 625.40 638.63
  L 721.77 638.63
  A 8.62 8.61 53.2 0 1 724.20 638.98
  L 736.53 642.70
  A 0.27 0.27 0.0 0 0 736.88 642.39
  L 735.08 631.31
  Q 746.20 625.64 757.99 621.45
  L 776.27 637.90
  A 1.69 1.67 65.7 0 0 777.39 638.33
  L 870.86 638.33
  A 1.26 1.25 23.6 0 0 871.71 638.00
  L 892.71 618.90
  A 0.99 0.98 64.1 0 0 893.01 618.01
  L 888.20 588.53
  Q 906.16 586.22 923.74 582.21
  L 918.91 619.14
  A 0.87 0.84 -64.1 0 0 919.14 619.84
  L 936.70 638.33
  A 0.99 0.98 -21.2 0 0 937.42 638.64
  L 1034.87 638.64
  A 2.46 2.15 48.8 0 1 1035.47 638.72
  L 1048.39 642.62
  A 0.52 0.52 0.0 0 0 1049.05 642.04
  L 1044.45 614.13
  Q 1060.70 612.83 1076.31 607.94
  L 1074.84 619.03
  A 1.06 1.05 26.9 0 0 1075.13 619.91
  L 1092.53 638.23
  A 1.31 1.28 -21.4 0 0 1093.47 638.63
  L 1190.81 638.63
  A 2.16 2.08 52.4 0 1 1191.42 638.72
  L 1204.31 642.61
  A 0.55 0.55 0.0 0 0 1205.01 642.00
  L 1202.65 627.76
  Q 1223.32 625.83 1243.29 621.74
  Q 1281.56 613.90 1317.54 601.66
  Q 1341.94 593.36 1364.78 581.10
  Q 1403.12 560.50 1435.25 533.61
  C 1439.98 529.65 1447.32 524.24 1453.23 528.24
  A 1.31 1.30 -69.3 0 0 1455.26 527.32
  L 1456.65 516.42
  C 1458.14 524.36 1459.96 532.73 1460.47 540.36
  Q 1461.49 555.57 1460.83 571.02
  C 1460.22 585.51 1456.49 602.09 1453.63 614.73
  C 1452.18 621.11 1448.64 627.52 1447.25 632.86
  C 1445.75 638.63 1442.50 643.51 1440.16 649.31
  C 1438.23 654.11 1435.41 657.85 1432.82 662.85
  C 1430.69 666.95 1428.25 670.11 1426.15 673.84
  C 1424.03 677.61 1420.86 680.84 1418.48 684.43
  Q 1416.88 686.85 1413.62 690.70
  C 1404.28 701.72 1394.30 712.58 1382.99 720.99
  Q 1381.48 722.11 1379.88 723.86
  A 6.03 5.67 1.8 0 1 1379.02 724.62
  Q 1369.04 731.76 1362.95 735.94
  Q 1359.21 738.51 1342.59 747.35
  Q 1337.49 750.07 1334.49 751.05
  C 1330.66 752.31 1327.88 754.04 1323.53 755.62
  Q 1306.93 761.67 1299.17 763.40
  C 1290.48 765.33 1283.78 767.17 1275.94 768.14
  Q 1255.24 770.71 1241.01 770.83
  Q 1215.51 771.04 1071.75 770.87
  Q 1065.30 770.86 1062.75 773.73
  Q 1061.30 775.37 1051.62 784.03
  Q 1041.78 792.84 1040.98 793.56
  Q 1031.91 801.72 1030.27 803.04
  Q 1025.73 806.69 1022.29 810.06
  Q 1016.39 815.83 1014.42 817.20
  C 1011.58 819.15 1009.89 821.58 1007.11 823.79
  C 1004.48 825.88 1001.12 829.84 997.52 832.44
  L 968.41 809.97
  Q 980.60 799.12 992.79 788.34
  Q 995.24 786.17 997.00 784.44
  C 1000.51 780.98 1001.90 780.23 1005.20 776.36
  Q 1006.36 775.00 1009.80 772.63
  A 1.04 1.04 0.0 0 0 1009.07 770.74
  Q 1004.64 771.36 994.57 771.00
  Q 988.12 770.78 979.94 770.81
  Q 910.25 771.10 841.52 770.46
  C 836.25 770.41 830.96 770.65 825.48 770.65
  Q 825.02 770.65 824.22 770.94
  A 0.83 0.83 0.0 0 0 823.93 772.33
  L 871.19 815.46
  A 2.14 1.52 73.2 0 0 871.46 815.67
  Q 874.95 817.96 877.75 820.94
  Q 872.09 820.83 866.45 820.68
  C 862.45 820.58 858.51 819.58 855.22 819.33
  C 848.35 818.80 843.30 824.33 842.50 830.83
  Q 842.08 834.26 843.56 839.00
  C 841.69 837.44 839.89 835.34 838.11 834.15
  C 835.24 832.22 833.09 829.76 830.38 827.44
  C 820.22 818.76 806.91 806.19 793.98 795.35
  C 785.61 788.33 780.38 783.29 772.60 776.28
  Q 771.51 775.30 770.37 773.87
  C 768.31 771.28 763.93 770.74 760.75 770.73
  Q 735.13 770.67 594.01 770.83
  C 585.03 770.84 575.44 771.15 566.69 770.03
  Q 550.36 767.94 549.09 767.80
  Q 542.91 767.13 538.50 765.73
  C 534.54 764.47 528.98 764.19 524.44 762.58
  C 517.56 760.15 508.31 757.95 500.53 754.48
  Q 489.85 749.71 488.39 748.85
  C 482.42 745.33 477.01 743.35 471.27 739.91
  Q 442.69 722.81 420.13 697.88
  Q 417.22 694.68 408.25 683.53
  C 405.31 679.88 403.61 676.80 400.80 673.19
  C 398.32 670.00 396.31 665.77 393.80 661.86
  Q 392.66 660.09 391.25 657.22
  Q 384.36 643.26 377.54 627.22
  Q 375.67 622.81 374.73 618.66
  C 372.94 610.79 371.18 605.92 369.25 597.32
  Q 367.86 591.12 367.27 583.52
  Q 365.03 554.70 367.72 528.26
  Q 368.47 520.89 370.34 514.57
  Q 373.77 502.97 374.21 500.80
  C 375.38 494.98 378.29 488.67 380.96 483.00
  Z"
/>
<path fill="#5d4c39" d="
  M 1076.31 607.94
  Q 1060.70 612.83 1044.45 614.13
  L 1042.22 600.61
  A 0.69 0.68 -20.4 0 0 1041.18 600.14
  L 1031.02 606.43
  A 4.38 4.35 -65.3 0 1 1029.47 607.01
  Q 1029.31 607.04 1017.00 608.20
  C 1003.95 609.42 992.16 609.17 976.76 609.37
  C 969.93 609.46 961.92 608.76 956.36 604.97
  A 3.95 3.94 -74.9 0 1 954.66 602.01
  C 954.43 598.69 954.99 595.11 958.46 593.70
  Q 1019.05 568.98 1031.16 564.03
  A 2.39 2.38 4.7 0 0 1032.25 563.11
  L 1038.60 553.11
  A 1.79 1.77 58.4 0 0 1038.87 551.95
  L 1035.42 519.33
  Q 1060.22 517.06 1084.81 518.37
  Q 1084.64 519.06 1085.16 519.43
  A 0.30 0.30 0.0 0 0 1085.34 519.49
  L 1114.34 519.49
  A 1.04 1.03 -72.5 0 0 1115.19 519.04
  C 1116.60 517.00 1117.46 514.38 1119.41 512.73
  Q 1122.15 510.43 1125.76 509.78
  Q 1137.40 507.69 1146.88 509.73
  Q 1155.67 511.62 1158.31 519.85
  C 1160.45 526.55 1161.35 536.93 1155.94 542.26
  Q 1154.29 543.89 1149.74 545.64
  Q 1115.45 558.81 1093.75 567.22
  A 1.39 1.27 -76.5 0 0 1093.32 567.51
  L 1079.96 581.86
  A 1.24 1.18 71.2 0 0 1079.65 582.53
  L 1076.31 607.94
  Z"
/>
<path fill="#5d4c39" d="
  M 980.94 550.53
  L 938.49 566.91
  A 3.58 3.55 10.7 0 0 937.13 567.83
  L 923.74 582.21
  Q 906.16 586.22 888.20 588.53
  L 881.38 546.67
  Q 908.85 549.24 926.68 548.50
  C 946.75 547.66 962.60 547.11 980.94 550.53
  Z"
/>
<path fill="#5d4c39" d="
  M 703.99 570.15
  C 723.52 573.46 743.23 573.46 763.01 572.68
  L 755.43 618.52
  A 0.94 0.92 27.3 0 0 755.71 619.36
  L 757.99 621.45
  Q 746.20 625.64 735.08 631.31
  L 729.93 600.18
  A 0.39 0.39 0.0 0 0 729.34 599.91
  L 718.75 606.48
  A 3.84 3.71 -62.7 0 1 717.09 607.04
  C 706.66 607.99 700.03 608.89 691.95 609.04
  Q 669.96 609.42 662.50 609.31
  C 656.16 609.21 649.55 608.45 644.03 604.87
  A 3.30 3.30 0.0 0 1 642.55 602.42
  C 642.24 599.07 642.68 595.15 646.08 593.76
  Q 675.03 581.95 703.99 570.15
  Z"
/>
<path fill="#5d4c39" d="
  M 968.41 809.97
  L 997.52 832.44
  L 917.88 903.39
  A 1.38 1.38 0.0 0 1 916.05 903.40
  Q 908.05 896.35 904.69 893.54
  Q 901.78 891.11 899.34 888.68
  C 897.06 886.41 894.17 884.65 891.84 882.35
  Q 887.39 877.94 873.15 865.85
  Q 866.44 860.16 843.56 839.00
  Q 842.08 834.26 842.50 830.83
  C 843.30 824.33 848.35 818.80 855.22 819.33
  C 858.51 819.58 862.45 820.58 866.45 820.68
  Q 872.09 820.83 877.75 820.94
  Q 889.29 831.58 900.76 842.24
  C 902.47 843.84 904.65 846.57 906.80 848.26
  Q 912.02 852.39 914.43 854.64
  C 916.58 856.67 917.88 856.38 920.11 854.60
  Q 922.50 852.69 933.02 842.36
  C 944.44 831.16 956.50 820.60 968.41 809.97
  Z"
/>
</g>
<path fill="#5d4c39" d="
  M 845.19 598.45
  C 839.66 605.54 825.72 606.45 817.97 604.58
  Q 811.66 603.06 807.81 600.72
  C 797.88 594.69 798.45 579.66 799.33 569.76
  C 800.51 556.48 802.47 539.62 806.61 525.34
  C 808.52 518.73 811.83 513.45 818.94 511.95
  Q 827.64 510.10 834.16 512.61
  C 842.65 515.88 845.01 525.84 846.30 534.73
  Q 848.30 548.57 850.37 567.57
  C 851.39 577.01 851.31 590.59 845.19 598.45
  Z"
/>
</svg>
