<svg xmlns="http://www.w3.org/2000/svg" viewBox="0 0 1801 1126"><g fill="none" stroke-width="2"><path stroke="#695641" d="M1378.94 393.73q-3.72 13.92-11.96 25.69c-14.33 20.46-32.14 39.45-53.4 52.01q-16.21 9.57-35.12 15.72-25.17 8.2-45.98 13.75c-15.02 4.01-27.64 6.71-42.52 5.34" vector-effect="non-scaling-stroke"/><path stroke="#aa997c" d="m1189.96 506.24-.81-7.65a3.07 3.05-69.9 0 0-.82-1.78l-14.58-15.34a1.02 1.01 67.9 0 0-.73-.31h-69.38a1.36 1.35-67.7 0 0-.97.41l-14.42 14.97a2 2 70.8 0 0-.55 1.14l-2.89 20.69" vector-effect="non-scaling-stroke"/><path stroke="#695641" d="M1084.81 518.37q-24.59-1.31-49.39.96" vector-effect="non-scaling-stroke"/><path stroke="#aa997c" d="m1035.42 519.33-2.24-21.08a2 2 20.6 0 0-.54-1.18l-14.8-15.57a1.12 1.11 68.3 0 0-.81-.35h-69.42a1.07 1.04 21.2 0 0-.77.33l-14.52 15.06a2 2 0 0 0-.57 1.17l-2.88 20.96a.7.69 4 0 0 .69.79h28.77a1.09 1.07 17.4 0 0 .88-.45q1.09-1.51 2.17-3.64c4.04-7.92 20.09-7.05 28.44-5.95a14.9 14.9 0 0 1 12.38 9.94c2.68 7.44 3.44 18.81-3.79 24.26a3.21 2.9 12.9 0 1-.75.42l-16.72 6.49" vector-effect="non-scaling-stroke"/><path stroke="#695641" d="M980.94 550.53c-18.34-3.42-34.19-2.87-54.26-2.03q-17.83.74-45.3-1.83" vector-effect="non-scaling-stroke"/><path stroke="#aa997c" d="m881.38 546.67-8.08-49.82a1.5 1.49 15.9 0 0-.49-.87l-16.74-14.31a2.83 2.8 65 0 0-1.82-.67h-59.4a2.28 2.26-65.2 0 0-1.48.55l-17.25 14.99a1.88 1.85 74.5 0 0-.62 1.11l-12.49 75.03" vector-effect="non-scaling-stroke"/><path stroke="#695641" d="M763.01 572.68c-19.78.78-39.49.78-59.02-2.53" vector-effect="non-scaling-stroke"/><path stroke="#aa997c" d="m703.99 570.15 14.91-6.07a2.5 2.46 4.7 0 0 1.15-.96l6.4-10.08a1.4 1.4 0 0 0 .2-.89l-5.71-54.25a1.04 1-71.5 0 0-.29-.61l-15.01-15.8a1.05 1.01 67.6 0 0-.75-.33h-69.3a1.36 1.35-67.7 0 0-.97.41l-15.04 15.67" vector-effect="non-scaling-stroke"/><path stroke="#695641" d="M619.58 497.24c-14.9-5.91-25.3-7.45-44.48-10.74q-29.22-5.02-53.81-19.75-10.09-6.04-20.42-13.11c-14.17-9.69-24.22-19.14-29.48-35.75q-5.2-16.41-10.72-32.97" vector-effect="non-scaling-stroke"/><path stroke="#9f8f74" d="m619.58 497.24-2.81 21.67a.5.5 0 0 0 .49.55h28.89a1.22 1.21-73.8 0 0 1.03-.57c1.25-1.99 2.46-4.99 4.17-6.21q2.86-2.04 4.21-2.39 10.49-2.73 22.74-.71c9.06 1.5 12.77 9.18 13.34 17.06.49 6.75.06 12.63-5.21 16.86a5.04 4.86 14.3 0 1-1.35.77l-59.13 22.81a1.98 1.94-78.4 0 0-.73.49l-13.24 14.08a1.73 1.67-20.6 0 0-.44.93l-4.42 33.65" vector-effect="non-scaling-stroke"/><path stroke="#514130" d="M607.12 616.23q-9.35-6.44-21.02-7.02-26.38-1.32-32.41-1.73-22.98-1.56-43.83-7.77c-18.89-5.63-35.06-12.22-49.86-23.38-16.88-12.73-32.87-27.86-48.45-42.79q-7-6.7-15.2-15.61c-9.46-10.29-13.66-21.1-15.39-34.93" vector-effect="non-scaling-stroke"/><path stroke="#9f8f74" d="m1035.42 519.33 3.45 32.62a1.79 1.77 58.4 0 1-.27 1.16l-6.35 10a2.39 2.38 4.7 0 1-1.09.92l-72.7 29.67c-3.47 1.41-4.03 4.99-3.8 8.31a3.95 3.94-74.9 0 0 1.7 2.96c5.56 3.79 13.57 4.49 20.4 4.4 15.4-.2 27.19.05 40.24-1.17q12.31-1.16 12.47-1.19a4.38 4.35-65.3 0 0 1.55-.58l10.16-6.29a.7.7-20.4 0 1 1.04.47l2.23 13.52" vector-effect="non-scaling-stroke"/><path stroke="#92846a" d="m1044.45 614.13 4.6 27.91a.52.52 0 0 1-.66.58l-12.92-3.9a2.46 2.15 48.8 0 0-.6-.08h-97.45a.99.98-21.2 0 1-.72-.31l-17.56-18.49a.87.84-64.1 0 1-.23-.7l4.83-36.93" vector-effect="non-scaling-stroke"/><path stroke="#9f8f74" d="m923.74 582.21 13.39-14.38a3.58 3.55 10.7 0 1 1.36-.92l42.45-16.38m-99.56-3.86 6.82 41.86" vector-effect="non-scaling-stroke"/><path stroke="#92846a" d="m888.2 588.53 4.81 29.48a.99.98 64.1 0 1-.3.89l-21 19.1a1.26 1.25 23.6 0 1-.85.33h-93.47a1.69 1.67 65.7 0 1-1.12-.43l-18.28-16.45" vector-effect="non-scaling-stroke"/><path stroke="#9f8f74" d="m757.99 621.45-2.28-2.09a.94.92 27.3 0 1-.28-.84l7.58-45.84" vector-effect="non-scaling-stroke"/><path stroke="#92846a" d="m1202.65 627.76 2.36 14.24a.55.55 0 0 1-.7.61l-12.89-3.89a2.16 2.08 52.4 0 0-.61-.09h-97.34a1.31 1.28-21.4 0 1-.94-.4l-17.4-18.32a1.06 1.05 26.9 0 1-.29-.88l1.47-11.09" vector-effect="non-scaling-stroke"/><path stroke="#9f8f74" d="m1076.31 607.94 3.34-25.41a1.24 1.18 71.2 0 1 .31-.67l13.36-14.35a1.39 1.27-76.5 0 1 .43-.29q21.7-8.41 55.99-21.58 4.55-1.75 6.2-3.38c5.41-5.33 4.51-15.71 2.37-22.41q-2.64-8.23-11.43-10.12-9.48-2.04-21.12.05-3.61.65-6.35 2.95c-1.95 1.65-2.81 4.27-4.22 6.31a1.04 1.03-72.5 0 1-.85.45h-29a.3.3 0 0 1-.18-.06q-.52-.37-.35-1.06m-380.82 51.78-57.91 23.61c-3.4 1.39-3.84 5.31-3.53 8.66a3.3 3.3 0 0 0 1.48 2.45c5.52 3.58 12.13 4.34 18.47 4.44q7.46.11 29.45-.27c8.08-.15 14.71-1.05 25.14-2a3.84 3.71-62.7 0 0 1.66-.56l10.59-6.57a.4.4 0 0 1 .59.27l5.15 31.13" vector-effect="non-scaling-stroke"/><path stroke="#92846a" d="m735.08 631.31 1.8 11.08a.27.27 0 0 1-.35.31l-12.33-3.72a9 9 53.2 0 0-2.43-.35H625.4a1.39 1.38 68 0 1-1-.43l-17.32-18.23a1 1 0 0 1-.26-.78l.3-2.96" vector-effect="non-scaling-stroke"/><path stroke="#514130" d="m1456.65 516.42-1.39 10.9a1.31 1.3-69.3 0 1-2.03.92c-5.91-4-13.25 1.41-17.98 5.37q-32.13 26.89-70.47 47.49-22.84 12.26-47.24 20.56-35.98 12.24-74.25 20.08-19.97 4.09-40.64 6.02" vector-effect="non-scaling-stroke"/><path stroke="#9f8f74" d="m1202.65 627.76-4.85-27.36a.44.43-20.9 0 0-.66-.29l-10.18 6.31a4.33 4.24-62.9 0 1-1.88.63c-6.37.55-17.66 1.89-26.13 2.01q-11.95.17-23.95.28c-7.12.07-14.05-.15-20.48-3.08q-3.96-1.81-3.96-4.7 0-2.83.77-5.07.61-1.77 3.84-3.09 39.65-16.21 71.86-29.33a2.42 2.39-84.5 0 0 1.15-.96l6.38-10.04a2 2 0 0 0 .26-1.11l-4.86-45.72" vector-effect="non-scaling-stroke"/><path stroke="#514130" d="M735.08 631.31q11.12-5.67 22.91-9.86m130.21-32.92q17.96-2.31 35.54-6.32m120.71 31.92q16.25-1.3 31.86-6.19m-78.79 224.5-29.11-22.47m-90.66 10.97q-5.66-.11-11.3-.26c-4-.1-7.94-1.1-11.23-1.35-6.87-.53-11.92 5-12.72 11.5q-.42 3.43 1.06 8.17" vector-effect="non-scaling-stroke"/><path stroke="#9f8f74" d="M817.97 604.58c7.75 1.87 21.69.96 27.22-6.13 6.12-7.86 6.2-21.44 5.18-30.88q-2.07-19-4.07-32.84c-1.29-8.89-3.65-18.85-12.14-22.12q-6.52-2.51-15.22-.66c-7.11 1.5-10.42 6.78-12.33 13.39-4.14 14.28-6.1 31.14-7.28 44.42-.88 9.9-1.45 24.93 8.48 30.96q3.85 2.34 10.16 3.86" vector-effect="non-scaling-stroke"/></g><path fill="#745f49" d="M1378.94 393.73q-3.72 13.92-11.96 25.69c-14.33 20.46-32.14 39.45-53.4 52.01q-16.21 9.57-35.12 15.72-25.17 8.2-45.98 13.75c-15.02 4.01-27.64 6.71-42.52 5.34l-.81-7.65a3.07 3.05-69.9 0 0-.82-1.78l-14.58-15.34a1.02 1.01 67.9 0 0-.73-.31h-69.38a1.36 1.35-67.7 0 0-.97.41l-14.42 14.97a2 2 70.8 0 0-.55 1.14l-2.89 20.69q-24.59-1.31-49.39.96l-2.24-21.08a2 2 20.6 0 0-.54-1.18l-14.8-15.57a1.12 1.11 68.3 0 0-.81-.35h-69.42a1.07 1.04 21.2 0 0-.77.33l-14.52 15.06a2 2 0 0 0-.57 1.17l-2.88 20.96a.7.69 4 0 0 .69.79h28.77a1.09 1.07 17.4 0 0 .88-.45q1.09-1.51 2.17-3.64c4.04-7.92 20.09-7.05 28.44-5.95a14.9 14.9 0 0 1 12.38 9.94c2.68 7.44 3.44 18.81-3.79 24.26a3.21 2.9 12.9 0 1-.75.42l-16.72 6.49c-18.34-3.42-34.19-2.87-54.26-2.03q-17.83.74-45.3-1.83l-8.08-49.82a1.5 1.49 15.9 0 0-.49-.87l-16.74-14.31a2.83 2.8 65 0 0-1.82-.67h-59.4a2.28 2.26-65.2 0 0-1.48.55l-17.25 14.99a1.88 1.85 74.5 0 0-.62 1.11l-12.49 75.03c-19.78.78-39.49.78-59.02-2.53l14.91-6.07a2.5 2.46 4.7 0 0 1.15-.96l6.4-10.08a1.4 1.4 0 0 0 .2-.89l-5.71-54.25a1.04 1-71.5 0 0-.29-.61l-15.01-15.8a1.05 1.01 67.6 0 0-.75-.33h-69.3a1.36 1.35-67.7 0 0-.97.41l-15.04 15.67c-14.9-5.91-25.3-7.45-44.48-10.74q-29.22-5.02-53.81-19.75-10.09-6.04-20.42-13.11c-14.17-9.69-24.22-19.14-29.48-35.75q-5.2-16.41-10.72-32.97c6.49-4 12.83-8.54 19.43-12.17 3.43-1.89 6.96-4.16 10.91-5.84q13.75-5.84 28.18-10.86 6.33-2.2 10.78-3.15c4.61-.99 8.98-2.43 14.57-3.5q20.94-4.02 43.71-4.05c193.41-.26 411.5-.07 620.53-.32q8.23-.01 32.25.21 22.71.21 45.49 5.26c7.37 1.63 15.19 3.48 22.31 5.98q12.77 4.49 25.43 10.01 5.6 2.45 9.77 4.91c3.9 2.3 8.12 4.19 12.68 7.17 8.34 5.45 15.37 9.44 22.23 15.16"/><path fill="#5d4c39" d="M460.67 384.92q5.52 16.56 10.72 32.97c5.26 16.61 15.31 26.06 29.48 35.75q10.33 7.07 20.42 13.11 24.59 14.73 53.81 19.75c19.18 3.29 29.58 4.83 44.48 10.74l-2.81 21.67a.5.5 0 0 0 .49.55h28.89a1.22 1.21-73.8 0 0 1.03-.57c1.25-1.99 2.46-4.99 4.17-6.21q2.86-2.04 4.21-2.39 10.49-2.73 22.74-.71c9.06 1.5 12.77 9.18 13.34 17.06.49 6.75.06 12.63-5.21 16.86a5.04 4.86 14.3 0 1-1.35.77l-59.13 22.81a1.98 1.94-78.4 0 0-.73.49l-13.24 14.08a1.73 1.67-20.6 0 0-.44.93l-4.42 33.65q-9.35-6.44-21.02-7.02-26.38-1.32-32.41-1.73-22.98-1.56-43.83-7.77c-18.89-5.63-35.06-12.22-49.86-23.38-16.88-12.73-32.87-27.86-48.45-42.79q-7-6.7-15.2-15.61c-9.46-10.29-13.66-21.1-15.39-34.93q5.54-14.81 10.49-23.04 9.91-16.46 14.88-22.9c5.77-7.47 11.6-14.91 17.36-20.52 4.08-3.97 8.1-8.61 12.56-12.57q11.55-10.23 24.42-19.05m995.98 131.5-1.39 10.9a1.31 1.3-69.3 0 1-2.03.92c-5.91-4-13.25 1.41-17.98 5.37q-32.13 26.89-70.47 47.49-22.84 12.26-47.24 20.56-35.98 12.24-74.25 20.08-19.97 4.09-40.64 6.02l-4.85-27.36a.44.43-20.9 0 0-.66-.29l-10.18 6.31a4.33 4.24-62.9 0 1-1.88.63c-6.37.55-17.66 1.89-26.13 2.01q-11.95.17-23.95.28c-7.12.07-14.05-.15-20.48-3.08q-3.96-1.81-3.96-4.7 0-2.83.77-5.07.61-1.77 3.84-3.09 39.65-16.21 71.86-29.33a2.42 2.39-84.5 0 0 1.15-.96l6.38-10.04a2 2 0 0 0 .26-1.11l-4.86-45.72c14.88 1.37 27.5-1.33 42.52-5.34q20.81-5.55 45.98-13.75 18.91-6.15 35.12-15.72c21.26-12.56 39.07-31.55 53.4-52.01q8.24-11.77 11.96-25.69 10.44 7.98 14.55 12.03 14.92 14.69 23.43 25.56 10.46 13.39 14.99 21.34 3.79 6.66 4.75 8.29c3.65 6.2 5.34 11.38 8.95 18.21a13.01 12.67 23 0 1 .86 2.05q2.63 8.24 5.92 16.17.41.97 1.05 4.08 1.57 7.54 3.21 14.96"/><path fill="#e0d2ae" d="m881.38 546.67 6.82 41.86 4.81 29.48a.99.98 64.1 0 1-.3.89l-21 19.1a1.26 1.25 23.6 0 1-.85.33h-93.47a1.69 1.67 65.7 0 1-1.12-.43l-18.28-16.45-2.28-2.09a.94.92 27.3 0 1-.28-.84l7.58-45.84 12.49-75.03a1.88 1.85 74.5 0 1 .62-1.11l17.25-14.99a2.28 2.26-65.2 0 1 1.48-.55h59.4a2.83 2.8 65 0 1 1.82.67l16.74 14.31a1.5 1.49 15.9 0 1 .49.87zm-63.41 57.91c7.75 1.87 21.69.96 27.22-6.13 6.12-7.86 6.2-21.44 5.18-30.88q-2.07-19-4.07-32.84c-1.29-8.89-3.65-18.85-12.14-22.12q-6.52-2.51-15.22-.66c-7.11 1.5-10.42 6.78-12.33 13.39-4.14 14.28-6.1 31.14-7.28 44.42-.88 9.9-1.45 24.93 8.48 30.96q3.85 2.34 10.16 3.86m217.45-85.25 3.45 32.62a1.79 1.77 58.4 0 1-.27 1.16l-6.35 10a2.39 2.38 4.7 0 1-1.09.92l-72.7 29.67c-3.47 1.41-4.03 4.99-3.8 8.31a3.95 3.94-74.9 0 0 1.7 2.96c5.56 3.79 13.57 4.49 20.4 4.4 15.4-.2 27.19.05 40.24-1.17q12.31-1.16 12.47-1.19a4.38 4.35-65.3 0 0 1.55-.58l10.16-6.29a.7.7-20.4 0 1 1.04.47l2.23 13.52 4.6 27.91a.52.52 0 0 1-.66.58l-12.92-3.9a2.46 2.15 48.8 0 0-.6-.08h-97.45a.99.98-21.2 0 1-.72-.31l-17.56-18.49a.87.84-64.1 0 1-.23-.7l4.83-36.93 13.39-14.38a3.58 3.55 10.7 0 1 1.36-.92l42.45-16.38 16.72-6.49a3.21 2.9 12.9 0 0 .75-.42c7.23-5.45 6.47-16.82 3.79-24.26a14.9 14.9 0 0 0-12.38-9.94c-8.35-1.1-24.4-1.97-28.44 5.95q-1.08 2.13-2.17 3.64a1.09 1.07 17.4 0 1-.88.45h-28.77a.7.69 4 0 1-.69-.79l2.88-20.96a2 2 0 0 1 .57-1.17l14.52-15.06a1.07 1.04 21.2 0 1 .77-.33h69.42a1.12 1.11 68.3 0 1 .81.35l14.8 15.57a2 2 20.6 0 1 .54 1.18zm154.54-13.09 4.86 45.72a2 2 0 0 1-.26 1.11l-6.38 10.04a2.42 2.39-84.5 0 1-1.15.96q-32.21 13.12-71.86 29.33-3.23 1.32-3.84 3.09-.77 2.24-.77 5.07 0 2.89 3.96 4.7c6.43 2.93 13.36 3.15 20.48 3.08q12-.11 23.95-.28c8.47-.12 19.76-1.46 26.13-2.01a4.33 4.24-62.9 0 0 1.88-.63l10.18-6.31a.44.43-20.9 0 1 .66.29l4.85 27.36 2.36 14.24a.55.55 0 0 1-.7.61l-12.89-3.89a2.16 2.08 52.4 0 0-.61-.09h-97.34a1.31 1.28-21.4 0 1-.94-.4l-17.4-18.32a1.06 1.05 26.9 0 1-.29-.88l1.47-11.09 3.34-25.41a1.24 1.18 71.2 0 1 .31-.67l13.36-14.35a1.39 1.27-76.5 0 1 .43-.29q21.7-8.41 55.99-21.58 4.55-1.75 6.2-3.38c5.41-5.33 4.51-15.71 2.37-22.41q-2.64-8.23-11.43-10.12-9.48-2.04-21.12.05-3.61.65-6.35 2.95c-1.95 1.65-2.81 4.27-4.22 6.31a1.04 1.03-72.5 0 1-.85.45h-29a.3.3 0 0 1-.18-.06q-.52-.37-.35-1.06l2.89-20.69a2 2 70.8 0 1 .55-1.14l14.42-14.97a1.36 1.35-67.7 0 1 .97-.41h69.38a1.02 1.01 67.9 0 1 .73.31l14.58 15.34a3.07 3.05-69.9 0 1 .82 1.78zm-485.97 63.91-57.91 23.61c-3.4 1.39-3.84 5.31-3.53 8.66a3.3 3.3 0 0 0 1.48 2.45c5.52 3.58 12.13 4.34 18.47 4.44q7.46.11 29.45-.27c8.08-.15 14.71-1.05 25.14-2a3.84 3.71-62.7 0 0 1.66-.56l10.59-6.57a.4.4 0 0 1 .59.27l5.15 31.13 1.8 11.08a.27.27 0 0 1-.35.31l-12.33-3.72a9 9 53.2 0 0-2.43-.35H625.4a1.39 1.38 68 0 1-1-.43l-17.32-18.23a1 1 0 0 1-.26-.78l.3-2.96 4.42-33.65a1.73 1.67-20.6 0 1 .44-.93l13.24-14.08a1.98 1.94-78.4 0 1 .73-.49l59.13-22.81a5.04 4.86 14.3 0 0 1.35-.77c5.27-4.23 5.7-10.11 5.21-16.86-.57-7.88-4.28-15.56-13.34-17.06q-12.25-2.02-22.74.71-1.35.35-4.21 2.39c-1.71 1.22-2.92 4.22-4.17 6.21a1.22 1.21-73.8 0 1-1.03.57h-28.89a.5.5 0 0 1-.49-.55l2.81-21.67 15.04-15.67a1.36 1.35-67.7 0 1 .97-.41h69.3a1.05 1.01 67.6 0 1 .75.33l15.01 15.8a1.04 1-71.5 0 1 .29.61l5.71 54.25a1.4 1.4 0 0 1-.2.89l-6.4 10.08a2.5 2.46 4.7 0 1-1.15.96z"/><path fill="#443526" d="M380.96 483c1.73 13.83 5.93 24.64 15.39 34.93q8.2 8.91 15.2 15.61c15.58 14.93 31.57 30.06 48.45 42.79 14.8 11.16 30.97 17.75 49.86 23.38q20.85 6.21 43.83 7.77 6.03.41 32.41 1.73 11.67.58 21.02 7.02l-.3 2.96a1 1 0 0 0 .26.78l17.32 18.23a1.39 1.38 68 0 0 1 .43h96.37a9 9 53.2 0 1 2.43.35l12.33 3.72a.27.27 0 0 0 .35-.31l-1.8-11.08q11.12-5.67 22.91-9.86l18.28 16.45a1.69 1.67 65.7 0 0 1.12.43h93.47a1.26 1.25 23.6 0 0 .85-.33l21-19.1a.99.98 64.1 0 0 .3-.89l-4.81-29.48q17.96-2.31 35.54-6.32l-4.83 36.93a.87.84-64.1 0 0 .23.7l17.56 18.49a.99.98-21.2 0 0 .72.31h97.45a2.46 2.15 48.8 0 1 .6.08l12.92 3.9a.52.52 0 0 0 .66-.58l-4.6-27.91q16.25-1.3 31.86-6.19l-1.47 11.09a1.06 1.05 26.9 0 0 .29.88l17.4 18.32a1.31 1.28-21.4 0 0 .94.4h97.34a2.16 2.08 52.4 0 1 .61.09l12.89 3.89a.55.55 0 0 0 .7-.61l-2.36-14.24q20.67-1.93 40.64-6.02 38.27-7.84 74.25-20.08 24.4-8.3 47.24-20.56 38.34-20.6 70.47-47.49c4.73-3.96 12.07-9.37 17.98-5.37a1.31 1.3-69.3 0 0 2.03-.92l1.39-10.9c1.49 7.94 3.31 16.31 3.82 23.94q1.02 15.21.36 30.66c-.61 14.49-4.34 31.07-7.2 43.71-1.45 6.38-4.99 12.79-6.38 18.13-1.5 5.77-4.75 10.65-7.09 16.45-1.93 4.8-4.75 8.54-7.34 13.54-2.13 4.1-4.57 7.26-6.67 10.99-2.12 3.77-5.29 7-7.67 10.59q-1.6 2.42-4.86 6.27c-9.34 11.02-19.32 21.88-30.63 30.29q-1.51 1.12-3.11 2.87a6.03 5.67 1.8 0 1-.86.76q-9.98 7.14-16.07 11.32-3.74 2.57-20.36 11.41-5.1 2.72-8.1 3.7c-3.83 1.26-6.61 2.99-10.96 4.57q-16.6 6.05-24.36 7.78c-8.69 1.93-15.39 3.77-23.23 4.74q-20.7 2.57-34.93 2.69-25.5.21-169.26.04-6.45-.01-9 2.86-1.45 1.64-11.13 10.3l-10.64 9.53q-9.07 8.16-10.71 9.48-4.54 3.65-7.98 7.02-5.9 5.77-7.87 7.14c-2.84 1.95-4.53 4.38-7.31 6.59-2.63 2.09-5.99 6.05-9.59 8.65l-29.11-22.47q12.19-10.85 24.38-21.63 2.45-2.17 4.21-3.9c3.51-3.46 4.9-4.21 8.2-8.08q1.16-1.36 4.6-3.73a1.04 1.04 0 0 0-.73-1.89q-4.43.62-14.5.26-6.45-.22-14.63-.19-69.69.29-138.42-.35c-5.27-.05-10.56.19-16.04.19q-.46 0-1.26.29a.83.83 0 0 0-.29 1.39l47.26 43.13a2.14 1.52 73.2 0 0 .27.21q3.49 2.29 6.29 5.27-5.66-.11-11.3-.26c-4-.1-7.94-1.1-11.23-1.35-6.87-.53-11.92 5-12.72 11.5q-.42 3.43 1.06 8.17c-1.87-1.56-3.67-3.66-5.45-4.85-2.87-1.93-5.02-4.39-7.73-6.71-10.16-8.68-23.47-21.25-36.4-32.09-8.37-7.02-13.6-12.06-21.38-19.07q-1.09-.98-2.23-2.41c-2.06-2.59-6.44-3.13-9.62-3.14q-25.62-.06-166.74.1c-8.98.01-18.57.32-27.32-.8q-16.33-2.09-17.6-2.23-6.18-.67-10.59-2.07c-3.96-1.26-9.52-1.54-14.06-3.15-6.88-2.43-16.13-4.63-23.91-8.1q-10.68-4.77-12.14-5.63c-5.97-3.52-11.38-5.5-17.12-8.94q-28.58-17.1-51.14-42.03-2.91-3.2-11.88-14.35c-2.94-3.65-4.64-6.73-7.45-10.34-2.48-3.19-4.49-7.42-7-11.33q-1.14-1.77-2.55-4.64-6.89-13.96-13.71-30-1.87-4.41-2.81-8.56c-1.79-7.87-3.55-12.74-5.48-21.34q-1.39-6.2-1.98-13.8-2.24-28.82.45-55.26.75-7.37 2.62-13.69 3.43-11.6 3.87-13.77c1.17-5.82 4.08-12.13 6.75-17.8"/><path fill="#5d4c39" d="M1076.31 607.94q-15.61 4.89-31.86 6.19l-2.23-13.52a.7.7-20.4 0 0-1.04-.47l-10.16 6.29a4.38 4.35-65.3 0 1-1.55.58q-.16.03-12.47 1.19c-13.05 1.22-24.84.97-40.24 1.17-6.83.09-14.84-.61-20.4-4.4a3.95 3.94-74.9 0 1-1.7-2.96c-.23-3.32.33-6.9 3.8-8.31l72.7-29.67a2.39 2.38 4.7 0 0 1.09-.92l6.35-10a1.79 1.77 58.4 0 0 .27-1.16l-3.45-32.62q24.8-2.27 49.39-.96-.17.69.35 1.06a.3.3 0 0 0 .18.06h29a1.04 1.03-72.5 0 0 .85-.45c1.41-2.04 2.27-4.66 4.22-6.31q2.74-2.3 6.35-2.95 11.64-2.09 21.12-.05 8.79 1.89 11.43 10.12c2.14 6.7 3.04 17.08-2.37 22.41q-1.65 1.63-6.2 3.38-34.29 13.17-55.99 21.58a1.39 1.27-76.5 0 0-.43.29l-13.36 14.35a1.24 1.18 71.2 0 0-.31.67zm-95.37-57.41-42.45 16.38a3.58 3.55 10.7 0 0-1.36.92l-13.39 14.38q-17.58 4.01-35.54 6.32l-6.82-41.86q27.47 2.57 45.3 1.83c20.07-.84 35.92-1.39 54.26 2.03m-276.95 19.62c19.53 3.31 39.24 3.31 59.02 2.53l-7.58 45.84a.94.92 27.3 0 0 .28.84l2.28 2.09q-11.79 4.19-22.91 9.86l-5.15-31.13a.4.4 0 0 0-.59-.27l-10.59 6.57a3.84 3.71-62.7 0 1-1.66.56c-10.43.95-17.06 1.85-25.14 2q-21.99.38-29.45.27c-6.34-.1-12.95-.86-18.47-4.44a3.3 3.3 0 0 1-1.48-2.45c-.31-3.35.13-7.27 3.53-8.66zm264.42 239.82 29.11 22.47-79.64 70.95a1.4 1.4 0 0 1-1.83.01q-8-7.05-11.36-9.86-2.91-2.43-5.35-4.86c-2.28-2.27-5.17-4.03-7.5-6.33q-4.45-4.41-18.69-16.5-6.71-5.69-29.59-26.85-1.48-4.74-1.06-8.17c.8-6.5 5.85-12.03 12.72-11.5 3.29.25 7.23 1.25 11.23 1.35q5.64.15 11.3.26 11.54 10.64 23.01 21.3c1.71 1.6 3.89 4.33 6.04 6.02q5.22 4.13 7.63 6.38c2.15 2.03 3.45 1.74 5.68-.04q2.39-1.91 12.91-12.24c11.42-11.2 23.48-21.76 35.39-32.39M845.19 598.45c-5.53 7.09-19.47 8-27.22 6.13q-6.31-1.52-10.16-3.86c-9.93-6.03-9.36-21.06-8.48-30.96 1.18-13.28 3.14-30.14 7.28-44.42 1.91-6.61 5.22-11.89 12.33-13.39q8.7-1.85 15.22.66c8.49 3.27 10.85 13.23 12.14 22.12q2 13.84 4.07 32.84c1.02 9.44.94 23.02-5.18 30.88"/></svg>