<?xml version="1.0" encoding="UTF-8" standalone="no"?>
<!DOCTYPE svg PUBLIC "-//W3C//DTD SVG 1.1//EN" "http://www.w3.org/Graphics/SVG/1.1/DTD/svg11.dtd">
<svg xmlns="http://www.w3.org/2000/svg" version="1.1" viewBox="0.00 0.00 1801.00 1126.00">
<g stroke-width="2.00" fill="none" stroke-linecap="butt">
<path stroke="#675440" vector-effect="non-scaling-stroke" d="
  M 1391.74 404.12
  Q 1380.12 428.62 1364.53 453.04
  C 1356.14 466.17 1345.84 477.21 1332.04 484.10
  C 1305.23 497.47 1276.29 507.59 1246.32 516.87
  Q 1233.25 520.92 1222.53 523.60
  Q 1206.24 527.67 1190.97 521.89"
/>
<path stroke="#aa997c" vector-effect="non-scaling-stroke" d="
  M 1190.97 521.89
  L 1187.41 498.07
  A 2.50 2.48 17.4 0 0 1186.65 496.63
  L 1170.72 481.63
  A 1.18 1.16 66.2 0 0 1169.92 481.31
  L 1104.05 481.31
  A 1.33 1.32 23.5 0 0 1103.15 481.66
  L 1087.14 496.26
  A 1.35 1.30 74.8 0 0 1086.73 497.01
  L 1083.06 518.45"
/>
<path stroke="#675440" vector-effect="non-scaling-stroke" d="
  M 1083.06 518.45
  Q 1058.93 517.15 1035.08 517.34"
/>
<path stroke="#aa997c" vector-effect="non-scaling-stroke" d="
  M 1035.08 517.34
  L 1033.05 498.28
  A 1.12 1.09 21.0 0 0 1032.76 497.65
  L 1018.01 481.48
  A 0.97 0.97 0.0 0 0 1017.29 481.16
  L 947.61 481.16
  A 1.83 1.81 -68.1 0 0 946.29 481.73
  L 931.96 496.95
  A 0.95 0.89 -21.3 0 0 931.73 497.43
  L 928.82 518.22"
/>
<path stroke="#675440" vector-effect="non-scaling-stroke" d="
  M 928.82 518.22
  Q 902.35 518.23 876.04 514.48"
/>
<path stroke="#aa997c" vector-effect="non-scaling-stroke" d="
  M 876.04 514.48
  L 873.12 496.74
  A 1.30 1.26 -75.5 0 0 872.68 495.97
  L 855.97 481.67
  A 2.84 2.82 -24.7 0 0 854.14 481.00
  L 794.55 481.00
  A 1.78 1.75 -64.9 0 0 793.40 481.43
  L 775.93 496.62
  A 1.44 1.39 -16.7 0 0 775.46 497.46
  L 763.73 568.18"
/>
<path stroke="#675440" vector-effect="non-scaling-stroke" d="
  M 763.73 568.18
  C 744.98 569.96 726.22 570.76 707.50 568.69"
/>
<path stroke="#aa997c" vector-effect="non-scaling-stroke" d="
  M 707.50 568.69
  L 718.83 564.03
  A 2.50 2.46 4.7 0 0 719.98 563.07
  L 726.28 553.14
  A 1.76 1.76 0.0 0 0 726.54 552.03
  L 720.86 498.20
  A 0.87 0.86 21.1 0 0 720.64 497.71
  L 705.90 481.55
  A 1.19 1.17 -20.7 0 0 705.02 481.16
  L 635.63 481.16
  A 1.62 1.60 22.3 0 0 634.49 481.63
  L 632.40 483.68"
/>
<path stroke="#675440" vector-effect="non-scaling-stroke" d="
  M 632.40 483.68
  Q 618.76 487.68 607.52 486.57
  Q 592.33 485.07 570.22 479.85
  C 552.25 475.61 536.73 469.58 520.65 460.52
  Q 503.59 450.90 491.98 441.69
  C 478.64 431.10 474.56 416.63 469.10 400.74
  Q 467.44 395.90 461.67 384.24"
/>
<path stroke="#9d8e73" vector-effect="non-scaling-stroke" d="
  M 632.40 483.68
  L 619.99 496.44
  A 1.79 1.73 71.9 0 0 619.51 497.43
  L 616.54 518.83
  A 0.56 0.56 0.0 0 0 617.09 519.46
  L 646.19 519.46
  A 0.96 0.96 0.0 0 0 647.01 519.00
  C 649.63 514.75 650.91 511.28 656.55 510.04
  Q 666.65 507.80 676.77 509.30
  Q 688.28 511.00 690.73 522.02
  Q 692.74 531.05 690.83 536.86
  Q 688.89 542.71 684.77 544.31
  Q 660.70 553.66 625.89 567.04
  A 1.90 1.89 -78.9 0 0 625.15 567.54
  L 611.91 581.60
  A 1.96 1.94 -20.1 0 0 611.40 582.68
  L 608.12 607.71"
/>
<path stroke="#544432" vector-effect="non-scaling-stroke" d="
  M 608.12 607.71
  Q 579.75 609.58 549.71 607.02
  Q 534.46 605.73 521.22 602.58
  C 504.65 598.63 486.28 592.60 471.35 583.75
  Q 452.90 572.82 434.87 558.66
  C 424.37 550.42 414.51 539.74 398.68 524.19
  Q 384.89 510.66 375.27 496.37"
/>
<path stroke="#9d8e73" vector-effect="non-scaling-stroke" d="
  M 876.04 514.48
  L 892.12 613.30"
/>
<path stroke="#97886e" vector-effect="non-scaling-stroke" d="
  M 892.12 613.30
  L 892.85 618.09
  A 0.96 0.96 0.0 0 1 892.56 618.92
  L 871.63 638.00
  A 1.26 1.25 23.6 0 1 870.78 638.33
  L 777.19 638.33
  A 1.54 1.53 -24.5 0 1 776.19 637.96
  L 755.50 619.99"
/>
<path stroke="#9d8e73" vector-effect="non-scaling-stroke" d="
  M 755.50 619.99
  L 763.73 568.18"
/>
<path stroke="#9d8e73" vector-effect="non-scaling-stroke" d="
  M 707.50 568.69
  Q 676.86 581.16 646.17 593.61
  Q 643.24 594.80 642.65 598.14
  Q 642.08 601.38 642.60 603.07
  A 2.25 2.21 -76.3 0 0 643.13 603.96
  C 649.09 609.92 661.25 609.34 670.03 609.32
  Q 693.12 609.25 700.28 608.59
  Q 715.95 607.13 717.12 607.02
  A 3.18 3.16 26.2 0 0 718.49 606.56
  L 729.27 599.91
  A 0.39 0.38 69.8 0 1 729.85 600.18
  L 734.16 626.39"
/>
<path stroke="#97886e" vector-effect="non-scaling-stroke" d="
  M 734.16 626.39
  L 736.76 642.40
  A 0.26 0.26 0.0 0 1 736.43 642.69
  L 723.28 638.74
  A 2.64 2.46 51.8 0 0 722.51 638.62
  L 624.80 638.62
  A 1.08 1.06 68.0 0 1 624.02 638.28
  L 607.00 619.61
  A 1.12 1.09 -63.5 0 1 606.72 618.73
  L 608.12 607.71"
/>
<path stroke="#9d8e73" vector-effect="non-scaling-stroke" d="
  M 1035.08 517.34
  L 1038.75 552.05
  A 1.63 1.62 58.5 0 1 1038.50 553.10
  L 1032.08 563.22
  A 2.15 2.11 4.5 0 1 1031.09 564.05
  Q 991.93 579.95 957.77 593.97
  C 954.48 595.32 954.11 600.58 954.85 603.31
  A 2.05 2.05 0.0 0 0 955.60 604.43
  C 961.43 608.89 969.82 609.40 977.25 609.35
  C 995.23 609.21 1004.81 609.36 1017.19 608.17
  Q 1028.99 607.04 1029.04 607.03
  A 6.27 6.18 24.1 0 0 1031.34 606.17
  L 1041.21 600.04
  A 0.54 0.54 0.0 0 1 1042.02 600.41
  L 1044.23 613.48"
/>
<path stroke="#97886e" vector-effect="non-scaling-stroke" d="
  M 1044.23 613.48
  L 1048.96 642.24
  A 0.38 0.38 0.0 0 1 1048.47 642.67
  L 1035.22 638.69
  A 1.42 1.24 49.0 0 0 1034.86 638.64
  L 937.10 638.64
  A 0.61 0.58 68.1 0 1 936.66 638.44
  L 919.09 619.85
  A 1.05 1.03 -63.1 0 1 918.82 618.99
  L 920.37 607.30"
/>
<path stroke="#9d8e73" vector-effect="non-scaling-stroke" d="
  M 920.37 607.30
  L 923.58 582.49
  A 1.21 1.21 0.0 0 1 923.91 581.80
  L 937.49 567.37
  A 0.82 0.78 -77.6 0 1 937.74 567.20
  L 997.38 544.19
  A 2.74 2.66 16.1 0 0 997.96 543.88
  C 1005.57 538.39 1004.77 527.10 1002.12 519.38
  C 999.33 511.26 991.75 508.99 983.75 508.82
  C 976.34 508.66 967.62 508.49 962.35 513.65
  A 1.99 1.64 -12.9 0 0 962.05 514.04
  L 959.36 518.80
  A 1.24 1.24 0.0 0 1 958.30 519.43
  Q 948.48 519.61 929.28 519.27
  Q 928.59 519.25 928.82 518.22"
/>
<path stroke="#544432" vector-effect="non-scaling-stroke" d="
  M 1447.16 483.91
  C 1427.91 517.26 1394.97 540.19 1361.45 558.13
  C 1338.40 570.47 1316.31 580.48 1291.96 587.69
  Q 1276.01 592.41 1245.50 601.02
  C 1233.83 604.32 1217.69 605.57 1204.17 611.06"
/>
<path stroke="#9d8e73" vector-effect="non-scaling-stroke" d="
  M 1204.17 611.06
  L 1197.78 567.95
  A 0.58 0.57 10.8 0 0 1197.49 567.53
  L 1178.66 556.66
  A 0.17 0.17 0.0 0 1 1178.64 556.37
  L 1193.85 544.85
  A 0.88 0.88 0.0 0 0 1194.19 544.03
  L 1190.97 521.89"
/>
<path stroke="#97886e" vector-effect="non-scaling-stroke" d="
  M 1204.17 611.06
  L 1205.20 618.21
  A 0.86 0.85 -27.3 0 1 1204.96 618.95
  L 1185.75 638.16
  A 1.71 1.69 -67.2 0 1 1184.55 638.66
  L 1088.62 638.66
  A 1.55 1.54 66.7 0 1 1087.55 638.23
  L 1068.43 620.24
  A 1.27 1.25 -64.4 0 1 1068.05 619.13
  L 1069.38 610.30"
/>
<path stroke="#9d8e73" vector-effect="non-scaling-stroke" d="
  M 1069.38 610.30
  L 1072.27 590.77
  A 0.69 0.69 0.0 0 1 1072.95 590.19
  L 1108.70 590.19
  A 0.76 0.75 4.0 0 1 1109.45 591.04
  C 1108.91 594.96 1108.90 600.98 1111.65 603.87
  Q 1116.48 608.95 1123.76 609.09
  Q 1139.51 609.40 1151.21 607.22
  Q 1159.07 605.76 1162.97 598.99
  C 1166.51 592.84 1169.04 584.02 1162.68 578.46
  C 1153.57 570.50 1137.55 572.49 1125.84 573.86
  A 3.13 3.04 25.0 0 0 1124.55 574.31
  L 1115.87 579.68
  A 0.44 0.43 69.8 0 1 1115.21 579.37
  L 1109.22 539.49
  A 0.30 0.30 0.0 0 1 1109.61 539.16
  Q 1125.72 544.81 1142.54 542.04
  C 1148.30 541.09 1155.58 540.81 1158.17 534.52
  C 1159.81 530.53 1157.54 521.18 1156.32 517.37
  A 5.83 5.83 0.0 0 0 1153.97 514.28
  Q 1140.11 505.17 1124.79 510.93
  C 1120.71 512.47 1119.54 514.99 1116.79 519.19
  A 0.99 0.98 16.2 0 1 1115.96 519.64
  L 1083.47 519.64
  A 0.45 0.43 -12.7 0 1 1083.07 519.40
  Q 1082.81 518.91 1083.06 518.45"
/>
<path stroke="#483929" vector-effect="non-scaling-stroke" d="
  M 1460.79 571.08
  C 1456.73 573.70 1454.06 572.42 1450.59 569.72
  C 1445.39 565.69 1438.83 570.67 1435.11 573.10
  Q 1420.77 582.47 1390.93 600.95
  Q 1371.16 613.20 1354.35 619.66
  Q 1310.00 636.69 1262.96 646.55
  C 1243.07 650.71 1225.28 652.50 1202.57 654.53
  C 1180.95 656.47 1158.73 658.79 1138.07 654.75
  Q 1118.66 650.95 1113.80 650.01
  C 1097.42 646.85 1077.81 648.42 1060.53 652.49
  Q 1058.71 652.92 1056.92 653.75
  A 0.34 0.34 0.0 0 0 1057.07 654.39
  L 1066.02 654.29
  A 0.31 0.30 78.1 0 1 1066.32 654.49
  L 1066.33 654.50
  A 0.24 0.24 0.0 0 1 1066.14 654.76
  Q 1033.83 661.63 1000.45 659.07
  Q 976.99 657.27 954.87 655.07
  Q 936.80 653.26 920.86 656.09
  Q 899.60 659.86 890.06 660.84
  Q 879.98 661.88 862.74 662.15
  C 830.81 662.66 797.94 665.65 771.41 664.92
  Q 734.77 663.91 698.59 664.64
  Q 688.99 664.84 643.19 663.41
  Q 619.58 662.68 606.38 661.11
  Q 589.55 659.12 569.80 655.77
  C 552.33 652.81 537.71 647.65 518.64 641.04
  C 490.61 631.33 468.86 627.22 446.46 614.11
  Q 427.47 602.99 404.77 585.56
  Q 395.23 578.24 389.97 567.11
  Q 377.91 541.61 370.65 513.43"
/>
<path stroke="#544432" vector-effect="non-scaling-stroke" d="
  M 734.16 626.39
  L 755.50 619.99"
/>
<path stroke="#544432" vector-effect="non-scaling-stroke" d="
  M 892.12 613.30
  L 920.37 607.30"
/>
<path stroke="#544432" vector-effect="non-scaling-stroke" d="
  M 1044.23 613.48
  Q 1056.77 611.07 1069.38 610.30"
/>
<path stroke="#483929" vector-effect="non-scaling-stroke" d="
  M 998.05 832.00
  C 992.76 824.51 986.33 821.25 979.06 817.00
  A 9.01 8.52 78.6 0 1 978.01 816.26
  L 969.37 809.04"
/>
<path stroke="#483929" vector-effect="non-scaling-stroke" d="
  M 876.25 819.48
  Q 869.53 820.16 862.78 820.03
  Q 854.51 819.88 852.15 820.50
  C 845.63 822.21 840.68 827.79 836.55 832.92"
/>
<path stroke="#9d8e73" vector-effect="non-scaling-stroke" d="
  M 805.50 599.28
  Q 818.43 607.76 833.43 604.63
  C 841.29 602.99 846.81 598.82 848.78 591.22
  Q 851.55 580.55 850.32 568.40
  Q 848.75 552.75 846.13 534.32
  C 843.97 519.13 838.66 509.21 821.01 511.52
  C 814.39 512.39 809.45 516.27 807.50 522.28
  C 802.63 537.32 800.72 554.27 799.20 569.99
  Q 798.27 579.51 799.87 588.93
  C 800.43 592.26 803.28 597.83 805.50 599.28"
/>
</g>
<g>
<path fill="#745f49" d="
  M 1391.74 404.12
  Q 1380.12 428.62 1364.53 453.04
  C 1356.14 466.17 1345.84 477.21 1332.04 484.10
  C 1305.23 497.47 1276.29 507.59 1246.32 516.87
  Q 1233.25 520.92 1222.53 523.60
  Q 1206.24 527.67 1190.97 521.89
  L 1187.41 498.07
  A 2.50 2.48 17.4 0 0 1186.65 496.63
  L 1170.72 481.63
  A 1.18 1.16 66.2 0 0 1169.92 481.31
  L 1104.05 481.31
  A 1.33 1.32 23.5 0 0 1103.15 481.66
  L 1087.14 496.26
  A 1.35 1.30 74.8 0 0 1086.73 497.01
  L 1083.06 518.45
  Q 1058.93 517.15 1035.08 517.34
  L 1033.05 498.28
  A 1.12 1.09 21.0 0 0 1032.76 497.65
  L 1018.01 481.48
  A 0.97 0.97 0.0 0 0 1017.29 481.16
  L 947.61 481.16
  A 1.83 1.81 -68.1 0 0 946.29 481.73
  L 931.96 496.95
  A 0.95 0.89 -21.3 0 0 931.73 497.43
  L 928.82 518.22
  Q 902.35 518.23 876.04 514.48
  L 873.12 496.74
  A 1.30 1.26 -75.5 0 0 872.68 495.97
  L 855.97 481.67
  A 2.84 2.82 -24.7 0 0 854.14 481.00
  L 794.55 481.00
  A 1.78 1.75 -64.9 0 0 793.40 481.43
  L 775.93 496.62
  A 1.44 1.39 -16.7 0 0 775.46 497.46
  L 763.73 568.18
  C 744.98 569.96 726.22 570.76 707.50 568.69
  L 718.83 564.03
  A 2.50 2.46 4.7 0 0 719.98 563.07
  L 726.28 553.14
  A 1.76 1.76 0.0 0 0 726.54 552.03
  L 720.86 498.20
  A 0.87 0.86 21.1 0 0 720.64 497.71
  L 705.90 481.55
  A 1.19 1.17 -20.7 0 0 705.02 481.16
  L 635.63 481.16
  A 1.62 1.60 22.3 0 0 634.49 481.63
  L 632.40 483.68
  Q 618.76 487.68 607.52 486.57
  Q 592.33 485.07 570.22 479.85
  C 552.25 475.61 536.73 469.58 520.65 460.52
  Q 503.59 450.90 491.98 441.69
  C 478.64 431.10 474.56 416.63 469.10 400.74
  Q 467.44 395.90 461.67 384.24
  C 467.38 380.88 473.50 376.36 478.44 373.67
  C 482.91 371.24 487.02 368.58 492.28 366.37
  Q 507.09 360.15 521.34 355.32
  Q 526.11 353.70 530.88 352.68
  C 534.18 351.97 538.80 350.56 543.70 349.57
  Q 564.26 345.39 587.50 345.36
  Q 719.32 345.16 999.00 345.15
  Q 1169.72 345.15 1207.25 345.00
  Q 1218.07 344.96 1242.25 345.31
  Q 1264.72 345.63 1286.13 350.39
  C 1293.21 351.97 1301.65 353.95 1309.22 356.62
  Q 1321.92 361.10 1334.03 366.40
  Q 1340.25 369.12 1343.66 371.18
  C 1347.63 373.58 1351.33 375.17 1356.02 378.14
  Q 1371.05 387.68 1376.38 391.61
  Q 1379.77 394.10 1391.74 404.12
  Z"
/>
<path fill="#5a4937" d="
  M 461.67 384.24
  Q 467.44 395.90 469.10 400.74
  C 474.56 416.63 478.64 431.10 491.98 441.69
  Q 503.59 450.90 520.65 460.52
  C 536.73 469.58 552.25 475.61 570.22 479.85
  Q 592.33 485.07 607.52 486.57
  Q 618.76 487.68 632.40 483.68
  L 619.99 496.44
  A 1.79 1.73 71.9 0 0 619.51 497.43
  L 616.54 518.83
  A 0.56 0.56 0.0 0 0 617.09 519.46
  L 646.19 519.46
  A 0.96 0.96 0.0 0 0 647.01 519.00
  C 649.63 514.75 650.91 511.28 656.55 510.04
  Q 666.65 507.80 676.77 509.30
  Q 688.28 511.00 690.73 522.02
  Q 692.74 531.05 690.83 536.86
  Q 688.89 542.71 684.77 544.31
  Q 660.70 553.66 625.89 567.04
  A 1.90 1.89 -78.9 0 0 625.15 567.54
  L 611.91 581.60
  A 1.96 1.94 -20.1 0 0 611.40 582.68
  L 608.12 607.71
  Q 579.75 609.58 549.71 607.02
  Q 534.46 605.73 521.22 602.58
  C 504.65 598.63 486.28 592.60 471.35 583.75
  Q 452.90 572.82 434.87 558.66
  C 424.37 550.42 414.51 539.74 398.68 524.19
  Q 384.89 510.66 375.27 496.37
  Q 380.05 484.73 385.10 472.86
  Q 388.32 465.27 391.78 459.52
  Q 400.83 444.50 406.06 437.29
  Q 406.74 436.34 415.21 425.99
  Q 420.14 419.95 424.27 415.95
  C 428.24 412.09 432.38 407.33 437.09 403.21
  Q 448.80 392.98 461.67 384.24
  Z"
/>
<path fill="#5a4937" d="
  M 1447.16 483.91
  C 1427.91 517.26 1394.97 540.19 1361.45 558.13
  C 1338.40 570.47 1316.31 580.48 1291.96 587.69
  Q 1276.01 592.41 1245.50 601.02
  C 1233.83 604.32 1217.69 605.57 1204.17 611.06
  L 1197.78 567.95
  A 0.58 0.57 10.8 0 0 1197.49 567.53
  L 1178.66 556.66
  A 0.17 0.17 0.0 0 1 1178.64 556.37
  L 1193.85 544.85
  A 0.88 0.88 0.0 0 0 1194.19 544.03
  L 1190.97 521.89
  Q 1206.24 527.67 1222.53 523.60
  Q 1233.25 520.92 1246.32 516.87
  C 1276.29 507.59 1305.23 497.47 1332.04 484.10
  C 1345.84 477.21 1356.14 466.17 1364.53 453.04
  Q 1380.12 428.62 1391.74 404.12
  Q 1409.52 421.23 1417.79 432.20
  Q 1427.97 445.73 1431.89 452.65
  Q 1435.21 458.53 1436.70 461.03
  C 1440.44 467.31 1442.29 473.08 1446.05 479.98
  Q 1446.83 481.40 1447.16 483.91
  Z"
/>
<path fill="#e0d2ae" d="
  M 876.04 514.48
  L 892.12 613.30
  L 892.85 618.09
  A 0.96 0.96 0.0 0 1 892.56 618.92
  L 871.63 638.00
  A 1.26 1.25 23.6 0 1 870.78 638.33
  L 777.19 638.33
  A 1.54 1.53 -24.5 0 1 776.19 637.96
  L 755.50 619.99
  L 763.73 568.18
  L 775.46 497.46
  A 1.44 1.39 -16.7 0 1 775.93 496.62
  L 793.40 481.43
  A 1.78 1.75 -64.9 0 1 794.55 481.00
  L 854.14 481.00
  A 2.84 2.82 -24.7 0 1 855.97 481.67
  L 872.68 495.97
  A 1.30 1.26 -75.5 0 1 873.12 496.74
  L 876.04 514.48
  Z
  M 805.50 599.28
  Q 818.43 607.76 833.43 604.63
  C 841.29 602.99 846.81 598.82 848.78 591.22
  Q 851.55 580.55 850.32 568.40
  Q 848.75 552.75 846.13 534.32
  C 843.97 519.13 838.66 509.21 821.01 511.52
  C 814.39 512.39 809.45 516.27 807.50 522.28
  C 802.63 537.32 800.72 554.27 799.20 569.99
  Q 798.27 579.51 799.87 588.93
  C 800.43 592.26 803.28 597.83 805.50 599.28
  Z"
/>
<path fill="#e0d2ae" d="
  M 1035.08 517.34
  L 1038.75 552.05
  A 1.63 1.62 58.5 0 1 1038.50 553.10
  L 1032.08 563.22
  A 2.15 2.11 4.5 0 1 1031.09 564.05
  Q 991.93 579.95 957.77 593.97
  C 954.48 595.32 954.11 600.58 954.85 603.31
  A 2.05 2.05 0.0 0 0 955.60 604.43
  C 961.43 608.89 969.82 609.40 977.25 609.35
  C 995.23 609.21 1004.81 609.36 1017.19 608.17
  Q 1028.99 607.04 1029.04 607.03
  A 6.27 6.18 24.1 0 0 1031.34 606.17
  L 1041.21 600.04
  A 0.54 0.54 0.0 0 1 1042.02 600.41
  L 1044.23 613.48
  L 1048.96 642.24
  A 0.38 0.38 0.0 0 1 1048.47 642.67
  L 1035.22 638.69
  A 1.42 1.24 49.0 0 0 1034.86 638.64
  L 937.10 638.64
  A 0.61 0.58 68.1 0 1 936.66 638.44
  L 919.09 619.85
  A 1.05 1.03 -63.1 0 1 918.82 618.99
  L 920.37 607.30
  L 923.58 582.49
  A 1.21 1.21 0.0 0 1 923.91 581.80
  L 937.49 567.37
  A 0.82 0.78 -77.6 0 1 937.74 567.20
  L 997.38 544.19
  A 2.74 2.66 16.1 0 0 997.96 543.88
  C 1005.57 538.39 1004.77 527.10 1002.12 519.38
  C 999.33 511.26 991.75 508.99 983.75 508.82
  C 976.34 508.66 967.62 508.49 962.35 513.65
  A 1.99 1.64 -12.9 0 0 962.05 514.04
  L 959.36 518.80
  A 1.24 1.24 0.0 0 1 958.30 519.43
  Q 948.48 519.61 929.28 519.27
  Q 928.59 519.25 928.82 518.22
  L 931.73 497.43
  A 0.95 0.89 -21.3 0 1 931.96 496.95
  L 946.29 481.73
  A 1.83 1.81 -68.1 0 1 947.61 481.16
  L 1017.29 481.16
  A 0.97 0.97 0.0 0 1 1018.01 481.48
  L 1032.76 497.65
  A 1.12 1.09 21.0 0 1 1033.05 498.28
  L 1035.08 517.34
  Z"
/>
<path fill="#e0d2ae" d="
  M 707.50 568.69
  Q 676.86 581.16 646.17 593.61
  Q 643.24 594.80 642.65 598.14
  Q 642.08 601.38 642.60 603.07
  A 2.25 2.21 -76.3 0 0 643.13 603.96
  C 649.09 609.92 661.25 609.34 670.03 609.32
  Q 693.12 609.25 700.28 608.59
  Q 715.95 607.13 717.12 607.02
  A 3.18 3.16 26.2 0 0 718.49 606.56
  L 729.27 599.91
  A 0.39 0.38 69.8 0 1 729.85 600.18
  L 734.16 626.39
  L 736.76 642.40
  A 0.26 0.26 0.0 0 1 736.43 642.69
  L 723.28 638.74
  A 2.64 2.46 51.8 0 0 722.51 638.62
  L 624.80 638.62
  A 1.08 1.06 68.0 0 1 624.02 638.28
  L 607.00 619.61
  A 1.12 1.09 -63.5 0 1 606.72 618.73
  L 608.12 607.71
  L 611.40 582.68
  A 1.96 1.94 -20.1 0 1 611.91 581.60
  L 625.15 567.54
  A 1.90 1.89 -78.9 0 1 625.89 567.04
  Q 660.70 553.66 684.77 544.31
  Q 688.89 542.71 690.83 536.86
  Q 692.74 531.05 690.73 522.02
  Q 688.28 511.00 676.77 509.30
  Q 666.65 507.80 656.55 510.04
  C 650.91 511.28 649.63 514.75 647.01 519.00
  A 0.96 0.96 0.0 0 1 646.19 519.46
  L 617.09 519.46
  A 0.56 0.56 0.0 0 1 616.54 518.83
  L 619.51 497.43
  A 1.79 1.73 71.9 0 1 619.99 496.44
  L 632.40 483.68
  L 634.49 481.63
  A 1.62 1.60 22.3 0 1 635.63 481.16
  L 705.02 481.16
  A 1.19 1.17 -20.7 0 1 705.90 481.55
  L 720.64 497.71
  A 0.87 0.86 21.1 0 1 720.86 498.20
  L 726.54 552.03
  A 1.76 1.76 0.0 0 1 726.28 553.14
  L 719.98 563.07
  A 2.50 2.46 4.7 0 1 718.83 564.03
  L 707.50 568.69
  Z"
/>
<path fill="#e0d2ae" d="
  M 1190.97 521.89
  L 1194.19 544.03
  A 0.88 0.88 0.0 0 1 1193.85 544.85
  L 1178.64 556.37
  A 0.17 0.17 0.0 0 0 1178.66 556.66
  L 1197.49 567.53
  A 0.58 0.57 10.8 0 1 1197.78 567.95
  L 1204.17 611.06
  L 1205.20 618.21
  A 0.86 0.85 -27.3 0 1 1204.96 618.95
  L 1185.75 638.16
  A 1.71 1.69 -67.2 0 1 1184.55 638.66
  L 1088.62 638.66
  A 1.55 1.54 66.7 0 1 1087.55 638.23
  L 1068.43 620.24
  A 1.27 1.25 -64.4 0 1 1068.05 619.13
  L 1069.38 610.30
  L 1072.27 590.77
  A 0.69 0.69 0.0 0 1 1072.95 590.19
  L 1108.70 590.19
  A 0.76 0.75 4.0 0 1 1109.45 591.04
  C 1108.91 594.96 1108.90 600.98 1111.65 603.87
  Q 1116.48 608.95 1123.76 609.09
  Q 1139.51 609.40 1151.21 607.22
  Q 1159.07 605.76 1162.97 598.99
  C 1166.51 592.84 1169.04 584.02 1162.68 578.46
  C 1153.57 570.50 1137.55 572.49 1125.84 573.86
  A 3.13 3.04 25.0 0 0 1124.55 574.31
  L 1115.87 579.68
  A 0.44 0.43 69.8 0 1 1115.21 579.37
  L 1109.22 539.49
  A 0.30 0.30 0.0 0 1 1109.61 539.16
  Q 1125.72 544.81 1142.54 542.04
  C 1148.30 541.09 1155.58 540.81 1158.17 534.52
  C 1159.81 530.53 1157.54 521.18 1156.32 517.37
  A 5.83 5.83 0.0 0 0 1153.97 514.28
  Q 1140.11 505.17 1124.79 510.93
  C 1120.71 512.47 1119.54 514.99 1116.79 519.19
  A 0.99 0.98 16.2 0 1 1115.96 519.64
  L 1083.47 519.64
  A 0.45 0.43 -12.7 0 1 1083.07 519.40
  Q 1082.81 518.91 1083.06 518.45
  L 1086.73 497.01
  A 1.35 1.30 74.8 0 1 1087.14 496.26
  L 1103.15 481.66
  A 1.33 1.32 23.5 0 1 1104.05 481.31
  L 1169.92 481.31
  A 1.18 1.16 66.2 0 1 1170.72 481.63
  L 1186.65 496.63
  A 2.50 2.48 17.4 0 1 1187.41 498.07
  L 1190.97 521.89
  Z"
/>
<path fill="#4e3e2d" d="
  M 1460.79 571.08
  C 1456.73 573.70 1454.06 572.42 1450.59 569.72
  C 1445.39 565.69 1438.83 570.67 1435.11 573.10
  Q 1420.77 582.47 1390.93 600.95
  Q 1371.16 613.20 1354.35 619.66
  Q 1310.00 636.69 1262.96 646.55
  C 1243.07 650.71 1225.28 652.50 1202.57 654.53
  C 1180.95 656.47 1158.73 658.79 1138.07 654.75
  Q 1118.66 650.95 1113.80 650.01
  C 1097.42 646.85 1077.81 648.42 1060.53 652.49
  Q 1058.71 652.92 1056.92 653.75
  A 0.34 0.34 0.0 0 0 1057.07 654.39
  L 1066.02 654.29
  A 0.31 0.30 78.1 0 1 1066.32 654.49
  L 1066.33 654.50
  A 0.24 0.24 0.0 0 1 1066.14 654.76
  Q 1033.83 661.63 1000.45 659.07
  Q 976.99 657.27 954.87 655.07
  Q 936.80 653.26 920.86 656.09
  Q 899.60 659.86 890.06 660.84
  Q 879.98 661.88 862.74 662.15
  C 830.81 662.66 797.94 665.65 771.41 664.92
  Q 734.77 663.91 698.59 664.64
  Q 688.99 664.84 643.19 663.41
  Q 619.58 662.68 606.38 661.11
  Q 589.55 659.12 569.80 655.77
  C 552.33 652.81 537.71 647.65 518.64 641.04
  C 490.61 631.33 468.86 627.22 446.46 614.11
  Q 427.47 602.99 404.77 585.56
  Q 395.23 578.24 389.97 567.11
  Q 377.91 541.61 370.65 513.43
  L 375.27 496.37
  Q 384.89 510.66 398.68 524.19
  C 414.51 539.74 424.37 550.42 434.87 558.66
  Q 452.90 572.82 471.35 583.75
  C 486.28 592.60 504.65 598.63 521.22 602.58
  Q 534.46 605.73 549.71 607.02
  Q 579.75 609.58 608.12 607.71
  L 606.72 618.73
  A 1.12 1.09 -63.5 0 0 607.00 619.61
  L 624.02 638.28
  A 1.08 1.06 68.0 0 0 624.80 638.62
  L 722.51 638.62
  A 2.64 2.46 51.8 0 1 723.28 638.74
  L 736.43 642.69
  A 0.26 0.26 0.0 0 0 736.76 642.40
  L 734.16 626.39
  L 755.50 619.99
  L 776.19 637.96
  A 1.54 1.53 -24.5 0 0 777.19 638.33
  L 870.78 638.33
  A 1.26 1.25 23.6 0 0 871.63 638.00
  L 892.56 618.92
  A 0.96 0.96 0.0 0 0 892.85 618.09
  L 892.12 613.30
  L 920.37 607.30
  L 918.82 618.99
  A 1.05 1.03 -63.1 0 0 919.09 619.85
  L 936.66 638.44
  A 0.61 0.58 68.1 0 0 937.10 638.64
  L 1034.86 638.64
  A 1.42 1.24 49.0 0 1 1035.22 638.69
  L 1048.47 642.67
  A 0.38 0.38 0.0 0 0 1048.96 642.24
  L 1044.23 613.48
  Q 1056.77 611.07 1069.38 610.30
  L 1068.05 619.13
  A 1.27 1.25 -64.4 0 0 1068.43 620.24
  L 1087.55 638.23
  A 1.55 1.54 66.7 0 0 1088.62 638.66
  L 1184.55 638.66
  A 1.71 1.69 -67.2 0 0 1185.75 638.16
  L 1204.96 618.95
  A 0.86 0.85 -27.3 0 0 1205.20 618.21
  L 1204.17 611.06
  C 1217.69 605.57 1233.83 604.32 1245.50 601.02
  Q 1276.01 592.41 1291.96 587.69
  C 1316.31 580.48 1338.40 570.47 1361.45 558.13
  C 1394.97 540.19 1427.91 517.26 1447.16 483.91
  Q 1449.47 489.59 1451.51 495.27
  Q 1453.64 501.19 1454.75 506.96
  C 1457.03 518.88 1459.80 530.46 1460.59 542.78
  Q 1461.50 557.00 1460.79 571.08
  Z"
/>
<path fill="#5a4937" d="
  M 920.37 607.30
  L 892.12 613.30
  L 876.04 514.48
  Q 902.35 518.23 928.82 518.22
  Q 928.59 519.25 929.28 519.27
  Q 948.48 519.61 958.30 519.43
  A 1.24 1.24 0.0 0 0 959.36 518.80
  L 962.05 514.04
  A 1.99 1.64 -12.9 0 1 962.35 513.65
  C 967.62 508.49 976.34 508.66 983.75 508.82
  C 991.75 508.99 999.33 511.26 1002.12 519.38
  C 1004.77 527.10 1005.57 538.39 997.96 543.88
  A 2.74 2.66 16.1 0 1 997.38 544.19
  L 937.74 567.20
  A 0.82 0.78 -77.6 0 0 937.49 567.37
  L 923.91 581.80
  A 1.21 1.21 0.0 0 0 923.58 582.49
  L 920.37 607.30
  Z"
/>
<path fill="#5a4937" d="
  M 1069.38 610.30
  Q 1056.77 611.07 1044.23 613.48
  L 1042.02 600.41
  A 0.54 0.54 0.0 0 0 1041.21 600.04
  L 1031.34 606.17
  A 6.27 6.18 24.1 0 1 1029.04 607.03
  Q 1028.99 607.04 1017.19 608.17
  C 1004.81 609.36 995.23 609.21 977.25 609.35
  C 969.82 609.40 961.43 608.89 955.60 604.43
  A 2.05 2.05 0.0 0 1 954.85 603.31
  C 954.11 600.58 954.48 595.32 957.77 593.97
  Q 991.93 579.95 1031.09 564.05
  A 2.15 2.11 4.5 0 0 1032.08 563.22
  L 1038.50 553.10
  A 1.63 1.62 58.5 0 0 1038.75 552.05
  L 1035.08 517.34
  Q 1058.93 517.15 1083.06 518.45
  Q 1082.81 518.91 1083.07 519.40
  A 0.45 0.43 -12.7 0 0 1083.47 519.64
  L 1115.96 519.64
  A 0.99 0.98 16.2 0 0 1116.79 519.19
  C 1119.54 514.99 1120.71 512.47 1124.79 510.93
  Q 1140.11 505.17 1153.97 514.28
  A 5.83 5.83 0.0 0 1 1156.32 517.37
  C 1157.54 521.18 1159.81 530.53 1158.17 534.52
  C 1155.58 540.81 1148.30 541.09 1142.54 542.04
  Q 1125.72 544.81 1109.61 539.16
  A 0.30 0.30 0.0 0 0 1109.22 539.49
  L 1115.21 579.37
  A 0.44 0.43 69.8 0 0 1115.87 579.68
  L 1124.55 574.31
  A 3.13 3.04 25.0 0 1 1125.84 573.86
  C 1137.55 572.49 1153.57 570.50 1162.68 578.46
  C 1169.04 584.02 1166.51 592.84 1162.97 598.99
  Q 1159.07 605.76 1151.21 607.22
  Q 1139.51 609.40 1123.76 609.09
  Q 1116.48 608.95 1111.65 603.87
  C 1108.90 600.98 1108.91 594.96 1109.45 591.04
  A 0.76 0.75 4.0 0 0 1108.70 590.19
  L 1072.95 590.19
  A 0.69 0.69 0.0 0 0 1072.27 590.77
  L 1069.38 610.30
  Z"
/>
<path fill="#423424" d="
  M 370.65 513.43
  Q 377.91 541.61 389.97 567.11
  Q 395.23 578.24 404.77 585.56
  Q 427.47 602.99 446.46 614.11
  C 468.86 627.22 490.61 631.33 518.64 641.04
  C 537.71 647.65 552.33 652.81 569.80 655.77
  Q 589.55 659.12 606.38 661.11
  Q 619.58 662.68 643.19 663.41
  Q 688.99 664.84 698.59 664.64
  Q 734.77 663.91 771.41 664.92
  C 797.94 665.65 830.81 662.66 862.74 662.15
  Q 879.98 661.88 890.06 660.84
  Q 899.60 659.86 920.86 656.09
  Q 936.80 653.26 954.87 655.07
  Q 976.99 657.27 1000.45 659.07
  Q 1033.83 661.63 1066.14 654.76
  A 0.24 0.24 0.0 0 0 1066.33 654.50
  L 1066.32 654.49
  A 0.31 0.30 78.1 0 0 1066.02 654.29
  L 1057.07 654.39
  A 0.34 0.34 0.0 0 1 1056.92 653.75
  Q 1058.71 652.92 1060.53 652.49
  C 1077.81 648.42 1097.42 646.85 1113.80 650.01
  Q 1118.66 650.95 1138.07 654.75
  C 1158.73 658.79 1180.95 656.47 1202.57 654.53
  C 1225.28 652.50 1243.07 650.71 1262.96 646.55
  Q 1310.00 636.69 1354.35 619.66
  Q 1371.16 613.20 1390.93 600.95
  Q 1420.77 582.47 1435.11 573.10
  C 1438.83 570.67 1445.39 565.69 1450.59 569.72
  C 1454.06 572.42 1456.73 573.70 1460.79 571.08
  C 1460.59 574.16 1460.59 577.62 1460.18 580.39
  Q 1457.96 595.28 1454.03 612.96
  Q 1452.68 618.99 1450.85 623.37
  Q 1447.77 630.72 1447.00 633.57
  C 1445.48 639.22 1442.41 643.32 1440.50 648.59
  C 1438.64 653.69 1435.09 658.61 1431.65 664.91
  Q 1427.81 671.94 1421.28 680.60
  C 1418.85 683.83 1416.91 686.79 1414.11 690.11
  Q 1404.62 701.38 1394.83 710.82
  Q 1388.61 716.82 1383.96 720.21
  Q 1381.95 721.69 1379.99 723.76
  A 7.76 7.22 -83.9 0 1 1378.86 724.74
  C 1370.86 730.36 1364.85 735.07 1357.41 739.27
  Q 1346.85 745.24 1340.28 748.53
  Q 1338.90 749.22 1327.88 753.83
  C 1318.70 757.66 1308.23 761.22 1299.97 763.16
  C 1293.55 764.66 1284.23 767.10 1277.09 768.00
  Q 1254.86 770.80 1239.75 770.86
  Q 1217.91 770.95 1084.70 770.93
  C 1079.88 770.93 1073.18 770.48 1068.01 771.03
  C 1065.74 771.27 1063.10 773.24 1061.41 774.93
  C 1054.77 781.54 1047.95 787.17 1041.36 793.20
  Q 1032.77 801.06 1027.80 805.10
  C 1023.50 808.60 1018.73 814.18 1014.76 816.92
  C 1011.55 819.15 1009.29 822.21 1005.90 824.83
  A 10.83 10.80 2.0 0 0 1004.36 826.26
  Q 1001.55 829.48 998.05 832.00
  C 992.76 824.51 986.33 821.25 979.06 817.00
  A 9.01 8.52 78.6 0 1 978.01 816.26
  L 969.37 809.04
  L 1009.87 772.43
  A 0.99 0.99 0.0 0 0 1009.00 770.73
  Q 1006.04 771.35 993.90 770.96
  Q 987.73 770.77 978.59 770.81
  Q 911.82 771.10 844.25 770.48
  Q 835.74 770.40 825.50 770.70
  Q 824.65 770.73 824.11 771.00
  A 0.87 0.87 0.0 0 0 823.92 772.43
  L 876.25 819.48
  Q 869.53 820.16 862.78 820.03
  Q 854.51 819.88 852.15 820.50
  C 845.63 822.21 840.68 827.79 836.55 832.92
  Q 820.24 818.72 804.28 804.22
  Q 800.90 801.15 789.80 791.80
  C 784.03 786.94 778.29 781.03 773.60 777.22
  C 772.00 775.92 770.84 774.23 769.57 772.99
  A 4.39 4.35 -12.7 0 0 768.02 772.02
  Q 764.50 770.73 760.75 770.73
  Q 720.55 770.70 583.75 770.85
  Q 573.33 770.87 564.79 769.78
  Q 555.44 768.59 554.69 768.50
  C 548.62 767.81 545.26 767.53 540.43 766.22
  C 535.29 764.82 529.03 764.26 524.31 762.57
  Q 520.42 761.18 512.83 759.01
  Q 507.12 757.38 500.41 754.41
  Q 490.82 750.16 488.40 748.81
  C 482.07 745.27 476.78 743.27 471.24 739.92
  Q 426.90 713.16 398.68 669.91
  C 390.05 656.70 383.18 640.58 377.03 625.98
  C 374.97 621.07 374.03 614.72 372.54 610.12
  C 370.06 602.42 367.71 592.11 367.16 583.53
  Q 365.13 551.84 368.01 525.50
  Q 368.52 520.88 370.65 513.43
  Z"
/>
<path fill="#5a4937" d="
  M 763.73 568.18
  L 755.50 619.99
  L 734.16 626.39
  L 729.85 600.18
  A 0.39 0.38 69.8 0 0 729.27 599.91
  L 718.49 606.56
  A 3.18 3.16 26.2 0 1 717.12 607.02
  Q 715.95 607.13 700.28 608.59
  Q 693.12 609.25 670.03 609.32
  C 661.25 609.34 649.09 609.92 643.13 603.96
  A 2.25 2.21 -76.3 0 1 642.60 603.07
  Q 642.08 601.38 642.65 598.14
  Q 643.24 594.80 646.17 593.61
  Q 676.86 581.16 707.50 568.69
  C 726.22 570.76 744.98 569.96 763.73 568.18
  Z"
/>
<path fill="#4e3e2d" d="
  M 998.05 832.00
  L 917.95 903.32
  A 1.51 1.50 -44.8 0 1 915.96 903.32
  Q 907.47 895.84 904.72 893.57
  Q 901.91 891.24 899.12 888.48
  C 896.85 886.23 894.12 884.49 891.28 881.85
  Q 885.45 876.46 882.96 874.14
  C 877.90 869.44 872.95 866.05 868.08 861.35
  C 862.92 856.37 854.60 849.45 849.99 845.02
  Q 842.02 837.38 836.55 832.92
  C 840.68 827.79 845.63 822.21 852.15 820.50
  Q 854.51 819.88 862.78 820.03
  Q 869.53 820.16 876.25 819.48
  C 885.36 828.00 894.75 836.32 903.58 845.13
  Q 907.94 849.48 915.73 855.60
  A 2.43 2.42 -44.1 0 0 918.69 855.64
  Q 920.08 854.60 921.55 853.30
  Q 927.48 848.04 936.06 839.38
  C 940.74 834.66 945.19 831.08 950.21 826.32
  C 955.89 820.96 963.06 814.96 969.37 809.04
  L 978.01 816.26
  A 9.01 8.52 78.6 0 0 979.06 817.00
  C 986.33 821.25 992.76 824.51 998.05 832.00
  Z"
/>
</g>
<path fill="#5a4937" d="
  M 805.50 599.28
  C 803.28 597.83 800.43 592.26 799.87 588.93
  Q 798.27 579.51 799.20 569.99
  C 800.72 554.27 802.63 537.32 807.50 522.28
  C 809.45 516.27 814.39 512.39 821.01 511.52
  C 838.66 509.21 843.97 519.13 846.13 534.32
  Q 848.75 552.75 850.32 568.40
  Q 851.55 580.55 848.78 591.22
  C 846.81 598.82 841.29 602.99 833.43 604.63
  Q 818.43 607.76 805.50 599.28
  Z"
/>
</svg>
