<svg xmlns="http://www.w3.org/2000/svg" viewBox="0 0 1801 1126"><g fill="none" stroke-width="2"><path stroke="#675440" d="M1391.74 404.12q-11.62 24.5-27.21 48.92c-8.39 13.13-18.69 24.17-32.49 31.06-26.81 13.37-55.75 23.49-85.72 32.77q-13.07 4.05-23.79 6.73-16.29 4.07-31.56-1.71" vector-effect="non-scaling-stroke"/><path stroke="#aa997c" d="m1190.97 521.89-3.56-23.82a2.5 2.48 17.4 0 0-.76-1.44l-15.93-15a1.18 1.16 66.2 0 0-.8-.32h-65.87a1.33 1.32 23.5 0 0-.9.35l-16.01 14.6a1.35 1.3 74.8 0 0-.41.75l-3.67 21.44" vector-effect="non-scaling-stroke"/><path stroke="#675440" d="M1083.06 518.45q-24.13-1.3-47.98-1.11" vector-effect="non-scaling-stroke"/><path stroke="#aa997c" d="m1035.08 517.34-2.03-19.06a1.12 1.09 21 0 0-.29-.63l-14.75-16.17a1 1 0 0 0-.72-.32h-69.68a1.83 1.81-68.1 0 0-1.32.57l-14.33 15.22a.95.89-21.3 0 0-.23.48l-2.91 20.79" vector-effect="non-scaling-stroke"/><path stroke="#675440" d="M928.82 518.22q-26.47.01-52.78-3.74" vector-effect="non-scaling-stroke"/><path stroke="#aa997c" d="m876.04 514.48-2.92-17.74a1.3 1.26-75.5 0 0-.44-.77l-16.71-14.3a2.84 2.82-24.7 0 0-1.83-.67h-59.59a1.78 1.75-64.9 0 0-1.15.43l-17.47 15.19a1.44 1.39-16.7 0 0-.47.84l-11.73 70.72" vector-effect="non-scaling-stroke"/><path stroke="#675440" d="M763.73 568.18c-18.75 1.78-37.51 2.58-56.23.51" vector-effect="non-scaling-stroke"/><path stroke="#aa997c" d="m707.5 568.69 11.33-4.66a2.5 2.46 4.7 0 0 1.15-.96l6.3-9.93a2 2 0 0 0 .26-1.11l-5.68-53.83a.87.86 21.1 0 0-.22-.49l-14.74-16.16a1.19 1.17-20.7 0 0-.88-.39h-69.39a1.62 1.6 22.3 0 0-1.14.47l-2.09 2.05" vector-effect="non-scaling-stroke"/><path stroke="#675440" d="M632.4 483.68q-13.64 4-24.88 2.89-15.19-1.5-37.3-6.72a183 183 0 0 1-49.57-19.33q-17.06-9.62-28.67-18.83c-13.34-10.59-17.42-25.06-22.88-40.95q-1.66-4.84-7.43-16.5" vector-effect="non-scaling-stroke"/><path stroke="#9d8e73" d="m632.4 483.68-12.41 12.76a1.79 1.73 71.9 0 0-.48.99l-2.97 21.4a.56.56 0 0 0 .55.63h29.1a1 1 0 0 0 .82-.46c2.62-4.25 3.9-7.72 9.54-8.96q10.1-2.24 20.22-.74 11.51 1.7 13.96 12.72 2.01 9.03.1 14.84-1.94 5.85-6.06 7.45-24.07 9.35-58.88 22.73a1.9 1.89-78.9 0 0-.74.5l-13.24 14.06a1.96 1.94-20.1 0 0-.51 1.08l-3.28 25.03" vector-effect="non-scaling-stroke"/><path stroke="#544432" d="M608.12 607.71q-28.37 1.87-58.41-.69-15.25-1.29-28.49-4.44c-16.57-3.95-34.94-9.98-49.87-18.83q-18.45-10.93-36.48-25.09c-10.5-8.24-20.36-18.92-36.19-34.47q-13.79-13.53-23.41-27.82" vector-effect="non-scaling-stroke"/><path stroke="#9d8e73" d="m876.04 514.48 16.08 98.82" vector-effect="non-scaling-stroke"/><path stroke="#97886e" d="m892.12 613.3.73 4.79a1 1 0 0 1-.29.83L871.63 638a1.26 1.25 23.6 0 1-.85.33h-93.59a1.54 1.53-24.5 0 1-1-.37l-20.69-17.97" vector-effect="non-scaling-stroke"/><path stroke="#9d8e73" d="m755.5 619.99 8.23-51.81m-56.23.51q-30.64 12.47-61.33 24.92-2.93 1.19-3.52 4.53-.57 3.24-.05 4.93a2.25 2.21-76.3 0 0 .53.89c5.96 5.96 18.12 5.38 26.9 5.36q23.09-.07 30.25-.73l16.84-1.57a3.18 3.16 26.2 0 0 1.37-.46l10.78-6.65a.39.38 69.8 0 1 .58.27l4.31 26.21" vector-effect="non-scaling-stroke"/><path stroke="#97886e" d="m734.16 626.39 2.6 16.01a.26.26 0 0 1-.33.29l-13.15-3.95a2.64 2.46 51.8 0 0-.77-.12H624.8a1.08 1.06 68 0 1-.78-.34L607 619.61a1.12 1.09-63.5 0 1-.28-.88l1.4-11.02" vector-effect="non-scaling-stroke"/><path stroke="#9d8e73" d="m1035.08 517.34 3.67 34.71a1.6 1.6 58.5 0 1-.25 1.05l-6.42 10.12a2.15 2.11 4.5 0 1-.99.83q-39.16 15.9-73.32 29.92c-3.29 1.35-3.66 6.61-2.92 9.34a2 2 0 0 0 .75 1.12c5.83 4.46 14.22 4.97 21.65 4.92 17.98-.14 27.56.01 39.94-1.18l11.85-1.14a6.27 6.18 24.1 0 0 2.3-.86l9.87-6.13a.54.54 0 0 1 .81.37l2.21 13.07" vector-effect="non-scaling-stroke"/><path stroke="#97886e" d="m1044.23 613.48 4.73 28.76a.38.38 0 0 1-.49.43l-13.25-3.98a1.42 1.24 49 0 0-.36-.05H937.1a.61.58 68.1 0 1-.44-.2l-17.57-18.59a1.05 1.03-63.1 0 1-.27-.86l1.55-11.69" vector-effect="non-scaling-stroke"/><path stroke="#9d8e73" d="m920.37 607.3 3.21-24.81a1.2 1.2 0 0 1 .33-.69l13.58-14.43a.82.78-77.6 0 1 .25-.17l59.64-23.01a2.74 2.66 16.1 0 0 .58-.31c7.61-5.49 6.81-16.78 4.16-24.5-2.79-8.12-10.37-10.39-18.37-10.56-7.41-.16-16.13-.33-21.4 4.83a1.99 1.64-12.9 0 0-.3.39l-2.69 4.76a1.2 1.2 0 0 1-1.06.63q-9.82.18-29.02-.16-.69-.02-.46-1.05" vector-effect="non-scaling-stroke"/><path stroke="#544432" d="M1447.16 483.91c-19.25 33.35-52.19 56.28-85.71 74.22-23.05 12.34-45.14 22.35-69.49 29.56q-15.95 4.72-46.46 13.33c-11.67 3.3-27.81 4.55-41.33 10.04" vector-effect="non-scaling-stroke"/><path stroke="#9d8e73" d="m1204.17 611.06-6.39-43.11a.58.57 10.8 0 0-.29-.42l-18.83-10.87a.17.17 0 0 1-.02-.29l15.21-11.52a.9.9 0 0 0 .34-.82l-3.22-22.14" vector-effect="non-scaling-stroke"/><path stroke="#97886e" d="m1204.17 611.06 1.03 7.15a.86.85-27.3 0 1-.24.74l-19.21 19.21a1.71 1.69-67.2 0 1-1.2.5h-95.93a1.55 1.54 66.7 0 1-1.07-.43l-19.12-17.99a1.27 1.25-64.4 0 1-.38-1.11l1.33-8.83" vector-effect="non-scaling-stroke"/><path stroke="#9d8e73" d="m1069.38 610.3 2.89-19.53a.7.7 0 0 1 .68-.58h35.75a.76.75 4 0 1 .75.85c-.54 3.92-.55 9.94 2.2 12.83q4.83 5.08 12.11 5.22 15.75.31 27.45-1.87 7.86-1.46 11.76-8.23c3.54-6.15 6.07-14.97-.29-20.53-9.11-7.96-25.13-5.97-36.84-4.6a3.13 3.04 25 0 0-1.29.45l-8.68 5.37a.44.43 69.8 0 1-.66-.31l-5.99-39.88a.3.3 0 0 1 .39-.33q16.11 5.65 32.93 2.88c5.76-.95 13.04-1.23 15.63-7.52 1.64-3.99-.63-13.34-1.85-17.15a6 6 0 0 0-2.35-3.09q-13.86-9.11-29.18-3.35c-4.08 1.54-5.25 4.06-8 8.26a.99.98 16.2 0 1-.83.45h-32.49a.45.43-12.7 0 1-.4-.24q-.26-.49-.01-.95" vector-effect="non-scaling-stroke"/><path stroke="#483929" d="M1460.79 571.08c-4.06 2.62-6.73 1.34-10.2-1.36-5.2-4.03-11.76.95-15.48 3.38q-14.34 9.37-44.18 27.85-19.77 12.25-36.58 18.71-44.35 17.03-91.39 26.89c-19.89 4.16-37.68 5.95-60.39 7.98-21.62 1.94-43.84 4.26-64.5.22l-24.27-4.74c-16.38-3.16-35.99-1.59-53.27 2.48q-1.82.43-3.61 1.26a.34.34 0 0 0 .15.64l8.95-.1a.31.3 78.1 0 1 .3.2l.01.01a.24.24 0 0 1-.19.26q-32.31 6.87-65.69 4.31-23.46-1.8-45.58-4-18.07-1.81-34.01 1.02-21.26 3.77-30.8 4.75-10.08 1.04-27.32 1.31c-31.93.51-64.8 3.5-91.33 2.77q-36.64-1.01-72.82-.28-9.6.2-55.4-1.23-23.61-.73-36.81-2.3-16.83-1.99-36.58-5.34c-17.47-2.96-32.09-8.12-51.16-14.73-28.03-9.71-49.78-13.82-72.18-26.93q-18.99-11.12-41.69-28.55-9.54-7.32-14.8-18.45-12.06-25.5-19.32-53.68" vector-effect="non-scaling-stroke"/><path stroke="#544432" d="m734.16 626.39 21.34-6.4m136.62-6.69 28.25-6m123.86 6.18q12.54-2.41 25.15-3.18" vector-effect="non-scaling-stroke"/><path stroke="#483929" d="M998.05 832c-5.29-7.49-11.72-10.75-18.99-15a9.01 8.52 78.6 0 1-1.05-.74l-8.64-7.22m-93.12 10.44q-6.72.68-13.47.55-8.27-.15-10.63.47c-6.52 1.71-11.47 7.29-15.6 12.42" vector-effect="non-scaling-stroke"/><path stroke="#9d8e73" d="M805.5 599.28q12.93 8.48 27.93 5.35c7.86-1.64 13.38-5.81 15.35-13.41q2.77-10.67 1.54-22.82-1.57-15.65-4.19-34.08c-2.16-15.19-7.47-25.11-25.12-22.8-6.62.87-11.56 4.75-13.51 10.76-4.87 15.04-6.78 31.99-8.3 47.71q-.93 9.52.67 18.94c.56 3.33 3.41 8.9 5.63 10.35" vector-effect="non-scaling-stroke"/></g><path fill="#745f49" d="M1391.74 404.12q-11.62 24.5-27.21 48.92c-8.39 13.13-18.69 24.17-32.49 31.06-26.81 13.37-55.75 23.49-85.72 32.77q-13.07 4.05-23.79 6.73-16.29 4.07-31.56-1.71l-3.56-23.82a2.5 2.48 17.4 0 0-.76-1.44l-15.93-15a1.18 1.16 66.2 0 0-.8-.32h-65.87a1.33 1.32 23.5 0 0-.9.35l-16.01 14.6a1.35 1.3 74.8 0 0-.41.75l-3.67 21.44q-24.13-1.3-47.98-1.11l-2.03-19.06a1.12 1.09 21 0 0-.29-.63l-14.75-16.17a1 1 0 0 0-.72-.32h-69.68a1.83 1.81-68.1 0 0-1.32.57l-14.33 15.22a.95.89-21.3 0 0-.23.48l-2.91 20.79q-26.47.01-52.78-3.74l-2.92-17.74a1.3 1.26-75.5 0 0-.44-.77l-16.71-14.3a2.84 2.82-24.7 0 0-1.83-.67h-59.59a1.78 1.75-64.9 0 0-1.15.43l-17.47 15.19a1.44 1.39-16.7 0 0-.47.84l-11.73 70.72c-18.75 1.78-37.51 2.58-56.23.51l11.33-4.66a2.5 2.46 4.7 0 0 1.15-.96l6.3-9.93a2 2 0 0 0 .26-1.11l-5.68-53.83a.87.86 21.1 0 0-.22-.49l-14.74-16.16a1.19 1.17-20.7 0 0-.88-.39h-69.39a1.62 1.6 22.3 0 0-1.14.47l-2.09 2.05q-13.64 4-24.88 2.89-15.19-1.5-37.3-6.72a183 183 0 0 1-49.57-19.33q-17.06-9.62-28.67-18.83c-13.34-10.59-17.42-25.06-22.88-40.95q-1.66-4.84-7.43-16.5c5.71-3.36 11.83-7.88 16.77-10.57 4.47-2.43 8.58-5.09 13.84-7.3q14.81-6.22 29.06-11.05 4.77-1.62 9.54-2.64c3.3-.71 7.92-2.12 12.82-3.11q20.56-4.18 43.8-4.21 131.82-.2 411.5-.21 170.72 0 208.25-.15 10.82-.04 35 .31 22.47.32 43.88 5.08c7.08 1.58 15.52 3.56 23.09 6.23q12.7 4.48 24.81 9.78 6.22 2.72 9.63 4.78c3.97 2.4 7.67 3.99 12.36 6.96q15.03 9.54 20.36 13.47 3.39 2.49 15.36 12.51"/><path fill="#5a4937" d="M461.67 384.24q5.77 11.66 7.43 16.5c5.46 15.89 9.54 30.36 22.88 40.95q11.61 9.21 28.67 18.83a183 183 0 0 0 49.57 19.33q22.11 5.22 37.3 6.72 11.24 1.11 24.88-2.89l-12.41 12.76a1.79 1.73 71.9 0 0-.48.99l-2.97 21.4a.56.56 0 0 0 .55.63h29.1a1 1 0 0 0 .82-.46c2.62-4.25 3.9-7.72 9.54-8.96q10.1-2.24 20.22-.74 11.51 1.7 13.96 12.72 2.01 9.03.1 14.84-1.94 5.85-6.06 7.45-24.07 9.35-58.88 22.73a1.9 1.89-78.9 0 0-.74.5l-13.24 14.06a1.96 1.94-20.1 0 0-.51 1.08l-3.28 25.03q-28.37 1.87-58.41-.69-15.25-1.29-28.49-4.44c-16.57-3.95-34.94-9.98-49.87-18.83q-18.45-10.93-36.48-25.09c-10.5-8.24-20.36-18.92-36.19-34.47q-13.79-13.53-23.41-27.82 4.78-11.64 9.83-23.51 3.22-7.59 6.68-13.34 9.05-15.02 14.28-22.23.68-.95 9.15-11.3 4.93-6.04 9.06-10.04c3.97-3.86 8.11-8.62 12.82-12.74q11.71-10.23 24.58-18.97m985.49 99.67c-19.25 33.35-52.19 56.28-85.71 74.22-23.05 12.34-45.14 22.35-69.49 29.56q-15.95 4.72-46.46 13.33c-11.67 3.3-27.81 4.55-41.33 10.04l-6.39-43.11a.58.57 10.8 0 0-.29-.42l-18.83-10.87a.17.17 0 0 1-.02-.29l15.21-11.52a.9.9 0 0 0 .34-.82l-3.22-22.14q15.27 5.78 31.56 1.71 10.72-2.68 23.79-6.73c29.97-9.28 58.91-19.4 85.72-32.77 13.8-6.89 24.1-17.93 32.49-31.06q15.59-24.42 27.21-48.92 17.78 17.11 26.05 28.08 10.18 13.53 14.1 20.45 3.32 5.88 4.81 8.38c3.74 6.28 5.59 12.05 9.35 18.95q.78 1.42 1.11 3.93"/><path fill="#e0d2ae" d="m876.04 514.48 16.08 98.82.73 4.79a1 1 0 0 1-.29.83L871.63 638a1.26 1.25 23.6 0 1-.85.33h-93.59a1.54 1.53-24.5 0 1-1-.37l-20.69-17.97 8.23-51.81 11.73-70.72a1.44 1.39-16.7 0 1 .47-.84l17.47-15.19a1.78 1.75-64.9 0 1 1.15-.43h59.59a2.84 2.82-24.7 0 1 1.83.67l16.71 14.3a1.3 1.26-75.5 0 1 .44.77zm-70.54 84.8q12.93 8.48 27.93 5.35c7.86-1.64 13.38-5.81 15.35-13.41q2.77-10.67 1.54-22.82-1.57-15.65-4.19-34.08c-2.16-15.19-7.47-25.11-25.12-22.8-6.62.87-11.56 4.75-13.51 10.76-4.87 15.04-6.78 31.99-8.3 47.71q-.93 9.52.67 18.94c.56 3.33 3.41 8.9 5.63 10.35m229.58-81.94 3.67 34.71a1.6 1.6 58.5 0 1-.25 1.05l-6.42 10.12a2.15 2.11 4.5 0 1-.99.83q-39.16 15.9-73.32 29.92c-3.29 1.35-3.66 6.61-2.92 9.34a2 2 0 0 0 .75 1.12c5.83 4.46 14.22 4.97 21.65 4.92 17.98-.14 27.56.01 39.94-1.18l11.85-1.14a6.27 6.18 24.1 0 0 2.3-.86l9.87-6.13a.54.54 0 0 1 .81.37l2.21 13.07 4.73 28.76a.38.38 0 0 1-.49.43l-13.25-3.98a1.42 1.24 49 0 0-.36-.05H937.1a.61.58 68.1 0 1-.44-.2l-17.57-18.59a1.05 1.03-63.1 0 1-.27-.86l1.55-11.69 3.21-24.81a1.2 1.2 0 0 1 .33-.69l13.58-14.43a.82.78-77.6 0 1 .25-.17l59.64-23.01a2.74 2.66 16.1 0 0 .58-.31c7.61-5.49 6.81-16.78 4.16-24.5-2.79-8.12-10.37-10.39-18.37-10.56-7.41-.16-16.13-.33-21.4 4.83a1.99 1.64-12.9 0 0-.3.39l-2.69 4.76a1.2 1.2 0 0 1-1.06.63q-9.82.18-29.02-.16-.69-.02-.46-1.05l2.91-20.79a.95.89-21.3 0 1 .23-.48l14.33-15.22a1.83 1.81-68.1 0 1 1.32-.57h69.68a1 1 0 0 1 .72.32l14.75 16.17a1.12 1.09 21 0 1 .29.63zM707.5 568.69q-30.64 12.47-61.33 24.92-2.93 1.19-3.52 4.53-.57 3.24-.05 4.93a2.25 2.21-76.3 0 0 .53.89c5.96 5.96 18.12 5.38 26.9 5.36q23.09-.07 30.25-.73l16.84-1.57a3.18 3.16 26.2 0 0 1.37-.46l10.78-6.65a.39.38 69.8 0 1 .58.27l4.31 26.21 2.6 16.01a.26.26 0 0 1-.33.29l-13.15-3.95a2.64 2.46 51.8 0 0-.77-.12H624.8a1.08 1.06 68 0 1-.78-.34L607 619.61a1.12 1.09-63.5 0 1-.28-.88l1.4-11.02 3.28-25.03a1.96 1.94-20.1 0 1 .51-1.08l13.24-14.06a1.9 1.89-78.9 0 1 .74-.5q34.81-13.38 58.88-22.73 4.12-1.6 6.06-7.45 1.91-5.81-.1-14.84-2.45-11.02-13.96-12.72-10.12-1.5-20.22.74c-5.64 1.24-6.92 4.71-9.54 8.96a1 1 0 0 1-.82.46h-29.1a.56.56 0 0 1-.55-.63l2.97-21.4a1.79 1.73 71.9 0 1 .48-.99l12.41-12.76 2.09-2.05a1.62 1.6 22.3 0 1 1.14-.47h69.39a1.19 1.17-20.7 0 1 .88.39l14.74 16.16a.87.86 21.1 0 1 .22.49l5.68 53.83a2 2 0 0 1-.26 1.11l-6.3 9.93a2.5 2.46 4.7 0 1-1.15.96zm483.47-46.8 3.22 22.14a.9.9 0 0 1-.34.82l-15.21 11.52a.17.17 0 0 0 .02.29l18.83 10.87a.58.57 10.8 0 1 .29.42l6.39 43.11 1.03 7.15a.86.85-27.3 0 1-.24.74l-19.21 19.21a1.71 1.69-67.2 0 1-1.2.5h-95.93a1.55 1.54 66.7 0 1-1.07-.43l-19.12-17.99a1.27 1.25-64.4 0 1-.38-1.11l1.33-8.83 2.89-19.53a.7.7 0 0 1 .68-.58h35.75a.76.75 4 0 1 .75.85c-.54 3.92-.55 9.94 2.2 12.83q4.83 5.08 12.11 5.22 15.75.31 27.45-1.87 7.86-1.46 11.76-8.23c3.54-6.15 6.07-14.97-.29-20.53-9.11-7.96-25.13-5.97-36.84-4.6a3.13 3.04 25 0 0-1.29.45l-8.68 5.37a.44.43 69.8 0 1-.66-.31l-5.99-39.88a.3.3 0 0 1 .39-.33q16.11 5.65 32.93 2.88c5.76-.95 13.04-1.23 15.63-7.52 1.64-3.99-.63-13.34-1.85-17.15a6 6 0 0 0-2.35-3.09q-13.86-9.11-29.18-3.35c-4.08 1.54-5.25 4.06-8 8.26a.99.98 16.2 0 1-.83.45h-32.49a.45.43-12.7 0 1-.4-.24q-.26-.49-.01-.95l3.67-21.44a1.35 1.3 74.8 0 1 .41-.75l16.01-14.6a1.33 1.32 23.5 0 1 .9-.35h65.87a1.18 1.16 66.2 0 1 .8.32l15.93 15a2.5 2.48 17.4 0 1 .76 1.44z"/><path fill="#4e3e2d" d="M1460.79 571.08c-4.06 2.62-6.73 1.34-10.2-1.36-5.2-4.03-11.76.95-15.48 3.38q-14.34 9.37-44.18 27.85-19.77 12.25-36.58 18.71-44.35 17.03-91.39 26.89c-19.89 4.16-37.68 5.95-60.39 7.98-21.62 1.94-43.84 4.26-64.5.22l-24.27-4.74c-16.38-3.16-35.99-1.59-53.27 2.48q-1.82.43-3.61 1.26a.34.34 0 0 0 .15.64l8.95-.1a.31.3 78.1 0 1 .3.2l.01.01a.24.24 0 0 1-.19.26q-32.31 6.87-65.69 4.31-23.46-1.8-45.58-4-18.07-1.81-34.01 1.02-21.26 3.77-30.8 4.75-10.08 1.04-27.32 1.31c-31.93.51-64.8 3.5-91.33 2.77q-36.64-1.01-72.82-.28-9.6.2-55.4-1.23-23.61-.73-36.81-2.3-16.83-1.99-36.58-5.34c-17.47-2.96-32.09-8.12-51.16-14.73-28.03-9.71-49.78-13.82-72.18-26.93q-18.99-11.12-41.69-28.55-9.54-7.32-14.8-18.45-12.06-25.5-19.32-53.68l4.62-17.06q9.62 14.29 23.41 27.82c15.83 15.55 25.69 26.23 36.19 34.47q18.03 14.16 36.48 25.09c14.93 8.85 33.3 14.88 49.87 18.83q13.24 3.15 28.49 4.44 30.04 2.56 58.41.69l-1.4 11.02a1.12 1.09-63.5 0 0 .28.88l17.02 18.67a1.08 1.06 68 0 0 .78.34h97.71a2.64 2.46 51.8 0 1 .77.12l13.15 3.95a.26.26 0 0 0 .33-.29l-2.6-16.01 21.34-6.4 20.69 17.97a1.54 1.53-24.5 0 0 1 .37h93.59a1.26 1.25 23.6 0 0 .85-.33l20.93-19.08a1 1 0 0 0 .29-.83l-.73-4.79 28.25-6-1.55 11.69a1.05 1.03-63.1 0 0 .27.86l17.57 18.59a.61.58 68.1 0 0 .44.2h97.76a1.42 1.24 49 0 1 .36.05l13.25 3.98a.38.38 0 0 0 .49-.43l-4.73-28.76q12.54-2.41 25.15-3.18l-1.33 8.83a1.27 1.25-64.4 0 0 .38 1.11l19.12 17.99a1.55 1.54 66.7 0 0 1.07.43h95.93a1.71 1.69-67.2 0 0 1.2-.5l19.21-19.21a.86.85-27.3 0 0 .24-.74l-1.03-7.15c13.52-5.49 29.66-6.74 41.33-10.04q30.51-8.61 46.46-13.33c24.35-7.21 46.44-17.22 69.49-29.56 33.52-17.94 66.46-40.87 85.71-74.22q2.31 5.68 4.35 11.36 2.13 5.92 3.24 11.69c2.28 11.92 5.05 23.5 5.84 35.82q.91 14.22.2 28.3"/><path fill="#5a4937" d="m920.37 607.3-28.25 6-16.08-98.82q26.31 3.75 52.78 3.74-.23 1.03.46 1.05 19.2.34 29.02.16a1.2 1.2 0 0 0 1.06-.63l2.69-4.76a1.99 1.64-12.9 0 1 .3-.39c5.27-5.16 13.99-4.99 21.4-4.83 8 .17 15.58 2.44 18.37 10.56 2.65 7.72 3.45 19.01-4.16 24.5a2.74 2.66 16.1 0 1-.58.31l-59.64 23.01a.82.78-77.6 0 0-.25.17l-13.58 14.43a1.2 1.2 0 0 0-.33.69zm149.01 3q-12.61.77-25.15 3.18l-2.21-13.07a.54.54 0 0 0-.81-.37l-9.87 6.13a6.27 6.18 24.1 0 1-2.3.86l-11.85 1.14c-12.38 1.19-21.96 1.04-39.94 1.18-7.43.05-15.82-.46-21.65-4.92a2 2 0 0 1-.75-1.12c-.74-2.73-.37-7.99 2.92-9.34q34.16-14.02 73.32-29.92a2.15 2.11 4.5 0 0 .99-.83l6.42-10.12a1.6 1.6 58.5 0 0 .25-1.05l-3.67-34.71q23.85-.19 47.98 1.11-.25.46.01.95a.45.43-12.7 0 0 .4.24h32.49a.99.98 16.2 0 0 .83-.45c2.75-4.2 3.92-6.72 8-8.26q15.32-5.76 29.18 3.35a6 6 0 0 1 2.35 3.09c1.22 3.81 3.49 13.16 1.85 17.15-2.59 6.29-9.87 6.57-15.63 7.52q-16.82 2.77-32.93-2.88a.3.3 0 0 0-.39.33l5.99 39.88a.44.43 69.8 0 0 .66.31l8.68-5.37a3.13 3.04 25 0 1 1.29-.45c11.71-1.37 27.73-3.36 36.84 4.6 6.36 5.56 3.83 14.38.29 20.53q-3.9 6.77-11.76 8.23-11.7 2.18-27.45 1.87-7.28-.14-12.11-5.22c-2.75-2.89-2.74-8.91-2.2-12.83a.76.75 4 0 0-.75-.85h-35.75a.7.7 0 0 0-.68.58z"/><path fill="#423424" d="M370.65 513.43q7.26 28.18 19.32 53.68 5.26 11.13 14.8 18.45 22.7 17.43 41.69 28.55c22.4 13.11 44.15 17.22 72.18 26.93 19.07 6.61 33.69 11.77 51.16 14.73q19.75 3.35 36.58 5.34 13.2 1.57 36.81 2.3 45.8 1.43 55.4 1.23 36.18-.73 72.82.28c26.53.73 59.4-2.26 91.33-2.77q17.24-.27 27.32-1.31 9.54-.98 30.8-4.75 15.94-2.83 34.01-1.02 22.12 2.2 45.58 4 33.38 2.56 65.69-4.31a.24.24 0 0 0 .19-.26l-.01-.01a.31.3 78.1 0 0-.3-.2l-8.95.1a.34.34 0 0 1-.15-.64q1.79-.83 3.61-1.26c17.28-4.07 36.89-5.64 53.27-2.48l24.27 4.74c20.66 4.04 42.88 1.72 64.5-.22 22.71-2.03 40.5-3.82 60.39-7.98q47.04-9.86 91.39-26.89 16.81-6.46 36.58-18.71 29.84-18.48 44.18-27.85c3.72-2.43 10.28-7.41 15.48-3.38 3.47 2.7 6.14 3.98 10.2 1.36-.2 3.08-.2 6.54-.61 9.31q-2.22 14.89-6.15 32.57-1.35 6.03-3.18 10.41-3.08 7.35-3.85 10.2c-1.52 5.65-4.59 9.75-6.5 15.02-1.86 5.1-5.41 10.02-8.85 16.32q-3.84 7.03-10.37 15.69c-2.43 3.23-4.37 6.19-7.17 9.51q-9.49 11.27-19.28 20.71-6.22 6-10.87 9.39-2.01 1.48-3.97 3.55a7.76 7.22-83.9 0 1-1.13.98c-8 5.62-14.01 10.33-21.45 14.53q-10.56 5.97-17.13 9.26-1.38.69-12.4 5.3c-9.18 3.83-19.65 7.39-27.91 9.33-6.42 1.5-15.74 3.94-22.88 4.84q-22.23 2.8-37.34 2.86-21.84.09-155.05.07c-4.82 0-11.52-.45-16.69.1-2.27.24-4.91 2.21-6.6 3.9-6.64 6.61-13.46 12.24-20.05 18.27q-8.59 7.86-13.56 11.9c-4.3 3.5-9.07 9.08-13.04 11.82-3.21 2.23-5.47 5.29-8.86 7.91a10.83 10.8 2 0 0-1.54 1.43q-2.81 3.22-6.31 5.74c-5.29-7.49-11.72-10.75-18.99-15a9.01 8.52 78.6 0 1-1.05-.74l-8.64-7.22 40.5-36.61a.99.99 0 0 0-.87-1.7q-2.96.62-15.1.23-6.17-.19-15.31-.15-66.77.29-134.34-.33-8.51-.08-18.75.22-.85.03-1.39.3a.87.87 0 0 0-.19 1.43l52.33 47.05q-6.72.68-13.47.55-8.27-.15-10.63.47c-6.52 1.71-11.47 7.29-15.6 12.42q-16.31-14.2-32.27-28.7-3.38-3.07-14.48-12.42c-5.77-4.86-11.51-10.77-16.2-14.58-1.6-1.3-2.76-2.99-4.03-4.23a4.39 4.35-12.7 0 0-1.55-.97q-3.52-1.29-7.27-1.29-40.2-.03-177 .12-10.42.02-18.96-1.07l-10.1-1.28c-6.07-.69-9.43-.97-14.26-2.28-5.14-1.4-11.4-1.96-16.12-3.65q-3.89-1.39-11.48-3.56-5.71-1.63-12.42-4.6-9.59-4.25-12.01-5.6c-6.33-3.54-11.62-5.54-17.16-8.89q-44.34-26.76-72.56-70.01c-8.63-13.21-15.5-29.33-21.65-43.93-2.06-4.91-3-11.26-4.49-15.86-2.48-7.7-4.83-18.01-5.38-26.59q-2.03-31.69.85-58.03.51-4.62 2.64-12.07"/><path fill="#5a4937" d="m763.73 568.18-8.23 51.81-21.34 6.4-4.31-26.21a.39.38 69.8 0 0-.58-.27l-10.78 6.65a3.18 3.16 26.2 0 1-1.37.46l-16.84 1.57q-7.16.66-30.25.73c-8.78.02-20.94.6-26.9-5.36a2.25 2.21-76.3 0 1-.53-.89q-.52-1.69.05-4.93.59-3.34 3.52-4.53 30.69-12.45 61.33-24.92c18.72 2.07 37.48 1.27 56.23-.51"/><path fill="#4e3e2d" d="m998.05 832-80.1 71.32a1.51 1.5-44.8 0 1-1.99 0q-8.49-7.48-11.24-9.75-2.81-2.33-5.6-5.09c-2.27-2.25-5-3.99-7.84-6.63l-8.32-7.71c-5.06-4.7-10.01-8.09-14.88-12.79-5.16-4.98-13.48-11.9-18.09-16.33q-7.97-7.64-13.44-12.1c4.13-5.13 9.08-10.71 15.6-12.42q2.36-.62 10.63-.47 6.75.13 13.47-.55c9.11 8.52 18.5 16.84 27.33 25.65q4.36 4.35 12.15 10.47a2.43 2.42-44.1 0 0 2.96.04q1.39-1.04 2.86-2.34 5.93-5.26 14.51-13.92c4.68-4.72 9.13-8.3 14.15-13.06 5.68-5.36 12.85-11.36 19.16-17.28l8.64 7.22a9.01 8.52 78.6 0 0 1.05.74c7.27 4.25 13.7 7.51 18.99 15"/><path fill="#5a4937" d="M805.5 599.28c-2.22-1.45-5.07-7.02-5.63-10.35q-1.6-9.42-.67-18.94c1.52-15.72 3.43-32.67 8.3-47.71 1.95-6.01 6.89-9.89 13.51-10.76 17.65-2.31 22.96 7.61 25.12 22.8q2.62 18.43 4.19 34.08 1.23 12.15-1.54 22.82c-1.97 7.6-7.49 11.77-15.35 13.41q-15 3.13-27.93-5.35"/></svg>