<?xml version="1.0" encoding="UTF-8" standalone="no"?>
<!DOCTYPE svg PUBLIC "-//W3C//DTD SVG 1.1//EN" "http://www.w3.org/Graphics/SVG/1.1/DTD/svg11.dtd">
<svg xmlns="http://www.w3.org/2000/svg" version="1.1" viewBox="0.00 0.00 1801.00 1126.00">
<g stroke-width="2.00" fill="none" stroke-linecap="butt">
<path stroke="#745f49" vector-effect="non-scaling-stroke" d="
  M 1315.48 358.92
  Q 1313.97 364.38 1313.76 365.80
  C 1313.03 370.67 1312.88 378.48 1311.59 383.93
  C 1308.92 395.24 1303.47 406.88 1294.42 414.32
  C 1288.26 419.39 1280.86 422.21 1272.13 425.19
  Q 1251.36 432.28 1231.87 434.09
  C 1202.66 436.81 1176.60 440.81 1149.27 442.12
  C 1128.62 443.12 1114.89 444.12 1098.02 444.63
  C 1058.89 445.81 1034.56 446.69 1002.60 448.72
  C 983.91 449.91 966.87 448.29 944.51 445.14
  Q 913.14 440.72 901.14 439.80
  Q 876.83 437.94 867.59 437.04
  C 846.78 435.02 824.82 431.78 803.22 432.07
  Q 751.85 432.73 728.75 432.79
  Q 697.40 432.87 666.48 429.00
  Q 640.18 425.71 624.56 422.83
  C 611.40 420.39 599.48 417.56 584.54 414.96
  C 565.27 411.62 542.97 406.30 532.38 388.05
  Q 530.22 384.33 524.56 373.62
  Q 521.44 367.71 513.27 358.19"
/>
<path stroke="#6a5642" vector-effect="non-scaling-stroke" d="
  M 1384.45 398.18
  Q 1377.23 413.53 1367.85 427.52
  Q 1356.91 443.83 1347.26 453.51
  Q 1335.64 465.17 1320.37 472.77
  C 1289.69 488.03 1258.31 497.51 1224.84 506.99
  Q 1203.32 513.09 1181.95 510.28
  Q 1157.45 507.06 1149.50 506.17"
/>
<path stroke="#a8967a" vector-effect="non-scaling-stroke" d="
  M 1149.50 506.17
  L 1144.15 505.08"
/>
<path stroke="#6a5642" vector-effect="non-scaling-stroke" d="
  M 1144.15 505.08
  L 1142.83 504.13"
/>
<path stroke="#a8967a" vector-effect="non-scaling-stroke" d="
  M 1142.83 504.13
  L 1153.02 495.76
  A 0.39 0.39 0.0 0 0 1152.96 495.12
  L 1115.12 473.27
  A 0.37 0.37 0.0 0 0 1114.56 473.55
  Q 1114.01 478.52 1113.60 483.52
  Q 1113.26 487.66 1111.55 493.27
  Q 1105.89 511.76 1097.12 529.03"
/>
<path stroke="#6a5642" vector-effect="non-scaling-stroke" d="
  M 1097.12 529.03
  Q 1087.04 527.22 1080.90 526.88
  Q 1070.16 526.29 1047.33 525.79
  Q 1041.75 525.66 1035.96 525.47"
/>
<path stroke="#a8967a" vector-effect="non-scaling-stroke" d="
  M 1035.96 525.47
  L 1033.13 498.60
  A 1.88 1.83 21.6 0 0 1032.65 497.53
  L 1018.01 481.48
  A 0.97 0.97 0.0 0 0 1017.29 481.16
  L 947.80 481.16
  A 1.90 1.88 -67.8 0 0 946.44 481.74
  L 932.19 496.54
  A 1.75 1.72 -19.5 0 0 931.73 497.48
  L 930.83 503.50"
/>
<path stroke="#6a5642" vector-effect="non-scaling-stroke" d="
  M 930.83 503.50
  C 911.33 504.93 893.13 504.77 873.90 501.19"
/>
<path stroke="#a8967a" vector-effect="non-scaling-stroke" d="
  M 873.90 501.19
  L 873.11 496.74
  A 1.33 1.32 -74.6 0 0 872.67 495.96
  L 855.97 481.68
  A 2.84 2.82 -24.7 0 0 854.14 481.01
  L 794.54 481.01
  A 1.75 1.73 -65.0 0 0 793.41 481.43
  L 775.93 496.62
  A 1.45 1.44 74.5 0 0 775.47 497.44
  L 774.24 504.66"
/>
<path stroke="#6a5642" vector-effect="non-scaling-stroke" d="
  M 774.24 504.66
  Q 754.57 501.17 734.97 498.02
  Q 727.82 496.87 716.70 493.24"
/>
<path stroke="#a8967a" vector-effect="non-scaling-stroke" d="
  M 716.70 493.24
  L 705.63 481.46
  A 0.95 0.92 67.8 0 0 704.95 481.16
  L 635.40 481.16
  A 1.18 1.16 -66.2 0 0 634.60 481.48
  Q 625.65 489.86 619.05 498.46"
/>
<path stroke="#6a5642" vector-effect="non-scaling-stroke" d="
  M 619.05 498.46
  Q 620.98 491.92 613.96 489.33
  Q 609.23 487.59 607.37 487.24
  C 583.84 482.88 564.87 479.73 544.68 472.03
  Q 529.56 466.26 509.32 453.73
  C 495.42 445.14 482.70 436.74 476.45 421.12
  Q 473.82 414.54 468.76 399.90
  Q 467.39 395.96 461.71 384.23"
/>
<path stroke="#a29276" vector-effect="non-scaling-stroke" d="
  M 619.05 498.46
  L 616.61 518.92
  A 0.48 0.48 0.0 0 0 617.09 519.46
  L 646.19 519.46
  A 0.99 0.99 0.0 0 0 647.03 518.99
  C 649.56 514.89 650.68 511.51 656.18 510.16
  C 664.98 507.99 683.81 506.65 688.84 516.90
  C 692.04 523.40 693.64 535.75 688.23 541.84
  Q 686.14 544.18 680.11 546.16
  Q 679.92 546.22 626.46 566.83
  A 3.19 3.14 -77.5 0 0 625.35 567.55
  Q 614.29 578.77 611.66 581.96
  Q 611.11 582.62 611.13 584.84"
/>
<path stroke="#5a4836" vector-effect="non-scaling-stroke" d="
  M 611.13 584.84
  C 591.99 577.58 573.57 576.73 554.03 576.72
  C 530.52 576.70 510.01 570.18 490.41 557.32
  C 467.31 542.17 441.26 524.77 418.11 505.72
  Q 410.92 499.80 404.81 492.98
  C 393.73 480.61 393.99 466.89 396.94 451.17"
/>
<path stroke="#a29276" vector-effect="non-scaling-stroke" d="
  M 1142.83 504.13
  Q 1129.77 527.70 1125.32 537.10
  Q 1115.49 557.88 1106.81 575.05
  A 0.17 0.17 0.0 0 0 1106.97 575.30
  Q 1124.74 574.15 1142.10 571.77
  Q 1147.75 571.00 1147.81 565.29
  Q 1148.05 545.51 1148.36 531.47
  C 1148.57 521.93 1147.15 513.78 1144.15 505.08"
/>
<path stroke="#a29276" vector-effect="non-scaling-stroke" d="
  M 1076.12 565.04
  C 1084.29 553.84 1091.04 541.48 1097.12 529.03"
/>
<path stroke="#a29276" vector-effect="non-scaling-stroke" d="
  M 1035.96 525.47
  L 1038.77 552.07
  A 1.50 1.49 -32.0 0 1 1038.54 553.05
  L 1032.04 563.26
  A 2.17 2.08 4.1 0 1 1031.04 564.09
  L 1011.95 571.87"
/>
<path stroke="#a29276" vector-effect="non-scaling-stroke" d="
  M 923.13 584.09
  Q 929.13 575.17 937.37 567.54
  A 2.67 2.59 12.2 0 1 938.19 567.03
  Q 963.48 557.25 993.90 545.57
  Q 998.44 543.83 1000.07 542.13
  C 1004.96 537.02 1004.42 528.06 1002.77 521.45
  Q 1000.25 511.31 989.98 509.53
  Q 978.63 507.57 967.61 510.32
  Q 966.29 510.65 963.40 512.72
  C 961.56 514.04 960.55 516.94 959.21 518.96
  A 1.15 1.14 -73.1 0 1 958.26 519.47
  L 929.19 519.47
  A 0.46 0.46 0.0 0 1 928.73 518.95
  L 930.83 503.50"
/>
<path stroke="#a29276" vector-effect="non-scaling-stroke" d="
  M 716.70 493.24
  L 720.47 497.36
  A 1.58 1.57 -69.2 0 1 720.88 498.28
  L 726.55 552.05
  A 1.76 1.76 0.0 0 1 726.29 553.16
  L 719.89 563.20
  A 2.08 2.06 -85.0 0 1 718.94 564.00
  L 699.98 571.73"
/>
<path stroke="#5a4836" vector-effect="non-scaling-stroke" d="
  M 1413.21 426.88
  C 1405.18 445.61 1396.16 463.70 1384.47 480.78
  C 1374.07 495.98 1362.51 507.34 1347.04 515.56
  Q 1329.41 524.93 1310.36 533.28
  C 1293.18 540.81 1273.93 544.87 1257.88 549.85
  C 1231.94 557.89 1206.98 566.10 1179.98 563.02"
/>
<path stroke="#a29276" vector-effect="non-scaling-stroke" d="
  M 1179.98 563.02
  Q 1179.18 547.92 1178.59 532.75
  Q 1178.34 526.31 1179.29 523.29
  Q 1180.72 518.76 1183.47 514.79
  A 0.42 0.42 0.0 0 0 1183.22 514.14
  L 1149.50 506.17"
/>
<path stroke="#a29276" vector-effect="non-scaling-stroke" d="
  M 873.90 501.19
  L 887.88 587.21"
/>
<path stroke="#a29276" vector-effect="non-scaling-stroke" d="
  M 763.25 570.51
  L 774.24 504.66"
/>
<path stroke="#463728" vector-effect="non-scaling-stroke" d="
  M 1455.33 606.47
  C 1450.33 612.36 1444.35 619.59 1437.51 623.30
  A 0.96 0.96 0.0 0 1 1436.16 622.80
  Q 1435.44 620.91 1432.80 621.63
  Q 1425.98 623.49 1416.74 628.16
  C 1401.00 636.12 1383.68 646.17 1368.31 652.79
  Q 1344.14 663.20 1328.89 667.81
  Q 1312.22 672.85 1290.95 678.70
  Q 1272.34 683.81 1252.38 684.71
  C 1236.53 685.42 1218.87 685.13 1202.16 688.01
  Q 1151.89 696.68 1138.67 698.46
  Q 1117.62 701.29 1103.77 701.67
  Q 1072.02 702.54 1045.79 703.67
  C 1032.61 704.24 1020.40 703.62 1002.92 703.23
  C 982.31 702.76 955.77 708.52 939.07 710.63
  Q 926.61 712.20 914.88 711.31
  C 897.55 709.99 883.30 709.39 865.51 709.77
  C 842.85 710.26 818.31 710.45 794.26 711.67
  C 777.67 712.51 768.88 713.39 757.32 711.84
  C 747.49 710.52 737.00 709.25 724.73 709.26
  Q 674.34 709.31 654.25 709.05
  C 644.08 708.92 636.50 707.95 618.67 706.31
  C 607.24 705.25 592.81 704.98 581.97 703.98
  Q 565.49 702.47 545.02 696.53
  Q 532.68 692.95 527.75 691.01
  C 497.46 679.09 467.88 664.72 439.23 649.63
  C 422.18 640.66 410.26 631.20 395.13 618.57
  C 387.85 612.50 382.12 607.96 378.56 601.07
  Q 374.37 592.95 373.24 582.32
  Q 372.29 573.37 370.81 554.47
  Q 370.30 547.85 367.37 532.19"
/>
<path stroke="#98896e" vector-effect="non-scaling-stroke" d="
  M 611.13 584.84
  L 606.65 619.00
  A 0.99 0.98 27.2 0 0 606.91 619.80
  L 624.27 638.26
  A 1.23 1.20 67.6 0 0 625.14 638.63
  Q 662.98 638.64 715.74 638.61
  Q 718.23 638.60 718.25 638.60
  C 724.40 638.33 730.20 640.86 736.43 642.72
  A 0.27 0.27 0.0 0 0 736.77 642.42
  L 729.86 600.19
  A 0.40 0.40 0.0 0 0 729.26 599.91
  L 718.63 606.47
  A 3.48 3.46 25.7 0 1 717.22 606.96
  Q 696.91 609.16 686.25 609.16
  Q 681.52 609.16 665.51 609.34
  C 657.97 609.43 648.86 609.02 643.18 604.05
  A 1.95 1.95 0.0 0 1 642.55 602.93
  Q 641.86 598.79 643.72 595.36
  A 1.93 1.88 2.5 0 1 644.67 594.51
  L 699.98 571.73"
/>
<path stroke="#5a4836" vector-effect="non-scaling-stroke" d="
  M 699.98 571.73
  Q 731.58 575.02 763.25 570.51"
/>
<path stroke="#98896e" vector-effect="non-scaling-stroke" d="
  M 763.25 570.51
  L 755.23 618.56
  A 0.59 0.57 26.4 0 0 755.42 619.10
  L 776.20 638.05
  A 1.09 1.08 -23.8 0 0 776.93 638.33
  L 870.71 638.33
  A 1.46 1.43 23.5 0 0 871.68 637.96
  L 892.61 618.87
  A 0.97 0.97 0.0 0 0 892.91 618.01
  L 887.88 587.21"
/>
<path stroke="#5a4836" vector-effect="non-scaling-stroke" d="
  M 887.88 587.21
  Q 906.10 586.44 923.13 584.09"
/>
<path stroke="#98896e" vector-effect="non-scaling-stroke" d="
  M 923.13 584.09
  L 918.83 618.98
  A 1.14 1.13 -63.4 0 0 919.12 619.88
  L 936.45 638.23
  A 1.33 1.30 67.4 0 0 937.39 638.63
  L 1034.27 638.63
  A 5.48 5.40 -36.0 0 1 1035.87 638.87
  L 1048.68 642.74
  A 0.23 0.22 3.4 0 0 1048.97 642.49
  L 1042.08 600.40
  A 0.56 0.55 -20.5 0 0 1041.24 600.02
  L 1030.71 606.54
  A 2.31 2.17 -62.8 0 1 1029.79 606.87
  Q 1012.80 608.97 998.01 609.15
  Q 985.33 609.30 973.76 609.29
  Q 964.38 609.27 957.04 605.50
  C 953.53 603.69 954.31 599.22 955.47 596.17
  Q 956.04 594.67 958.45 593.69
  Q 985.21 582.73 1011.95 571.87"
/>
<path stroke="#5a4836" vector-effect="non-scaling-stroke" d="
  M 1011.95 571.87
  C 1034.67 567.98 1054.09 564.87 1076.12 565.04"
/>
<path stroke="#98896e" vector-effect="non-scaling-stroke" d="
  M 1076.12 565.04
  L 1064.01 579.42
  A 1.22 1.20 52.0 0 0 1063.86 580.73
  L 1081.50 615.48
  A 0.34 0.33 65.9 0 0 1081.92 615.65
  Q 1100.10 608.93 1120.31 606.18
  Q 1132.11 604.57 1139.32 603.89
  C 1143.32 603.51 1147.40 604.99 1146.97 609.74
  C 1146.01 620.24 1145.28 631.78 1140.39 640.84
  A 0.31 0.31 0.0 0 0 1140.66 641.29
  L 1186.54 641.29
  A 0.38 0.38 0.0 0 0 1186.89 640.76
  Q 1185.31 636.88 1183.18 630.37
  Q 1181.76 625.99 1181.63 619.56
  Q 1181.57 616.60 1181.14 606.18
  A 1.80 1.79 -6.7 0 1 1182.60 604.34
  Q 1185.59 603.78 1189.92 605.10
  Q 1193.63 606.23 1208.93 611.02
  A 0.45 0.45 0.0 0 0 1209.50 610.48
  L 1199.30 566.32
  A 0.76 0.76 0.0 0 0 1198.05 565.93
  L 1190.71 572.62
  A 1.18 1.18 0.0 0 1 1189.56 572.88
  L 1182.22 570.66
  A 1.99 1.97 4.7 0 1 1180.82 569.03
  L 1179.98 563.02"
/>
<path stroke="#463728" vector-effect="non-scaling-stroke" d="
  M 998.06 831.98
  Q 984.60 819.57 969.44 808.98"
/>
<path stroke="#463728" vector-effect="non-scaling-stroke" d="
  M 877.79 820.98
  Q 868.96 820.76 860.27 820.75
  C 848.27 820.73 842.23 826.69 843.58 838.92"
/>
<path stroke="#a29276" vector-effect="non-scaling-stroke" d="
  M 805.51 599.28
  Q 818.70 607.96 834.07 604.48
  C 840.89 602.93 845.75 599.53 848.14 593.12
  C 850.81 585.95 851.19 575.87 850.28 567.50
  Q 848.44 550.62 846.10 534.13
  C 844.64 523.81 841.47 512.80 829.26 511.40
  C 820.20 510.37 810.59 512.64 807.49 522.31
  C 802.85 536.79 801.32 550.65 799.40 568.08
  Q 798.06 580.20 799.93 589.18
  C 800.62 592.48 803.20 597.76 805.51 599.28"
/>
</g>
<g>
<path fill="#78634c" d="
  M 1315.48 358.92
  Q 1313.97 364.38 1313.76 365.80
  C 1313.03 370.67 1312.88 378.48 1311.59 383.93
  C 1308.92 395.24 1303.47 406.88 1294.42 414.32
  C 1288.26 419.39 1280.86 422.21 1272.13 425.19
  Q 1251.36 432.28 1231.87 434.09
  C 1202.66 436.81 1176.60 440.81 1149.27 442.12
  C 1128.62 443.12 1114.89 444.12 1098.02 444.63
  C 1058.89 445.81 1034.56 446.69 1002.60 448.72
  C 983.91 449.91 966.87 448.29 944.51 445.14
  Q 913.14 440.72 901.14 439.80
  Q 876.83 437.94 867.59 437.04
  C 846.78 435.02 824.82 431.78 803.22 432.07
  Q 751.85 432.73 728.75 432.79
  Q 697.40 432.87 666.48 429.00
  Q 640.18 425.71 624.56 422.83
  C 611.40 420.39 599.48 417.56 584.54 414.96
  C 565.27 411.62 542.97 406.30 532.38 388.05
  Q 530.22 384.33 524.56 373.62
  Q 521.44 367.71 513.27 358.19
  Q 522.55 354.68 526.07 353.84
  C 532.19 352.37 539.65 350.32 545.83 349.14
  Q 565.65 345.36 587.75 345.34
  C 793.89 345.14 1009.58 345.43 1217.00 345.01
  Q 1226.36 344.99 1245.06 345.42
  Q 1260.66 345.78 1272.99 347.90
  C 1288.25 350.53 1301.94 353.68 1315.48 358.92
  Z"
/>
<path fill="#6f5a45" d="
  M 513.27 358.19
  Q 521.44 367.71 524.56 373.62
  Q 530.22 384.33 532.38 388.05
  C 542.97 406.30 565.27 411.62 584.54 414.96
  C 599.48 417.56 611.40 420.39 624.56 422.83
  Q 640.18 425.71 666.48 429.00
  Q 697.40 432.87 728.75 432.79
  Q 751.85 432.73 803.22 432.07
  C 824.82 431.78 846.78 435.02 867.59 437.04
  Q 876.83 437.94 901.14 439.80
  Q 913.14 440.72 944.51 445.14
  C 966.87 448.29 983.91 449.91 1002.60 448.72
  C 1034.56 446.69 1058.89 445.81 1098.02 444.63
  C 1114.89 444.12 1128.62 443.12 1149.27 442.12
  C 1176.60 440.81 1202.66 436.81 1231.87 434.09
  Q 1251.36 432.28 1272.13 425.19
  C 1280.86 422.21 1288.26 419.39 1294.42 414.32
  C 1303.47 406.88 1308.92 395.24 1311.59 383.93
  C 1312.88 378.48 1313.03 370.67 1313.76 365.80
  Q 1313.97 364.38 1315.48 358.92
  Q 1332.91 365.29 1338.73 368.51
  C 1345.00 371.97 1351.43 375.16 1357.38 379.02
  C 1366.79 385.13 1375.96 390.83 1384.45 398.18
  Q 1377.23 413.53 1367.85 427.52
  Q 1356.91 443.83 1347.26 453.51
  Q 1335.64 465.17 1320.37 472.77
  C 1289.69 488.03 1258.31 497.51 1224.84 506.99
  Q 1203.32 513.09 1181.95 510.28
  Q 1157.45 507.06 1149.50 506.17
  L 1144.15 505.08
  L 1142.83 504.13
  L 1153.02 495.76
  A 0.39 0.39 0.0 0 0 1152.96 495.12
  L 1115.12 473.27
  A 0.37 0.37 0.0 0 0 1114.56 473.55
  Q 1114.01 478.52 1113.60 483.52
  Q 1113.26 487.66 1111.55 493.27
  Q 1105.89 511.76 1097.12 529.03
  Q 1087.04 527.22 1080.90 526.88
  Q 1070.16 526.29 1047.33 525.79
  Q 1041.75 525.66 1035.96 525.47
  L 1033.13 498.60
  A 1.88 1.83 21.6 0 0 1032.65 497.53
  L 1018.01 481.48
  A 0.97 0.97 0.0 0 0 1017.29 481.16
  L 947.80 481.16
  A 1.90 1.88 -67.8 0 0 946.44 481.74
  L 932.19 496.54
  A 1.75 1.72 -19.5 0 0 931.73 497.48
  L 930.83 503.50
  C 911.33 504.93 893.13 504.77 873.90 501.19
  L 873.11 496.74
  A 1.33 1.32 -74.6 0 0 872.67 495.96
  L 855.97 481.68
  A 2.84 2.82 -24.7 0 0 854.14 481.01
  L 794.54 481.01
  A 1.75 1.73 -65.0 0 0 793.41 481.43
  L 775.93 496.62
  A 1.45 1.44 74.5 0 0 775.47 497.44
  L 774.24 504.66
  Q 754.57 501.17 734.97 498.02
  Q 727.82 496.87 716.70 493.24
  L 705.63 481.46
  A 0.95 0.92 67.8 0 0 704.95 481.16
  L 635.40 481.16
  A 1.18 1.16 -66.2 0 0 634.60 481.48
  Q 625.65 489.86 619.05 498.46
  Q 620.98 491.92 613.96 489.33
  Q 609.23 487.59 607.37 487.24
  C 583.84 482.88 564.87 479.73 544.68 472.03
  Q 529.56 466.26 509.32 453.73
  C 495.42 445.14 482.70 436.74 476.45 421.12
  Q 473.82 414.54 468.76 399.90
  Q 467.39 395.96 461.71 384.23
  C 467.66 380.66 473.56 376.44 479.27 373.21
  Q 483.89 370.60 488.52 368.01
  Q 493.64 365.15 513.27 358.19
  Z"
/>
<path fill="#64513e" d="
  M 461.71 384.23
  Q 467.39 395.96 468.76 399.90
  Q 473.82 414.54 476.45 421.12
  C 482.70 436.74 495.42 445.14 509.32 453.73
  Q 529.56 466.26 544.68 472.03
  C 564.87 479.73 583.84 482.88 607.37 487.24
  Q 609.23 487.59 613.96 489.33
  Q 620.98 491.92 619.05 498.46
  L 616.61 518.92
  A 0.48 0.48 0.0 0 0 617.09 519.46
  L 646.19 519.46
  A 0.99 0.99 0.0 0 0 647.03 518.99
  C 649.56 514.89 650.68 511.51 656.18 510.16
  C 664.98 507.99 683.81 506.65 688.84 516.90
  C 692.04 523.40 693.64 535.75 688.23 541.84
  Q 686.14 544.18 680.11 546.16
  Q 679.92 546.22 626.46 566.83
  A 3.19 3.14 -77.5 0 0 625.35 567.55
  Q 614.29 578.77 611.66 581.96
  Q 611.11 582.62 611.13 584.84
  C 591.99 577.58 573.57 576.73 554.03 576.72
  C 530.52 576.70 510.01 570.18 490.41 557.32
  C 467.31 542.17 441.26 524.77 418.11 505.72
  Q 410.92 499.80 404.81 492.98
  C 393.73 480.61 393.99 466.89 396.94 451.17
  Q 402.74 441.71 406.04 437.28
  C 409.62 432.48 417.60 422.45 423.65 416.58
  C 427.27 413.07 431.18 408.57 435.04 405.08
  Q 447.60 393.71 461.71 384.23
  Z"
/>
<path fill="#64513e" d="
  M 1413.21 426.88
  C 1405.18 445.61 1396.16 463.70 1384.47 480.78
  C 1374.07 495.98 1362.51 507.34 1347.04 515.56
  Q 1329.41 524.93 1310.36 533.28
  C 1293.18 540.81 1273.93 544.87 1257.88 549.85
  C 1231.94 557.89 1206.98 566.10 1179.98 563.02
  Q 1179.18 547.92 1178.59 532.75
  Q 1178.34 526.31 1179.29 523.29
  Q 1180.72 518.76 1183.47 514.79
  A 0.42 0.42 0.0 0 0 1183.22 514.14
  L 1149.50 506.17
  Q 1157.45 507.06 1181.95 510.28
  Q 1203.32 513.09 1224.84 506.99
  C 1258.31 497.51 1289.69 488.03 1320.37 472.77
  Q 1335.64 465.17 1347.26 453.51
  Q 1356.91 443.83 1367.85 427.52
  Q 1377.23 413.53 1384.45 398.18
  Q 1388.90 401.49 1392.80 405.21
  Q 1403.65 415.57 1413.21 426.88
  Z"
/>
<path fill="#4f3f2e" d="
  M 1413.21 426.88
  Q 1415.11 429.04 1416.78 431.18
  Q 1424.44 441.00 1429.57 448.82
  Q 1432.56 453.39 1434.24 456.73
  C 1436.27 460.76 1438.46 463.41 1440.08 467.46
  Q 1442.03 472.37 1445.21 478.35
  A 23.90 23.59 -67.5 0 1 1447.02 482.80
  C 1449.11 489.96 1452.69 496.90 1454.31 505.00
  C 1457.09 518.87 1460.05 531.01 1460.65 543.97
  Q 1461.65 565.76 1460.27 579.50
  Q 1459.25 589.62 1455.33 606.47
  C 1450.33 612.36 1444.35 619.59 1437.51 623.30
  A 0.96 0.96 0.0 0 1 1436.16 622.80
  Q 1435.44 620.91 1432.80 621.63
  Q 1425.98 623.49 1416.74 628.16
  C 1401.00 636.12 1383.68 646.17 1368.31 652.79
  Q 1344.14 663.20 1328.89 667.81
  Q 1312.22 672.85 1290.95 678.70
  Q 1272.34 683.81 1252.38 684.71
  C 1236.53 685.42 1218.87 685.13 1202.16 688.01
  Q 1151.89 696.68 1138.67 698.46
  Q 1117.62 701.29 1103.77 701.67
  Q 1072.02 702.54 1045.79 703.67
  C 1032.61 704.24 1020.40 703.62 1002.92 703.23
  C 982.31 702.76 955.77 708.52 939.07 710.63
  Q 926.61 712.20 914.88 711.31
  C 897.55 709.99 883.30 709.39 865.51 709.77
  C 842.85 710.26 818.31 710.45 794.26 711.67
  C 777.67 712.51 768.88 713.39 757.32 711.84
  C 747.49 710.52 737.00 709.25 724.73 709.26
  Q 674.34 709.31 654.25 709.05
  C 644.08 708.92 636.50 707.95 618.67 706.31
  C 607.24 705.25 592.81 704.98 581.97 703.98
  Q 565.49 702.47 545.02 696.53
  Q 532.68 692.95 527.75 691.01
  C 497.46 679.09 467.88 664.72 439.23 649.63
  C 422.18 640.66 410.26 631.20 395.13 618.57
  C 387.85 612.50 382.12 607.96 378.56 601.07
  Q 374.37 592.95 373.24 582.32
  Q 372.29 573.37 370.81 554.47
  Q 370.30 547.85 367.37 532.19
  Q 368.05 521.71 371.13 511.69
  Q 373.37 504.40 373.55 503.60
  C 374.39 499.92 375.19 496.41 376.69 492.81
  Q 381.95 480.28 387.31 467.83
  Q 389.91 461.79 396.94 451.17
  C 393.99 466.89 393.73 480.61 404.81 492.98
  Q 410.92 499.80 418.11 505.72
  C 441.26 524.77 467.31 542.17 490.41 557.32
  C 510.01 570.18 530.52 576.70 554.03 576.72
  C 573.57 576.73 591.99 577.58 611.13 584.84
  L 606.65 619.00
  A 0.99 0.98 27.2 0 0 606.91 619.80
  L 624.27 638.26
  A 1.23 1.20 67.6 0 0 625.14 638.63
  Q 662.98 638.64 715.74 638.61
  Q 718.23 638.60 718.25 638.60
  C 724.40 638.33 730.20 640.86 736.43 642.72
  A 0.27 0.27 0.0 0 0 736.77 642.42
  L 729.86 600.19
  A 0.40 0.40 0.0 0 0 729.26 599.91
  L 718.63 606.47
  A 3.48 3.46 25.7 0 1 717.22 606.96
  Q 696.91 609.16 686.25 609.16
  Q 681.52 609.16 665.51 609.34
  C 657.97 609.43 648.86 609.02 643.18 604.05
  A 1.95 1.95 0.0 0 1 642.55 602.93
  Q 641.86 598.79 643.72 595.36
  A 1.93 1.88 2.5 0 1 644.67 594.51
  L 699.98 571.73
  Q 731.58 575.02 763.25 570.51
  L 755.23 618.56
  A 0.59 0.57 26.4 0 0 755.42 619.10
  L 776.20 638.05
  A 1.09 1.08 -23.8 0 0 776.93 638.33
  L 870.71 638.33
  A 1.46 1.43 23.5 0 0 871.68 637.96
  L 892.61 618.87
  A 0.97 0.97 0.0 0 0 892.91 618.01
  L 887.88 587.21
  Q 906.10 586.44 923.13 584.09
  L 918.83 618.98
  A 1.14 1.13 -63.4 0 0 919.12 619.88
  L 936.45 638.23
  A 1.33 1.30 67.4 0 0 937.39 638.63
  L 1034.27 638.63
  A 5.48 5.40 -36.0 0 1 1035.87 638.87
  L 1048.68 642.74
  A 0.23 0.22 3.4 0 0 1048.97 642.49
  L 1042.08 600.40
  A 0.56 0.55 -20.5 0 0 1041.24 600.02
  L 1030.71 606.54
  A 2.31 2.17 -62.8 0 1 1029.79 606.87
  Q 1012.80 608.97 998.01 609.15
  Q 985.33 609.30 973.76 609.29
  Q 964.38 609.27 957.04 605.50
  C 953.53 603.69 954.31 599.22 955.47 596.17
  Q 956.04 594.67 958.45 593.69
  Q 985.21 582.73 1011.95 571.87
  C 1034.67 567.98 1054.09 564.87 1076.12 565.04
  L 1064.01 579.42
  A 1.22 1.20 52.0 0 0 1063.86 580.73
  L 1081.50 615.48
  A 0.34 0.33 65.9 0 0 1081.92 615.65
  Q 1100.10 608.93 1120.31 606.18
  Q 1132.11 604.57 1139.32 603.89
  C 1143.32 603.51 1147.40 604.99 1146.97 609.74
  C 1146.01 620.24 1145.28 631.78 1140.39 640.84
  A 0.31 0.31 0.0 0 0 1140.66 641.29
  L 1186.54 641.29
  A 0.38 0.38 0.0 0 0 1186.89 640.76
  Q 1185.31 636.88 1183.18 630.37
  Q 1181.76 625.99 1181.63 619.56
  Q 1181.57 616.60 1181.14 606.18
  A 1.80 1.79 -6.7 0 1 1182.60 604.34
  Q 1185.59 603.78 1189.92 605.10
  Q 1193.63 606.23 1208.93 611.02
  A 0.45 0.45 0.0 0 0 1209.50 610.48
  L 1199.30 566.32
  A 0.76 0.76 0.0 0 0 1198.05 565.93
  L 1190.71 572.62
  A 1.18 1.18 0.0 0 1 1189.56 572.88
  L 1182.22 570.66
  A 1.99 1.97 4.7 0 1 1180.82 569.03
  L 1179.98 563.02
  C 1206.98 566.10 1231.94 557.89 1257.88 549.85
  C 1273.93 544.87 1293.18 540.81 1310.36 533.28
  Q 1329.41 524.93 1347.04 515.56
  C 1362.51 507.34 1374.07 495.98 1384.47 480.78
  C 1396.16 463.70 1405.18 445.61 1413.21 426.88
  Z"
/>
<path fill="#e0d2ae" d="
  M 1142.83 504.13
  Q 1129.77 527.70 1125.32 537.10
  Q 1115.49 557.88 1106.81 575.05
  A 0.17 0.17 0.0 0 0 1106.97 575.30
  Q 1124.74 574.15 1142.10 571.77
  Q 1147.75 571.00 1147.81 565.29
  Q 1148.05 545.51 1148.36 531.47
  C 1148.57 521.93 1147.15 513.78 1144.15 505.08
  L 1149.50 506.17
  L 1183.22 514.14
  A 0.42 0.42 0.0 0 1 1183.47 514.79
  Q 1180.72 518.76 1179.29 523.29
  Q 1178.34 526.31 1178.59 532.75
  Q 1179.18 547.92 1179.98 563.02
  L 1180.82 569.03
  A 1.99 1.97 4.7 0 0 1182.22 570.66
  L 1189.56 572.88
  A 1.18 1.18 0.0 0 0 1190.71 572.62
  L 1198.05 565.93
  A 0.76 0.76 0.0 0 1 1199.30 566.32
  L 1209.50 610.48
  A 0.45 0.45 0.0 0 1 1208.93 611.02
  Q 1193.63 606.23 1189.92 605.10
  Q 1185.59 603.78 1182.60 604.34
  A 1.80 1.79 -6.7 0 0 1181.14 606.18
  Q 1181.57 616.60 1181.63 619.56
  Q 1181.76 625.99 1183.18 630.37
  Q 1185.31 636.88 1186.89 640.76
  A 0.38 0.38 0.0 0 1 1186.54 641.29
  L 1140.66 641.29
  A 0.31 0.31 0.0 0 1 1140.39 640.84
  C 1145.28 631.78 1146.01 620.24 1146.97 609.74
  C 1147.40 604.99 1143.32 603.51 1139.32 603.89
  Q 1132.11 604.57 1120.31 606.18
  Q 1100.10 608.93 1081.92 615.65
  A 0.34 0.33 65.9 0 1 1081.50 615.48
  L 1063.86 580.73
  A 1.22 1.20 52.0 0 1 1064.01 579.42
  L 1076.12 565.04
  C 1084.29 553.84 1091.04 541.48 1097.12 529.03
  Q 1105.89 511.76 1111.55 493.27
  Q 1113.26 487.66 1113.60 483.52
  Q 1114.01 478.52 1114.56 473.55
  A 0.37 0.37 0.0 0 1 1115.12 473.27
  L 1152.96 495.12
  A 0.39 0.39 0.0 0 1 1153.02 495.76
  L 1142.83 504.13
  Z"
/>
<path fill="#e0d2ae" d="
  M 873.90 501.19
  L 887.88 587.21
  L 892.91 618.01
  A 0.97 0.97 0.0 0 1 892.61 618.87
  L 871.68 637.96
  A 1.46 1.43 23.5 0 1 870.71 638.33
  L 776.93 638.33
  A 1.09 1.08 -23.8 0 1 776.20 638.05
  L 755.42 619.10
  A 0.59 0.57 26.4 0 1 755.23 618.56
  L 763.25 570.51
  L 774.24 504.66
  L 775.47 497.44
  A 1.45 1.44 74.5 0 1 775.93 496.62
  L 793.41 481.43
  A 1.75 1.73 -65.0 0 1 794.54 481.01
  L 854.14 481.01
  A 2.84 2.82 -24.7 0 1 855.97 481.68
  L 872.67 495.96
  A 1.33 1.32 -74.6 0 1 873.11 496.74
  L 873.90 501.19
  Z
  M 805.51 599.28
  Q 818.70 607.96 834.07 604.48
  C 840.89 602.93 845.75 599.53 848.14 593.12
  C 850.81 585.95 851.19 575.87 850.28 567.50
  Q 848.44 550.62 846.10 534.13
  C 844.64 523.81 841.47 512.80 829.26 511.40
  C 820.20 510.37 810.59 512.64 807.49 522.31
  C 802.85 536.79 801.32 550.65 799.40 568.08
  Q 798.06 580.20 799.93 589.18
  C 800.62 592.48 803.20 597.76 805.51 599.28
  Z"
/>
<path fill="#e0d2ae" d="
  M 1035.96 525.47
  L 1038.77 552.07
  A 1.50 1.49 -32.0 0 1 1038.54 553.05
  L 1032.04 563.26
  A 2.17 2.08 4.1 0 1 1031.04 564.09
  L 1011.95 571.87
  Q 985.21 582.73 958.45 593.69
  Q 956.04 594.67 955.47 596.17
  C 954.31 599.22 953.53 603.69 957.04 605.50
  Q 964.38 609.27 973.76 609.29
  Q 985.33 609.30 998.01 609.15
  Q 1012.80 608.97 1029.79 606.87
  A 2.31 2.17 -62.8 0 0 1030.71 606.54
  L 1041.24 600.02
  A 0.56 0.55 -20.5 0 1 1042.08 600.40
  L 1048.97 642.49
  A 0.23 0.22 3.4 0 1 1048.68 642.74
  L 1035.87 638.87
  A 5.48 5.40 -36.0 0 0 1034.27 638.63
  L 937.39 638.63
  A 1.33 1.30 67.4 0 1 936.45 638.23
  L 919.12 619.88
  A 1.14 1.13 -63.4 0 1 918.83 618.98
  L 923.13 584.09
  Q 929.13 575.17 937.37 567.54
  A 2.67 2.59 12.2 0 1 938.19 567.03
  Q 963.48 557.25 993.90 545.57
  Q 998.44 543.83 1000.07 542.13
  C 1004.96 537.02 1004.42 528.06 1002.77 521.45
  Q 1000.25 511.31 989.98 509.53
  Q 978.63 507.57 967.61 510.32
  Q 966.29 510.65 963.40 512.72
  C 961.56 514.04 960.55 516.94 959.21 518.96
  A 1.15 1.14 -73.1 0 1 958.26 519.47
  L 929.19 519.47
  A 0.46 0.46 0.0 0 1 928.73 518.95
  L 930.83 503.50
  L 931.73 497.48
  A 1.75 1.72 -19.5 0 1 932.19 496.54
  L 946.44 481.74
  A 1.90 1.88 -67.8 0 1 947.80 481.16
  L 1017.29 481.16
  A 0.97 0.97 0.0 0 1 1018.01 481.48
  L 1032.65 497.53
  A 1.88 1.83 21.6 0 1 1033.13 498.60
  L 1035.96 525.47
  Z"
/>
<path fill="#e0d2ae" d="
  M 716.70 493.24
  L 720.47 497.36
  A 1.58 1.57 -69.2 0 1 720.88 498.28
  L 726.55 552.05
  A 1.76 1.76 0.0 0 1 726.29 553.16
  L 719.89 563.20
  A 2.08 2.06 -85.0 0 1 718.94 564.00
  L 699.98 571.73
  L 644.67 594.51
  A 1.93 1.88 2.5 0 0 643.72 595.36
  Q 641.86 598.79 642.55 602.93
  A 1.95 1.95 0.0 0 0 643.18 604.05
  C 648.86 609.02 657.97 609.43 665.51 609.34
  Q 681.52 609.16 686.25 609.16
  Q 696.91 609.16 717.22 606.96
  A 3.48 3.46 25.7 0 0 718.63 606.47
  L 729.26 599.91
  A 0.40 0.40 0.0 0 1 729.86 600.19
  L 736.77 642.42
  A 0.27 0.27 0.0 0 1 736.43 642.72
  C 730.20 640.86 724.40 638.33 718.25 638.60
  Q 718.23 638.60 715.74 638.61
  Q 662.98 638.64 625.14 638.63
  A 1.23 1.20 67.6 0 1 624.27 638.26
  L 606.91 619.80
  A 0.99 0.98 27.2 0 1 606.65 619.00
  L 611.13 584.84
  Q 611.11 582.62 611.66 581.96
  Q 614.29 578.77 625.35 567.55
  A 3.19 3.14 -77.5 0 1 626.46 566.83
  Q 679.92 546.22 680.11 546.16
  Q 686.14 544.18 688.23 541.84
  C 693.64 535.75 692.04 523.40 688.84 516.90
  C 683.81 506.65 664.98 507.99 656.18 510.16
  C 650.68 511.51 649.56 514.89 647.03 518.99
  A 0.99 0.99 0.0 0 1 646.19 519.46
  L 617.09 519.46
  A 0.48 0.48 0.0 0 1 616.61 518.92
  L 619.05 498.46
  Q 625.65 489.86 634.60 481.48
  A 1.18 1.16 -66.2 0 1 635.40 481.16
  L 704.95 481.16
  A 0.95 0.92 67.8 0 1 705.63 481.46
  L 716.70 493.24
  Z"
/>
<path fill="#64513e" d="
  M 774.24 504.66
  L 763.25 570.51
  Q 731.58 575.02 699.98 571.73
  L 718.94 564.00
  A 2.08 2.06 -85.0 0 0 719.89 563.20
  L 726.29 553.16
  A 1.76 1.76 0.0 0 0 726.55 552.05
  L 720.88 498.28
  A 1.58 1.57 -69.2 0 0 720.47 497.36
  L 716.70 493.24
  Q 727.82 496.87 734.97 498.02
  Q 754.57 501.17 774.24 504.66
  Z"
/>
<path fill="#64513e" d="
  M 930.83 503.50
  L 928.73 518.95
  A 0.46 0.46 0.0 0 0 929.19 519.47
  L 958.26 519.47
  A 1.15 1.14 -73.1 0 0 959.21 518.96
  C 960.55 516.94 961.56 514.04 963.40 512.72
  Q 966.29 510.65 967.61 510.32
  Q 978.63 507.57 989.98 509.53
  Q 1000.25 511.31 1002.77 521.45
  C 1004.42 528.06 1004.96 537.02 1000.07 542.13
  Q 998.44 543.83 993.90 545.57
  Q 963.48 557.25 938.19 567.03
  A 2.67 2.59 12.2 0 0 937.37 567.54
  Q 929.13 575.17 923.13 584.09
  Q 906.10 586.44 887.88 587.21
  L 873.90 501.19
  C 893.13 504.77 911.33 504.93 930.83 503.50
  Z"
/>
<path fill="#64513e" d="
  M 1144.15 505.08
  C 1147.15 513.78 1148.57 521.93 1148.36 531.47
  Q 1148.05 545.51 1147.81 565.29
  Q 1147.75 571.00 1142.10 571.77
  Q 1124.74 574.15 1106.97 575.30
  A 0.17 0.17 0.0 0 1 1106.81 575.05
  Q 1115.49 557.88 1125.32 537.10
  Q 1129.77 527.70 1142.83 504.13
  L 1144.15 505.08
  Z"
/>
<path fill="#64513e" d="
  M 1097.12 529.03
  C 1091.04 541.48 1084.29 553.84 1076.12 565.04
  C 1054.09 564.87 1034.67 567.98 1011.95 571.87
  L 1031.04 564.09
  A 2.17 2.08 4.1 0 0 1032.04 563.26
  L 1038.54 553.05
  A 1.50 1.49 -32.0 0 0 1038.77 552.07
  L 1035.96 525.47
  Q 1041.75 525.66 1047.33 525.79
  Q 1070.16 526.29 1080.90 526.88
  Q 1087.04 527.22 1097.12 529.03
  Z"
/>
<path fill="#3c2e21" d="
  M 367.37 532.19
  Q 370.30 547.85 370.81 554.47
  Q 372.29 573.37 373.24 582.32
  Q 374.37 592.95 378.56 601.07
  C 382.12 607.96 387.85 612.50 395.13 618.57
  C 410.26 631.20 422.18 640.66 439.23 649.63
  C 467.88 664.72 497.46 679.09 527.75 691.01
  Q 532.68 692.95 545.02 696.53
  Q 565.49 702.47 581.97 703.98
  C 592.81 704.98 607.24 705.25 618.67 706.31
  C 636.50 707.95 644.08 708.92 654.25 709.05
  Q 674.34 709.31 724.73 709.26
  C 737.00 709.25 747.49 710.52 757.32 711.84
  C 768.88 713.39 777.67 712.51 794.26 711.67
  C 818.31 710.45 842.85 710.26 865.51 709.77
  C 883.30 709.39 897.55 709.99 914.88 711.31
  Q 926.61 712.20 939.07 710.63
  C 955.77 708.52 982.31 702.76 1002.92 703.23
  C 1020.40 703.62 1032.61 704.24 1045.79 703.67
  Q 1072.02 702.54 1103.77 701.67
  Q 1117.62 701.29 1138.67 698.46
  Q 1151.89 696.68 1202.16 688.01
  C 1218.87 685.13 1236.53 685.42 1252.38 684.71
  Q 1272.34 683.81 1290.95 678.70
  Q 1312.22 672.85 1328.89 667.81
  Q 1344.14 663.20 1368.31 652.79
  C 1383.68 646.17 1401.00 636.12 1416.74 628.16
  Q 1425.98 623.49 1432.80 621.63
  Q 1435.44 620.91 1436.16 622.80
  A 0.96 0.96 0.0 0 0 1437.51 623.30
  C 1444.35 619.59 1450.33 612.36 1455.33 606.47
  Q 1453.46 617.39 1452.05 620.51
  Q 1448.56 628.22 1446.56 635.21
  A 17.12 16.83 67.3 0 1 1445.31 638.34
  Q 1441.98 644.75 1439.76 650.24
  C 1438.23 654.03 1435.35 657.90 1433.55 661.44
  Q 1431.21 666.06 1429.24 668.99
  C 1426.73 672.72 1425.36 675.55 1422.81 678.60
  C 1419.71 682.31 1417.36 686.37 1413.93 690.36
  Q 1403.58 702.40 1395.11 710.60
  Q 1390.52 715.06 1382.59 721.34
  C 1381.24 722.42 1379.92 723.98 1378.35 725.10
  Q 1367.25 733.03 1362.95 735.94
  Q 1358.89 738.69 1342.59 747.36
  Q 1337.51 750.07 1334.49 751.06
  C 1330.67 752.32 1327.87 754.05 1323.55 755.63
  Q 1307.06 761.64 1298.97 763.45
  C 1290.25 765.40 1283.72 767.23 1276.30 768.13
  Q 1254.14 770.83 1240.50 770.87
  Q 1200.53 771.00 1068.90 770.89
  C 1066.29 770.88 1063.39 772.97 1061.20 775.14
  C 1054.37 781.92 1047.96 787.13 1041.09 793.44
  C 1032.44 801.39 1026.02 806.39 1017.20 814.95
  Q 1016.13 815.98 1013.69 817.68
  A 2.07 0.75 -45.2 0 0 1013.47 817.85
  L 1004.44 826.15
  A 0.58 0.58 0.0 0 0 1004.35 826.24
  Q 1001.57 829.50 998.06 831.98
  Q 984.60 819.57 969.44 808.98
  L 1009.90 772.44
  A 0.98 0.98 0.0 0 0 1009.10 770.75
  Q 1005.06 771.34 994.43 771.00
  Q 987.45 770.78 979.57 770.81
  Q 913.06 771.11 843.75 770.48
  Q 835.12 770.40 824.53 770.75
  A 0.93 0.93 0.0 0 0 823.93 772.37
  L 871.41 815.66
  A 1.57 1.35 10.1 0 0 871.58 815.79
  Q 875.02 817.95 877.79 820.98
  Q 868.96 820.76 860.27 820.75
  C 848.27 820.73 842.23 826.69 843.58 838.92
  C 841.60 837.44 839.89 835.31 838.06 834.11
  C 835.59 832.49 833.54 830.21 831.55 828.49
  Q 819.38 817.96 802.35 802.51
  Q 800.42 800.75 789.96 791.95
  C 784.08 787.00 778.26 780.98 773.43 777.08
  C 771.92 775.86 770.84 774.24 769.55 772.98
  A 4.26 4.13 76.4 0 0 768.03 772.02
  Q 764.38 770.71 760.50 770.72
  Q 677.45 770.75 578.50 770.84
  Q 571.47 770.84 564.06 769.71
  C 555.73 768.44 547.35 768.11 538.76 765.81
  C 534.19 764.59 529.39 764.25 524.84 762.71
  C 517.27 760.14 508.57 758.04 500.47 754.44
  Q 490.76 750.12 488.56 748.90
  C 482.09 745.29 477.13 743.41 471.43 740.01
  Q 442.43 722.69 419.73 697.44
  Q 417.28 694.72 408.49 683.81
  Q 405.29 679.85 404.00 677.64
  Q 402.81 675.62 401.01 673.49
  C 398.48 670.50 396.44 666.04 394.41 662.87
  Q 392.42 659.76 390.86 656.49
  Q 381.26 636.42 376.95 625.79
  C 374.74 620.31 373.54 613.30 371.63 607.07
  Q 368.25 596.06 367.23 582.50
  Q 365.27 556.22 367.37 532.19
  Z"
/>
<path fill="#4f3f2e" d="
  M 998.06 831.98
  L 917.96 903.34
  A 1.49 1.49 0.0 0 1 915.98 903.34
  Q 908.49 896.74 905.15 893.94
  Q 901.63 890.98 899.37 888.71
  C 897.06 886.39 894.28 884.60 891.32 881.88
  C 885.16 876.24 881.71 872.74 875.37 867.69
  C 869.54 863.04 864.99 858.37 858.64 852.80
  Q 850.95 846.05 843.58 838.92
  C 842.23 826.69 848.27 820.73 860.27 820.75
  Q 868.96 820.76 877.79 820.98
  Q 889.66 831.89 901.42 843.09
  Q 903.25 844.84 904.11 845.75
  C 907.38 849.19 911.68 852.09 914.61 854.79
  C 916.64 856.66 918.14 856.30 920.12 854.61
  Q 924.33 851.02 929.18 846.18
  Q 938.36 837.02 940.82 834.83
  C 947.63 828.79 952.84 823.77 959.20 818.23
  Q 964.43 813.66 969.44 808.98
  Q 984.60 819.57 998.06 831.98
  Z"
/>
</g>
<path fill="#64513e" d="
  M 805.51 599.28
  C 803.20 597.76 800.62 592.48 799.93 589.18
  Q 798.06 580.20 799.40 568.08
  C 801.32 550.65 802.85 536.79 807.49 522.31
  C 810.59 512.64 820.20 510.37 829.26 511.40
  C 841.47 512.80 844.64 523.81 846.10 534.13
  Q 848.44 550.62 850.28 567.50
  C 851.19 575.87 850.81 585.95 848.14 593.12
  C 845.75 599.53 840.89 602.93 834.07 604.48
  Q 818.70 607.96 805.51 599.28
  Z"
/>
</svg>
