<svg xmlns="http://www.w3.org/2000/svg" viewBox="0 0 1801 1126"><g fill="none" stroke-width="2"><path stroke="#745f49" d="M1315.48 358.92q-1.51 5.46-1.72 6.88c-.73 4.87-.88 12.68-2.17 18.13-2.67 11.31-8.12 22.95-17.17 30.39-6.16 5.07-13.56 7.89-22.29 10.87q-20.77 7.09-40.26 8.9c-29.21 2.72-55.27 6.72-82.6 8.03-20.65 1-34.38 2-51.25 2.51-39.13 1.18-63.46 2.06-95.42 4.09-18.69 1.19-35.73-.43-58.09-3.58q-31.37-4.42-43.37-5.34-24.31-1.86-33.55-2.76c-20.81-2.02-42.77-5.26-64.37-4.97q-51.37.66-74.47.72-31.35.08-62.27-3.79-26.3-3.29-41.92-6.17c-13.16-2.44-25.08-5.27-40.02-7.87-19.27-3.34-41.57-8.66-52.16-26.91q-2.16-3.72-7.82-14.43-3.12-5.91-11.29-15.43" vector-effect="non-scaling-stroke"/><path stroke="#6a5642" d="M1384.45 398.18q-7.22 15.35-16.6 29.34-10.94 16.31-20.59 25.99-11.62 11.66-26.89 19.26c-30.68 15.26-62.06 24.74-95.53 34.22q-21.52 6.1-42.89 3.29-24.5-3.22-32.45-4.11" vector-effect="non-scaling-stroke"/><path stroke="#a8967a" d="m1149.5 506.17-5.35-1.09" vector-effect="non-scaling-stroke"/><path stroke="#6a5642" d="m1144.15 505.08-1.32-.95" vector-effect="non-scaling-stroke"/><path stroke="#a8967a" d="m1142.83 504.13 10.19-8.37a.4.4 0 0 0-.06-.64l-37.84-21.85a.37.37 0 0 0-.56.28q-.55 4.97-.96 9.97-.34 4.14-2.05 9.75-5.66 18.49-14.43 35.76" vector-effect="non-scaling-stroke"/><path stroke="#6a5642" d="M1097.12 529.03q-10.08-1.81-16.22-2.15-10.74-.59-33.57-1.09-5.58-.13-11.37-.32" vector-effect="non-scaling-stroke"/><path stroke="#a8967a" d="m1035.96 525.47-2.83-26.87a1.88 1.83 21.6 0 0-.48-1.07l-14.64-16.05a1 1 0 0 0-.72-.32H947.8a1.9 1.88-67.8 0 0-1.36.58l-14.25 14.8a1.75 1.72-19.5 0 0-.46.94l-.9 6.02" vector-effect="non-scaling-stroke"/><path stroke="#6a5642" d="M930.83 503.5c-19.5 1.43-37.7 1.27-56.93-2.31" vector-effect="non-scaling-stroke"/><path stroke="#a8967a" d="m873.9 501.19-.79-4.45a1.33 1.32-74.6 0 0-.44-.78l-16.7-14.28a2.84 2.82-24.7 0 0-1.83-.67h-59.6a1.75 1.73-65 0 0-1.13.42l-17.48 15.19a1.45 1.44 74.5 0 0-.46.82l-1.23 7.22" vector-effect="non-scaling-stroke"/><path stroke="#6a5642" d="M774.24 504.66q-19.67-3.49-39.27-6.64-7.15-1.15-18.27-4.78" vector-effect="non-scaling-stroke"/><path stroke="#a8967a" d="m716.7 493.24-11.07-11.78a.95.92 67.8 0 0-.68-.3H635.4a1.18 1.16-66.2 0 0-.8.32q-8.95 8.38-15.55 16.98" vector-effect="non-scaling-stroke"/><path stroke="#6a5642" d="M619.05 498.46q1.93-6.54-5.09-9.13-4.73-1.74-6.59-2.09c-23.53-4.36-42.5-7.51-62.69-15.21q-15.12-5.77-35.36-18.3c-13.9-8.59-26.62-16.99-32.87-32.61q-2.63-6.58-7.69-21.22-1.37-3.94-7.05-15.67" vector-effect="non-scaling-stroke"/><path stroke="#a29276" d="m619.05 498.46-2.44 20.46a.5.5 0 0 0 .48.54h29.1a1 1 0 0 0 .84-.47c2.53-4.1 3.65-7.48 9.15-8.83 8.8-2.17 27.63-3.51 32.66 6.74 3.2 6.5 4.8 18.85-.61 24.94q-2.09 2.34-8.12 4.32-.19.06-53.65 20.67a3.19 3.14-77.5 0 0-1.11.72q-11.06 11.22-13.69 14.41-.55.66-.53 2.88" vector-effect="non-scaling-stroke"/><path stroke="#5a4836" d="M611.13 584.84c-19.14-7.26-37.56-8.11-57.1-8.12-23.51-.02-44.02-6.54-63.62-19.4-23.1-15.15-49.15-32.55-72.3-51.6q-7.19-5.92-13.3-12.74c-11.08-12.37-10.82-26.09-7.87-41.81" vector-effect="non-scaling-stroke"/><path stroke="#a29276" d="M1142.83 504.13q-13.06 23.57-17.51 32.97-9.83 20.78-18.51 37.95a.17.17 0 0 0 .16.25q17.77-1.15 35.13-3.53 5.65-.77 5.71-6.48.24-19.78.55-33.82a73 73 0 0 0-4.21-26.39m-68.03 59.96c8.17-11.2 14.92-23.56 21-36.01m-61.16-3.56 2.81 26.6a1.5 1.49-32 0 1-.23.98l-6.5 10.21a2.17 2.08 4.1 0 1-1 .83l-19.09 7.78m-88.82 12.22q6-8.92 14.24-16.55a2.67 2.59 12.2 0 1 .82-.51q25.29-9.78 55.71-21.46 4.54-1.74 6.17-3.44c4.89-5.11 4.35-14.07 2.7-20.68q-2.52-10.14-12.79-11.92-11.35-1.96-22.37.79-1.32.33-4.21 2.4c-1.84 1.32-2.85 4.22-4.19 6.24a1.15 1.14-73.1 0 1-.95.51h-29.07a.46.46 0 0 1-.46-.52l2.1-15.45M716.7 493.24l3.77 4.12a1.58 1.57-69.2 0 1 .41.92l5.67 53.77a2 2 0 0 1-.26 1.11l-6.4 10.04a2.08 2.06-85 0 1-.95.8l-18.96 7.73" vector-effect="non-scaling-stroke"/><path stroke="#5a4836" d="M1413.21 426.88c-8.03 18.73-17.05 36.82-28.74 53.9-10.4 15.2-21.96 26.56-37.43 34.78q-17.63 9.37-36.68 17.72c-17.18 7.53-36.43 11.59-52.48 16.57-25.94 8.04-50.9 16.25-77.9 13.17" vector-effect="non-scaling-stroke"/><path stroke="#a29276" d="M1179.98 563.02q-.8-15.1-1.39-30.27-.25-6.44.7-9.46 1.43-4.53 4.18-8.5a.42.42 0 0 0-.25-.65l-33.72-7.97m-275.6-4.98 13.98 86.02m-124.63-16.7 10.99-65.85" vector-effect="non-scaling-stroke"/><path stroke="#463728" d="M1455.33 606.47c-5 5.89-10.98 13.12-17.82 16.83a.96.96 0 0 1-1.35-.5q-.72-1.89-3.36-1.17-6.82 1.86-16.06 6.53c-15.74 7.96-33.06 18.01-48.43 24.63q-24.17 10.41-39.42 15.02-16.67 5.04-37.94 10.89-18.61 5.11-38.57 6.01c-15.85.71-33.51.42-50.22 3.3q-50.27 8.67-63.49 10.45-21.05 2.83-34.9 3.21-31.75.87-57.98 2c-13.18.57-25.39-.05-42.87-.44-20.61-.47-47.15 5.29-63.85 7.4q-12.46 1.57-24.19.68c-17.33-1.32-31.58-1.92-49.37-1.54-22.66.49-47.2.68-71.25 1.9-16.59.84-25.38 1.72-36.94.17-9.83-1.32-20.32-2.59-32.59-2.58q-50.39.05-70.48-.21c-10.17-.13-17.75-1.1-35.58-2.74-11.43-1.06-25.86-1.33-36.7-2.33q-16.48-1.51-36.95-7.45-12.34-3.58-17.27-5.52c-30.29-11.92-59.87-26.29-88.52-41.38-17.05-8.97-28.97-18.43-44.1-31.06-7.28-6.07-13.01-10.61-16.57-17.5q-4.19-8.12-5.32-18.75-.95-8.95-2.43-27.85-.51-6.62-3.44-22.28" vector-effect="non-scaling-stroke"/><path stroke="#98896e" d="M611.13 584.84 606.65 619a.99.98 27.2 0 0 .26.8l17.36 18.46a1.23 1.2 67.6 0 0 .87.37q37.84.01 90.6-.02l2.51-.01c6.15-.27 11.95 2.26 18.18 4.12a.27.27 0 0 0 .34-.3l-6.91-42.23a.4.4 0 0 0-.6-.28l-10.63 6.56a3.48 3.46 25.7 0 1-1.41.49q-20.31 2.2-30.97 2.2-4.73 0-20.74.18c-7.54.09-16.65-.32-22.33-5.29a2 2 0 0 1-.63-1.12q-.69-4.14 1.17-7.57a1.93 1.88 2.5 0 1 .95-.85l55.31-22.78" vector-effect="non-scaling-stroke"/><path stroke="#5a4836" d="M699.98 571.73q31.6 3.29 63.27-1.22" vector-effect="non-scaling-stroke"/><path stroke="#98896e" d="m763.25 570.51-8.02 48.05a.59.57 26.4 0 0 .19.54l20.78 18.95a1.09 1.08-23.8 0 0 .73.28h93.78a1.46 1.43 23.5 0 0 .97-.37l20.93-19.09a1 1 0 0 0 .3-.86l-5.03-30.8" vector-effect="non-scaling-stroke"/><path stroke="#5a4836" d="M887.88 587.21q18.22-.77 35.25-3.12" vector-effect="non-scaling-stroke"/><path stroke="#98896e" d="m923.13 584.09-4.3 34.89a1.14 1.13-63.4 0 0 .29.9l17.33 18.35a1.33 1.3 67.4 0 0 .94.4h96.88a5.48 5.4-36 0 1 1.6.24l12.81 3.87a.23.22 3.4 0 0 .29-.25l-6.89-42.09a.56.55-20.5 0 0-.84-.38l-10.53 6.52a2.31 2.17-62.8 0 1-.92.33q-16.99 2.1-31.78 2.28-12.68.15-24.25.14-9.38-.02-16.72-3.79c-3.51-1.81-2.73-6.28-1.57-9.33q.57-1.5 2.98-2.48 26.76-10.96 53.5-21.82" vector-effect="non-scaling-stroke"/><path stroke="#5a4836" d="M1011.95 571.87c22.72-3.89 42.14-7 64.17-6.83" vector-effect="non-scaling-stroke"/><path stroke="#98896e" d="m1076.12 565.04-12.11 14.38a1.22 1.2 52 0 0-.15 1.31l17.64 34.75a.34.33 65.9 0 0 .42.17q18.18-6.72 38.39-9.47 11.8-1.61 19.01-2.29c4-.38 8.08 1.1 7.65 5.85-.96 10.5-1.69 22.04-6.58 31.1a.3.3 0 0 0 .27.45h45.88a.38.38 0 0 0 .35-.53q-1.58-3.88-3.71-10.39-1.42-4.38-1.55-10.81-.06-2.96-.49-13.38a1.8 1.79-6.7 0 1 1.46-1.84q2.99-.56 7.32.76 3.71 1.13 19.01 5.92a.45.45 0 0 0 .57-.54l-10.2-44.16a.76.76 0 0 0-1.25-.39l-7.34 6.69a1.2 1.2 0 0 1-1.15.26l-7.34-2.22a1.99 1.97 4.7 0 1-1.4-1.63l-.84-6.01" vector-effect="non-scaling-stroke"/><path stroke="#463728" d="M998.06 831.98q-13.46-12.41-28.62-23m-91.65 12q-8.83-.22-17.52-.23c-12-.02-18.04 5.94-16.69 18.17" vector-effect="non-scaling-stroke"/><path stroke="#a29276" d="M805.51 599.28q13.19 8.68 28.56 5.2c6.82-1.55 11.68-4.95 14.07-11.36 2.67-7.17 3.05-17.25 2.14-25.62q-1.84-16.88-4.18-33.37c-1.46-10.32-4.63-21.33-16.84-22.73-9.06-1.03-18.67 1.24-21.77 10.91-4.64 14.48-6.17 28.34-8.09 45.77q-1.34 12.12.53 21.1c.69 3.3 3.27 8.58 5.58 10.1" vector-effect="non-scaling-stroke"/></g><path fill="#78634c" d="M1315.48 358.92q-1.51 5.46-1.72 6.88c-.73 4.87-.88 12.68-2.17 18.13-2.67 11.31-8.12 22.95-17.17 30.39-6.16 5.07-13.56 7.89-22.29 10.87q-20.77 7.09-40.26 8.9c-29.21 2.72-55.27 6.72-82.6 8.03-20.65 1-34.38 2-51.25 2.51-39.13 1.18-63.46 2.06-95.42 4.09-18.69 1.19-35.73-.43-58.09-3.58q-31.37-4.42-43.37-5.34-24.31-1.86-33.55-2.76c-20.81-2.02-42.77-5.26-64.37-4.97q-51.37.66-74.47.72-31.35.08-62.27-3.79-26.3-3.29-41.92-6.17c-13.16-2.44-25.08-5.27-40.02-7.87-19.27-3.34-41.57-8.66-52.16-26.91q-2.16-3.72-7.82-14.43-3.12-5.91-11.29-15.43 9.28-3.51 12.8-4.35c6.12-1.47 13.58-3.52 19.76-4.7q19.82-3.78 41.92-3.8c206.14-.2 421.83.09 629.25-.33q9.36-.02 28.06.41 15.6.36 27.93 2.48c15.26 2.63 28.95 5.78 42.49 11.02"/><path fill="#6f5a45" d="M513.27 358.19q8.17 9.52 11.29 15.43 5.66 10.71 7.82 14.43c10.59 18.25 32.89 23.57 52.16 26.91 14.94 2.6 26.86 5.43 40.02 7.87q15.62 2.88 41.92 6.17 30.92 3.87 62.27 3.79 23.1-.06 74.47-.72c21.6-.29 43.56 2.95 64.37 4.97q9.24.9 33.55 2.76 12 .92 43.37 5.34c22.36 3.15 39.4 4.77 58.09 3.58 31.96-2.03 56.29-2.91 95.42-4.09 16.87-.51 30.6-1.51 51.25-2.51 27.33-1.31 53.39-5.31 82.6-8.03q19.49-1.81 40.26-8.9c8.73-2.98 16.13-5.8 22.29-10.87 9.05-7.44 14.5-19.08 17.17-30.39 1.29-5.45 1.44-13.26 2.17-18.13q.21-1.42 1.72-6.88 17.43 6.37 23.25 9.59c6.27 3.46 12.7 6.65 18.65 10.51 9.41 6.11 18.58 11.81 27.07 19.16q-7.22 15.35-16.6 29.34-10.94 16.31-20.59 25.99-11.62 11.66-26.89 19.26c-30.68 15.26-62.06 24.74-95.53 34.22q-21.52 6.1-42.89 3.29-24.5-3.22-32.45-4.11l-5.35-1.09-1.32-.95 10.19-8.37a.4.4 0 0 0-.06-.64l-37.84-21.85a.37.37 0 0 0-.56.28q-.55 4.97-.96 9.97-.34 4.14-2.05 9.75-5.66 18.49-14.43 35.76-10.08-1.81-16.22-2.15-10.74-.59-33.57-1.09-5.58-.13-11.37-.32l-2.83-26.87a1.88 1.83 21.6 0 0-.48-1.07l-14.64-16.05a1 1 0 0 0-.72-.32H947.8a1.9 1.88-67.8 0 0-1.36.58l-14.25 14.8a1.75 1.72-19.5 0 0-.46.94l-.9 6.02c-19.5 1.43-37.7 1.27-56.93-2.31l-.79-4.45a1.33 1.32-74.6 0 0-.44-.78l-16.7-14.28a2.84 2.82-24.7 0 0-1.83-.67h-59.6a1.75 1.73-65 0 0-1.13.42l-17.48 15.19a1.45 1.44 74.5 0 0-.46.82l-1.23 7.22q-19.67-3.49-39.27-6.64-7.15-1.15-18.27-4.78l-11.07-11.78a.95.92 67.8 0 0-.68-.3H635.4a1.18 1.16-66.2 0 0-.8.32q-8.95 8.38-15.55 16.98 1.93-6.54-5.09-9.13-4.73-1.74-6.59-2.09c-23.53-4.36-42.5-7.51-62.69-15.21q-15.12-5.77-35.36-18.3c-13.9-8.59-26.62-16.99-32.87-32.61q-2.63-6.58-7.69-21.22-1.37-3.94-7.05-15.67c5.95-3.57 11.85-7.79 17.56-11.02q4.62-2.61 9.25-5.2 5.12-2.86 24.75-9.82"/><path fill="#64513e" d="M461.71 384.23q5.68 11.73 7.05 15.67 5.06 14.64 7.69 21.22c6.25 15.62 18.97 24.02 32.87 32.61q20.24 12.53 35.36 18.3c20.19 7.7 39.16 10.85 62.69 15.21q1.86.35 6.59 2.09 7.02 2.59 5.09 9.13l-2.44 20.46a.5.5 0 0 0 .48.54h29.1a1 1 0 0 0 .84-.47c2.53-4.1 3.65-7.48 9.15-8.83 8.8-2.17 27.63-3.51 32.66 6.74 3.2 6.5 4.8 18.85-.61 24.94q-2.09 2.34-8.12 4.32-.19.06-53.65 20.67a3.19 3.14-77.5 0 0-1.11.72q-11.06 11.22-13.69 14.41-.55.66-.53 2.88c-19.14-7.26-37.56-8.11-57.1-8.12-23.51-.02-44.02-6.54-63.62-19.4-23.1-15.15-49.15-32.55-72.3-51.6q-7.19-5.92-13.3-12.74c-11.08-12.37-10.82-26.09-7.87-41.81q5.8-9.46 9.1-13.89c3.58-4.8 11.56-14.83 17.61-20.7 3.62-3.51 7.53-8.01 11.39-11.5q12.56-11.37 26.67-20.85m951.5 42.65c-8.03 18.73-17.05 36.82-28.74 53.9-10.4 15.2-21.96 26.56-37.43 34.78q-17.63 9.37-36.68 17.72c-17.18 7.53-36.43 11.59-52.48 16.57-25.94 8.04-50.9 16.25-77.9 13.17q-.8-15.1-1.39-30.27-.25-6.44.7-9.46 1.43-4.53 4.18-8.5a.42.42 0 0 0-.25-.65l-33.72-7.97q7.95.89 32.45 4.11 21.37 2.81 42.89-3.29c33.47-9.48 64.85-18.96 95.53-34.22q15.27-7.6 26.89-19.26 9.65-9.68 20.59-25.99 9.38-13.99 16.6-29.34 4.45 3.31 8.35 7.03 10.85 10.36 20.41 21.67"/><path fill="#4f3f2e" d="M1413.21 426.88q1.9 2.16 3.57 4.3 7.66 9.82 12.79 17.64 2.99 4.57 4.67 7.91c2.03 4.03 4.22 6.68 5.84 10.73q1.95 4.91 5.13 10.89a23.9 23.59-67.5 0 1 1.81 4.45c2.09 7.16 5.67 14.1 7.29 22.2 2.78 13.87 5.74 26.01 6.34 38.97q1 21.79-.38 35.53-1.02 10.12-4.94 26.97c-5 5.89-10.98 13.12-17.82 16.83a.96.96 0 0 1-1.35-.5q-.72-1.89-3.36-1.17-6.82 1.86-16.06 6.53c-15.74 7.96-33.06 18.01-48.43 24.63q-24.17 10.41-39.42 15.02-16.67 5.04-37.94 10.89-18.61 5.11-38.57 6.01c-15.85.71-33.51.42-50.22 3.3q-50.27 8.67-63.49 10.45-21.05 2.83-34.9 3.21-31.75.87-57.98 2c-13.18.57-25.39-.05-42.87-.44-20.61-.47-47.15 5.29-63.85 7.4q-12.46 1.57-24.19.68c-17.33-1.32-31.58-1.92-49.37-1.54-22.66.49-47.2.68-71.25 1.9-16.59.84-25.38 1.72-36.94.17-9.83-1.32-20.32-2.59-32.59-2.58q-50.39.05-70.48-.21c-10.17-.13-17.75-1.1-35.58-2.74-11.43-1.06-25.86-1.33-36.7-2.33q-16.48-1.51-36.95-7.45-12.34-3.58-17.27-5.52c-30.29-11.92-59.87-26.29-88.52-41.38-17.05-8.97-28.97-18.43-44.1-31.06-7.28-6.07-13.01-10.61-16.57-17.5q-4.19-8.12-5.32-18.75-.95-8.95-2.43-27.85-.51-6.62-3.44-22.28.68-10.48 3.76-20.5 2.24-7.29 2.42-8.09c.84-3.68 1.64-7.19 3.14-10.79q5.26-12.53 10.62-24.98 2.6-6.04 9.63-16.66c-2.95 15.72-3.21 29.44 7.87 41.81q6.11 6.82 13.3 12.74c23.15 19.05 49.2 36.45 72.3 51.6 19.6 12.86 40.11 19.38 63.62 19.4 19.54.01 37.96.86 57.1 8.12L606.65 619a.99.98 27.2 0 0 .26.8l17.36 18.46a1.23 1.2 67.6 0 0 .87.37q37.84.01 90.6-.02l2.51-.01c6.15-.27 11.95 2.26 18.18 4.12a.27.27 0 0 0 .34-.3l-6.91-42.23a.4.4 0 0 0-.6-.28l-10.63 6.56a3.48 3.46 25.7 0 1-1.41.49q-20.31 2.2-30.97 2.2-4.73 0-20.74.18c-7.54.09-16.65-.32-22.33-5.29a2 2 0 0 1-.63-1.12q-.69-4.14 1.17-7.57a1.93 1.88 2.5 0 1 .95-.85l55.31-22.78q31.6 3.29 63.27-1.22l-8.02 48.05a.59.57 26.4 0 0 .19.54l20.78 18.95a1.09 1.08-23.8 0 0 .73.28h93.78a1.46 1.43 23.5 0 0 .97-.37l20.93-19.09a1 1 0 0 0 .3-.86l-5.03-30.8q18.22-.77 35.25-3.12l-4.3 34.89a1.14 1.13-63.4 0 0 .29.9l17.33 18.35a1.33 1.3 67.4 0 0 .94.4h96.88a5.48 5.4-36 0 1 1.6.24l12.81 3.87a.23.22 3.4 0 0 .29-.25l-6.89-42.09a.56.55-20.5 0 0-.84-.38l-10.53 6.52a2.31 2.17-62.8 0 1-.92.33q-16.99 2.1-31.78 2.28-12.68.15-24.25.14-9.38-.02-16.72-3.79c-3.51-1.81-2.73-6.28-1.57-9.33q.57-1.5 2.98-2.48 26.76-10.96 53.5-21.82c22.72-3.89 42.14-7 64.17-6.83l-12.11 14.38a1.22 1.2 52 0 0-.15 1.31l17.64 34.75a.34.33 65.9 0 0 .42.17q18.18-6.72 38.39-9.47 11.8-1.61 19.01-2.29c4-.38 8.08 1.1 7.65 5.85-.96 10.5-1.69 22.04-6.58 31.1a.3.3 0 0 0 .27.45h45.88a.38.38 0 0 0 .35-.53q-1.58-3.88-3.71-10.39-1.42-4.38-1.55-10.81-.06-2.96-.49-13.38a1.8 1.79-6.7 0 1 1.46-1.84q2.99-.56 7.32.76 3.71 1.13 19.01 5.92a.45.45 0 0 0 .57-.54l-10.2-44.16a.76.76 0 0 0-1.25-.39l-7.34 6.69a1.2 1.2 0 0 1-1.15.26l-7.34-2.22a1.99 1.97 4.7 0 1-1.4-1.63l-.84-6.01c27 3.08 51.96-5.13 77.9-13.17 16.05-4.98 35.3-9.04 52.48-16.57q19.05-8.35 36.68-17.72c15.47-8.22 27.03-19.58 37.43-34.78 11.69-17.08 20.71-35.17 28.74-53.9"/><path fill="#e0d2ae" d="M1142.83 504.13q-13.06 23.57-17.51 32.97-9.83 20.78-18.51 37.95a.17.17 0 0 0 .16.25q17.77-1.15 35.13-3.53 5.65-.77 5.71-6.48.24-19.78.55-33.82a73 73 0 0 0-4.21-26.39l5.35 1.09 33.72 7.97a.42.42 0 0 1 .25.65q-2.75 3.97-4.18 8.5-.95 3.02-.7 9.46.59 15.17 1.39 30.27l.84 6.01a1.99 1.97 4.7 0 0 1.4 1.63l7.34 2.22a1.2 1.2 0 0 0 1.15-.26l7.34-6.69a.76.76 0 0 1 1.25.39l10.2 44.16a.45.45 0 0 1-.57.54q-15.3-4.79-19.01-5.92-4.33-1.32-7.32-.76a1.8 1.79-6.7 0 0-1.46 1.84q.43 10.42.49 13.38.13 6.43 1.55 10.81 2.13 6.51 3.71 10.39a.38.38 0 0 1-.35.53h-45.88a.3.3 0 0 1-.27-.45c4.89-9.06 5.62-20.6 6.58-31.1.43-4.75-3.65-6.23-7.65-5.85q-7.21.68-19.01 2.29-20.21 2.75-38.39 9.47a.34.33 65.9 0 1-.42-.17l-17.64-34.75a1.22 1.2 52 0 1 .15-1.31l12.11-14.38c8.17-11.2 14.92-23.56 21-36.01q8.77-17.27 14.43-35.76 1.71-5.61 2.05-9.75.41-5 .96-9.97a.37.37 0 0 1 .56-.28l37.84 21.85a.4.4 0 0 1 .06.64zm-268.93-2.94 13.98 86.02 5.03 30.8a1 1 0 0 1-.3.86l-20.93 19.09a1.46 1.43 23.5 0 1-.97.37h-93.78a1.09 1.08-23.8 0 1-.73-.28l-20.78-18.95a.59.57 26.4 0 1-.19-.54l8.02-48.05 10.99-65.85 1.23-7.22a1.45 1.44 74.5 0 1 .46-.82l17.48-15.19a1.75 1.73-65 0 1 1.13-.42h59.6a2.84 2.82-24.7 0 1 1.83.67l16.7 14.28a1.33 1.32-74.6 0 1 .44.78zm-68.39 98.09q13.19 8.68 28.56 5.2c6.82-1.55 11.68-4.95 14.07-11.36 2.67-7.17 3.05-17.25 2.14-25.62q-1.84-16.88-4.18-33.37c-1.46-10.32-4.63-21.33-16.84-22.73-9.06-1.03-18.67 1.24-21.77 10.91-4.64 14.48-6.17 28.34-8.09 45.77q-1.34 12.12.53 21.1c.69 3.3 3.27 8.58 5.58 10.1m230.45-73.81 2.81 26.6a1.5 1.49-32 0 1-.23.98l-6.5 10.21a2.17 2.08 4.1 0 1-1 .83l-19.09 7.78q-26.74 10.86-53.5 21.82-2.41.98-2.98 2.48c-1.16 3.05-1.94 7.52 1.57 9.33q7.34 3.77 16.72 3.79 11.57.01 24.25-.14 14.79-.18 31.78-2.28a2.31 2.17-62.8 0 0 .92-.33l10.53-6.52a.56.55-20.5 0 1 .84.38l6.89 42.09a.23.22 3.4 0 1-.29.25l-12.81-3.87a5.48 5.4-36 0 0-1.6-.24h-96.88a1.33 1.3 67.4 0 1-.94-.4l-17.33-18.35a1.14 1.13-63.4 0 1-.29-.9l4.3-34.89q6-8.92 14.24-16.55a2.67 2.59 12.2 0 1 .82-.51q25.29-9.78 55.71-21.46 4.54-1.74 6.17-3.44c4.89-5.11 4.35-14.07 2.7-20.68q-2.52-10.14-12.79-11.92-11.35-1.96-22.37.79-1.32.33-4.21 2.4c-1.84 1.32-2.85 4.22-4.19 6.24a1.15 1.14-73.1 0 1-.95.51h-29.07a.46.46 0 0 1-.46-.52l2.1-15.45.9-6.02a1.75 1.72-19.5 0 1 .46-.94l14.25-14.8a1.9 1.88-67.8 0 1 1.36-.58h69.49a1 1 0 0 1 .72.32l14.64 16.05a1.88 1.83 21.6 0 1 .48 1.07zM716.7 493.24l3.77 4.12a1.58 1.57-69.2 0 1 .41.92l5.67 53.77a2 2 0 0 1-.26 1.11l-6.4 10.04a2.08 2.06-85 0 1-.95.8l-18.96 7.73-55.31 22.78a1.93 1.88 2.5 0 0-.95.85q-1.86 3.43-1.17 7.57a2 2 0 0 0 .63 1.12c5.68 4.97 14.79 5.38 22.33 5.29q16.01-.18 20.74-.18 10.66 0 30.97-2.2a3.48 3.46 25.7 0 0 1.41-.49l10.63-6.56a.4.4 0 0 1 .6.28l6.91 42.23a.27.27 0 0 1-.34.3c-6.23-1.86-12.03-4.39-18.18-4.12l-2.51.01q-52.76.03-90.6.02a1.23 1.2 67.6 0 1-.87-.37l-17.36-18.46a.99.98 27.2 0 1-.26-.8l4.48-34.16q-.02-2.22.53-2.88 2.63-3.19 13.69-14.41a3.19 3.14-77.5 0 1 1.11-.72q53.46-20.61 53.65-20.67 6.03-1.98 8.12-4.32c5.41-6.09 3.81-18.44.61-24.94-5.03-10.25-23.86-8.91-32.66-6.74-5.5 1.35-6.62 4.73-9.15 8.83a1 1 0 0 1-.84.47h-29.1a.5.5 0 0 1-.48-.54l2.44-20.46q6.6-8.6 15.55-16.98a1.18 1.16-66.2 0 1 .8-.32h69.55a.95.92 67.8 0 1 .68.3z"/><path fill="#64513e" d="m774.24 504.66-10.99 65.85q-31.67 4.51-63.27 1.22l18.96-7.73a2.08 2.06-85 0 0 .95-.8l6.4-10.04a2 2 0 0 0 .26-1.11l-5.67-53.77a1.58 1.57-69.2 0 0-.41-.92l-3.77-4.12q11.12 3.63 18.27 4.78 19.6 3.15 39.27 6.64m156.59-1.16-2.1 15.45a.46.46 0 0 0 .46.52h29.07a1.15 1.14-73.1 0 0 .95-.51c1.34-2.02 2.35-4.92 4.19-6.24q2.89-2.07 4.21-2.4 11.02-2.75 22.37-.79 10.27 1.78 12.79 11.92c1.65 6.61 2.19 15.57-2.7 20.68q-1.63 1.7-6.17 3.44-30.42 11.68-55.71 21.46a2.67 2.59 12.2 0 0-.82.51q-8.24 7.63-14.24 16.55-17.03 2.35-35.25 3.12l-13.98-86.02c19.23 3.58 37.43 3.74 56.93 2.31m213.32 1.58a73 73 0 0 1 4.21 26.39q-.31 14.04-.55 33.82-.06 5.71-5.71 6.48-17.36 2.38-35.13 3.53a.17.17 0 0 1-.16-.25q8.68-17.17 18.51-37.95 4.45-9.4 17.51-32.97zm-47.03 23.95c-6.08 12.45-12.83 24.81-21 36.01-22.03-.17-41.45 2.94-64.17 6.83l19.09-7.78a2.17 2.08 4.1 0 0 1-.83l6.5-10.21a1.5 1.49-32 0 0 .23-.98l-2.81-26.6q5.79.19 11.37.32 22.83.5 33.57 1.09 6.14.34 16.22 2.15"/><path fill="#3c2e21" d="M367.37 532.19q2.93 15.66 3.44 22.28 1.48 18.9 2.43 27.85 1.13 10.63 5.32 18.75c3.56 6.89 9.29 11.43 16.57 17.5 15.13 12.63 27.05 22.09 44.1 31.06 28.65 15.09 58.23 29.46 88.52 41.38q4.93 1.94 17.27 5.52 20.47 5.94 36.95 7.45c10.84 1 25.27 1.27 36.7 2.33 17.83 1.64 25.41 2.61 35.58 2.74q20.09.26 70.48.21c12.27-.01 22.76 1.26 32.59 2.58 11.56 1.55 20.35.67 36.94-.17 24.05-1.22 48.59-1.41 71.25-1.9 17.79-.38 32.04.22 49.37 1.54q11.73.89 24.19-.68c16.7-2.11 43.24-7.87 63.85-7.4 17.48.39 29.69 1.01 42.87.44q26.23-1.13 57.98-2 13.85-.38 34.9-3.21 13.22-1.78 63.49-10.45c16.71-2.88 34.37-2.59 50.22-3.3q19.96-.9 38.57-6.01 21.27-5.85 37.94-10.89 15.25-4.61 39.42-15.02c15.37-6.62 32.69-16.67 48.43-24.63q9.24-4.67 16.06-6.53 2.64-.72 3.36 1.17a.96.96 0 0 0 1.35.5c6.84-3.71 12.82-10.94 17.82-16.83q-1.87 10.92-3.28 14.04-3.49 7.71-5.49 14.7a17.12 16.83 67.3 0 1-1.25 3.13q-3.33 6.41-5.55 11.9c-1.53 3.79-4.41 7.66-6.21 11.2q-2.34 4.62-4.31 7.55c-2.51 3.73-3.88 6.56-6.43 9.61-3.1 3.71-5.45 7.77-8.88 11.76q-10.35 12.04-18.82 20.24-4.59 4.46-12.52 10.74c-1.35 1.08-2.67 2.64-4.24 3.76q-11.1 7.93-15.4 10.84-4.06 2.75-20.36 11.42-5.08 2.71-8.1 3.7c-3.82 1.26-6.62 2.99-10.94 4.57q-16.49 6.01-24.58 7.82c-8.72 1.95-15.25 3.78-22.67 4.68q-22.16 2.7-35.8 2.74-39.97.13-171.6.02c-2.61-.01-5.51 2.08-7.7 4.25-6.83 6.78-13.24 11.99-20.11 18.3-8.65 7.95-15.07 12.95-23.89 21.51q-1.07 1.03-3.51 2.73a2.07.75-45.2 0 0-.22.17l-9.03 8.3-.09.09q-2.78 3.26-6.29 5.74-13.46-12.41-28.62-23l40.46-36.54a.98.98 0 0 0-.8-1.69q-4.04.59-14.67.25-6.98-.22-14.86-.19-66.51.3-135.82-.33-8.63-.08-19.22.27a.93.93 0 0 0-.6 1.62l47.48 43.29a1.57 1.35 10.1 0 0 .17.13q3.44 2.16 6.21 5.19-8.83-.22-17.52-.23c-12-.02-18.04 5.94-16.69 18.17-1.98-1.48-3.69-3.61-5.52-4.81-2.47-1.62-4.52-3.9-6.51-5.62q-12.17-10.53-29.2-25.98-1.93-1.76-12.39-10.56c-5.88-4.95-11.7-10.97-16.53-14.87-1.51-1.22-2.59-2.84-3.88-4.1a4.26 4.13 76.4 0 0-1.52-.96q-3.65-1.31-7.53-1.3-83.05.03-182 .12-7.03 0-14.44-1.13c-8.33-1.27-16.71-1.6-25.3-3.9-4.57-1.22-9.37-1.56-13.92-3.1-7.57-2.57-16.27-4.67-24.37-8.27q-9.71-4.32-11.91-5.54c-6.47-3.61-11.43-5.49-17.13-8.89q-29-17.32-51.7-42.57-2.45-2.72-11.24-13.63-3.2-3.96-4.49-6.17-1.19-2.02-2.99-4.15c-2.53-2.99-4.57-7.45-6.6-10.62q-1.99-3.11-3.55-6.38-9.6-20.07-13.91-30.7c-2.21-5.48-3.41-12.49-5.32-18.72q-3.38-11.01-4.4-24.57-1.96-26.28.14-50.31"/><path fill="#4f3f2e" d="m998.06 831.98-80.1 71.36a1.5 1.5 0 0 1-1.98 0q-7.49-6.6-10.83-9.4-3.52-2.96-5.78-5.23c-2.31-2.32-5.09-4.11-8.05-6.83-6.16-5.64-9.61-9.14-15.95-14.19-5.83-4.65-10.38-9.32-16.73-14.89q-7.69-6.75-15.06-13.88c-1.35-12.23 4.69-18.19 16.69-18.17q8.69.01 17.52.23 11.87 10.91 23.63 22.11 1.83 1.75 2.69 2.66c3.27 3.44 7.57 6.34 10.5 9.04 2.03 1.87 3.53 1.51 5.51-.18q4.21-3.59 9.06-8.43 9.18-9.16 11.64-11.35c6.81-6.04 12.02-11.06 18.38-16.6q5.23-4.57 10.24-9.25 15.16 10.59 28.62 23"/><path fill="#64513e" d="M805.51 599.28c-2.31-1.52-4.89-6.8-5.58-10.1q-1.87-8.98-.53-21.1c1.92-17.43 3.45-31.29 8.09-45.77 3.1-9.67 12.71-11.94 21.77-10.91 12.21 1.4 15.38 12.41 16.84 22.73q2.34 16.49 4.18 33.37c.91 8.37.53 18.45-2.14 25.62-2.39 6.41-7.25 9.81-14.07 11.36q-15.37 3.48-28.56-5.2"/></svg>