<?xml version="1.0" encoding="UTF-8" standalone="no"?>
<!DOCTYPE svg PUBLIC "-//W3C//DTD SVG 1.1//EN" "http://www.w3.org/Graphics/SVG/1.1/DTD/svg11.dtd">
<svg xmlns="http://www.w3.org/2000/svg" version="1.1" viewBox="0.00 0.00 1801.00 1126.00">
<g stroke-width="2.00" fill="none" stroke-linecap="butt">
<path stroke="#745f49" vector-effect="non-scaling-stroke" d="
  M 1315.54 358.95
  Q 1307.48 369.54 1304.03 382.23
  Q 1301.45 391.67 1298.72 398.66
  Q 1294.53 409.36 1283.21 414.89
  Q 1263.81 424.39 1242.09 429.87
  C 1232.46 432.30 1220.90 433.45 1210.69 434.50
  C 1178.00 437.84 1145.09 439.18 1111.14 441.03
  Q 1106.09 441.31 1095.32 442.43
  C 1079.99 444.02 1070.90 445.08 1055.76 445.85
  Q 1036.54 446.84 1017.00 448.63
  C 1008.32 449.43 997.94 449.75 990.90 449.62
  Q 967.42 449.20 943.50 448.98
  C 935.64 448.91 925.96 448.43 920.05 447.29
  Q 897.13 442.83 892.56 442.31
  Q 871.48 439.90 823.06 436.06
  Q 789.91 433.43 755.86 433.21
  C 721.11 432.99 698.61 432.87 670.84 429.55
  Q 658.17 428.03 633.58 424.36
  C 617.16 421.91 601.53 417.92 585.05 415.06
  C 565.18 411.61 541.51 406.21 531.55 386.73
  Q 528.93 381.62 524.85 373.59
  Q 521.63 367.26 513.64 358.03"
/>
<path stroke="#64513e" vector-effect="non-scaling-stroke" d="
  M 1405.27 417.79
  Q 1394.46 436.52 1382.70 454.24
  Q 1371.20 471.55 1359.22 483.38
  Q 1346.59 495.85 1329.72 504.63
  Q 1306.31 516.81 1285.38 524.16
  Q 1259.13 533.39 1226.63 540.59
  Q 1206.89 544.96 1183.63 541.13"
/>
<path stroke="#a8967a" vector-effect="non-scaling-stroke" d="
  M 1183.63 541.13
  Q 1149.12 540.20 1125.77 540.65
  C 1115.05 540.86 1115.99 529.42 1118.70 522.90
  C 1121.31 516.64 1131.88 514.76 1137.76 514.22
  C 1150.40 513.04 1163.37 514.38 1176.53 516.01
  A 3.51 3.44 -28.2 0 1 1177.56 516.31
  L 1193.85 523.95
  A 0.50 0.50 0.0 0 0 1194.56 523.43
  L 1188.61 481.51
  A 0.46 0.46 0.0 0 0 1187.94 481.17
  L 1177.98 486.50
  A 2.65 2.64 -56.2 0 1 1176.47 486.80
  C 1164.99 485.65 1152.56 484.50 1141.18 485.80
  Q 1132.93 486.75 1123.09 488.16
  A 0.67 0.67 0.0 0 1 1122.42 487.14
  L 1127.57 479.04
  A 0.44 0.43 18.8 0 0 1127.24 478.38
  L 1087.39 474.42
  A 0.33 0.33 0.0 0 0 1087.03 474.83
  L 1090.38 489.07
  A 4.68 4.61 42.9 0 1 1090.46 490.88
  L 1081.01 555.33
  A 1.16 1.14 -63.9 0 0 1081.34 556.33
  L 1096.88 571.88
  A 1.23 1.23 0.0 0 0 1097.75 572.24
  L 1140.46 572.30"
/>
<path stroke="#64513e" vector-effect="non-scaling-stroke" d="
  M 1140.46 572.30
  C 1126.05 572.74 1111.46 573.48 1097.05 572.98
  Q 1096.54 572.96 1095.81 572.36
  Q 1095.17 571.84 1094.60 571.63
  Q 1075.71 564.66 1056.10 566.08
  Q 1034.95 567.60 1011.88 572.01"
/>
<path stroke="#a8967a" vector-effect="non-scaling-stroke" d="
  M 1011.88 572.01
  L 1031.02 564.13
  A 2.69 2.65 -84.7 0 0 1032.23 563.11
  L 1038.53 553.19
  A 1.90 1.88 58.4 0 0 1038.82 551.94
  L 1033.15 498.13
  A 1.71 1.70 -70.0 0 0 1032.69 497.13
  L 1017.88 481.54
  A 1.26 1.26 0.0 0 0 1016.98 481.16
  L 947.63 481.16
  A 1.14 1.12 21.7 0 0 946.82 481.50
  L 932.26 496.60
  A 1.63 1.63 0.0 0 0 931.81 497.53
  L 930.97 503.34"
/>
<path stroke="#64513e" vector-effect="non-scaling-stroke" d="
  M 930.97 503.34
  Q 902.33 506.26 874.05 501.51"
/>
<path stroke="#a8967a" vector-effect="non-scaling-stroke" d="
  M 874.05 501.51
  L 873.20 496.71
  A 1.33 1.30 16.0 0 0 872.76 495.94
  L 856.05 481.66
  A 2.74 2.70 -24.4 0 0 854.28 481.01
  L 794.76 481.01
  A 2.03 2.02 -65.3 0 0 793.44 481.50
  L 776.05 496.60
  A 1.41 1.34 -16.9 0 0 775.59 497.41
  L 772.73 514.52"
/>
<path stroke="#64513e" vector-effect="non-scaling-stroke" d="
  M 772.73 514.52
  C 755.87 508.82 739.29 506.78 721.74 505.21"
/>
<path stroke="#a8967a" vector-effect="non-scaling-stroke" d="
  M 721.74 505.21
  L 720.88 497.86
  A 1.20 1.20 0.0 0 0 720.57 497.20
  L 705.63 481.48
  A 1.00 0.97 -20.6 0 0 704.90 481.16
  L 635.61 481.16
  A 1.55 1.52 21.5 0 0 634.50 481.63
  L 620.09 496.51
  A 1.36 1.35 -19.2 0 0 619.72 497.27
  L 616.57 518.71
  A 0.65 0.65 0.0 0 0 617.21 519.46
  L 646.13 519.46
  A 1.17 1.15 -71.1 0 0 647.05 519.00
  C 648.44 517.18 649.26 514.59 650.99 513.00
  Q 654.00 510.23 659.00 509.50
  C 669.49 507.98 685.27 507.26 689.69 518.52
  C 693.00 526.96 693.88 541.08 683.32 544.97"
/>
<path stroke="#64513e" vector-effect="non-scaling-stroke" d="
  M 683.32 544.97
  Q 663.17 543.69 643.13 541.86
  Q 634.99 541.12 633.30 541.09
  Q 595.71 540.44 558.23 534.31
  Q 540.19 531.36 522.92 523.15
  C 497.44 511.03 472.21 495.60 452.04 475.88
  C 432.78 457.05 429.91 432.15 433.89 406.23"
/>
<path stroke="#9d8d72" vector-effect="non-scaling-stroke" d="
  M 1011.88 572.01
  Q 985.78 582.45 959.56 593.29
  Q 956.61 594.51 955.99 595.47
  C 954.63 597.56 953.69 602.92 956.03 604.70
  C 961.42 608.81 969.61 609.34 976.75 609.33
  C 990.13 609.32 1003.69 609.47 1017.01 608.20
  Q 1029.41 607.02 1029.49 607.01
  A 4.40 4.24 22.8 0 0 1030.99 606.43
  L 1041.40 600.00
  A 0.38 0.38 0.0 0 1 1041.97 600.26
  L 1046.18 624.78"
/>
<path stroke="#93846a" vector-effect="non-scaling-stroke" d="
  M 1046.18 624.78
  L 1049.06 642.21
  A 0.41 0.41 0.0 0 1 1048.54 642.67
  L 1036.21 638.94
  A 7.15 7.05 53.0 0 0 1034.17 638.64
  L 937.51 638.64
  A 1.19 1.18 -21.2 0 1 936.64 638.26
  L 919.18 619.89
  A 1.03 1.02 -63.2 0 1 918.91 619.06
  L 923.74 582.19"
/>
<path stroke="#9d8d72" vector-effect="non-scaling-stroke" d="
  M 923.74 582.19
  L 937.23 567.72
  A 2.35 2.25 -78.0 0 1 938.10 567.13
  Q 982.82 549.81 993.48 545.78
  Q 998.24 543.98 999.64 542.61
  C 1005.04 537.30 1004.65 528.65 1002.90 521.54
  Q 1000.40 511.34 990.02 509.50
  Q 979.94 507.72 968.76 510.03
  Q 966.06 510.58 963.10 513.09
  C 961.48 514.46 960.57 517.03 959.26 519.05
  A 0.92 0.91 16.3 0 1 958.49 519.47
  L 929.50 519.47
  A 0.66 0.65 3.8 0 1 928.85 518.73
  L 930.97 503.34"
/>
<path stroke="#9d8d72" vector-effect="non-scaling-stroke" d="
  M 683.32 544.97
  L 625.99 567.06
  A 2.23 2.15 10.2 0 0 625.18 567.60
  L 612.01 581.62
  A 1.81 1.79 -20.3 0 0 611.54 582.63
  L 607.39 614.26"
/>
<path stroke="#4f3f2e" vector-effect="non-scaling-stroke" d="
  M 607.39 614.26
  Q 595.65 614.88 588.06 614.23
  Q 577.12 613.30 543.46 609.38
  C 519.24 606.56 495.38 601.33 473.59 590.35
  C 453.01 579.98 433.59 568.41 419.39 550.96
  Q 407.11 535.86 393.55 521.14
  Q 384.61 511.43 375.27 496.38"
/>
<path stroke="#9d8d72" vector-effect="non-scaling-stroke" d="
  M 874.05 501.51
  L 888.19 588.53"
/>
<path stroke="#93846a" vector-effect="non-scaling-stroke" d="
  M 888.19 588.53
  L 893.01 618.01
  A 0.99 0.98 64.1 0 1 892.71 618.90
  L 871.72 638.00
  A 1.30 1.28 -65.5 0 1 870.86 638.33
  L 777.39 638.33
  A 1.69 1.67 65.7 0 1 776.27 637.90
  L 757.96 621.43"
/>
<path stroke="#9d8d72" vector-effect="non-scaling-stroke" d="
  M 757.96 621.43
  L 755.71 619.35
  A 0.91 0.90 26.6 0 1 755.43 618.52
  L 772.73 514.52"
/>
<path stroke="#93846a" vector-effect="non-scaling-stroke" d="
  M 1189.71 638.33
  L 1085.01 638.28
  A 1.31 1.28 -23.2 0 1 1084.13 637.94
  L 1068.06 623.64"
/>
<path stroke="#9d8d72" vector-effect="non-scaling-stroke" d="
  M 1068.06 623.64
  L 1072.00 594.80
  A 0.66 0.65 3.5 0 1 1072.65 594.23
  L 1105.24 594.23
  A 0.67 0.67 0.0 0 1 1105.90 594.78
  C 1107.55 603.96 1111.98 608.09 1121.19 608.60
  Q 1138.25 609.55 1153.72 607.70
  Q 1160.81 606.85 1164.65 602.90
  Q 1167.46 600.00 1167.85 597.95
  Q 1169.86 587.11 1163.88 577.33
  C 1161.97 574.20 1159.13 572.41 1155.72 572.33
  Q 1152.42 572.24 1140.46 572.30"
/>
<path stroke="#4f3f2e" vector-effect="non-scaling-stroke" d="
  M 1459.63 532.42
  C 1449.01 540.58 1436.38 546.69 1427.00 553.67
  Q 1417.87 560.48 1405.42 569.69
  Q 1375.69 591.71 1343.35 604.65
  Q 1328.77 610.48 1300.43 618.96
  Q 1278.83 625.43 1256.67 630.54
  C 1234.66 635.63 1212.36 638.46 1189.71 638.33"
/>
<path stroke="#9d8d72" vector-effect="non-scaling-stroke" d="
  M 1189.71 638.33
  L 1192.31 638.28
  A 1.30 1.27 21.9 0 0 1193.18 637.92
  L 1209.22 622.69
  A 1.38 1.37 64.5 0 0 1209.63 621.52
  L 1200.59 557.81
  A 1.52 1.51 18.2 0 0 1200.13 556.91
  L 1183.63 541.13"
/>
<path stroke="#9d8d72" vector-effect="non-scaling-stroke" d="
  M 721.74 505.21
  L 726.68 552.22
  A 1.20 1.18 -32.5 0 1 726.50 553.00
  L 720.02 563.20
  A 1.48 1.46 4.6 0 1 719.33 563.78
  L 645.11 594.22
  A 2.73 2.70 -87.4 0 0 643.72 595.50
  Q 641.90 599.10 642.71 603.16
  A 1.97 1.96 15.2 0 0 643.34 604.25
  C 647.52 608.03 655.21 609.17 661.01 609.26
  Q 673.97 609.45 692.32 609.02
  C 700.34 608.83 707.80 607.87 717.01 607.06
  A 3.94 3.90 -63.3 0 0 718.77 606.47
  L 729.33 599.91
  A 0.41 0.40 69.3 0 1 729.94 600.19
  L 735.15 631.74"
/>
<path stroke="#93846a" vector-effect="non-scaling-stroke" d="
  M 735.15 631.74
  L 736.89 642.40
  A 0.31 0.30 -85.4 0 1 736.50 642.74
  C 731.40 641.09 725.13 638.57 719.50 638.60
  Q 717.30 638.61 625.47 638.64
  A 1.53 1.48 -21.3 0 1 624.38 638.18
  L 607.08 619.97
  A 0.99 0.98 27.3 0 1 606.83 619.20
  L 607.39 614.26"
/>
<path stroke="#4f3f2e" vector-effect="non-scaling-stroke" d="
  M 735.15 631.74
  Q 747.33 628.19 757.96 621.43"
/>
<path stroke="#4f3f2e" vector-effect="non-scaling-stroke" d="
  M 888.19 588.53
  Q 906.13 586.22 923.74 582.19"
/>
<path stroke="#4f3f2e" vector-effect="non-scaling-stroke" d="
  M 1046.18 624.78
  L 1068.06 623.64"
/>
<path stroke="#4f3f2e" vector-effect="non-scaling-stroke" d="
  M 998.03 832.00
  Q 986.63 817.93 972.64 806.16"
/>
<path stroke="#4f3f2e" vector-effect="non-scaling-stroke" d="
  M 894.20 836.27
  C 884.47 829.25 873.70 822.32 861.56 821.66
  C 853.24 821.20 845.34 824.23 845.03 833.87
  Q 844.94 836.52 845.52 840.61"
/>
<path stroke="#9d8d72" vector-effect="non-scaling-stroke" d="
  M 839.90 602.51
  C 851.46 596.83 851.55 579.24 850.39 567.99
  Q 848.80 552.43 846.29 534.74
  C 845.04 525.90 842.64 515.87 834.16 512.61
  Q 827.65 510.11 818.94 511.94
  C 812.01 513.41 808.32 518.84 806.59 525.33
  C 802.53 540.57 801.10 552.86 799.25 570.75
  Q 798.63 576.78 799.19 583.03
  C 799.86 590.38 801.45 596.72 807.48 600.50
  C 816.48 606.15 830.36 607.19 839.90 602.51"
/>
</g>
<g>
<path fill="#78634c" d="
  M 1315.54 358.95
  Q 1307.48 369.54 1304.03 382.23
  Q 1301.45 391.67 1298.72 398.66
  Q 1294.53 409.36 1283.21 414.89
  Q 1263.81 424.39 1242.09 429.87
  C 1232.46 432.30 1220.90 433.45 1210.69 434.50
  C 1178.00 437.84 1145.09 439.18 1111.14 441.03
  Q 1106.09 441.31 1095.32 442.43
  C 1079.99 444.02 1070.90 445.08 1055.76 445.85
  Q 1036.54 446.84 1017.00 448.63
  C 1008.32 449.43 997.94 449.75 990.90 449.62
  Q 967.42 449.20 943.50 448.98
  C 935.64 448.91 925.96 448.43 920.05 447.29
  Q 897.13 442.83 892.56 442.31
  Q 871.48 439.90 823.06 436.06
  Q 789.91 433.43 755.86 433.21
  C 721.11 432.99 698.61 432.87 670.84 429.55
  Q 658.17 428.03 633.58 424.36
  C 617.16 421.91 601.53 417.92 585.05 415.06
  C 565.18 411.61 541.51 406.21 531.55 386.73
  Q 528.93 381.62 524.85 373.59
  Q 521.63 367.26 513.64 358.03
  C 518.83 356.16 523.80 354.40 529.28 353.04
  Q 539.55 350.49 540.07 350.38
  C 553.85 347.42 565.91 345.88 580.08 345.56
  Q 592.96 345.27 616.25 345.27
  Q 1097.60 345.15 1215.50 345.02
  Q 1219.66 345.01 1242.75 345.31
  Q 1264.42 345.60 1285.50 350.29
  C 1297.22 352.89 1304.96 354.88 1315.54 358.95
  Z"
/>
<path fill="#6f5a45" d="
  M 513.64 358.03
  Q 521.63 367.26 524.85 373.59
  Q 528.93 381.62 531.55 386.73
  C 541.51 406.21 565.18 411.61 585.05 415.06
  C 601.53 417.92 617.16 421.91 633.58 424.36
  Q 658.17 428.03 670.84 429.55
  C 698.61 432.87 721.11 432.99 755.86 433.21
  Q 789.91 433.43 823.06 436.06
  Q 871.48 439.90 892.56 442.31
  Q 897.13 442.83 920.05 447.29
  C 925.96 448.43 935.64 448.91 943.50 448.98
  Q 967.42 449.20 990.90 449.62
  C 997.94 449.75 1008.32 449.43 1017.00 448.63
  Q 1036.54 446.84 1055.76 445.85
  C 1070.90 445.08 1079.99 444.02 1095.32 442.43
  Q 1106.09 441.31 1111.14 441.03
  C 1145.09 439.18 1178.00 437.84 1210.69 434.50
  C 1220.90 433.45 1232.46 432.30 1242.09 429.87
  Q 1263.81 424.39 1283.21 414.89
  Q 1294.53 409.36 1298.72 398.66
  Q 1301.45 391.67 1304.03 382.23
  Q 1307.48 369.54 1315.54 358.95
  Q 1332.99 365.29 1339.40 368.84
  C 1345.65 372.31 1351.55 375.26 1357.17 378.85
  Q 1372.77 388.83 1375.71 391.13
  C 1382.80 396.67 1390.23 402.41 1397.19 409.49
  Q 1401.28 413.66 1405.27 417.79
  Q 1394.46 436.52 1382.70 454.24
  Q 1371.20 471.55 1359.22 483.38
  Q 1346.59 495.85 1329.72 504.63
  Q 1306.31 516.81 1285.38 524.16
  Q 1259.13 533.39 1226.63 540.59
  Q 1206.89 544.96 1183.63 541.13
  Q 1149.12 540.20 1125.77 540.65
  C 1115.05 540.86 1115.99 529.42 1118.70 522.90
  C 1121.31 516.64 1131.88 514.76 1137.76 514.22
  C 1150.40 513.04 1163.37 514.38 1176.53 516.01
  A 3.51 3.44 -28.2 0 1 1177.56 516.31
  L 1193.85 523.95
  A 0.50 0.50 0.0 0 0 1194.56 523.43
  L 1188.61 481.51
  A 0.46 0.46 0.0 0 0 1187.94 481.17
  L 1177.98 486.50
  A 2.65 2.64 -56.2 0 1 1176.47 486.80
  C 1164.99 485.65 1152.56 484.50 1141.18 485.80
  Q 1132.93 486.75 1123.09 488.16
  A 0.67 0.67 0.0 0 1 1122.42 487.14
  L 1127.57 479.04
  A 0.44 0.43 18.8 0 0 1127.24 478.38
  L 1087.39 474.42
  A 0.33 0.33 0.0 0 0 1087.03 474.83
  L 1090.38 489.07
  A 4.68 4.61 42.9 0 1 1090.46 490.88
  L 1081.01 555.33
  A 1.16 1.14 -63.9 0 0 1081.34 556.33
  L 1096.88 571.88
  A 1.23 1.23 0.0 0 0 1097.75 572.24
  L 1140.46 572.30
  C 1126.05 572.74 1111.46 573.48 1097.05 572.98
  Q 1096.54 572.96 1095.81 572.36
  Q 1095.17 571.84 1094.60 571.63
  Q 1075.71 564.66 1056.10 566.08
  Q 1034.95 567.60 1011.88 572.01
  L 1031.02 564.13
  A 2.69 2.65 -84.7 0 0 1032.23 563.11
  L 1038.53 553.19
  A 1.90 1.88 58.4 0 0 1038.82 551.94
  L 1033.15 498.13
  A 1.71 1.70 -70.0 0 0 1032.69 497.13
  L 1017.88 481.54
  A 1.26 1.26 0.0 0 0 1016.98 481.16
  L 947.63 481.16
  A 1.14 1.12 21.7 0 0 946.82 481.50
  L 932.26 496.60
  A 1.63 1.63 0.0 0 0 931.81 497.53
  L 930.97 503.34
  Q 902.33 506.26 874.05 501.51
  L 873.20 496.71
  A 1.33 1.30 16.0 0 0 872.76 495.94
  L 856.05 481.66
  A 2.74 2.70 -24.4 0 0 854.28 481.01
  L 794.76 481.01
  A 2.03 2.02 -65.3 0 0 793.44 481.50
  L 776.05 496.60
  A 1.41 1.34 -16.9 0 0 775.59 497.41
  L 772.73 514.52
  C 755.87 508.82 739.29 506.78 721.74 505.21
  L 720.88 497.86
  A 1.20 1.20 0.0 0 0 720.57 497.20
  L 705.63 481.48
  A 1.00 0.97 -20.6 0 0 704.90 481.16
  L 635.61 481.16
  A 1.55 1.52 21.5 0 0 634.50 481.63
  L 620.09 496.51
  A 1.36 1.35 -19.2 0 0 619.72 497.27
  L 616.57 518.71
  A 0.65 0.65 0.0 0 0 617.21 519.46
  L 646.13 519.46
  A 1.17 1.15 -71.1 0 0 647.05 519.00
  C 648.44 517.18 649.26 514.59 650.99 513.00
  Q 654.00 510.23 659.00 509.50
  C 669.49 507.98 685.27 507.26 689.69 518.52
  C 693.00 526.96 693.88 541.08 683.32 544.97
  Q 663.17 543.69 643.13 541.86
  Q 634.99 541.12 633.30 541.09
  Q 595.71 540.44 558.23 534.31
  Q 540.19 531.36 522.92 523.15
  C 497.44 511.03 472.21 495.60 452.04 475.88
  C 432.78 457.05 429.91 432.15 433.89 406.23
  Q 435.85 404.33 438.14 402.41
  Q 453.78 389.23 459.78 385.54
  Q 464.96 382.35 470.34 378.74
  Q 476.17 374.82 479.40 373.17
  C 482.84 371.42 487.11 368.56 491.96 366.52
  Q 502.74 361.96 513.64 358.03
  Z"
/>
<path fill="#594836" d="
  M 433.89 406.23
  C 429.91 432.15 432.78 457.05 452.04 475.88
  C 472.21 495.60 497.44 511.03 522.92 523.15
  Q 540.19 531.36 558.23 534.31
  Q 595.71 540.44 633.30 541.09
  Q 634.99 541.12 643.13 541.86
  Q 663.17 543.69 683.32 544.97
  L 625.99 567.06
  A 2.23 2.15 10.2 0 0 625.18 567.60
  L 612.01 581.62
  A 1.81 1.79 -20.3 0 0 611.54 582.63
  L 607.39 614.26
  Q 595.65 614.88 588.06 614.23
  Q 577.12 613.30 543.46 609.38
  C 519.24 606.56 495.38 601.33 473.59 590.35
  C 453.01 579.98 433.59 568.41 419.39 550.96
  Q 407.11 535.86 393.55 521.14
  Q 384.61 511.43 375.27 496.38
  Q 380.05 484.73 385.10 472.86
  C 389.27 463.07 394.71 454.41 400.38 445.66
  C 409.73 431.23 421.43 418.13 433.89 406.23
  Z"
/>
<path fill="#594836" d="
  M 1405.27 417.79
  C 1410.44 423.63 1415.70 429.45 1420.33 435.59
  Q 1427.73 445.42 1431.80 452.55
  Q 1435.36 458.78 1436.63 460.92
  C 1440.35 467.16 1441.88 472.03 1445.60 479.12
  A 13.49 12.92 23.5 0 1 1446.49 481.25
  Q 1448.95 489.08 1452.33 497.19
  Q 1452.79 498.31 1453.39 501.03
  Q 1456.82 516.75 1459.63 532.42
  C 1449.01 540.58 1436.38 546.69 1427.00 553.67
  Q 1417.87 560.48 1405.42 569.69
  Q 1375.69 591.71 1343.35 604.65
  Q 1328.77 610.48 1300.43 618.96
  Q 1278.83 625.43 1256.67 630.54
  C 1234.66 635.63 1212.36 638.46 1189.71 638.33
  L 1192.31 638.28
  A 1.30 1.27 21.9 0 0 1193.18 637.92
  L 1209.22 622.69
  A 1.38 1.37 64.5 0 0 1209.63 621.52
  L 1200.59 557.81
  A 1.52 1.51 18.2 0 0 1200.13 556.91
  L 1183.63 541.13
  Q 1206.89 544.96 1226.63 540.59
  Q 1259.13 533.39 1285.38 524.16
  Q 1306.31 516.81 1329.72 504.63
  Q 1346.59 495.85 1359.22 483.38
  Q 1371.20 471.55 1382.70 454.24
  Q 1394.46 436.52 1405.27 417.79
  Z"
/>
<path fill="#e0d2ae" d="
  M 1183.63 541.13
  L 1200.13 556.91
  A 1.52 1.51 18.2 0 1 1200.59 557.81
  L 1209.63 621.52
  A 1.38 1.37 64.5 0 1 1209.22 622.69
  L 1193.18 637.92
  A 1.30 1.27 21.9 0 1 1192.31 638.28
  L 1189.71 638.33
  L 1085.01 638.28
  A 1.31 1.28 -23.2 0 1 1084.13 637.94
  L 1068.06 623.64
  L 1072.00 594.80
  A 0.66 0.65 3.5 0 1 1072.65 594.23
  L 1105.24 594.23
  A 0.67 0.67 0.0 0 1 1105.90 594.78
  C 1107.55 603.96 1111.98 608.09 1121.19 608.60
  Q 1138.25 609.55 1153.72 607.70
  Q 1160.81 606.85 1164.65 602.90
  Q 1167.46 600.00 1167.85 597.95
  Q 1169.86 587.11 1163.88 577.33
  C 1161.97 574.20 1159.13 572.41 1155.72 572.33
  Q 1152.42 572.24 1140.46 572.30
  L 1097.75 572.24
  A 1.23 1.23 0.0 0 1 1096.88 571.88
  L 1081.34 556.33
  A 1.16 1.14 -63.9 0 1 1081.01 555.33
  L 1090.46 490.88
  A 4.68 4.61 42.9 0 0 1090.38 489.07
  L 1087.03 474.83
  A 0.33 0.33 0.0 0 1 1087.39 474.42
  L 1127.24 478.38
  A 0.44 0.43 18.8 0 1 1127.57 479.04
  L 1122.42 487.14
  A 0.67 0.67 0.0 0 0 1123.09 488.16
  Q 1132.93 486.75 1141.18 485.80
  C 1152.56 484.50 1164.99 485.65 1176.47 486.80
  A 2.65 2.64 -56.2 0 0 1177.98 486.50
  L 1187.94 481.17
  A 0.46 0.46 0.0 0 1 1188.61 481.51
  L 1194.56 523.43
  A 0.50 0.50 0.0 0 1 1193.85 523.95
  L 1177.56 516.31
  A 3.51 3.44 -28.2 0 0 1176.53 516.01
  C 1163.37 514.38 1150.40 513.04 1137.76 514.22
  C 1131.88 514.76 1121.31 516.64 1118.70 522.90
  C 1115.99 529.42 1115.05 540.86 1125.77 540.65
  Q 1149.12 540.20 1183.63 541.13
  Z"
/>
<path fill="#e0d2ae" d="
  M 874.05 501.51
  L 888.19 588.53
  L 893.01 618.01
  A 0.99 0.98 64.1 0 1 892.71 618.90
  L 871.72 638.00
  A 1.30 1.28 -65.5 0 1 870.86 638.33
  L 777.39 638.33
  A 1.69 1.67 65.7 0 1 776.27 637.90
  L 757.96 621.43
  L 755.71 619.35
  A 0.91 0.90 26.6 0 1 755.43 618.52
  L 772.73 514.52
  L 775.59 497.41
  A 1.41 1.34 -16.9 0 1 776.05 496.60
  L 793.44 481.50
  A 2.03 2.02 -65.3 0 1 794.76 481.01
  L 854.28 481.01
  A 2.74 2.70 -24.4 0 1 856.05 481.66
  L 872.76 495.94
  A 1.33 1.30 16.0 0 1 873.20 496.71
  L 874.05 501.51
  Z
  M 839.90 602.51
  C 851.46 596.83 851.55 579.24 850.39 567.99
  Q 848.80 552.43 846.29 534.74
  C 845.04 525.90 842.64 515.87 834.16 512.61
  Q 827.65 510.11 818.94 511.94
  C 812.01 513.41 808.32 518.84 806.59 525.33
  C 802.53 540.57 801.10 552.86 799.25 570.75
  Q 798.63 576.78 799.19 583.03
  C 799.86 590.38 801.45 596.72 807.48 600.50
  C 816.48 606.15 830.36 607.19 839.90 602.51
  Z"
/>
<path fill="#e0d2ae" d="
  M 1011.88 572.01
  Q 985.78 582.45 959.56 593.29
  Q 956.61 594.51 955.99 595.47
  C 954.63 597.56 953.69 602.92 956.03 604.70
  C 961.42 608.81 969.61 609.34 976.75 609.33
  C 990.13 609.32 1003.69 609.47 1017.01 608.20
  Q 1029.41 607.02 1029.49 607.01
  A 4.40 4.24 22.8 0 0 1030.99 606.43
  L 1041.40 600.00
  A 0.38 0.38 0.0 0 1 1041.97 600.26
  L 1046.18 624.78
  L 1049.06 642.21
  A 0.41 0.41 0.0 0 1 1048.54 642.67
  L 1036.21 638.94
  A 7.15 7.05 53.0 0 0 1034.17 638.64
  L 937.51 638.64
  A 1.19 1.18 -21.2 0 1 936.64 638.26
  L 919.18 619.89
  A 1.03 1.02 -63.2 0 1 918.91 619.06
  L 923.74 582.19
  L 937.23 567.72
  A 2.35 2.25 -78.0 0 1 938.10 567.13
  Q 982.82 549.81 993.48 545.78
  Q 998.24 543.98 999.64 542.61
  C 1005.04 537.30 1004.65 528.65 1002.90 521.54
  Q 1000.40 511.34 990.02 509.50
  Q 979.94 507.72 968.76 510.03
  Q 966.06 510.58 963.10 513.09
  C 961.48 514.46 960.57 517.03 959.26 519.05
  A 0.92 0.91 16.3 0 1 958.49 519.47
  L 929.50 519.47
  A 0.66 0.65 3.8 0 1 928.85 518.73
  L 930.97 503.34
  L 931.81 497.53
  A 1.63 1.63 0.0 0 1 932.26 496.60
  L 946.82 481.50
  A 1.14 1.12 21.7 0 1 947.63 481.16
  L 1016.98 481.16
  A 1.26 1.26 0.0 0 1 1017.88 481.54
  L 1032.69 497.13
  A 1.71 1.70 -70.0 0 1 1033.15 498.13
  L 1038.82 551.94
  A 1.90 1.88 58.4 0 1 1038.53 553.19
  L 1032.23 563.11
  A 2.69 2.65 -84.7 0 1 1031.02 564.13
  L 1011.88 572.01
  Z"
/>
<path fill="#e0d2ae" d="
  M 721.74 505.21
  L 726.68 552.22
  A 1.20 1.18 -32.5 0 1 726.50 553.00
  L 720.02 563.20
  A 1.48 1.46 4.6 0 1 719.33 563.78
  L 645.11 594.22
  A 2.73 2.70 -87.4 0 0 643.72 595.50
  Q 641.90 599.10 642.71 603.16
  A 1.97 1.96 15.2 0 0 643.34 604.25
  C 647.52 608.03 655.21 609.17 661.01 609.26
  Q 673.97 609.45 692.32 609.02
  C 700.34 608.83 707.80 607.87 717.01 607.06
  A 3.94 3.90 -63.3 0 0 718.77 606.47
  L 729.33 599.91
  A 0.41 0.40 69.3 0 1 729.94 600.19
  L 735.15 631.74
  L 736.89 642.40
  A 0.31 0.30 -85.4 0 1 736.50 642.74
  C 731.40 641.09 725.13 638.57 719.50 638.60
  Q 717.30 638.61 625.47 638.64
  A 1.53 1.48 -21.3 0 1 624.38 638.18
  L 607.08 619.97
  A 0.99 0.98 27.3 0 1 606.83 619.20
  L 607.39 614.26
  L 611.54 582.63
  A 1.81 1.79 -20.3 0 1 612.01 581.62
  L 625.18 567.60
  A 2.23 2.15 10.2 0 1 625.99 567.06
  L 683.32 544.97
  C 693.88 541.08 693.00 526.96 689.69 518.52
  C 685.27 507.26 669.49 507.98 659.00 509.50
  Q 654.00 510.23 650.99 513.00
  C 649.26 514.59 648.44 517.18 647.05 519.00
  A 1.17 1.15 -71.1 0 1 646.13 519.46
  L 617.21 519.46
  A 0.65 0.65 0.0 0 1 616.57 518.71
  L 619.72 497.27
  A 1.36 1.35 -19.2 0 1 620.09 496.51
  L 634.50 481.63
  A 1.55 1.52 21.5 0 1 635.61 481.16
  L 704.90 481.16
  A 1.00 0.97 -20.6 0 1 705.63 481.48
  L 720.57 497.20
  A 1.20 1.20 0.0 0 1 720.88 497.86
  L 721.74 505.21
  Z"
/>
<path fill="#453626" d="
  M 607.39 614.26
  L 606.83 619.20
  A 0.99 0.98 27.3 0 0 607.08 619.97
  L 624.38 638.18
  A 1.53 1.48 -21.3 0 0 625.47 638.64
  Q 717.30 638.61 719.50 638.60
  C 725.13 638.57 731.40 641.09 736.50 642.74
  A 0.31 0.30 -85.4 0 0 736.89 642.40
  L 735.15 631.74
  Q 747.33 628.19 757.96 621.43
  L 776.27 637.90
  A 1.69 1.67 65.7 0 0 777.39 638.33
  L 870.86 638.33
  A 1.30 1.28 -65.5 0 0 871.72 638.00
  L 892.71 618.90
  A 0.99 0.98 64.1 0 0 893.01 618.01
  L 888.19 588.53
  Q 906.13 586.22 923.74 582.19
  L 918.91 619.06
  A 1.03 1.02 -63.2 0 0 919.18 619.89
  L 936.64 638.26
  A 1.19 1.18 -21.2 0 0 937.51 638.64
  L 1034.17 638.64
  A 7.15 7.05 53.0 0 1 1036.21 638.94
  L 1048.54 642.67
  A 0.41 0.41 0.0 0 0 1049.06 642.21
  L 1046.18 624.78
  L 1068.06 623.64
  L 1084.13 637.94
  A 1.31 1.28 -23.2 0 0 1085.01 638.28
  L 1189.71 638.33
  C 1212.36 638.46 1234.66 635.63 1256.67 630.54
  Q 1278.83 625.43 1300.43 618.96
  Q 1328.77 610.48 1343.35 604.65
  Q 1375.69 591.71 1405.42 569.69
  Q 1417.87 560.48 1427.00 553.67
  C 1436.38 546.69 1449.01 540.58 1459.63 532.42
  Q 1462.07 553.46 1460.57 574.36
  C 1459.53 588.82 1456.17 603.43 1452.91 617.73
  A 3.34 3.13 87.4 0 1 1452.78 618.18
  L 1445.69 637.56
  A 1.35 0.84 -46.0 0 1 1445.62 637.72
  Q 1441.52 645.82 1440.19 649.23
  C 1438.28 654.11 1434.79 658.81 1432.36 663.69
  Q 1430.96 666.49 1429.42 668.65
  C 1427.22 671.73 1424.77 676.40 1422.10 679.53
  C 1419.91 682.11 1418.24 685.05 1416.28 687.46
  Q 1403.18 703.57 1388.71 716.43
  C 1386.28 718.59 1382.67 720.97 1379.98 723.77
  A 8.20 7.87 -84.8 0 1 1378.90 724.71
  Q 1369.15 731.68 1362.95 735.94
  Q 1359.15 738.55 1342.59 747.35
  Q 1337.46 750.08 1334.49 751.05
  C 1330.67 752.30 1327.96 753.98 1323.52 755.59
  Q 1307.21 761.54 1299.76 763.24
  C 1293.08 764.77 1284.63 766.89 1277.42 767.97
  Q 1257.89 770.89 1229.01 770.92
  Q 1139.04 771.02 1069.28 770.86
  Q 1066.03 770.85 1062.99 773.75
  Q 1062.24 774.46 1051.77 783.87
  C 1041.32 793.26 1035.11 799.00 1026.47 806.22
  C 1023.45 808.74 1018.58 814.04 1013.50 817.85
  C 1011.05 819.70 1009.17 822.20 1006.93 823.95
  C 1004.40 825.94 1001.41 829.61 998.03 832.00
  Q 986.63 817.93 972.64 806.16
  L 1009.87 772.48
  A 1.01 1.01 0.0 0 0 1009.03 770.74
  Q 1005.10 771.36 993.90 770.97
  Q 989.10 770.81 978.61 770.83
  Q 895.81 771.01 841.25 770.46
  Q 834.48 770.39 825.68 770.68
  Q 824.78 770.71 824.17 770.95
  A 0.88 0.88 0.0 0 0 823.93 772.44
  Q 829.41 777.09 834.03 781.63
  Q 837.46 785.01 841.07 788.10
  C 847.52 793.63 850.61 796.68 857.77 803.06
  Q 861.63 806.50 868.99 813.37
  Q 871.67 815.87 873.23 816.97
  C 876.36 819.18 878.22 821.43 881.60 824.48
  Q 887.99 830.26 894.20 836.27
  C 884.47 829.25 873.70 822.32 861.56 821.66
  C 853.24 821.20 845.34 824.23 845.03 833.87
  Q 844.94 836.52 845.52 840.61
  C 842.76 838.57 840.56 836.15 837.81 833.94
  Q 836.00 832.50 833.26 830.09
  Q 823.84 821.79 802.50 802.69
  Q 800.87 801.23 787.36 789.65
  Q 778.41 781.98 769.39 772.97
  A 4.04 3.96 77.9 0 0 768.00 772.05
  Q 764.64 770.73 760.75 770.73
  Q 678.79 770.71 583.25 770.86
  Q 573.24 770.87 564.96 769.79
  Q 557.36 768.80 554.99 768.54
  C 549.44 767.91 545.33 767.55 540.34 766.20
  C 535.04 764.76 528.73 764.26 523.84 762.37
  Q 522.48 761.85 513.08 759.08
  Q 506.62 757.18 500.54 754.47
  Q 490.90 750.19 488.40 748.81
  C 481.90 745.21 476.99 743.33 471.26 739.91
  Q 442.73 722.85 420.13 697.89
  Q 417.55 695.05 408.51 683.85
  C 405.46 680.09 403.76 677.00 400.96 673.39
  C 398.35 670.05 396.36 665.77 393.83 661.92
  Q 392.62 660.06 391.22 657.19
  Q 382.79 639.86 376.96 625.79
  C 374.88 620.80 373.90 614.86 372.19 608.87
  Q 368.51 596.03 367.91 590.07
  Q 364.70 558.37 367.70 528.25
  C 368.78 517.48 372.85 507.15 375.27 496.38
  Q 384.61 511.43 393.55 521.14
  Q 407.11 535.86 419.39 550.96
  C 433.59 568.41 453.01 579.98 473.59 590.35
  C 495.38 601.33 519.24 606.56 543.46 609.38
  Q 577.12 613.30 588.06 614.23
  Q 595.65 614.88 607.39 614.26
  Z"
/>
<path fill="#594836" d="
  M 930.97 503.34
  L 928.85 518.73
  A 0.66 0.65 3.8 0 0 929.50 519.47
  L 958.49 519.47
  A 0.92 0.91 16.3 0 0 959.26 519.05
  C 960.57 517.03 961.48 514.46 963.10 513.09
  Q 966.06 510.58 968.76 510.03
  Q 979.94 507.72 990.02 509.50
  Q 1000.40 511.34 1002.90 521.54
  C 1004.65 528.65 1005.04 537.30 999.64 542.61
  Q 998.24 543.98 993.48 545.78
  Q 982.82 549.81 938.10 567.13
  A 2.35 2.25 -78.0 0 0 937.23 567.72
  L 923.74 582.19
  Q 906.13 586.22 888.19 588.53
  L 874.05 501.51
  Q 902.33 506.26 930.97 503.34
  Z"
/>
<path fill="#594836" d="
  M 772.73 514.52
  L 755.43 618.52
  A 0.91 0.90 26.6 0 0 755.71 619.35
  L 757.96 621.43
  Q 747.33 628.19 735.15 631.74
  L 729.94 600.19
  A 0.41 0.40 69.3 0 0 729.33 599.91
  L 718.77 606.47
  A 3.94 3.90 -63.3 0 1 717.01 607.06
  C 707.80 607.87 700.34 608.83 692.32 609.02
  Q 673.97 609.45 661.01 609.26
  C 655.21 609.17 647.52 608.03 643.34 604.25
  A 1.97 1.96 15.2 0 1 642.71 603.16
  Q 641.90 599.10 643.72 595.50
  A 2.73 2.70 -87.4 0 1 645.11 594.22
  L 719.33 563.78
  A 1.48 1.46 4.6 0 0 720.02 563.20
  L 726.50 553.00
  A 1.20 1.18 -32.5 0 0 726.68 552.22
  L 721.74 505.21
  C 739.29 506.78 755.87 508.82 772.73 514.52
  Z"
/>
<path fill="#594836" d="
  M 1140.46 572.30
  Q 1152.42 572.24 1155.72 572.33
  C 1159.13 572.41 1161.97 574.20 1163.88 577.33
  Q 1169.86 587.11 1167.85 597.95
  Q 1167.46 600.00 1164.65 602.90
  Q 1160.81 606.85 1153.72 607.70
  Q 1138.25 609.55 1121.19 608.60
  C 1111.98 608.09 1107.55 603.96 1105.90 594.78
  A 0.67 0.67 0.0 0 0 1105.24 594.23
  L 1072.65 594.23
  A 0.66 0.65 3.5 0 0 1072.00 594.80
  L 1068.06 623.64
  L 1046.18 624.78
  L 1041.97 600.26
  A 0.38 0.38 0.0 0 0 1041.40 600.00
  L 1030.99 606.43
  A 4.40 4.24 22.8 0 1 1029.49 607.01
  Q 1029.41 607.02 1017.01 608.20
  C 1003.69 609.47 990.13 609.32 976.75 609.33
  C 969.61 609.34 961.42 608.81 956.03 604.70
  C 953.69 602.92 954.63 597.56 955.99 595.47
  Q 956.61 594.51 959.56 593.29
  Q 985.78 582.45 1011.88 572.01
  Q 1034.95 567.60 1056.10 566.08
  Q 1075.71 564.66 1094.60 571.63
  Q 1095.17 571.84 1095.81 572.36
  Q 1096.54 572.96 1097.05 572.98
  C 1111.46 573.48 1126.05 572.74 1140.46 572.30
  Z"
/>
<path fill="#594836" d="
  M 972.64 806.16
  Q 986.63 817.93 998.03 832.00
  L 917.86 903.39
  A 1.35 1.35 0.0 0 1 916.06 903.40
  Q 907.52 895.89 904.69 893.54
  Q 901.91 891.23 899.37 888.70
  C 897.20 886.54 894.61 884.88 891.99 882.49
  Q 885.65 876.68 882.77 873.96
  C 878.47 869.89 871.93 865.24 866.84 860.20
  Q 864.36 857.74 860.60 854.52
  Q 852.76 847.82 845.52 840.61
  Q 844.94 836.52 845.03 833.87
  C 845.34 824.23 853.24 821.20 861.56 821.66
  C 873.70 822.32 884.47 829.25 894.20 836.27
  Q 898.33 839.72 902.07 843.59
  Q 906.09 847.77 908.03 849.30
  Q 912.96 853.17 914.40 854.61
  C 916.44 856.64 918.00 856.40 920.11 854.61
  Q 924.20 851.14 929.31 846.05
  C 939.46 835.94 948.03 828.08 957.36 819.85
  Q 965.08 813.04 972.64 806.16
  Z"
/>
</g>
<path fill="#594836" d="
  M 839.90 602.51
  C 830.36 607.19 816.48 606.15 807.48 600.50
  C 801.45 596.72 799.86 590.38 799.19 583.03
  Q 798.63 576.78 799.25 570.75
  C 801.10 552.86 802.53 540.57 806.59 525.33
  C 808.32 518.84 812.01 513.41 818.94 511.94
  Q 827.65 510.11 834.16 512.61
  C 842.64 515.87 845.04 525.90 846.29 534.74
  Q 848.80 552.43 850.39 567.99
  C 851.55 579.24 851.46 596.83 839.90 602.51
  Z"
/>
</svg>
