<?xml version="1.0" encoding="UTF-8" standalone="no"?>
<!DOCTYPE svg PUBLIC "-//W3C//DTD SVG 1.1//EN" "http://www.w3.org/Graphics/SVG/1.1/DTD/svg11.dtd">
<svg xmlns="http://www.w3.org/2000/svg" version="1.1" viewBox="0.00 0.00 1801.00 1126.00">
<g stroke-width="2.00" fill="none" stroke-linecap="butt">
<path stroke="#705b46" vector-effect="non-scaling-stroke" d="
  M 1314.79 358.68
  Q 1312.68 365.49 1312.39 372.54
  Q 1312.01 381.48 1311.82 382.58
  C 1308.96 398.93 1300.50 412.94 1285.48 420.86
  Q 1256.51 436.15 1223.98 441.64
  Q 1206.26 444.63 1181.53 446.34
  Q 1175.86 446.74 1152.07 446.93
  C 1121.66 447.18 1087.03 452.18 1059.70 454.57
  Q 1042.63 456.06 1029.94 455.87
  Q 1005.30 455.50 976.09 456.10
  Q 961.24 456.41 941.44 455.74
  C 919.92 455.01 900.62 451.47 880.01 448.16
  Q 877.49 447.75 875.47 446.69
  A 1.04 1.04 0.0 0 1 875.17 445.09
  L 876.64 443.36
  A 1.17 1.16 27.2 0 0 876.03 441.47
  Q 871.31 440.33 865.08 439.75
  Q 843.79 437.74 805.65 435.05
  C 791.01 434.02 769.05 433.26 758.07 433.22
  Q 714.36 433.09 673.15 431.58
  Q 652.93 430.84 635.71 426.37
  Q 605.81 418.62 578.48 413.95
  Q 563.17 411.33 551.24 405.37
  Q 533.74 396.62 527.45 376.93
  Q 523.39 364.22 522.16 356.18
  A 0.46 0.46 0.0 0 0 521.58 355.81
  L 512.94 358.27"
/>
<path stroke="#584735" vector-effect="non-scaling-stroke" d="
  M 1439.10 465.29
  C 1435.28 466.14 1431.77 467.42 1430.02 470.81
  C 1425.14 480.28 1421.58 487.22 1414.42 495.23
  Q 1401.79 509.35 1384.66 522.47
  Q 1372.53 531.76 1353.80 540.32
  C 1329.63 551.38 1307.01 560.79 1283.41 567.25
  Q 1243.72 578.13 1202.66 582.30"
/>
<path stroke="#a39276" vector-effect="non-scaling-stroke" d="
  M 1202.66 582.30
  L 1199.88 565.77
  A 1.72 1.68 -73.0 0 0 1199.39 564.82
  L 1184.29 549.72
  A 1.16 1.16 0.0 0 0 1183.47 549.38
  Q 1125.82 549.34 1118.51 549.43
  Q 1113.00 549.49 1113.11 544.21
  Q 1113.21 539.90 1115.97 525.19
  C 1117.94 514.73 1127.98 509.83 1137.77 509.52
  C 1146.99 509.22 1157.39 514.01 1159.02 523.98
  Q 1159.91 529.44 1159.65 536.60
  A 0.51 0.51 0.0 0 0 1160.16 537.13
  L 1195.58 537.13
  A 0.77 0.76 -4.7 0 0 1196.34 536.24
  L 1189.61 495.47
  A 0.35 0.34 -74.3 0 0 1189.50 495.27
  L 1173.90 481.03
  A 1.74 1.74 0.0 0 0 1172.72 480.57
  L 1104.00 480.57
  A 1.27 1.25 -66.7 0 0 1103.12 480.93
  L 1087.00 496.49
  A 2.27 2.26 -17.9 0 0 1086.33 497.80
  L 1076.83 561.95"
/>
<path stroke="#584735" vector-effect="non-scaling-stroke" d="
  M 1076.83 561.95
  L 1011.75 571.95"
/>
<path stroke="#a39276" vector-effect="non-scaling-stroke" d="
  M 1011.75 571.95
  L 1031.06 564.05
  A 2.19 2.15 -84.6 0 0 1032.06 563.21
  L 1038.46 553.15
  A 1.78 1.75 -32.2 0 0 1038.73 552.00
  L 1033.06 498.32
  A 1.18 1.13 -70.3 0 0 1032.76 497.65
  L 1018.06 481.52
  A 1.15 1.13 68.0 0 0 1017.23 481.16
  L 947.67 481.16
  A 1.57 1.56 21.7 0 0 946.54 481.64
  L 932.12 496.61
  A 1.66 1.64 -19.7 0 0 931.68 497.53
  L 928.72 518.89
  A 0.51 0.51 0.0 0 0 929.23 519.47
  L 958.37 519.47
  A 1.05 1.04 -75.3 0 0 959.28 518.93
  L 961.92 514.25
  A 1.04 0.90 -14.1 0 1 962.04 514.08
  Q 965.09 511.01 967.61 510.33
  Q 977.74 507.56 990.63 509.61
  C 1003.11 511.60 1005.42 526.86 1003.14 536.65
  Q 1002.44 539.61 999.78 542.38
  Q 998.29 543.93 993.94 545.56
  Q 986.24 548.45 938.06 567.09
  A 2.74 2.64 -76.5 0 0 937.20 567.64
  Q 929.10 575.28 923.13 584.08"
/>
<path stroke="#584735" vector-effect="non-scaling-stroke" d="
  M 923.13 584.08
  Q 906.12 586.53 887.87 587.22"
/>
<path stroke="#a39276" vector-effect="non-scaling-stroke" d="
  M 887.87 587.22
  L 873.13 496.75
  A 1.26 1.24 -74.3 0 0 872.71 495.99
  L 855.97 481.68
  A 2.82 2.77 65.0 0 0 854.15 481.00
  L 794.55 481.00
  A 1.78 1.75 -64.9 0 0 793.40 481.43
  L 775.93 496.62
  A 1.45 1.42 75.0 0 0 775.46 497.45
  L 766.88 548.89"
/>
<path stroke="#584735" vector-effect="non-scaling-stroke" d="
  M 766.88 548.89
  Q 746.21 552.36 725.98 546.64"
/>
<path stroke="#a39276" vector-effect="non-scaling-stroke" d="
  M 725.98 546.64
  L 720.85 498.17
  A 0.76 0.74 22.4 0 0 720.66 497.73
  L 705.90 481.55
  A 1.19 1.17 -20.7 0 0 705.02 481.16
  L 635.47 481.16
  A 0.97 0.95 22.2 0 0 634.79 481.44
  L 619.94 496.30
  A 1.35 1.31 -19.3 0 0 619.56 497.06
  L 616.50 519.12
  A 0.30 0.30 0.0 0 0 616.80 519.46
  L 646.16 519.46
  A 1.04 1.02 15.6 0 0 647.04 518.97
  Q 647.60 518.09 648.90 515.67
  C 650.96 511.85 655.06 509.96 659.20 509.41
  Q 666.18 508.49 674.04 508.95
  Q 689.34 509.83 691.32 524.90
  C 692.10 530.90 692.09 537.29 688.18 541.86
  Q 686.64 543.67 681.94 545.47
  Q 632.94 564.31 626.08 567.00
  A 2.89 2.77 10.1 0 0 625.06 567.68
  Q 617.31 575.84 611.88 581.63
  Q 611.08 582.49 611.14 584.82"
/>
<path stroke="#584735" vector-effect="non-scaling-stroke" d="
  M 611.14 584.82
  Q 596.55 581.44 585.82 580.66
  C 567.23 579.32 545.88 578.40 525.81 574.92
  Q 502.49 570.88 483.33 557.83
  Q 477.65 553.96 464.29 544.09
  C 455.94 537.92 448.37 533.18 439.45 527.13
  Q 422.55 515.68 408.13 501.31
  Q 393.62 486.84 394.81 466.74
  Q 395.18 460.43 396.68 451.61"
/>
<path stroke="#96876d" vector-effect="non-scaling-stroke" d="
  M 611.14 584.82
  L 606.69 618.98
  A 1.12 1.10 -62.9 0 0 606.97 619.88
  L 624.27 638.27
  A 1.16 1.15 -21.4 0 0 625.11 638.63
  L 721.49 638.63
  A 9.63 9.42 -35.9 0 1 724.26 639.04
  L 736.31 642.68
  A 0.37 0.37 0.0 0 0 736.78 642.27
  L 729.83 600.17
  A 0.37 0.37 0.0 0 0 729.27 599.91
  L 718.54 606.53
  A 3.19 3.12 -63.0 0 1 717.18 606.99
  Q 701.51 608.53 695.81 608.91
  Q 692.62 609.13 665.50 609.35
  C 658.05 609.42 649.05 609.04 643.28 604.17
  A 1.88 1.88 0.0 0 1 642.63 603.05
  Q 641.58 597.44 644.52 594.59
  Q 644.92 594.21 652.93 590.94
  Q 681.88 579.14 718.84 564.04
  A 2.50 2.46 4.7 0 0 719.99 563.08
  L 726.37 553.05
  A 1.54 1.53 -32.5 0 0 726.60 552.03
  L 725.98 546.64"
/>
<path stroke="#96876d" vector-effect="non-scaling-stroke" d="
  M 766.88 548.89
  L 755.29 618.44
  A 0.87 0.87 0.0 0 0 755.56 619.23
  L 776.14 638.01
  A 1.27 1.23 65.0 0 0 776.97 638.33
  L 870.71 638.33
  A 1.46 1.43 23.5 0 0 871.68 637.96
  L 892.61 618.87
  A 0.94 0.93 -26.2 0 0 892.91 618.01
  L 887.87 587.22"
/>
<path stroke="#96876d" vector-effect="non-scaling-stroke" d="
  M 923.13 584.08
  L 918.82 618.98
  A 1.12 1.12 0.0 0 0 919.12 619.88
  L 936.54 638.33
  A 0.98 0.97 68.2 0 0 937.25 638.64
  L 1034.23 638.64
  A 6.05 5.91 -36.2 0 1 1035.91 638.88
  L 1048.69 642.75
  A 0.23 0.23 0.0 0 0 1048.99 642.49
  L 1042.06 600.46
  A 0.45 0.44 70.0 0 0 1041.40 600.15
  L 1029.90 606.79
  A 1.98 1.98 0.0 0 1 1029.13 607.03
  Q 1011.34 608.72 1010.00 608.79
  Q 1002.17 609.19 980.19 609.34
  C 971.72 609.40 963.64 609.31 957.06 605.53
  C 953.36 603.39 954.25 598.77 955.80 595.49
  A 1.51 1.49 -88.3 0 1 956.59 594.74
  L 1011.75 571.95"
/>
<path stroke="#96876d" vector-effect="non-scaling-stroke" d="
  M 1076.83 561.95
  L 1067.93 621.78
  A 1.89 1.86 25.6 0 0 1068.53 623.45
  L 1083.88 637.46
  A 1.67 1.67 0.0 0 0 1085.01 637.90
  L 1191.70 637.90
  A 1.99 1.98 23.5 0 0 1193.05 637.37
  L 1208.98 622.85
  A 0.72 0.72 0.0 0 0 1209.20 622.21
  L 1202.66 582.30"
/>
<path stroke="#443626" vector-effect="non-scaling-stroke" d="
  M 1456.14 603.00
  C 1450.34 597.97 1444.15 595.75 1436.72 598.19
  C 1418.78 604.07 1402.77 613.85 1387.04 623.48
  C 1365.80 636.49 1345.43 643.89 1321.07 652.98
  C 1296.16 662.28 1273.01 667.27 1248.77 668.59
  Q 1244.86 668.80 1219.71 669.93
  C 1184.64 671.50 1161.47 680.17 1132.04 676.50
  Q 1128.08 676.01 1112.92 673.81
  C 1090.04 670.50 1065.35 672.42 1042.06 674.17
  Q 1034.51 674.74 1025.09 674.93
  C 1003.48 675.37 982.45 674.84 954.36 674.12
  C 944.89 673.88 934.33 673.91 925.78 674.29
  C 907.50 675.11 886.82 677.19 868.54 677.74
  Q 855.43 678.14 839.77 678.80
  Q 833.45 679.07 830.66 679.37
  C 812.29 681.33 794.21 683.29 775.89 683.21
  Q 728.76 683.02 699.73 683.19
  C 687.60 683.25 671.70 682.55 663.09 682.15
  C 641.68 681.14 620.97 681.36 599.03 680.86
  C 575.32 680.32 553.47 675.96 530.84 668.96
  Q 522.88 666.50 502.92 658.68
  Q 469.33 645.52 461.15 642.36
  Q 441.19 634.67 425.64 623.02
  Q 403.58 606.48 393.77 598.34
  C 381.98 588.55 376.73 577.42 374.47 562.42
  Q 371.76 544.46 367.89 526.69"
/>
<path stroke="#443626" vector-effect="non-scaling-stroke" d="
  M 998.48 831.60
  Q 988.51 816.02 972.87 805.97"
/>
<path stroke="#443626" vector-effect="non-scaling-stroke" d="
  M 877.55 820.76
  Q 867.92 820.56 858.48 820.39
  C 847.82 820.20 843.67 827.14 840.49 836.03"
/>
<path stroke="#96876d" vector-effect="non-scaling-stroke" d="
  M 1109.21 593.86
  C 1109.54 602.30 1119.18 607.33 1126.76 607.56
  Q 1138.18 607.91 1151.07 606.70
  C 1159.46 605.91 1168.64 601.57 1168.26 591.60
  C 1167.88 581.62 1158.39 577.99 1149.96 577.85
  Q 1137.02 577.63 1125.66 578.85
  C 1118.12 579.66 1108.89 585.42 1109.21 593.86"
/>
<path stroke="#a39276" vector-effect="non-scaling-stroke" d="
  M 799.99 589.44
  C 802.69 604.01 821.81 607.06 833.43 604.63
  C 841.28 602.99 846.81 598.82 848.78 591.22
  Q 851.55 580.55 850.32 568.40
  Q 848.73 552.58 846.13 534.32
  Q 845.16 527.52 843.10 522.15
  C 839.12 511.77 828.67 509.74 818.89 511.91
  C 811.03 513.66 807.94 519.60 806.03 527.02
  C 802.26 541.67 800.85 554.37 799.20 569.99
  Q 798.18 579.71 799.99 589.44"
/>
</g>
<g>
<path fill="#7a644d" d="
  M 1314.79 358.68
  Q 1312.68 365.49 1312.39 372.54
  Q 1312.01 381.48 1311.82 382.58
  C 1308.96 398.93 1300.50 412.94 1285.48 420.86
  Q 1256.51 436.15 1223.98 441.64
  Q 1206.26 444.63 1181.53 446.34
  Q 1175.86 446.74 1152.07 446.93
  C 1121.66 447.18 1087.03 452.18 1059.70 454.57
  Q 1042.63 456.06 1029.94 455.87
  Q 1005.30 455.50 976.09 456.10
  Q 961.24 456.41 941.44 455.74
  C 919.92 455.01 900.62 451.47 880.01 448.16
  Q 877.49 447.75 875.47 446.69
  A 1.04 1.04 0.0 0 1 875.17 445.09
  L 876.64 443.36
  A 1.17 1.16 27.2 0 0 876.03 441.47
  Q 871.31 440.33 865.08 439.75
  Q 843.79 437.74 805.65 435.05
  C 791.01 434.02 769.05 433.26 758.07 433.22
  Q 714.36 433.09 673.15 431.58
  Q 652.93 430.84 635.71 426.37
  Q 605.81 418.62 578.48 413.95
  Q 563.17 411.33 551.24 405.37
  Q 533.74 396.62 527.45 376.93
  Q 523.39 364.22 522.16 356.18
  A 0.46 0.46 0.0 0 0 521.58 355.81
  L 512.94 358.27
  C 518.04 356.46 523.67 354.30 528.49 353.24
  C 533.90 352.06 538.95 350.48 545.31 349.26
  Q 565.32 345.39 587.00 345.36
  C 800.56 345.08 999.98 345.21 1211.02 345.03
  Q 1222.20 345.02 1242.52 345.31
  Q 1264.36 345.61 1285.51 350.26
  C 1293.46 352.00 1304.39 354.60 1314.79 358.68
  Z"
/>
<path fill="#65523e" d="
  M 1314.79 358.68
  Q 1332.79 365.16 1339.56 368.93
  C 1345.70 372.34 1351.73 375.36 1357.32 378.95
  Q 1371.75 388.21 1375.67 391.07
  Q 1376.18 391.44 1387.64 400.69
  Q 1393.17 405.14 1398.85 411.11
  Q 1413.04 426.03 1416.97 431.24
  Q 1428.31 446.28 1430.99 451.01
  Q 1434.96 458.06 1439.10 465.29
  C 1435.28 466.14 1431.77 467.42 1430.02 470.81
  C 1425.14 480.28 1421.58 487.22 1414.42 495.23
  Q 1401.79 509.35 1384.66 522.47
  Q 1372.53 531.76 1353.80 540.32
  C 1329.63 551.38 1307.01 560.79 1283.41 567.25
  Q 1243.72 578.13 1202.66 582.30
  L 1199.88 565.77
  A 1.72 1.68 -73.0 0 0 1199.39 564.82
  L 1184.29 549.72
  A 1.16 1.16 0.0 0 0 1183.47 549.38
  Q 1125.82 549.34 1118.51 549.43
  Q 1113.00 549.49 1113.11 544.21
  Q 1113.21 539.90 1115.97 525.19
  C 1117.94 514.73 1127.98 509.83 1137.77 509.52
  C 1146.99 509.22 1157.39 514.01 1159.02 523.98
  Q 1159.91 529.44 1159.65 536.60
  A 0.51 0.51 0.0 0 0 1160.16 537.13
  L 1195.58 537.13
  A 0.77 0.76 -4.7 0 0 1196.34 536.24
  L 1189.61 495.47
  A 0.35 0.34 -74.3 0 0 1189.50 495.27
  L 1173.90 481.03
  A 1.74 1.74 0.0 0 0 1172.72 480.57
  L 1104.00 480.57
  A 1.27 1.25 -66.7 0 0 1103.12 480.93
  L 1087.00 496.49
  A 2.27 2.26 -17.9 0 0 1086.33 497.80
  L 1076.83 561.95
  L 1011.75 571.95
  L 1031.06 564.05
  A 2.19 2.15 -84.6 0 0 1032.06 563.21
  L 1038.46 553.15
  A 1.78 1.75 -32.2 0 0 1038.73 552.00
  L 1033.06 498.32
  A 1.18 1.13 -70.3 0 0 1032.76 497.65
  L 1018.06 481.52
  A 1.15 1.13 68.0 0 0 1017.23 481.16
  L 947.67 481.16
  A 1.57 1.56 21.7 0 0 946.54 481.64
  L 932.12 496.61
  A 1.66 1.64 -19.7 0 0 931.68 497.53
  L 928.72 518.89
  A 0.51 0.51 0.0 0 0 929.23 519.47
  L 958.37 519.47
  A 1.05 1.04 -75.3 0 0 959.28 518.93
  L 961.92 514.25
  A 1.04 0.90 -14.1 0 1 962.04 514.08
  Q 965.09 511.01 967.61 510.33
  Q 977.74 507.56 990.63 509.61
  C 1003.11 511.60 1005.42 526.86 1003.14 536.65
  Q 1002.44 539.61 999.78 542.38
  Q 998.29 543.93 993.94 545.56
  Q 986.24 548.45 938.06 567.09
  A 2.74 2.64 -76.5 0 0 937.20 567.64
  Q 929.10 575.28 923.13 584.08
  Q 906.12 586.53 887.87 587.22
  L 873.13 496.75
  A 1.26 1.24 -74.3 0 0 872.71 495.99
  L 855.97 481.68
  A 2.82 2.77 65.0 0 0 854.15 481.00
  L 794.55 481.00
  A 1.78 1.75 -64.9 0 0 793.40 481.43
  L 775.93 496.62
  A 1.45 1.42 75.0 0 0 775.46 497.45
  L 766.88 548.89
  Q 746.21 552.36 725.98 546.64
  L 720.85 498.17
  A 0.76 0.74 22.4 0 0 720.66 497.73
  L 705.90 481.55
  A 1.19 1.17 -20.7 0 0 705.02 481.16
  L 635.47 481.16
  A 0.97 0.95 22.2 0 0 634.79 481.44
  L 619.94 496.30
  A 1.35 1.31 -19.3 0 0 619.56 497.06
  L 616.50 519.12
  A 0.30 0.30 0.0 0 0 616.80 519.46
  L 646.16 519.46
  A 1.04 1.02 15.6 0 0 647.04 518.97
  Q 647.60 518.09 648.90 515.67
  C 650.96 511.85 655.06 509.96 659.20 509.41
  Q 666.18 508.49 674.04 508.95
  Q 689.34 509.83 691.32 524.90
  C 692.10 530.90 692.09 537.29 688.18 541.86
  Q 686.64 543.67 681.94 545.47
  Q 632.94 564.31 626.08 567.00
  A 2.89 2.77 10.1 0 0 625.06 567.68
  Q 617.31 575.84 611.88 581.63
  Q 611.08 582.49 611.14 584.82
  Q 596.55 581.44 585.82 580.66
  C 567.23 579.32 545.88 578.40 525.81 574.92
  Q 502.49 570.88 483.33 557.83
  Q 477.65 553.96 464.29 544.09
  C 455.94 537.92 448.37 533.18 439.45 527.13
  Q 422.55 515.68 408.13 501.31
  Q 393.62 486.84 394.81 466.74
  Q 395.18 460.43 396.68 451.61
  Q 402.55 442.04 405.09 438.59
  C 409.42 432.69 417.44 422.61 423.99 416.24
  C 427.69 412.64 432.10 407.60 436.29 403.87
  Q 443.23 397.69 455.99 388.15
  C 460.40 384.85 465.36 382.15 470.19 378.84
  Q 475.09 375.47 479.26 373.26
  C 482.93 371.31 486.98 368.62 491.77 366.59
  Q 502.26 362.15 512.94 358.27
  L 521.58 355.81
  A 0.46 0.46 0.0 0 1 522.16 356.18
  Q 523.39 364.22 527.45 376.93
  Q 533.74 396.62 551.24 405.37
  Q 563.17 411.33 578.48 413.95
  Q 605.81 418.62 635.71 426.37
  Q 652.93 430.84 673.15 431.58
  Q 714.36 433.09 758.07 433.22
  C 769.05 433.26 791.01 434.02 805.65 435.05
  Q 843.79 437.74 865.08 439.75
  Q 871.31 440.33 876.03 441.47
  A 1.17 1.16 27.2 0 1 876.64 443.36
  L 875.17 445.09
  A 1.04 1.04 0.0 0 0 875.47 446.69
  Q 877.49 447.75 880.01 448.16
  C 900.62 451.47 919.92 455.01 941.44 455.74
  Q 961.24 456.41 976.09 456.10
  Q 1005.30 455.50 1029.94 455.87
  Q 1042.63 456.06 1059.70 454.57
  C 1087.03 452.18 1121.66 447.18 1152.07 446.93
  Q 1175.86 446.74 1181.53 446.34
  Q 1206.26 444.63 1223.98 441.64
  Q 1256.51 436.15 1285.48 420.86
  C 1300.50 412.94 1308.96 398.93 1311.82 382.58
  Q 1312.01 381.48 1312.39 372.54
  Q 1312.68 365.49 1314.79 358.68
  Z"
/>
<path fill="#4b3c2b" d="
  M 396.68 451.61
  Q 395.18 460.43 394.81 466.74
  Q 393.62 486.84 408.13 501.31
  Q 422.55 515.68 439.45 527.13
  C 448.37 533.18 455.94 537.92 464.29 544.09
  Q 477.65 553.96 483.33 557.83
  Q 502.49 570.88 525.81 574.92
  C 545.88 578.40 567.23 579.32 585.82 580.66
  Q 596.55 581.44 611.14 584.82
  L 606.69 618.98
  A 1.12 1.10 -62.9 0 0 606.97 619.88
  L 624.27 638.27
  A 1.16 1.15 -21.4 0 0 625.11 638.63
  L 721.49 638.63
  A 9.63 9.42 -35.9 0 1 724.26 639.04
  L 736.31 642.68
  A 0.37 0.37 0.0 0 0 736.78 642.27
  L 729.83 600.17
  A 0.37 0.37 0.0 0 0 729.27 599.91
  L 718.54 606.53
  A 3.19 3.12 -63.0 0 1 717.18 606.99
  Q 701.51 608.53 695.81 608.91
  Q 692.62 609.13 665.50 609.35
  C 658.05 609.42 649.05 609.04 643.28 604.17
  A 1.88 1.88 0.0 0 1 642.63 603.05
  Q 641.58 597.44 644.52 594.59
  Q 644.92 594.21 652.93 590.94
  Q 681.88 579.14 718.84 564.04
  A 2.50 2.46 4.7 0 0 719.99 563.08
  L 726.37 553.05
  A 1.54 1.53 -32.5 0 0 726.60 552.03
  L 725.98 546.64
  Q 746.21 552.36 766.88 548.89
  L 755.29 618.44
  A 0.87 0.87 0.0 0 0 755.56 619.23
  L 776.14 638.01
  A 1.27 1.23 65.0 0 0 776.97 638.33
  L 870.71 638.33
  A 1.46 1.43 23.5 0 0 871.68 637.96
  L 892.61 618.87
  A 0.94 0.93 -26.2 0 0 892.91 618.01
  L 887.87 587.22
  Q 906.12 586.53 923.13 584.08
  L 918.82 618.98
  A 1.12 1.12 0.0 0 0 919.12 619.88
  L 936.54 638.33
  A 0.98 0.97 68.2 0 0 937.25 638.64
  L 1034.23 638.64
  A 6.05 5.91 -36.2 0 1 1035.91 638.88
  L 1048.69 642.75
  A 0.23 0.23 0.0 0 0 1048.99 642.49
  L 1042.06 600.46
  A 0.45 0.44 70.0 0 0 1041.40 600.15
  L 1029.90 606.79
  A 1.98 1.98 0.0 0 1 1029.13 607.03
  Q 1011.34 608.72 1010.00 608.79
  Q 1002.17 609.19 980.19 609.34
  C 971.72 609.40 963.64 609.31 957.06 605.53
  C 953.36 603.39 954.25 598.77 955.80 595.49
  A 1.51 1.49 -88.3 0 1 956.59 594.74
  L 1011.75 571.95
  L 1076.83 561.95
  L 1067.93 621.78
  A 1.89 1.86 25.6 0 0 1068.53 623.45
  L 1083.88 637.46
  A 1.67 1.67 0.0 0 0 1085.01 637.90
  L 1191.70 637.90
  A 1.99 1.98 23.5 0 0 1193.05 637.37
  L 1208.98 622.85
  A 0.72 0.72 0.0 0 0 1209.20 622.21
  L 1202.66 582.30
  Q 1243.72 578.13 1283.41 567.25
  C 1307.01 560.79 1329.63 551.38 1353.80 540.32
  Q 1372.53 531.76 1384.66 522.47
  Q 1401.79 509.35 1414.42 495.23
  C 1421.58 487.22 1425.14 480.28 1430.02 470.81
  C 1431.77 467.42 1435.28 466.14 1439.10 465.29
  Q 1441.33 470.53 1443.84 475.74
  Q 1446.97 482.22 1448.19 486.33
  Q 1448.63 487.80 1452.49 497.77
  Q 1453.10 499.35 1453.50 501.23
  Q 1454.62 506.48 1458.01 523.54
  Q 1460.44 535.76 1460.84 546.09
  Q 1461.54 564.54 1460.13 580.78
  Q 1459.66 586.16 1456.14 603.00
  C 1450.34 597.97 1444.15 595.75 1436.72 598.19
  C 1418.78 604.07 1402.77 613.85 1387.04 623.48
  C 1365.80 636.49 1345.43 643.89 1321.07 652.98
  C 1296.16 662.28 1273.01 667.27 1248.77 668.59
  Q 1244.86 668.80 1219.71 669.93
  C 1184.64 671.50 1161.47 680.17 1132.04 676.50
  Q 1128.08 676.01 1112.92 673.81
  C 1090.04 670.50 1065.35 672.42 1042.06 674.17
  Q 1034.51 674.74 1025.09 674.93
  C 1003.48 675.37 982.45 674.84 954.36 674.12
  C 944.89 673.88 934.33 673.91 925.78 674.29
  C 907.50 675.11 886.82 677.19 868.54 677.74
  Q 855.43 678.14 839.77 678.80
  Q 833.45 679.07 830.66 679.37
  C 812.29 681.33 794.21 683.29 775.89 683.21
  Q 728.76 683.02 699.73 683.19
  C 687.60 683.25 671.70 682.55 663.09 682.15
  C 641.68 681.14 620.97 681.36 599.03 680.86
  C 575.32 680.32 553.47 675.96 530.84 668.96
  Q 522.88 666.50 502.92 658.68
  Q 469.33 645.52 461.15 642.36
  Q 441.19 634.67 425.64 623.02
  Q 403.58 606.48 393.77 598.34
  C 381.98 588.55 376.73 577.42 374.47 562.42
  Q 371.76 544.46 367.89 526.69
  Q 368.94 518.76 371.30 511.10
  Q 373.54 503.85 373.63 503.40
  C 374.18 500.53 375.15 496.51 376.57 493.12
  C 382.62 478.73 387.61 465.21 396.68 451.61
  Z"
/>
<path fill="#e0d2ae" d="
  M 1202.66 582.30
  L 1209.20 622.21
  A 0.72 0.72 0.0 0 1 1208.98 622.85
  L 1193.05 637.37
  A 1.99 1.98 23.5 0 1 1191.70 637.90
  L 1085.01 637.90
  A 1.67 1.67 0.0 0 1 1083.88 637.46
  L 1068.53 623.45
  A 1.89 1.86 25.6 0 1 1067.93 621.78
  L 1076.83 561.95
  L 1086.33 497.80
  A 2.27 2.26 -17.9 0 1 1087.00 496.49
  L 1103.12 480.93
  A 1.27 1.25 -66.7 0 1 1104.00 480.57
  L 1172.72 480.57
  A 1.74 1.74 0.0 0 1 1173.90 481.03
  L 1189.50 495.27
  A 0.35 0.34 -74.3 0 1 1189.61 495.47
  L 1196.34 536.24
  A 0.77 0.76 -4.7 0 1 1195.58 537.13
  L 1160.16 537.13
  A 0.51 0.51 0.0 0 1 1159.65 536.60
  Q 1159.91 529.44 1159.02 523.98
  C 1157.39 514.01 1146.99 509.22 1137.77 509.52
  C 1127.98 509.83 1117.94 514.73 1115.97 525.19
  Q 1113.21 539.90 1113.11 544.21
  Q 1113.00 549.49 1118.51 549.43
  Q 1125.82 549.34 1183.47 549.38
  A 1.16 1.16 0.0 0 1 1184.29 549.72
  L 1199.39 564.82
  A 1.72 1.68 -73.0 0 1 1199.88 565.77
  L 1202.66 582.30
  Z
  M 1109.21 593.86
  C 1109.54 602.30 1119.18 607.33 1126.76 607.56
  Q 1138.18 607.91 1151.07 606.70
  C 1159.46 605.91 1168.64 601.57 1168.26 591.60
  C 1167.88 581.62 1158.39 577.99 1149.96 577.85
  Q 1137.02 577.63 1125.66 578.85
  C 1118.12 579.66 1108.89 585.42 1109.21 593.86
  Z"
/>
<path fill="#e0d2ae" d="
  M 887.87 587.22
  L 892.91 618.01
  A 0.94 0.93 -26.2 0 1 892.61 618.87
  L 871.68 637.96
  A 1.46 1.43 23.5 0 1 870.71 638.33
  L 776.97 638.33
  A 1.27 1.23 65.0 0 1 776.14 638.01
  L 755.56 619.23
  A 0.87 0.87 0.0 0 1 755.29 618.44
  L 766.88 548.89
  L 775.46 497.45
  A 1.45 1.42 75.0 0 1 775.93 496.62
  L 793.40 481.43
  A 1.78 1.75 -64.9 0 1 794.55 481.00
  L 854.15 481.00
  A 2.82 2.77 65.0 0 1 855.97 481.68
  L 872.71 495.99
  A 1.26 1.24 -74.3 0 1 873.13 496.75
  L 887.87 587.22
  Z
  M 799.99 589.44
  C 802.69 604.01 821.81 607.06 833.43 604.63
  C 841.28 602.99 846.81 598.82 848.78 591.22
  Q 851.55 580.55 850.32 568.40
  Q 848.73 552.58 846.13 534.32
  Q 845.16 527.52 843.10 522.15
  C 839.12 511.77 828.67 509.74 818.89 511.91
  C 811.03 513.66 807.94 519.60 806.03 527.02
  C 802.26 541.67 800.85 554.37 799.20 569.99
  Q 798.18 579.71 799.99 589.44
  Z"
/>
<path fill="#e0d2ae" d="
  M 1011.75 571.95
  L 956.59 594.74
  A 1.51 1.49 -88.3 0 0 955.80 595.49
  C 954.25 598.77 953.36 603.39 957.06 605.53
  C 963.64 609.31 971.72 609.40 980.19 609.34
  Q 1002.17 609.19 1010.00 608.79
  Q 1011.34 608.72 1029.13 607.03
  A 1.98 1.98 0.0 0 0 1029.90 606.79
  L 1041.40 600.15
  A 0.45 0.44 70.0 0 1 1042.06 600.46
  L 1048.99 642.49
  A 0.23 0.23 0.0 0 1 1048.69 642.75
  L 1035.91 638.88
  A 6.05 5.91 -36.2 0 0 1034.23 638.64
  L 937.25 638.64
  A 0.98 0.97 68.2 0 1 936.54 638.33
  L 919.12 619.88
  A 1.12 1.12 0.0 0 1 918.82 618.98
  L 923.13 584.08
  Q 929.10 575.28 937.20 567.64
  A 2.74 2.64 -76.5 0 1 938.06 567.09
  Q 986.24 548.45 993.94 545.56
  Q 998.29 543.93 999.78 542.38
  Q 1002.44 539.61 1003.14 536.65
  C 1005.42 526.86 1003.11 511.60 990.63 509.61
  Q 977.74 507.56 967.61 510.33
  Q 965.09 511.01 962.04 514.08
  A 1.04 0.90 -14.1 0 0 961.92 514.25
  L 959.28 518.93
  A 1.05 1.04 -75.3 0 1 958.37 519.47
  L 929.23 519.47
  A 0.51 0.51 0.0 0 1 928.72 518.89
  L 931.68 497.53
  A 1.66 1.64 -19.7 0 1 932.12 496.61
  L 946.54 481.64
  A 1.57 1.56 21.7 0 1 947.67 481.16
  L 1017.23 481.16
  A 1.15 1.13 68.0 0 1 1018.06 481.52
  L 1032.76 497.65
  A 1.18 1.13 -70.3 0 1 1033.06 498.32
  L 1038.73 552.00
  A 1.78 1.75 -32.2 0 1 1038.46 553.15
  L 1032.06 563.21
  A 2.19 2.15 -84.6 0 1 1031.06 564.05
  L 1011.75 571.95
  Z"
/>
<path fill="#e0d2ae" d="
  M 725.98 546.64
  L 726.60 552.03
  A 1.54 1.53 -32.5 0 1 726.37 553.05
  L 719.99 563.08
  A 2.50 2.46 4.7 0 1 718.84 564.04
  Q 681.88 579.14 652.93 590.94
  Q 644.92 594.21 644.52 594.59
  Q 641.58 597.44 642.63 603.05
  A 1.88 1.88 0.0 0 0 643.28 604.17
  C 649.05 609.04 658.05 609.42 665.50 609.35
  Q 692.62 609.13 695.81 608.91
  Q 701.51 608.53 717.18 606.99
  A 3.19 3.12 -63.0 0 0 718.54 606.53
  L 729.27 599.91
  A 0.37 0.37 0.0 0 1 729.83 600.17
  L 736.78 642.27
  A 0.37 0.37 0.0 0 1 736.31 642.68
  L 724.26 639.04
  A 9.63 9.42 -35.9 0 0 721.49 638.63
  L 625.11 638.63
  A 1.16 1.15 -21.4 0 1 624.27 638.27
  L 606.97 619.88
  A 1.12 1.10 -62.9 0 1 606.69 618.98
  L 611.14 584.82
  Q 611.08 582.49 611.88 581.63
  Q 617.31 575.84 625.06 567.68
  A 2.89 2.77 10.1 0 1 626.08 567.00
  Q 632.94 564.31 681.94 545.47
  Q 686.64 543.67 688.18 541.86
  C 692.09 537.29 692.10 530.90 691.32 524.90
  Q 689.34 509.83 674.04 508.95
  Q 666.18 508.49 659.20 509.41
  C 655.06 509.96 650.96 511.85 648.90 515.67
  Q 647.60 518.09 647.04 518.97
  A 1.04 1.02 15.6 0 1 646.16 519.46
  L 616.80 519.46
  A 0.30 0.30 0.0 0 1 616.50 519.12
  L 619.56 497.06
  A 1.35 1.31 -19.3 0 1 619.94 496.30
  L 634.79 481.44
  A 0.97 0.95 22.2 0 1 635.47 481.16
  L 705.02 481.16
  A 1.19 1.17 -20.7 0 1 705.90 481.55
  L 720.66 497.73
  A 0.76 0.74 22.4 0 1 720.85 498.17
  L 725.98 546.64
  Z"
/>
<path fill="#3c2f21" d="
  M 367.89 526.69
  Q 371.76 544.46 374.47 562.42
  C 376.73 577.42 381.98 588.55 393.77 598.34
  Q 403.58 606.48 425.64 623.02
  Q 441.19 634.67 461.15 642.36
  Q 469.33 645.52 502.92 658.68
  Q 522.88 666.50 530.84 668.96
  C 553.47 675.96 575.32 680.32 599.03 680.86
  C 620.97 681.36 641.68 681.14 663.09 682.15
  C 671.70 682.55 687.60 683.25 699.73 683.19
  Q 728.76 683.02 775.89 683.21
  C 794.21 683.29 812.29 681.33 830.66 679.37
  Q 833.45 679.07 839.77 678.80
  Q 855.43 678.14 868.54 677.74
  C 886.82 677.19 907.50 675.11 925.78 674.29
  C 934.33 673.91 944.89 673.88 954.36 674.12
  C 982.45 674.84 1003.48 675.37 1025.09 674.93
  Q 1034.51 674.74 1042.06 674.17
  C 1065.35 672.42 1090.04 670.50 1112.92 673.81
  Q 1128.08 676.01 1132.04 676.50
  C 1161.47 680.17 1184.64 671.50 1219.71 669.93
  Q 1244.86 668.80 1248.77 668.59
  C 1273.01 667.27 1296.16 662.28 1321.07 652.98
  C 1345.43 643.89 1365.80 636.49 1387.04 623.48
  C 1402.77 613.85 1418.78 604.07 1436.72 598.19
  C 1444.15 595.75 1450.34 597.97 1456.14 603.00
  Q 1454.66 609.68 1453.28 616.49
  C 1452.53 620.19 1448.97 626.76 1447.36 632.44
  C 1445.63 638.55 1442.03 644.38 1440.23 649.09
  C 1438.40 653.92 1435.47 657.73 1432.85 662.79
  Q 1430.83 666.67 1428.65 669.83
  C 1426.73 672.63 1424.95 676.15 1422.58 678.90
  C 1419.78 682.14 1417.86 685.60 1414.91 689.15
  Q 1402.05 704.61 1388.70 716.44
  C 1386.28 718.58 1382.65 720.99 1379.97 723.79
  A 7.23 7.05 3.7 0 1 1378.92 724.69
  Q 1369.01 731.78 1362.95 735.94
  Q 1359.27 738.47 1342.59 747.35
  Q 1337.45 750.08 1334.49 751.05
  C 1330.65 752.31 1327.87 754.04 1323.53 755.62
  Q 1306.69 761.75 1298.55 763.54
  C 1291.05 765.19 1284.07 767.03 1276.73 768.06
  Q 1256.39 770.90 1230.00 770.92
  Q 1098.74 770.99 1070.74 770.81
  Q 1066.09 770.77 1062.99 773.74
  Q 1062.11 774.58 1051.76 783.86
  C 1042.59 792.09 1036.05 798.17 1028.23 804.73
  Q 1022.87 809.23 1018.11 814.10
  C 1016.14 816.12 1013.04 817.91 1011.14 820.00
  Q 1008.64 822.73 1005.63 825.04
  A 8.88 8.79 -88.2 0 0 1004.30 826.30
  Q 1001.77 829.28 998.48 831.60
  Q 988.51 816.02 972.87 805.97
  L 1009.87 772.54
  A 1.03 1.03 0.0 0 0 1009.04 770.76
  Q 1004.71 771.34 993.91 770.97
  Q 989.03 770.81 978.60 770.83
  Q 893.64 771.00 840.75 770.46
  Q 831.14 770.37 825.48 770.71
  Q 824.63 770.77 824.15 770.95
  A 0.81 0.81 0.0 0 0 823.90 772.30
  L 871.20 815.47
  A 2.51 1.59 5.9 0 0 871.44 815.66
  Q 874.77 817.82 877.55 820.76
  Q 867.92 820.56 858.48 820.39
  C 847.82 820.20 843.67 827.14 840.49 836.03
  C 836.46 833.10 832.50 829.35 829.19 826.45
  Q 817.61 816.31 804.14 804.11
  Q 800.42 800.74 789.99 791.96
  C 784.04 786.96 778.24 781.04 773.28 776.94
  C 771.82 775.74 770.76 774.12 769.48 772.91
  A 4.18 4.14 76.5 0 0 768.09 772.05
  Q 764.53 770.73 760.75 770.73
  Q 650.50 770.72 594.00 770.84
  C 586.68 770.86 574.84 771.21 566.37 770.01
  C 555.61 768.49 547.90 768.24 538.54 765.78
  C 533.85 764.55 529.39 764.21 524.64 762.65
  C 516.49 759.97 508.58 758.09 501.38 754.86
  Q 490.22 749.84 489.39 749.37
  C 482.68 745.57 476.93 743.31 470.95 739.72
  Q 442.55 722.68 420.00 697.75
  Q 417.52 695.01 408.30 683.60
  C 405.34 679.94 403.96 677.01 401.27 673.83
  C 398.59 670.67 396.24 665.75 394.41 662.87
  Q 392.63 660.09 390.57 655.85
  Q 383.94 642.26 377.62 627.43
  Q 375.81 623.18 374.73 618.62
  C 372.92 611.01 369.56 600.05 368.54 594.44
  Q 367.22 587.16 366.59 575.26
  Q 365.30 550.95 367.89 526.69
  Z"
/>
<path fill="#4b3c2b" d="
  M 972.87 805.97
  Q 988.51 816.02 998.48 831.60
  L 917.91 903.35
  A 1.45 1.44 -44.8 0 1 916.00 903.35
  Q 907.90 896.22 904.97 893.77
  Q 901.47 890.85 899.36 888.69
  C 897.18 886.46 894.33 884.67 891.57 882.12
  Q 879.29 870.75 878.24 869.94
  C 871.41 864.66 866.66 859.81 860.68 854.59
  Q 850.35 845.56 840.49 836.03
  C 843.67 827.14 847.82 820.20 858.48 820.39
  Q 867.92 820.56 877.55 820.76
  Q 888.65 831.00 899.81 841.44
  C 902.61 844.06 904.66 846.66 907.32 848.69
  Q 909.88 850.64 915.40 855.45
  A 2.56 2.53 74.7 0 0 916.23 855.93
  Q 917.89 856.47 920.25 854.49
  Q 923.13 852.08 932.81 842.56
  Q 939.13 836.35 945.40 830.67
  Q 959.15 818.22 972.87 805.97
  Z"
/>
</g>
<g>
<path fill="#65523e" d="
  M 833.43 604.63
  C 821.81 607.06 802.69 604.01 799.99 589.44
  Q 798.18 579.71 799.20 569.99
  C 800.85 554.37 802.26 541.67 806.03 527.02
  C 807.94 519.60 811.03 513.66 818.89 511.91
  C 828.67 509.74 839.12 511.77 843.10 522.15
  Q 845.16 527.52 846.13 534.32
  Q 848.73 552.58 850.32 568.40
  Q 851.55 580.55 848.78 591.22
  C 846.81 598.82 841.28 602.99 833.43 604.63
  Z"
/>
<path fill="#4b3c2b" d="
  M 1168.26 591.60
  C 1168.64 601.57 1159.46 605.91 1151.07 606.70
  Q 1138.18 607.91 1126.76 607.56
  C 1119.18 607.33 1109.54 602.30 1109.21 593.86
  C 1108.89 585.42 1118.12 579.66 1125.66 578.85
  Q 1137.02 577.63 1149.96 577.85
  C 1158.39 577.99 1167.88 581.62 1168.26 591.60
  Z"
/>
</g>
</svg>
