<svg xmlns="http://www.w3.org/2000/svg" viewBox="0 0 1801 1126"><g fill="none" stroke-width="2"><path stroke="#745f49" d="M1315.54 358.95q-8.06 10.59-11.51 23.28-2.58 9.44-5.31 16.43-4.19 10.7-15.51 16.23-19.4 9.5-41.12 14.98c-9.63 2.43-21.19 3.58-31.4 4.63-32.69 3.34-65.6 4.68-99.55 6.53q-5.05.28-15.82 1.4c-15.33 1.59-24.42 2.65-39.56 3.42q-19.22.99-38.76 2.78c-8.68.8-19.06 1.12-26.1.99q-23.48-.42-47.4-.64c-7.86-.07-17.54-.55-23.45-1.69q-22.92-4.46-27.49-4.98-21.08-2.41-69.5-6.25-33.15-2.63-67.2-2.85c-34.75-.22-57.25-.34-85.02-3.66q-12.67-1.52-37.26-5.19c-16.42-2.45-32.05-6.44-48.53-9.3-19.87-3.45-43.54-8.85-53.5-28.33q-2.62-5.11-6.7-13.14-3.22-6.33-11.21-15.56" vector-effect="non-scaling-stroke"/><path stroke="#64513e" d="M1405.27 417.79q-10.81 18.73-22.57 36.45-11.5 17.31-23.48 29.14-12.63 12.47-29.5 21.25-23.41 12.18-44.34 19.53-26.25 9.23-58.75 16.43-19.74 4.37-43 .54" vector-effect="non-scaling-stroke"/><path stroke="#a8967a" d="M1183.63 541.13q-34.51-.93-57.86-.48c-10.72.21-9.78-11.23-7.07-17.75 2.61-6.26 13.18-8.14 19.06-8.68 12.64-1.18 25.61.16 38.77 1.79a3.51 3.44-28.2 0 1 1.03.3l16.29 7.64a.5.5 0 0 0 .71-.52l-5.95-41.92a.46.46 0 0 0-.67-.34l-9.96 5.33a2.7 2.7-56.2 0 1-1.51.3c-11.48-1.15-23.91-2.3-35.29-1q-8.25.95-18.09 2.36a.67.67 0 0 1-.67-1.02l5.15-8.1a.44.43 18.8 0 0-.33-.66l-39.85-3.96a.33.33 0 0 0-.36.41l3.35 14.24a4.68 4.61 42.9 0 1 .08 1.81l-9.45 64.45a1.16 1.14-63.9 0 0 .33 1l15.54 15.55a1.2 1.2 0 0 0 .87.36l42.71.06" vector-effect="non-scaling-stroke"/><path stroke="#64513e" d="M1140.46 572.3c-14.41.44-29 1.18-43.41.68q-.51-.02-1.24-.62-.64-.52-1.21-.73-18.89-6.97-38.5-5.55-21.15 1.52-44.22 5.93" vector-effect="non-scaling-stroke"/><path stroke="#a8967a" d="m1011.88 572.01 19.14-7.88a2.69 2.65-84.7 0 0 1.21-1.02l6.3-9.92a1.9 1.88 58.4 0 0 .29-1.25l-5.67-53.81a1.71 1.7-70 0 0-.46-1l-14.81-15.59a1.3 1.3 0 0 0-.9-.38h-69.35a1.14 1.12 21.7 0 0-.81.34l-14.56 15.1a1.6 1.6 0 0 0-.45.93l-.84 5.81" vector-effect="non-scaling-stroke"/><path stroke="#64513e" d="M930.97 503.34q-28.64 2.92-56.92-1.83" vector-effect="non-scaling-stroke"/><path stroke="#a8967a" d="m874.05 501.51-.85-4.8a1.33 1.3 16 0 0-.44-.77l-16.71-14.28a2.74 2.7-24.4 0 0-1.77-.65h-59.52a2 2-65.3 0 0-1.32.49l-17.39 15.1a1.41 1.34-16.9 0 0-.46.81l-2.86 17.11" vector-effect="non-scaling-stroke"/><path stroke="#64513e" d="M772.73 514.52c-16.86-5.7-33.44-7.74-50.99-9.31" vector-effect="non-scaling-stroke"/><path stroke="#a8967a" d="m721.74 505.21-.86-7.35a1.2 1.2 0 0 0-.31-.66l-14.94-15.72a1 .97-20.6 0 0-.73-.32h-69.29a1.55 1.52 21.5 0 0-1.11.47l-14.41 14.88a1.36 1.35-19.2 0 0-.37.76l-3.15 21.44a.65.65 0 0 0 .64.75h28.92a1.17 1.15-71.1 0 0 .92-.46c1.39-1.82 2.21-4.41 3.94-6q3.01-2.77 8.01-3.5c10.49-1.52 26.27-2.24 30.69 9.02 3.31 8.44 4.19 22.56-6.37 26.45" vector-effect="non-scaling-stroke"/><path stroke="#64513e" d="M683.32 544.97q-20.15-1.28-40.19-3.11-8.14-.74-9.83-.77-37.59-.65-75.07-6.78-18.04-2.95-35.31-11.16c-25.48-12.12-50.71-27.55-70.88-47.27-19.26-18.83-22.13-43.73-18.15-69.65" vector-effect="non-scaling-stroke"/><path stroke="#9d8d72" d="M1011.88 572.01q-26.1 10.44-52.32 21.28-2.95 1.22-3.57 2.18c-1.36 2.09-2.3 7.45.04 9.23 5.39 4.11 13.58 4.64 20.72 4.63 13.38-.01 26.94.14 40.26-1.13l12.48-1.19a4.4 4.24 22.8 0 0 1.5-.58l10.41-6.43a.38.38 0 0 1 .57.26l4.21 24.52" vector-effect="non-scaling-stroke"/><path stroke="#93846a" d="m1046.18 624.78 2.88 17.43a.4.4 0 0 1-.52.46l-12.33-3.73a7.15 7.05 53 0 0-2.04-.3h-96.66a1.19 1.18-21.2 0 1-.87-.38l-17.46-18.37a1.03 1.02-63.2 0 1-.27-.83l4.83-36.87" vector-effect="non-scaling-stroke"/><path stroke="#9d8d72" d="m923.74 582.19 13.49-14.47a2.35 2.25-78 0 1 .87-.59q44.72-17.32 55.38-21.35 4.76-1.8 6.16-3.17c5.4-5.31 5.01-13.96 3.26-21.07q-2.5-10.2-12.88-12.04-10.08-1.78-21.26.53-2.7.55-5.66 3.06c-1.62 1.37-2.53 3.94-3.84 5.96a.92.91 16.3 0 1-.77.42H929.5a.66.65 3.8 0 1-.65-.74l2.12-15.39m-247.65 41.63-57.33 22.09a2.23 2.15 10.2 0 0-.81.54l-13.17 14.02a1.81 1.79-20.3 0 0-.47 1.01l-4.15 31.63" vector-effect="non-scaling-stroke"/><path stroke="#4f3f2e" d="M607.39 614.26q-11.74.62-19.33-.03-10.94-.93-44.6-4.85c-24.22-2.82-48.08-8.05-69.87-19.03-20.58-10.37-40-21.94-54.2-39.39q-12.28-15.1-25.84-29.82-8.94-9.71-18.28-24.76" vector-effect="non-scaling-stroke"/><path stroke="#9d8d72" d="m874.05 501.51 14.14 87.02" vector-effect="non-scaling-stroke"/><path stroke="#93846a" d="m888.19 588.53 4.82 29.48a.99.98 64.1 0 1-.3.89L871.72 638a1.3 1.28-65.5 0 1-.86.33h-93.47a1.69 1.67 65.7 0 1-1.12-.43l-18.31-16.47" vector-effect="non-scaling-stroke"/><path stroke="#9d8d72" d="m757.96 621.43-2.25-2.08a.91.9 26.6 0 1-.28-.83l17.3-104" vector-effect="non-scaling-stroke"/><path stroke="#93846a" d="m1189.71 638.33-104.7-.05a1.31 1.28-23.2 0 1-.88-.34l-16.07-14.3" vector-effect="non-scaling-stroke"/><path stroke="#9d8d72" d="m1068.06 623.64 3.94-28.84a.66.65 3.5 0 1 .65-.57h32.59a.7.7 0 0 1 .66.55c1.65 9.18 6.08 13.31 15.29 13.82q17.06.95 32.53-.9 7.09-.85 10.93-4.8 2.81-2.9 3.2-4.95 2.01-10.84-3.97-20.62c-1.91-3.13-4.75-4.92-8.16-5q-3.3-.09-15.26-.03" vector-effect="non-scaling-stroke"/><path stroke="#4f3f2e" d="M1459.63 532.42c-10.62 8.16-23.25 14.27-32.63 21.25q-9.13 6.81-21.58 16.02-29.73 22.02-62.07 34.96-14.58 5.83-42.92 14.31-21.6 6.47-43.76 11.58c-22.01 5.09-44.31 7.92-66.96 7.79" vector-effect="non-scaling-stroke"/><path stroke="#9d8d72" d="m1189.71 638.33 2.6-.05a1.3 1.27 21.9 0 0 .87-.36l16.04-15.23a1.4 1.4 64.5 0 0 .41-1.17l-9.04-63.71a1.52 1.51 18.2 0 0-.46-.9l-16.5-15.78m-461.89-35.92 4.94 47.01a1.2 1.18-32.5 0 1-.18.78l-6.48 10.2a1.48 1.46 4.6 0 1-.69.58l-74.22 30.44a2.73 2.7-87.4 0 0-1.39 1.28q-1.82 3.6-1.01 7.66a1.97 1.96 15.2 0 0 .63 1.09c4.18 3.78 11.87 4.92 17.67 5.01q12.96.19 31.31-.24c8.02-.19 15.48-1.15 24.69-1.96a3.94 3.9-63.3 0 0 1.76-.59l10.56-6.56a.4.4 69.3 0 1 .61.28l5.21 31.55" vector-effect="non-scaling-stroke"/><path stroke="#93846a" d="m735.15 631.74 1.74 10.66a.31.3-85.4 0 1-.39.34c-5.1-1.65-11.37-4.17-17-4.14l-94.03.04a1.53 1.48-21.3 0 1-1.09-.46l-17.3-18.21a.99.98 27.3 0 1-.25-.77l.56-4.94" vector-effect="non-scaling-stroke"/><path stroke="#4f3f2e" d="M735.15 631.74q12.18-3.55 22.81-10.31m130.23-32.9q17.94-2.31 35.55-6.34m122.44 42.59 21.88-1.14M998.03 832q-11.4-14.07-25.39-25.84m-78.44 30.11c-9.73-7.02-20.5-13.95-32.64-14.61-8.32-.46-16.22 2.57-16.53 12.21q-.09 2.65.49 6.74" vector-effect="non-scaling-stroke"/><path stroke="#9d8d72" d="M839.9 602.51c11.56-5.68 11.65-23.27 10.49-34.52q-1.59-15.56-4.1-33.25c-1.25-8.84-3.65-18.87-12.13-22.13q-6.51-2.5-15.22-.67c-6.93 1.47-10.62 6.9-12.35 13.39-4.06 15.24-5.49 27.53-7.34 45.42q-.62 6.03-.06 12.28c.67 7.35 2.26 13.69 8.29 17.47 9 5.65 22.88 6.69 32.42 2.01" vector-effect="non-scaling-stroke"/></g><path fill="#78634c" d="M1315.54 358.95q-8.06 10.59-11.51 23.28-2.58 9.44-5.31 16.43-4.19 10.7-15.51 16.23-19.4 9.5-41.12 14.98c-9.63 2.43-21.19 3.58-31.4 4.63-32.69 3.34-65.6 4.68-99.55 6.53q-5.05.28-15.82 1.4c-15.33 1.59-24.42 2.65-39.56 3.42q-19.22.99-38.76 2.78c-8.68.8-19.06 1.12-26.1.99q-23.48-.42-47.4-.64c-7.86-.07-17.54-.55-23.45-1.69q-22.92-4.46-27.49-4.98-21.08-2.41-69.5-6.25-33.15-2.63-67.2-2.85c-34.75-.22-57.25-.34-85.02-3.66q-12.67-1.52-37.26-5.19c-16.42-2.45-32.05-6.44-48.53-9.3-19.87-3.45-43.54-8.85-53.5-28.33q-2.62-5.11-6.7-13.14-3.22-6.33-11.21-15.56a157 157 0 0 1 15.64-4.99q10.27-2.55 10.79-2.66a203 203 0 0 1 40.01-4.82q12.88-.29 36.17-.29 481.35-.12 599.25-.25 4.16-.01 27.25.29 21.67.29 42.75 4.98c11.72 2.6 19.46 4.59 30.04 8.66"/><path fill="#6f5a45" d="M513.64 358.03q7.99 9.23 11.21 15.56 4.08 8.03 6.7 13.14c9.96 19.48 33.63 24.88 53.5 28.33 16.48 2.86 32.11 6.85 48.53 9.3q24.59 3.67 37.26 5.19c27.77 3.32 50.27 3.44 85.02 3.66q34.05.22 67.2 2.85 48.42 3.84 69.5 6.25 4.57.52 27.49 4.98c5.91 1.14 15.59 1.62 23.45 1.69q23.92.22 47.4.64c7.04.13 17.42-.19 26.1-.99q19.54-1.79 38.76-2.78c15.14-.77 24.23-1.83 39.56-3.42q10.77-1.12 15.82-1.4c33.95-1.85 66.86-3.19 99.55-6.53 10.21-1.05 21.77-2.2 31.4-4.63q21.72-5.48 41.12-14.98 11.32-5.53 15.51-16.23 2.73-6.99 5.31-16.43 3.45-12.69 11.51-23.28 17.45 6.34 23.86 9.89c6.25 3.47 12.15 6.42 17.77 10.01q15.6 9.98 18.54 12.28c7.09 5.54 14.52 11.28 21.48 18.36q4.09 4.17 8.08 8.3-10.81 18.73-22.57 36.45-11.5 17.31-23.48 29.14-12.63 12.47-29.5 21.25-23.41 12.18-44.34 19.53-26.25 9.23-58.75 16.43-19.74 4.37-43 .54-34.51-.93-57.86-.48c-10.72.21-9.78-11.23-7.07-17.75 2.61-6.26 13.18-8.14 19.06-8.68 12.64-1.18 25.61.16 38.77 1.79a3.51 3.44-28.2 0 1 1.03.3l16.29 7.64a.5.5 0 0 0 .71-.52l-5.95-41.92a.46.46 0 0 0-.67-.34l-9.96 5.33a2.7 2.7-56.2 0 1-1.51.3c-11.48-1.15-23.91-2.3-35.29-1q-8.25.95-18.09 2.36a.67.67 0 0 1-.67-1.02l5.15-8.1a.44.43 18.8 0 0-.33-.66l-39.85-3.96a.33.33 0 0 0-.36.41l3.35 14.24a4.68 4.61 42.9 0 1 .08 1.81l-9.45 64.45a1.16 1.14-63.9 0 0 .33 1l15.54 15.55a1.2 1.2 0 0 0 .87.36l42.71.06c-14.41.44-29 1.18-43.41.68q-.51-.02-1.24-.62-.64-.52-1.21-.73-18.89-6.97-38.5-5.55-21.15 1.52-44.22 5.93l19.14-7.88a2.69 2.65-84.7 0 0 1.21-1.02l6.3-9.92a1.9 1.88 58.4 0 0 .29-1.25l-5.67-53.81a1.71 1.7-70 0 0-.46-1l-14.81-15.59a1.3 1.3 0 0 0-.9-.38h-69.35a1.14 1.12 21.7 0 0-.81.34l-14.56 15.1a1.6 1.6 0 0 0-.45.93l-.84 5.81q-28.64 2.92-56.92-1.83l-.85-4.8a1.33 1.3 16 0 0-.44-.77l-16.71-14.28a2.74 2.7-24.4 0 0-1.77-.65h-59.52a2 2-65.3 0 0-1.32.49l-17.39 15.1a1.41 1.34-16.9 0 0-.46.81l-2.86 17.11c-16.86-5.7-33.44-7.74-50.99-9.31l-.86-7.35a1.2 1.2 0 0 0-.31-.66l-14.94-15.72a1 .97-20.6 0 0-.73-.32h-69.29a1.55 1.52 21.5 0 0-1.11.47l-14.41 14.88a1.36 1.35-19.2 0 0-.37.76l-3.15 21.44a.65.65 0 0 0 .64.75h28.92a1.17 1.15-71.1 0 0 .92-.46c1.39-1.82 2.21-4.41 3.94-6q3.01-2.77 8.01-3.5c10.49-1.52 26.27-2.24 30.69 9.02 3.31 8.44 4.19 22.56-6.37 26.45q-20.15-1.28-40.19-3.11-8.14-.74-9.83-.77-37.59-.65-75.07-6.78-18.04-2.95-35.31-11.16c-25.48-12.12-50.71-27.55-70.88-47.27-19.26-18.83-22.13-43.73-18.15-69.65q1.96-1.9 4.25-3.82 15.64-13.18 21.64-16.87 5.18-3.19 10.56-6.8 5.83-3.92 9.06-5.57c3.44-1.75 7.71-4.61 12.56-6.65q10.78-4.56 21.68-8.49"/><path fill="#594836" d="M433.89 406.23c-3.98 25.92-1.11 50.82 18.15 69.65 20.17 19.72 45.4 35.15 70.88 47.27q17.27 8.21 35.31 11.16 37.48 6.13 75.07 6.78 1.69.03 9.83.77 20.04 1.83 40.19 3.11l-57.33 22.09a2.23 2.15 10.2 0 0-.81.54l-13.17 14.02a1.81 1.79-20.3 0 0-.47 1.01l-4.15 31.63q-11.74.62-19.33-.03-10.94-.93-44.6-4.85c-24.22-2.82-48.08-8.05-69.87-19.03-20.58-10.37-40-21.94-54.2-39.39q-12.28-15.1-25.84-29.82-8.94-9.71-18.28-24.76 4.78-11.65 9.83-23.52c4.17-9.79 9.61-18.45 15.28-27.2 9.35-14.43 21.05-27.53 33.51-39.43m971.38 11.56c5.17 5.84 10.43 11.66 15.06 17.8q7.4 9.83 11.47 16.96 3.56 6.23 4.83 8.37c3.72 6.24 5.25 11.11 8.97 18.2a13.49 12.92 23.5 0 1 .89 2.13q2.46 7.83 5.84 15.94.46 1.12 1.06 3.84 3.43 15.72 6.24 31.39c-10.62 8.16-23.25 14.27-32.63 21.25q-9.13 6.81-21.58 16.02-29.73 22.02-62.07 34.96-14.58 5.83-42.92 14.31-21.6 6.47-43.76 11.58c-22.01 5.09-44.31 7.92-66.96 7.79l2.6-.05a1.3 1.27 21.9 0 0 .87-.36l16.04-15.23a1.4 1.4 64.5 0 0 .41-1.17l-9.04-63.71a1.52 1.51 18.2 0 0-.46-.9l-16.5-15.78q23.26 3.83 43-.54 32.5-7.2 58.75-16.43 20.93-7.35 44.34-19.53 16.87-8.78 29.5-21.25 11.98-11.83 23.48-29.14 11.76-17.72 22.57-36.45"/><path fill="#e0d2ae" d="m1183.63 541.13 16.5 15.78a1.52 1.51 18.2 0 1 .46.9l9.04 63.71a1.4 1.4 64.5 0 1-.41 1.17l-16.04 15.23a1.3 1.27 21.9 0 1-.87.36l-2.6.05-104.7-.05a1.31 1.28-23.2 0 1-.88-.34l-16.07-14.3 3.94-28.84a.66.65 3.5 0 1 .65-.57h32.59a.7.7 0 0 1 .66.55c1.65 9.18 6.08 13.31 15.29 13.82q17.06.95 32.53-.9 7.09-.85 10.93-4.8 2.81-2.9 3.2-4.95 2.01-10.84-3.97-20.62c-1.91-3.13-4.75-4.92-8.16-5q-3.3-.09-15.26-.03l-42.71-.06a1.2 1.2 0 0 1-.87-.36l-15.54-15.55a1.16 1.14-63.9 0 1-.33-1l9.45-64.45a4.68 4.61 42.9 0 0-.08-1.81l-3.35-14.24a.33.33 0 0 1 .36-.41l39.85 3.96a.44.43 18.8 0 1 .33.66l-5.15 8.1a.67.67 0 0 0 .67 1.02q9.84-1.41 18.09-2.36c11.38-1.3 23.81-.15 35.29 1a2.7 2.7-56.2 0 0 1.51-.3l9.96-5.33a.46.46 0 0 1 .67.34l5.95 41.92a.5.5 0 0 1-.71.52l-16.29-7.64a3.51 3.44-28.2 0 0-1.03-.3c-13.16-1.63-26.13-2.97-38.77-1.79-5.88.54-16.45 2.42-19.06 8.68-2.71 6.52-3.65 17.96 7.07 17.75q23.35-.45 57.86.48m-309.58-39.62 14.14 87.02 4.82 29.48a.99.98 64.1 0 1-.3.89L871.72 638a1.3 1.28-65.5 0 1-.86.33h-93.47a1.69 1.67 65.7 0 1-1.12-.43l-18.31-16.47-2.25-2.08a.91.9 26.6 0 1-.28-.83l17.3-104 2.86-17.11a1.41 1.34-16.9 0 1 .46-.81l17.39-15.1a2 2-65.3 0 1 1.32-.49h59.52a2.74 2.7-24.4 0 1 1.77.65l16.71 14.28a1.33 1.3 16 0 1 .44.77zm-34.15 101c11.56-5.68 11.65-23.27 10.49-34.52q-1.59-15.56-4.1-33.25c-1.25-8.84-3.65-18.87-12.13-22.13q-6.51-2.5-15.22-.67c-6.93 1.47-10.62 6.9-12.35 13.39-4.06 15.24-5.49 27.53-7.34 45.42q-.62 6.03-.06 12.28c.67 7.35 2.26 13.69 8.29 17.47 9 5.65 22.88 6.69 32.42 2.01m171.98-30.5q-26.1 10.44-52.32 21.28-2.95 1.22-3.57 2.18c-1.36 2.09-2.3 7.45.04 9.23 5.39 4.11 13.58 4.64 20.72 4.63 13.38-.01 26.94.14 40.26-1.13l12.48-1.19a4.4 4.24 22.8 0 0 1.5-.58l10.41-6.43a.38.38 0 0 1 .57.26l4.21 24.52 2.88 17.43a.4.4 0 0 1-.52.46l-12.33-3.73a7.15 7.05 53 0 0-2.04-.3h-96.66a1.19 1.18-21.2 0 1-.87-.38l-17.46-18.37a1.03 1.02-63.2 0 1-.27-.83l4.83-36.87 13.49-14.47a2.35 2.25-78 0 1 .87-.59q44.72-17.32 55.38-21.35 4.76-1.8 6.16-3.17c5.4-5.31 5.01-13.96 3.26-21.07q-2.5-10.2-12.88-12.04-10.08-1.78-21.26.53-2.7.55-5.66 3.06c-1.62 1.37-2.53 3.94-3.84 5.96a.92.91 16.3 0 1-.77.42H929.5a.66.65 3.8 0 1-.65-.74l2.12-15.39.84-5.81a1.6 1.6 0 0 1 .45-.93l14.56-15.1a1.14 1.12 21.7 0 1 .81-.34h69.35a1.3 1.3 0 0 1 .9.38l14.81 15.59a1.71 1.7-70 0 1 .46 1l5.67 53.81a1.9 1.88 58.4 0 1-.29 1.25l-6.3 9.92a2.69 2.65-84.7 0 1-1.21 1.02zm-290.14-66.8 4.94 47.01a1.2 1.18-32.5 0 1-.18.78l-6.48 10.2a1.48 1.46 4.6 0 1-.69.58l-74.22 30.44a2.73 2.7-87.4 0 0-1.39 1.28q-1.82 3.6-1.01 7.66a1.97 1.96 15.2 0 0 .63 1.09c4.18 3.78 11.87 4.92 17.67 5.01q12.96.19 31.31-.24c8.02-.19 15.48-1.15 24.69-1.96a3.94 3.9-63.3 0 0 1.76-.59l10.56-6.56a.4.4 69.3 0 1 .61.28l5.21 31.55 1.74 10.66a.31.3-85.4 0 1-.39.34c-5.1-1.65-11.37-4.17-17-4.14l-94.03.04a1.53 1.48-21.3 0 1-1.09-.46l-17.3-18.21a.99.98 27.3 0 1-.25-.77l.56-4.94 4.15-31.63a1.81 1.79-20.3 0 1 .47-1.01l13.17-14.02a2.23 2.15 10.2 0 1 .81-.54l57.33-22.09c10.56-3.89 9.68-18.01 6.37-26.45-4.42-11.26-20.2-10.54-30.69-9.02q-5 .73-8.01 3.5c-1.73 1.59-2.55 4.18-3.94 6a1.17 1.15-71.1 0 1-.92.46h-28.92a.65.65 0 0 1-.64-.75l3.15-21.44a1.36 1.35-19.2 0 1 .37-.76l14.41-14.88a1.55 1.52 21.5 0 1 1.11-.47h69.29a1 .97-20.6 0 1 .73.32l14.94 15.72a1.2 1.2 0 0 1 .31.66z"/><path fill="#453626" d="m607.39 614.26-.56 4.94a.99.98 27.3 0 0 .25.77l17.3 18.21a1.53 1.48-21.3 0 0 1.09.46l94.03-.04c5.63-.03 11.9 2.49 17 4.14a.31.3-85.4 0 0 .39-.34l-1.74-10.66q12.18-3.55 22.81-10.31l18.31 16.47a1.69 1.67 65.7 0 0 1.12.43h93.47a1.3 1.28-65.5 0 0 .86-.33l20.99-19.1a.99.98 64.1 0 0 .3-.89l-4.82-29.48q17.94-2.31 35.55-6.34l-4.83 36.87a1.03 1.02-63.2 0 0 .27.83l17.46 18.37a1.19 1.18-21.2 0 0 .87.38h96.66a7.15 7.05 53 0 1 2.04.3l12.33 3.73a.4.4 0 0 0 .52-.46l-2.88-17.43 21.88-1.14 16.07 14.3a1.31 1.28-23.2 0 0 .88.34l104.7.05c22.65.13 44.95-2.7 66.96-7.79q22.16-5.11 43.76-11.58 28.34-8.48 42.92-14.31 32.34-12.94 62.07-34.96 12.45-9.21 21.58-16.02c9.38-6.98 22.01-13.09 32.63-21.25q2.44 21.04.94 41.94c-1.04 14.46-4.4 29.07-7.66 43.37a3.34 3.13 87.4 0 1-.13.45l-7.09 19.38a1.35.84-46 0 1-.07.16q-4.1 8.1-5.43 11.51c-1.91 4.88-5.4 9.58-7.83 14.46q-1.4 2.8-2.94 4.96c-2.2 3.08-4.65 7.75-7.32 10.88-2.19 2.58-3.86 5.52-5.82 7.93q-13.1 16.11-27.57 28.97c-2.43 2.16-6.04 4.54-8.73 7.34a8.2 7.87-84.8 0 1-1.08.94q-9.75 6.97-15.95 11.23-3.8 2.61-20.36 11.41-5.13 2.73-8.1 3.7c-3.82 1.25-6.53 2.93-10.97 4.54q-16.31 5.95-23.76 7.65c-6.68 1.53-15.13 3.65-22.34 4.73q-19.53 2.92-48.41 2.95-89.97.1-159.73-.06-3.25-.01-6.29 2.89-.75.71-11.22 10.12c-10.45 9.39-16.66 15.13-25.3 22.35-3.02 2.52-7.89 7.82-12.97 11.63-2.45 1.85-4.33 4.35-6.57 6.1-2.53 1.99-5.52 5.66-8.9 8.05q-11.4-14.07-25.39-25.84l37.23-33.68a1.01 1.01 0 0 0-.84-1.74q-3.93.62-15.13.23-4.8-.16-15.29-.14-82.8.18-137.36-.37-6.77-.07-15.57.22-.9.03-1.51.27a.88.88 0 0 0-.24 1.49q5.48 4.65 10.1 9.19 3.43 3.38 7.04 6.47c6.45 5.53 9.54 8.58 16.7 14.96q3.86 3.44 11.22 10.31 2.68 2.5 4.24 3.6c3.13 2.21 4.99 4.46 8.37 7.51q6.39 5.78 12.6 11.79c-9.73-7.02-20.5-13.95-32.64-14.61-8.32-.46-16.22 2.57-16.53 12.21q-.09 2.65.49 6.74c-2.76-2.04-4.96-4.46-7.71-6.67q-1.81-1.44-4.55-3.85-9.42-8.3-30.76-27.4-1.63-1.46-15.14-13.04-8.95-7.67-17.97-16.68a4.04 3.96 77.9 0 0-1.39-.92q-3.36-1.32-7.25-1.32-81.96-.02-177.5.13-10.01.01-18.29-1.07-7.6-.99-9.97-1.25c-5.55-.63-9.66-.99-14.65-2.34-5.3-1.44-11.61-1.94-16.5-3.83q-1.36-.52-10.76-3.29-6.46-1.9-12.54-4.61-9.64-4.28-12.14-5.66c-6.5-3.6-11.41-5.48-17.14-8.9q-28.53-17.06-51.13-42.02-2.58-2.84-11.62-14.04c-3.05-3.76-4.75-6.85-7.55-10.46-2.61-3.34-4.6-7.62-7.13-11.47q-1.21-1.86-2.61-4.73-8.43-17.33-14.26-31.4c-2.08-4.99-3.06-10.93-4.77-16.92q-3.68-12.84-4.28-18.8-3.21-31.7-.21-61.82c1.08-10.77 5.15-21.1 7.57-31.87q9.34 15.05 18.28 24.76 13.56 14.72 25.84 29.82c14.2 17.45 33.62 29.02 54.2 39.39 21.79 10.98 45.65 16.21 69.87 19.03q33.66 3.92 44.6 4.85 7.59.65 19.33.03"/><path fill="#594836" d="m930.97 503.34-2.12 15.39a.66.65 3.8 0 0 .65.74h28.99a.92.91 16.3 0 0 .77-.42c1.31-2.02 2.22-4.59 3.84-5.96q2.96-2.51 5.66-3.06 11.18-2.31 21.26-.53 10.38 1.84 12.88 12.04c1.75 7.11 2.14 15.76-3.26 21.07q-1.4 1.37-6.16 3.17-10.66 4.03-55.38 21.35a2.35 2.25-78 0 0-.87.59l-13.49 14.47q-17.61 4.03-35.55 6.34l-14.14-87.02q28.28 4.75 56.92 1.83m-158.24 11.18-17.3 104a.91.9 26.6 0 0 .28.83l2.25 2.08q-10.63 6.76-22.81 10.31l-5.21-31.55a.4.4 69.3 0 0-.61-.28l-10.56 6.56a3.94 3.9-63.3 0 1-1.76.59c-9.21.81-16.67 1.77-24.69 1.96q-18.35.43-31.31.24c-5.8-.09-13.49-1.23-17.67-5.01a1.97 1.96 15.2 0 1-.63-1.09q-.81-4.06 1.01-7.66a2.73 2.7-87.4 0 1 1.39-1.28l74.22-30.44a1.48 1.46 4.6 0 0 .69-.58l6.48-10.2a1.2 1.18-32.5 0 0 .18-.78l-4.94-47.01c17.55 1.57 34.13 3.61 50.99 9.31m367.73 57.78q11.96-.06 15.26.03c3.41.08 6.25 1.87 8.16 5q5.98 9.78 3.97 20.62-.39 2.05-3.2 4.95-3.84 3.95-10.93 4.8-15.47 1.85-32.53.9c-9.21-.51-13.64-4.64-15.29-13.82a.7.7 0 0 0-.66-.55h-32.59a.66.65 3.5 0 0-.65.57l-3.94 28.84-21.88 1.14-4.21-24.52a.38.38 0 0 0-.57-.26l-10.41 6.43a4.4 4.24 22.8 0 1-1.5.58l-12.48 1.19c-13.32 1.27-26.88 1.12-40.26 1.13-7.14.01-15.33-.52-20.72-4.63-2.34-1.78-1.4-7.14-.04-9.23q.62-.96 3.57-2.18 26.22-10.84 52.32-21.28 23.07-4.41 44.22-5.93 19.61-1.42 38.5 5.55.57.21 1.21.73.73.6 1.24.62c14.41.5 29-.24 43.41-.68M972.64 806.16q13.99 11.77 25.39 25.84l-80.17 71.39a1.35 1.35 0 0 1-1.8.01q-8.54-7.51-11.37-9.86-2.78-2.31-5.32-4.84c-2.17-2.16-4.76-3.82-7.38-6.21q-6.34-5.81-9.22-8.53c-4.3-4.07-10.84-8.72-15.93-13.76q-2.48-2.46-6.24-5.68-7.84-6.7-15.08-13.91-.58-4.09-.49-6.74c.31-9.64 8.21-12.67 16.53-12.21 12.14.66 22.91 7.59 32.64 14.61q4.13 3.45 7.87 7.32 4.02 4.18 5.96 5.71 4.93 3.87 6.37 5.31c2.04 2.03 3.6 1.79 5.71 0q4.09-3.47 9.2-8.56a603 603 0 0 1 28.05-26.2q7.72-6.81 15.28-13.69M839.9 602.51c-9.54 4.68-23.42 3.64-32.42-2.01-6.03-3.78-7.62-10.12-8.29-17.47q-.56-6.25.06-12.28c1.85-17.89 3.28-30.18 7.34-45.42 1.73-6.49 5.42-11.92 12.35-13.39q8.71-1.83 15.22.67c8.48 3.26 10.88 13.29 12.13 22.13q2.51 17.69 4.1 33.25c1.16 11.25 1.07 28.84-10.49 34.52"/></svg>