<svg xmlns="http://www.w3.org/2000/svg" viewBox="0 0 1801 1126"><g fill="none" stroke-width="2"><path stroke="#705b46" d="M1314.79 358.68q-2.11 6.81-2.4 13.86-.38 8.94-.57 10.04c-2.86 16.35-11.32 30.36-26.34 38.28q-28.97 15.29-61.5 20.78-17.72 2.99-42.45 4.7-5.67.4-29.46.59c-30.41.25-65.04 5.25-92.37 7.64q-17.07 1.49-29.76 1.3-24.64-.37-53.85.23-14.85.31-34.65-.36c-21.52-.73-40.82-4.27-61.43-7.58q-2.52-.41-4.54-1.47a1.04 1.04 0 0 1-.3-1.6l1.47-1.73a1.17 1.16 27.2 0 0-.61-1.89q-4.72-1.14-10.95-1.72-21.29-2.01-59.43-4.7a888 888 0 0 0-47.58-1.83q-43.71-.13-84.92-1.64-20.22-.74-37.44-5.21-29.9-7.75-57.23-12.42-15.31-2.62-27.24-8.58-17.5-8.75-23.79-28.44-4.06-12.71-5.29-20.75a.46.46 0 0 0-.58-.37l-8.64 2.46" vector-effect="non-scaling-stroke"/><path stroke="#584735" d="M1439.1 465.29c-3.82.85-7.33 2.13-9.08 5.52-4.88 9.47-8.44 16.41-15.6 24.42q-12.63 14.12-29.76 27.24-12.13 9.29-30.86 17.85c-24.17 11.06-46.79 20.47-70.39 26.93q-39.69 10.88-80.75 15.05" vector-effect="non-scaling-stroke"/><path stroke="#a39276" d="m1202.66 582.3-2.78-16.53a1.72 1.68-73 0 0-.49-.95l-15.1-15.1a1.2 1.2 0 0 0-.82-.34q-57.65-.04-64.96.05-5.51.06-5.4-5.22.1-4.31 2.86-19.02c1.97-10.46 12.01-15.36 21.8-15.67 9.22-.3 19.62 4.49 21.25 14.46q.89 5.46.63 12.62a.5.5 0 0 0 .51.53h35.42a.77.76-4.7 0 0 .76-.89l-6.73-40.77a.4.4-74.3 0 0-.11-.2l-15.6-14.24a1.7 1.7 0 0 0-1.18-.46H1104a1.27 1.25-66.7 0 0-.88.36L1087 496.49a2.27 2.26-17.9 0 0-.67 1.31l-9.5 64.15" vector-effect="non-scaling-stroke"/><path stroke="#584735" d="m1076.83 561.95-65.08 10" vector-effect="non-scaling-stroke"/><path stroke="#a39276" d="m1011.75 571.95 19.31-7.9a2.19 2.15-84.6 0 0 1-.84l6.4-10.06a1.78 1.75-32.2 0 0 .27-1.15l-5.67-53.68a1.18 1.13-70.3 0 0-.3-.67l-14.7-16.13a1.15 1.13 68 0 0-.83-.36h-69.56a1.57 1.56 21.7 0 0-1.13.48l-14.42 14.97a1.66 1.64-19.7 0 0-.44.92l-2.96 21.36a.5.5 0 0 0 .51.58h29.14a1.05 1.04-75.3 0 0 .91-.54l2.64-4.68a1.04.9-14.1 0 1 .12-.17q3.05-3.07 5.57-3.75 10.13-2.77 23.02-.72c12.48 1.99 14.79 17.25 12.51 27.04q-.7 2.96-3.36 5.73-1.49 1.55-5.84 3.18-7.7 2.89-55.88 21.53a2.74 2.64-76.5 0 0-.86.55q-8.1 7.64-14.07 16.44" vector-effect="non-scaling-stroke"/><path stroke="#584735" d="M923.13 584.08q-17.01 2.45-35.26 3.14" vector-effect="non-scaling-stroke"/><path stroke="#a39276" d="m887.87 587.22-14.74-90.47a1.26 1.24-74.3 0 0-.42-.76l-16.74-14.31a2.82 2.77 65 0 0-1.82-.68h-59.6a1.78 1.75-64.9 0 0-1.15.43l-17.47 15.19a1.45 1.42 75 0 0-.47.83l-8.58 51.44" vector-effect="non-scaling-stroke"/><path stroke="#584735" d="M766.88 548.89q-20.67 3.47-40.9-2.25" vector-effect="non-scaling-stroke"/><path stroke="#a39276" d="m725.98 546.64-5.13-48.47a.76.74 22.4 0 0-.19-.44l-14.76-16.18a1.19 1.17-20.7 0 0-.88-.39h-69.55a.97.95 22.2 0 0-.68.28l-14.85 14.86a1.35 1.31-19.3 0 0-.38.76l-3.06 22.06a.3.3 0 0 0 .3.34h29.36a1.04 1.02 15.6 0 0 .88-.49q.56-.88 1.86-3.3c2.06-3.82 6.16-5.71 10.3-6.26q6.98-.92 14.84-.46 15.3.88 17.28 15.95c.78 6 .77 12.39-3.14 16.96q-1.54 1.81-6.24 3.61-49 18.84-55.86 21.53a2.89 2.77 10.1 0 0-1.02.68q-7.75 8.16-13.18 13.95-.8.86-.74 3.19" vector-effect="non-scaling-stroke"/><path stroke="#584735" d="M611.14 584.82q-14.59-3.38-25.32-4.16c-18.59-1.34-39.94-2.26-60.01-5.74q-23.32-4.04-42.48-17.09-5.68-3.87-19.04-13.74c-8.35-6.17-15.92-10.91-24.84-16.96q-16.9-11.45-31.32-25.82-14.51-14.47-13.32-34.57.37-6.31 1.87-15.13" vector-effect="non-scaling-stroke"/><path stroke="#96876d" d="m611.14 584.82-4.45 34.16a1.12 1.1-62.9 0 0 .28.9l17.3 18.39a1.16 1.15-21.4 0 0 .84.36h96.38a9.63 9.42-35.9 0 1 2.77.41l12.05 3.64a.37.37 0 0 0 .47-.41l-6.95-42.1a.37.37 0 0 0-.56-.26l-10.73 6.62a3.19 3.12-63 0 1-1.36.46q-15.67 1.54-21.37 1.92-3.19.22-30.31.44c-7.45.07-16.45-.31-22.22-5.18a2 2 0 0 1-.65-1.12q-1.05-5.61 1.89-8.46.4-.38 8.41-3.65 28.95-11.8 65.91-26.9a2.5 2.46 4.7 0 0 1.15-.96l6.38-10.03a1.54 1.53-32.5 0 0 .23-1.02l-.62-5.39m40.9 2.25-11.59 69.55a.9.9 0 0 0 .27.79l20.58 18.78a1.27 1.23 65 0 0 .83.32h93.74a1.46 1.43 23.5 0 0 .97-.37l20.93-19.09a1 1-26.2 0 0 .3-.86l-5.04-30.79m35.26-3.14-4.31 34.9a1.1 1.1 0 0 0 .3.9l17.42 18.45a.98.97 68.2 0 0 .71.31h96.98a6.05 5.91-36.2 0 1 1.68.24l12.78 3.87a.23.23 0 0 0 .3-.26l-6.93-42.03a.45.44 70 0 0-.66-.31l-11.5 6.64a2 2 0 0 1-.77.24q-17.79 1.69-19.13 1.76-7.83.4-29.81.55c-8.47.06-16.55-.03-23.13-3.81-3.7-2.14-2.81-6.76-1.26-10.04a1.51 1.49-88.3 0 1 .79-.75l55.16-22.79m65.08-10-8.9 59.83a1.89 1.86 25.6 0 0 .6 1.67l15.35 14.01a1.7 1.7 0 0 0 1.13.44h106.69a1.99 1.98 23.5 0 0 1.35-.53l15.93-14.52a.7.7 0 0 0 .22-.64l-6.54-39.91" vector-effect="non-scaling-stroke"/><path stroke="#443626" d="M1456.14 603c-5.8-5.03-11.99-7.25-19.42-4.81-17.94 5.88-33.95 15.66-49.68 25.29-21.24 13.01-41.61 20.41-65.97 29.5-24.91 9.3-48.06 14.29-72.3 15.61q-3.91.21-29.06 1.34c-35.07 1.57-58.24 10.24-87.67 6.57q-3.96-.49-19.12-2.69c-22.88-3.31-47.57-1.39-70.86.36q-7.55.57-16.97.76c-21.61.44-42.64-.09-70.73-.81a435 435 0 0 0-28.58.17c-18.28.82-38.96 2.9-57.24 3.45q-13.11.4-28.77 1.06-6.32.27-9.11.57c-18.37 1.96-36.45 3.92-54.77 3.84q-47.13-.19-76.16-.02c-12.13.06-28.03-.64-36.64-1.04-21.41-1.01-42.12-.79-64.06-1.29-23.71-.54-45.56-4.9-68.19-11.9q-7.96-2.46-27.92-10.28-33.59-13.16-41.77-16.32-19.96-7.69-35.51-19.34-22.06-16.54-31.87-24.68c-11.79-9.79-17.04-20.92-19.3-35.92q-2.71-17.96-6.58-35.73M998.48 831.6q-9.97-15.58-25.61-25.63m-95.32 14.79q-9.63-.2-19.07-.37c-10.66-.19-14.81 6.75-17.99 15.64" vector-effect="non-scaling-stroke"/><path stroke="#96876d" d="M1109.21 593.86c.33 8.44 9.97 13.47 17.55 13.7q11.42.35 24.31-.86c8.39-.79 17.57-5.13 17.19-15.1-.38-9.98-9.87-13.61-18.3-13.75q-12.94-.22-24.3 1c-7.54.81-16.77 6.57-16.45 15.01" vector-effect="non-scaling-stroke"/><path stroke="#a39276" d="M799.99 589.44c2.7 14.57 21.82 17.62 33.44 15.19 7.85-1.64 13.38-5.81 15.35-13.41q2.77-10.67 1.54-22.82-1.59-15.82-4.19-34.08-.97-6.8-3.03-12.17c-3.98-10.38-14.43-12.41-24.21-10.24-7.86 1.75-10.95 7.69-12.86 15.11-3.77 14.65-5.18 27.35-6.83 42.97q-1.02 9.72.79 19.45" vector-effect="non-scaling-stroke"/></g><path fill="#7a644d" d="M1314.79 358.68q-2.11 6.81-2.4 13.86-.38 8.94-.57 10.04c-2.86 16.35-11.32 30.36-26.34 38.28q-28.97 15.29-61.5 20.78-17.72 2.99-42.45 4.7-5.67.4-29.46.59c-30.41.25-65.04 5.25-92.37 7.64q-17.07 1.49-29.76 1.3-24.64-.37-53.85.23-14.85.31-34.65-.36c-21.52-.73-40.82-4.27-61.43-7.58q-2.52-.41-4.54-1.47a1.04 1.04 0 0 1-.3-1.6l1.47-1.73a1.17 1.16 27.2 0 0-.61-1.89q-4.72-1.14-10.95-1.72-21.29-2.01-59.43-4.7a888 888 0 0 0-47.58-1.83q-43.71-.13-84.92-1.64-20.22-.74-37.44-5.21-29.9-7.75-57.23-12.42-15.31-2.62-27.24-8.58-17.5-8.75-23.79-28.44-4.06-12.71-5.29-20.75a.46.46 0 0 0-.58-.37l-8.64 2.46c5.1-1.81 10.73-3.97 15.55-5.03 5.41-1.18 10.46-2.76 16.82-3.98q20.01-3.87 41.69-3.9c213.56-.28 412.98-.15 624.02-.33q11.18-.01 31.5.28 21.84.3 42.99 4.95c7.95 1.74 18.88 4.34 29.28 8.42"/><path fill="#65523e" d="M1314.79 358.68q18 6.48 24.77 10.25c6.14 3.41 12.17 6.43 17.76 10.02q14.43 9.26 18.35 12.12.51.37 11.97 9.62 5.53 4.45 11.21 10.42 14.19 14.92 18.12 20.13 11.34 15.04 14.02 19.77 3.97 7.05 8.11 14.28c-3.82.85-7.33 2.13-9.08 5.52-4.88 9.47-8.44 16.41-15.6 24.42q-12.63 14.12-29.76 27.24-12.13 9.29-30.86 17.85c-24.17 11.06-46.79 20.47-70.39 26.93q-39.69 10.88-80.75 15.05l-2.78-16.53a1.72 1.68-73 0 0-.49-.95l-15.1-15.1a1.2 1.2 0 0 0-.82-.34q-57.65-.04-64.96.05-5.51.06-5.4-5.22.1-4.31 2.86-19.02c1.97-10.46 12.01-15.36 21.8-15.67 9.22-.3 19.62 4.49 21.25 14.46q.89 5.46.63 12.62a.5.5 0 0 0 .51.53h35.42a.77.76-4.7 0 0 .76-.89l-6.73-40.77a.4.4-74.3 0 0-.11-.2l-15.6-14.24a1.7 1.7 0 0 0-1.18-.46H1104a1.27 1.25-66.7 0 0-.88.36L1087 496.49a2.27 2.26-17.9 0 0-.67 1.31l-9.5 64.15-65.08 10 19.31-7.9a2.19 2.15-84.6 0 0 1-.84l6.4-10.06a1.78 1.75-32.2 0 0 .27-1.15l-5.67-53.68a1.18 1.13-70.3 0 0-.3-.67l-14.7-16.13a1.15 1.13 68 0 0-.83-.36h-69.56a1.57 1.56 21.7 0 0-1.13.48l-14.42 14.97a1.66 1.64-19.7 0 0-.44.92l-2.96 21.36a.5.5 0 0 0 .51.58h29.14a1.05 1.04-75.3 0 0 .91-.54l2.64-4.68a1.04.9-14.1 0 1 .12-.17q3.05-3.07 5.57-3.75 10.13-2.77 23.02-.72c12.48 1.99 14.79 17.25 12.51 27.04q-.7 2.96-3.36 5.73-1.49 1.55-5.84 3.18-7.7 2.89-55.88 21.53a2.74 2.64-76.5 0 0-.86.55q-8.1 7.64-14.07 16.44-17.01 2.45-35.26 3.14l-14.74-90.47a1.26 1.24-74.3 0 0-.42-.76l-16.74-14.31a2.82 2.77 65 0 0-1.82-.68h-59.6a1.78 1.75-64.9 0 0-1.15.43l-17.47 15.19a1.45 1.42 75 0 0-.47.83l-8.58 51.44q-20.67 3.47-40.9-2.25l-5.13-48.47a.76.74 22.4 0 0-.19-.44l-14.76-16.18a1.19 1.17-20.7 0 0-.88-.39h-69.55a.97.95 22.2 0 0-.68.28l-14.85 14.86a1.35 1.31-19.3 0 0-.38.76l-3.06 22.06a.3.3 0 0 0 .3.34h29.36a1.04 1.02 15.6 0 0 .88-.49q.56-.88 1.86-3.3c2.06-3.82 6.16-5.71 10.3-6.26q6.98-.92 14.84-.46 15.3.88 17.28 15.95c.78 6 .77 12.39-3.14 16.96q-1.54 1.81-6.24 3.61-49 18.84-55.86 21.53a2.89 2.77 10.1 0 0-1.02.68q-7.75 8.16-13.18 13.95-.8.86-.74 3.19-14.59-3.38-25.32-4.16c-18.59-1.34-39.94-2.26-60.01-5.74q-23.32-4.04-42.48-17.09-5.68-3.87-19.04-13.74c-8.35-6.17-15.92-10.91-24.84-16.96q-16.9-11.45-31.32-25.82-14.51-14.47-13.32-34.57.37-6.31 1.87-15.13 5.87-9.57 8.41-13.02c4.33-5.9 12.35-15.98 18.9-22.35 3.7-3.6 8.11-8.64 12.3-12.37q6.94-6.18 19.7-15.72c4.41-3.3 9.37-6 14.2-9.31q4.9-3.37 9.07-5.58c3.67-1.95 7.72-4.64 12.51-6.67q10.49-4.44 21.17-8.32l8.64-2.46a.46.46 0 0 1 .58.37q1.23 8.04 5.29 20.75 6.29 19.69 23.79 28.44 11.93 5.96 27.24 8.58 27.33 4.67 57.23 12.42 17.22 4.47 37.44 5.21 41.21 1.51 84.92 1.64c10.98.04 32.94.8 47.58 1.83q38.14 2.69 59.43 4.7 6.23.58 10.95 1.72a1.17 1.16 27.2 0 1 .61 1.89l-1.47 1.73a1.04 1.04 0 0 0 .3 1.6q2.02 1.06 4.54 1.47c20.61 3.31 39.91 6.85 61.43 7.58q19.8.67 34.65.36 29.21-.6 53.85-.23 12.69.19 29.76-1.3c27.33-2.39 61.96-7.39 92.37-7.64q23.79-.19 29.46-.59 24.73-1.71 42.45-4.7 32.53-5.49 61.5-20.78c15.02-7.92 23.48-21.93 26.34-38.28q.19-1.1.57-10.04.29-7.05 2.4-13.86"/><path fill="#4b3c2b" d="M396.68 451.61q-1.5 8.82-1.87 15.13-1.19 20.1 13.32 34.57 14.42 14.37 31.32 25.82c8.92 6.05 16.49 10.79 24.84 16.96q13.36 9.87 19.04 13.74 19.16 13.05 42.48 17.09c20.07 3.48 41.42 4.4 60.01 5.74q10.73.78 25.32 4.16l-4.45 34.16a1.12 1.1-62.9 0 0 .28.9l17.3 18.39a1.16 1.15-21.4 0 0 .84.36h96.38a9.63 9.42-35.9 0 1 2.77.41l12.05 3.64a.37.37 0 0 0 .47-.41l-6.95-42.1a.37.37 0 0 0-.56-.26l-10.73 6.62a3.19 3.12-63 0 1-1.36.46q-15.67 1.54-21.37 1.92-3.19.22-30.31.44c-7.45.07-16.45-.31-22.22-5.18a2 2 0 0 1-.65-1.12q-1.05-5.61 1.89-8.46.4-.38 8.41-3.65 28.95-11.8 65.91-26.9a2.5 2.46 4.7 0 0 1.15-.96l6.38-10.03a1.54 1.53-32.5 0 0 .23-1.02l-.62-5.39q20.23 5.72 40.9 2.25l-11.59 69.55a.9.9 0 0 0 .27.79l20.58 18.78a1.27 1.23 65 0 0 .83.32h93.74a1.46 1.43 23.5 0 0 .97-.37l20.93-19.09a1 1-26.2 0 0 .3-.86l-5.04-30.79q18.25-.69 35.26-3.14l-4.31 34.9a1.1 1.1 0 0 0 .3.9l17.42 18.45a.98.97 68.2 0 0 .71.31h96.98a6.05 5.91-36.2 0 1 1.68.24l12.78 3.87a.23.23 0 0 0 .3-.26l-6.93-42.03a.45.44 70 0 0-.66-.31l-11.5 6.64a2 2 0 0 1-.77.24q-17.79 1.69-19.13 1.76-7.83.4-29.81.55c-8.47.06-16.55-.03-23.13-3.81-3.7-2.14-2.81-6.76-1.26-10.04a1.51 1.49-88.3 0 1 .79-.75l55.16-22.79 65.08-10-8.9 59.83a1.89 1.86 25.6 0 0 .6 1.67l15.35 14.01a1.7 1.7 0 0 0 1.13.44h106.69a1.99 1.98 23.5 0 0 1.35-.53l15.93-14.52a.7.7 0 0 0 .22-.64l-6.54-39.91q41.06-4.17 80.75-15.05c23.6-6.46 46.22-15.87 70.39-26.93q18.73-8.56 30.86-17.85 17.13-13.12 29.76-27.24c7.16-8.01 10.72-14.95 15.6-24.42 1.75-3.39 5.26-4.67 9.08-5.52q2.23 5.24 4.74 10.45 3.13 6.48 4.35 10.59.44 1.47 4.3 11.44.61 1.58 1.01 3.46 1.12 5.25 4.51 22.31 2.43 12.22 2.83 22.55.7 18.45-.71 34.69-.47 5.38-3.99 22.22c-5.8-5.03-11.99-7.25-19.42-4.81-17.94 5.88-33.95 15.66-49.68 25.29-21.24 13.01-41.61 20.41-65.97 29.5-24.91 9.3-48.06 14.29-72.3 15.61q-3.91.21-29.06 1.34c-35.07 1.57-58.24 10.24-87.67 6.57q-3.96-.49-19.12-2.69c-22.88-3.31-47.57-1.39-70.86.36q-7.55.57-16.97.76c-21.61.44-42.64-.09-70.73-.81a435 435 0 0 0-28.58.17c-18.28.82-38.96 2.9-57.24 3.45q-13.11.4-28.77 1.06-6.32.27-9.11.57c-18.37 1.96-36.45 3.92-54.77 3.84q-47.13-.19-76.16-.02c-12.13.06-28.03-.64-36.64-1.04-21.41-1.01-42.12-.79-64.06-1.29-23.71-.54-45.56-4.9-68.19-11.9q-7.96-2.46-27.92-10.28-33.59-13.16-41.77-16.32-19.96-7.69-35.51-19.34-22.06-16.54-31.87-24.68c-11.79-9.79-17.04-20.92-19.3-35.92q-2.71-17.96-6.58-35.73 1.05-7.93 3.41-15.59 2.24-7.25 2.33-7.7a55 55 0 0 1 2.94-10.28c6.05-14.39 11.04-27.91 20.11-41.51"/><path fill="#e0d2ae" d="m1202.66 582.3 6.54 39.91a.7.7 0 0 1-.22.64l-15.93 14.52a1.99 1.98 23.5 0 1-1.35.53h-106.69a1.7 1.7 0 0 1-1.13-.44l-15.35-14.01a1.89 1.86 25.6 0 1-.6-1.67l8.9-59.83 9.5-64.15a2.27 2.26-17.9 0 1 .67-1.31l16.12-15.56a1.27 1.25-66.7 0 1 .88-.36h68.72a1.7 1.7 0 0 1 1.18.46l15.6 14.24a.4.4-74.3 0 1 .11.2l6.73 40.77a.77.76-4.7 0 1-.76.89h-35.42a.5.5 0 0 1-.51-.53q.26-7.16-.63-12.62c-1.63-9.97-12.03-14.76-21.25-14.46-9.79.31-19.83 5.21-21.8 15.67q-2.76 14.71-2.86 19.02-.11 5.28 5.4 5.22 7.31-.09 64.96-.05a1.2 1.2 0 0 1 .82.34l15.1 15.1a1.72 1.68-73 0 1 .49.95zm-93.45 11.56c.33 8.44 9.97 13.47 17.55 13.7q11.42.35 24.31-.86c8.39-.79 17.57-5.13 17.19-15.1-.38-9.98-9.87-13.61-18.3-13.75q-12.94-.22-24.3 1c-7.54.81-16.77 6.57-16.45 15.01m-221.34-6.64 5.04 30.79a1 1-26.2 0 1-.3.86l-20.93 19.09a1.46 1.43 23.5 0 1-.97.37h-93.74a1.27 1.23 65 0 1-.83-.32l-20.58-18.78a.9.9 0 0 1-.27-.79l11.59-69.55 8.58-51.44a1.45 1.42 75 0 1 .47-.83l17.47-15.19a1.78 1.75-64.9 0 1 1.15-.43h59.6a2.82 2.77 65 0 1 1.82.68l16.74 14.31a1.26 1.24-74.3 0 1 .42.76zm-87.88 2.22c2.7 14.57 21.82 17.62 33.44 15.19 7.85-1.64 13.38-5.81 15.35-13.41q2.77-10.67 1.54-22.82-1.59-15.82-4.19-34.08-.97-6.8-3.03-12.17c-3.98-10.38-14.43-12.41-24.21-10.24-7.86 1.75-10.95 7.69-12.86 15.11-3.77 14.65-5.18 27.35-6.83 42.97q-1.02 9.72.79 19.45m211.76-17.49-55.16 22.79a1.51 1.49-88.3 0 0-.79.75c-1.55 3.28-2.44 7.9 1.26 10.04 6.58 3.78 14.66 3.87 23.13 3.81q21.98-.15 29.81-.55 1.34-.07 19.13-1.76a2 2 0 0 0 .77-.24l11.5-6.64a.45.44 70 0 1 .66.31l6.93 42.03a.23.23 0 0 1-.3.26l-12.78-3.87a6.05 5.91-36.2 0 0-1.68-.24h-96.98a.98.97 68.2 0 1-.71-.31l-17.42-18.45a1.1 1.1 0 0 1-.3-.9l4.31-34.9q5.97-8.8 14.07-16.44a2.74 2.64-76.5 0 1 .86-.55q48.18-18.64 55.88-21.53 4.35-1.63 5.84-3.18 2.66-2.77 3.36-5.73c2.28-9.79-.03-25.05-12.51-27.04q-12.89-2.05-23.02.72-2.52.68-5.57 3.75a1.04.9-14.1 0 0-.12.17l-2.64 4.68a1.05 1.04-75.3 0 1-.91.54h-29.14a.5.5 0 0 1-.51-.58l2.96-21.36a1.66 1.64-19.7 0 1 .44-.92l14.42-14.97a1.57 1.56 21.7 0 1 1.13-.48h69.56a1.15 1.13 68 0 1 .83.36l14.7 16.13a1.18 1.13-70.3 0 1 .3.67l5.67 53.68a1.78 1.75-32.2 0 1-.27 1.15l-6.4 10.06a2.19 2.15-84.6 0 1-1 .84zm-285.77-25.31.62 5.39a1.54 1.53-32.5 0 1-.23 1.02l-6.38 10.03a2.5 2.46 4.7 0 1-1.15.96q-36.96 15.1-65.91 26.9-8.01 3.27-8.41 3.65-2.94 2.85-1.89 8.46a2 2 0 0 0 .65 1.12c5.77 4.87 14.77 5.25 22.22 5.18q27.12-.22 30.31-.44 5.7-.38 21.37-1.92a3.19 3.12-63 0 0 1.36-.46l10.73-6.62a.37.37 0 0 1 .56.26l6.95 42.1a.37.37 0 0 1-.47.41l-12.05-3.64a9.63 9.42-35.9 0 0-2.77-.41h-96.38a1.16 1.15-21.4 0 1-.84-.36l-17.3-18.39a1.12 1.1-62.9 0 1-.28-.9l4.45-34.16q-.06-2.33.74-3.19 5.43-5.79 13.18-13.95a2.89 2.77 10.1 0 1 1.02-.68q6.86-2.69 55.86-21.53 4.7-1.8 6.24-3.61c3.91-4.57 3.92-10.96 3.14-16.96q-1.98-15.07-17.28-15.95-7.86-.46-14.84.46c-4.14.55-8.24 2.44-10.3 6.26q-1.3 2.42-1.86 3.3a1.04 1.02 15.6 0 1-.88.49H616.8a.3.3 0 0 1-.3-.34l3.06-22.06a1.35 1.31-19.3 0 1 .38-.76l14.85-14.86a.97.95 22.2 0 1 .68-.28h69.55a1.19 1.17-20.7 0 1 .88.39l14.76 16.18a.76.74 22.4 0 1 .19.44z"/><path fill="#3c2f21" d="M367.89 526.69q3.87 17.77 6.58 35.73c2.26 15 7.51 26.13 19.3 35.92q9.81 8.14 31.87 24.68 15.55 11.65 35.51 19.34 8.18 3.16 41.77 16.32 19.96 7.82 27.92 10.28c22.63 7 44.48 11.36 68.19 11.9 21.94.5 42.65.28 64.06 1.29 8.61.4 24.51 1.1 36.64 1.04q29.03-.17 76.16.02c18.32.08 36.4-1.88 54.77-3.84q2.79-.3 9.11-.57 15.66-.66 28.77-1.06c18.28-.55 38.96-2.63 57.24-3.45a435 435 0 0 1 28.58-.17c28.09.72 49.12 1.25 70.73.81q9.42-.19 16.97-.76c23.29-1.75 47.98-3.67 70.86-.36q15.16 2.2 19.12 2.69c29.43 3.67 52.6-5 87.67-6.57q25.15-1.13 29.06-1.34c24.24-1.32 47.39-6.31 72.3-15.61 24.36-9.09 44.73-16.49 65.97-29.5 15.73-9.63 31.74-19.41 49.68-25.29 7.43-2.44 13.62-.22 19.42 4.81q-1.48 6.68-2.86 13.49c-.75 3.7-4.31 10.27-5.92 15.95-1.73 6.11-5.33 11.94-7.13 16.65-1.83 4.83-4.76 8.64-7.38 13.7q-2.02 3.88-4.2 7.04c-1.92 2.8-3.7 6.32-6.07 9.07-2.8 3.24-4.72 6.7-7.67 10.25q-12.86 15.46-26.21 27.29c-2.42 2.14-6.05 4.55-8.73 7.35a7.23 7.05 3.7 0 1-1.05.9q-9.91 7.09-15.97 11.25-3.68 2.53-20.36 11.41-5.14 2.73-8.1 3.7c-3.84 1.26-6.62 2.99-10.96 4.57q-16.84 6.13-24.98 7.92c-7.5 1.65-14.48 3.49-21.82 4.52q-20.34 2.84-46.73 2.86-131.26.07-159.26-.11-4.65-.04-7.75 2.93-.88.84-11.23 10.12c-9.17 8.23-15.71 14.31-23.53 20.87q-5.36 4.5-10.12 9.37c-1.97 2.02-5.07 3.81-6.97 5.9q-2.5 2.73-5.51 5.04a8.88 8.79-88.2 0 0-1.33 1.26q-2.53 2.98-5.82 5.3-9.97-15.58-25.61-25.63l37-33.43a1.03 1.03 0 0 0-.83-1.78q-4.33.58-15.13.21-4.88-.16-15.31-.14-84.96.17-137.85-.37-9.61-.09-15.27.25-.85.06-1.33.24a.8.8 0 0 0-.25 1.35l47.3 43.17a2.51 1.59 5.9 0 0 .24.19q3.33 2.16 6.11 5.1-9.63-.2-19.07-.37c-10.66-.19-14.81 6.75-17.99 15.64-4.03-2.93-7.99-6.68-11.3-9.58q-11.58-10.14-25.05-22.34-3.72-3.37-14.15-12.15c-5.95-5-11.75-10.92-16.71-15.02-1.46-1.2-2.52-2.82-3.8-4.03a4.18 4.14 76.5 0 0-1.39-.86q-3.56-1.32-7.34-1.32-110.25-.01-166.75.11c-7.32.02-19.16.37-27.63-.83-10.76-1.52-18.47-1.77-27.83-4.23-4.69-1.23-9.15-1.57-13.9-3.13-8.15-2.68-16.06-4.56-23.26-7.79q-11.16-5.02-11.99-5.49c-6.71-3.8-12.46-6.06-18.44-9.65q-28.4-17.04-50.95-41.97-2.48-2.74-11.7-14.15c-2.96-3.66-4.34-6.59-7.03-9.77-2.68-3.16-5.03-8.08-6.86-10.96q-1.78-2.78-3.84-7.02-6.63-13.59-12.95-28.42-1.81-4.25-2.89-8.81c-1.81-7.61-5.17-18.57-6.19-24.18q-1.32-7.28-1.95-19.18-1.29-24.31 1.3-48.57"/><path fill="#4b3c2b" d="M972.87 805.97q15.64 10.05 25.61 25.63l-80.57 71.75a1.45 1.44-44.8 0 1-1.91 0q-8.1-7.13-11.03-9.58-3.5-2.92-5.61-5.08c-2.18-2.23-5.03-4.02-7.79-6.57q-12.28-11.37-13.33-12.18c-6.83-5.28-11.58-10.13-17.56-15.35q-10.33-9.03-20.19-18.56c3.18-8.89 7.33-15.83 17.99-15.64q9.44.17 19.07.37 11.1 10.24 22.26 20.68c2.8 2.62 4.85 5.22 7.51 7.25q2.56 1.95 8.08 6.76a2.56 2.53 74.7 0 0 .83.48q1.66.54 4.02-1.44 2.88-2.41 12.56-11.93 6.32-6.21 12.59-11.89 13.75-12.45 27.47-24.7"/><path fill="#65523e" d="M833.43 604.63c-11.62 2.43-30.74-.62-33.44-15.19q-1.81-9.73-.79-19.45c1.65-15.62 3.06-28.32 6.83-42.97 1.91-7.42 5-13.36 12.86-15.11 9.78-2.17 20.23-.14 24.21 10.24q2.06 5.37 3.03 12.17 2.6 18.26 4.19 34.08 1.23 12.15-1.54 22.82c-1.97 7.6-7.5 11.77-15.35 13.41"/><path fill="#4b3c2b" d="M1168.26 591.6c.38 9.97-8.8 14.31-17.19 15.1q-12.89 1.21-24.31.86c-7.58-.23-17.22-5.26-17.55-13.7-.32-8.44 8.91-14.2 16.45-15.01q11.36-1.22 24.3-1c8.43.14 17.92 3.77 18.3 13.75"/></svg>